<svg viewBox="0 0 1513 400" xmlns="http://www.w3.org/2000/svg"><g><g><g><g><g><line x1="68.3125" y1="377" x2="63.3125" y2="377" style="visibility: inherit;" fill="rgb(0, 0, 0)" stroke="rgb(204, 204, 204)" stroke-width="1px"></line><line x1="68.3125" y1="335.1111111111111" x2="63.3125" y2="335.1111111111111" style="visibility: inherit;" fill="rgb(0, 0, 0)" stroke="rgb(204, 204, 204)" stroke-width="1px"></line><line x1="68.3125" y1="293.22222222222223" x2="63.3125" y2="293.22222222222223" style="visibility: inherit;" fill="rgb(0, 0, 0)" stroke="rgb(204, 204, 204)" stroke-width="1px"></line><line x1="68.3125" y1="251.33333333333334" x2="63.3125" y2="251.33333333333334" style="visibility: inherit;" fill="rgb(0, 0, 0)" stroke="rgb(204, 204, 204)" stroke-width="1px"></line><line x1="68.3125" y1="209.44444444444446" x2="63.3125" y2="209.44444444444446" style="visibility: inherit;" fill="rgb(0, 0, 0)" stroke="rgb(204, 204, 204)" stroke-width="1px"></line><line x1="68.3125" y1="167.55555555555554" x2="63.3125" y2="167.55555555555554" style="visibility: inherit;" fill="rgb(0, 0, 0)" stroke="rgb(204, 204, 204)" stroke-width="1px"></line><line x1="68.3125" y1="125.66666666666669" x2="63.3125" y2="125.66666666666669" style="visibility: inherit;" fill="rgb(0, 0, 0)" stroke="rgb(204, 204, 204)" stroke-width="1px"></line><line x1="68.3125" y1="83.77777777777777" x2="63.3125" y2="83.77777777777777" style="visibility: inherit;" fill="rgb(0, 0, 0)" stroke="rgb(204, 204, 204)" stroke-width="1px"></line><line x1="68.3125" y1="41.888888888888914" x2="63.3125" y2="41.888888888888914" style="visibility: inherit;" fill="rgb(0, 0, 0)" stroke="rgb(204, 204, 204)" stroke-width="1px"></line><line x1="68.3125" y1="0" x2="63.3125" y2="0" style="visibility: inherit;" fill="rgb(0, 0, 0)" stroke="rgb(204, 204, 204)" stroke-width="1px"></line></g><g transform="translate(58.3125, 0)"><text x="0" y="377" dx="0em" dy="0.3em" style="text-anchor: end; visibility: hidden; font-family: &quot;Helvetica Neue&quot;, sans-serif; font-size: 12px; font-weight: 200;" fill="rgb(50, 49, 63)" stroke="none" stroke-width="1px">-500</text><text x="0" y="335.1111111111111" dx="0em" dy="0.3em" style="text-anchor: end; visibility: inherit; font-family: &quot;Helvetica Neue&quot;, sans-serif; font-size: 12px; font-weight: 200;" fill="rgb(50, 49, 63)" stroke="none" stroke-width="1px">0</text><text x="0" y="293.22222222222223" dx="0em" dy="0.3em" style="text-anchor: end; visibility: inherit; font-family: &quot;Helvetica Neue&quot;, sans-serif; font-size: 12px; font-weight: 200;" fill="rgb(50, 49, 63)" stroke="none" stroke-width="1px">500</text><text x="0" y="251.33333333333334" dx="0em" dy="0.3em" style="text-anchor: end; visibility: inherit; font-family: &quot;Helvetica Neue&quot;, sans-serif; font-size: 12px; font-weight: 200;" fill="rgb(50, 49, 63)" stroke="none" stroke-width="1px">1e+3</text><text x="0" y="209.44444444444446" dx="0em" dy="0.3em" style="text-anchor: end; visibility: inherit; font-family: &quot;Helvetica Neue&quot;, sans-serif; font-size: 12px; font-weight: 200;" fill="rgb(50, 49, 63)" stroke="none" stroke-width="1px">1.5e+3</text><text x="0" y="167.55555555555554" dx="0em" dy="0.3em" style="text-anchor: end; visibility: inherit; font-family: &quot;Helvetica Neue&quot;, sans-serif; font-size: 12px; font-weight: 200;" fill="rgb(50, 49, 63)" stroke="none" stroke-width="1px">2e+3</text><text x="0" y="125.66666666666669" dx="0em" dy="0.3em" style="text-anchor: end; visibility: inherit; font-family: &quot;Helvetica Neue&quot;, sans-serif; font-size: 12px; font-weight: 200;" fill="rgb(50, 49, 63)" stroke="none" stroke-width="1px">2.5e+3</text><text x="0" y="83.77777777777777" dx="0em" dy="0.3em" style="text-anchor: end; visibility: inherit; font-family: &quot;Helvetica Neue&quot;, sans-serif; font-size: 12px; font-weight: 200;" fill="rgb(50, 49, 63)" stroke="none" stroke-width="1px">3e+3</text><text x="0" y="41.888888888888914" dx="0em" dy="0.3em" style="text-anchor: end; visibility: inherit; font-family: &quot;Helvetica Neue&quot;, sans-serif; font-size: 12px; font-weight: 200;" fill="rgb(50, 49, 63)" stroke="none" stroke-width="1px">3.5e+3</text><text x="0" y="0" dx="0em" dy="0.3em" style="text-anchor: end; visibility: hidden; font-family: &quot;Helvetica Neue&quot;, sans-serif; font-size: 12px; font-weight: 200;" fill="rgb(50, 49, 63)" stroke="none" stroke-width="1px">4e+3</text></g><line x1="68.3125" y1="0" x2="68.3125" y2="377" fill="rgb(0, 0, 0)" stroke="rgb(204, 204, 204)" stroke-width="1px"></line></g></g><g transform="translate(68, 0)" clip-path="url(#clip_0)"><clipPath id="clip_0"><rect width="1444" height="377"></rect></clipPath><g><g><g><line x1="0" y1="0" x2="0" y2="377" fill="rgb(0, 0, 0)" stroke="rgb(60, 60, 60)" stroke-width="1px" opacity="0.25"></line><line x1="131.33522727272728" y1="0" x2="131.33522727272728" y2="377" fill="rgb(0, 0, 0)" stroke="rgb(60, 60, 60)" stroke-width="1px" opacity="0.25"></line><line x1="262.67045454545456" y1="0" x2="262.67045454545456" y2="377" fill="rgb(0, 0, 0)" stroke="rgb(60, 60, 60)" stroke-width="1px" opacity="0.25"></line><line x1="394.00568181818187" y1="0" x2="394.00568181818187" y2="377" fill="rgb(0, 0, 0)" stroke="rgb(60, 60, 60)" stroke-width="1px" opacity="0.25"></line><line x1="525.3409090909091" y1="0" x2="525.3409090909091" y2="377" fill="rgb(0, 0, 0)" stroke="rgb(60, 60, 60)" stroke-width="1px" opacity="0.25"></line><line x1="656.6761363636364" y1="0" x2="656.6761363636364" y2="377" fill="rgb(0, 0, 0)" stroke="rgb(60, 60, 60)" stroke-width="1px" opacity="0.25"></line><line x1="788.0113636363636" y1="0" x2="788.0113636363636" y2="377" fill="rgb(0, 0, 0)" stroke="rgb(60, 60, 60)" stroke-width="1px" opacity="0.25"></line><line x1="919.3465909090908" y1="0" x2="919.3465909090908" y2="377" fill="rgb(0, 0, 0)" stroke="rgb(60, 60, 60)" stroke-width="1px" opacity="0.25"></line><line x1="1050.681818181818" y1="0" x2="1050.681818181818" y2="377" fill="rgb(0, 0, 0)" stroke="rgb(60, 60, 60)" stroke-width="1px" opacity="0.25"></line><line x1="1182.0170454545453" y1="0" x2="1182.0170454545453" y2="377" fill="rgb(0, 0, 0)" stroke="rgb(60, 60, 60)" stroke-width="1px" opacity="0.25"></line><line x1="1313.3522727272727" y1="0" x2="1313.3522727272727" y2="377" fill="rgb(0, 0, 0)" stroke="rgb(60, 60, 60)" stroke-width="1px" opacity="0.25"></line><line x1="1444.6875" y1="0" x2="1444.6875" y2="377" fill="rgb(0, 0, 0)" stroke="rgb(60, 60, 60)" stroke-width="1px" opacity="0.25"></line></g><g><line x1="0" y1="377" x2="1444.6875" y2="377" fill="rgb(0, 0, 0)" stroke="rgb(60, 60, 60)" stroke-width="1px" opacity="0.25"></line><line x1="0" y1="335.1111111111111" x2="1444.6875" y2="335.1111111111111" fill="rgb(0, 0, 0)" stroke="rgb(60, 60, 60)" stroke-width="1px" opacity="0.25"></line><line x1="0" y1="293.22222222222223" x2="1444.6875" y2="293.22222222222223" fill="rgb(0, 0, 0)" stroke="rgb(60, 60, 60)" stroke-width="1px" opacity="0.25"></line><line x1="0" y1="251.33333333333334" x2="1444.6875" y2="251.33333333333334" fill="rgb(0, 0, 0)" stroke="rgb(60, 60, 60)" stroke-width="1px" opacity="0.25"></line><line x1="0" y1="209.44444444444446" x2="1444.6875" y2="209.44444444444446" fill="rgb(0, 0, 0)" stroke="rgb(60, 60, 60)" stroke-width="1px" opacity="0.25"></line><line x1="0" y1="167.55555555555554" x2="1444.6875" y2="167.55555555555554" fill="rgb(0, 0, 0)" stroke="rgb(60, 60, 60)" stroke-width="1px" opacity="0.25"></line><line x1="0" y1="125.66666666666669" x2="1444.6875" y2="125.66666666666669" fill="rgb(0, 0, 0)" stroke="rgb(60, 60, 60)" stroke-width="1px" opacity="0.25"></line><line x1="0" y1="83.77777777777777" x2="1444.6875" y2="83.77777777777777" fill="rgb(0, 0, 0)" stroke="rgb(60, 60, 60)" stroke-width="1px" opacity="0.25"></line><line x1="0" y1="41.888888888888914" x2="1444.6875" y2="41.888888888888914" fill="rgb(0, 0, 0)" stroke="rgb(60, 60, 60)" stroke-width="1px" opacity="0.25"></line><line x1="0" y1="0" x2="1444.6875" y2="0" fill="rgb(0, 0, 0)" stroke="rgb(60, 60, 60)" stroke-width="1px" opacity="0.25"></line></g></g></g><g><g><line x1="0" y1="335.1111111111111" x2="1444.6875" y2="335.1111111111111" fill="rgb(0, 0, 0)" stroke="rgb(153, 153, 153)" stroke-width="1.5px"></line></g></g><g><g><line x1="131.33522727272728" y1="0" x2="131.33522727272728" y2="377" fill="rgb(0, 0, 0)" stroke="rgb(153, 153, 153)" stroke-width="1.5px"></line></g></g><g><g><g><g><g><path stroke="rgb(255, 112, 67)" stroke-width="2px" d="M131.33522727272728,308.8048888888889L131.59406711647728,308.8048888888889L131.85473106060604,308.8048888888889L131.99646366003788,308.8048888888889L132.24344685132576,308.8048888888889L132.48860594223484,308.8048888888889L132.61246235795454,308.8048888888889L132.73267057291667,308.8048888888889L132.9085138494318,308.8048888888889L133.05553633996212,308.8048888888889L133.2027412405303,308.8048888888889L133.33626538825757,308.8048888888889L133.47745075757575,308.8048888888889L133.59711174242423,308.8048888888889L133.69597798295453,308.8048888888889L133.80998425662878,308.8048888888889L134.07174266098482,308.8048888888889L134.36742933238637,308.8048888888889L134.47742258522726,308.8048888888889L135.15835925662878,308.8048888888889L135.31833285984848,308.8048888888889L135.41902320075755,308.8048888888889L135.57662547348485,308.8048888888889L135.71033203124998,308.8048888888889L135.93579083806816,308.8048888888889L136.35496910511364,308.8048888888889L136.50199159564391,308.8048888888889L136.73365234375,308.8048888888889L136.84474005681818,308.8048888888889L137.00215991950756,308.8048888888889L137.15447230113637,308.8048888888889L137.3664327651515,308.8048888888889L137.64916832386365,308.8048888888889L137.78378693181816,308.8048888888889L138.1343790246212,308.8048888888889L138.28614417613636,308.8048888888889L138.40233937026514,308.8048888888889L138.51324467329545,308.8048888888889L138.6934657907197,308.8048888888889L139.06850082859847,308.8048888888889L139.18287192234848,308.8048888888889L139.29596614583335,308.8048888888889L139.46177687026514,308.8048888888889L139.60478633996212,308.77137777777193L139.71879261363637,308.75127111110555L139.81930054450757,308.739207111107L139.95939145359847,308.7319687111084L140.07376254734848,308.76113678222123L140.1965245028409,308.7786376248885L140.43858262310607,308.78913813048877L140.57010026041667,308.79543843384886L140.7202237215909,308.7992186158649L140.8741777935606,308.8014867250745L141.1813562973485,308.80284759060027L141.42925153882575,308.8036641099157L141.53231321022727,308.804154021505L141.8088468276515,308.80444796845853L141.9328856534091,308.8046243366307L142.20194045928028,308.804730157534L142.30409008049241,308.8047936500759L142.38854592803028,308.8048317456011L142.5047411221591,308.80485460291624L142.63042163825756,308.8048683173053L142.74497514204543,308.8048765459387L143.01348271780302,308.8048814831188L143.18202959280305,308.80488444542686L143.30771010890152,308.80488622281166L143.41752095170455,308.8048872892426L144.03224277935604,308.8048879291011L144.17069199810607,308.8048883130162L144.40344720643938,308.8048885433653L144.65590269886363,308.8048886815747L144.7792118844697,308.8048887645004L144.86968726325756,308.8048888142558L145.22429237689394,308.80488884410903L145.3251651278409,308.80488886202096L145.7319395123106,308.8048888727682L146.20182776988634,308.80488887921643L147.13339583333334,304.78355554975207L147.9746709280303,302.3707555520735L148.09925698390148,304.94440888679964L148.52919744318183,306.48860088763536L148.677861624053,307.41511608813676L148.8019004498106,307.9710252084376L148.92283830492423,308.3045706806181L149.17310487689392,308.50469796392645L149.30881794507576,308.62477433391143L149.6780158617424,308.6968201559024L150.1305751657197,308.740047649097L150.25370194128786,308.76598414501376L150.57912144886362,308.78154604256383L150.92843667140153,308.7908831810938L151.05046898674243,308.79648546421186L151.1984035274621,308.7998468340827L151.33539346590908,308.80186365600514L151.4565137310606,308.80307374915867L151.58292388731059,308.80379980505074L151.82151621685605,308.80423543858603L151.92403065814395,308.80449681870715L152.03730729166665,308.80465364677985L152.1418282433712,308.80474774362347L152.4041338778409,308.80480420172967L152.53437464488636,308.80483807659334L152.6578662405303,308.8048584015116L152.89226313920454,308.8048705964625L153.05770904356058,308.8048779134331L153.18229509943183,308.8048823036154L153.45207954545452,308.8048849377248L153.57684801136364,308.8048865181904L153.7618117897727,308.80488746646984L153.85775946969696,308.80488803543744L154.10747881155302,308.804888376818L154.25085310132576,308.80488858164637L154.4042599431818,308.8048887045434L154.70085866477274,308.80488877828157L154.8385782433712,308.8048888225245L155.20978267045453,308.80488884907027L155.32816678503787,308.8048888649977L155.42648579545454,308.8048888745542L155.57168418560605,308.80488888028805L155.79002900094696,308.8048888837284L155.91643915719698,308.8048888857926L156.1508360558712,308.8048888870311L156.43867909564395,308.8048888877742L156.60959730113638,308.8048888882201L156.7354602272727,308.8048888884876L156.85220265151514,308.8048888886481L157.13366133996212,308.8048888887444L157.2635372869318,308.8048888888022L157.6765136126894,308.8048888888369L158.26241465435606,308.8048888888577L158.75255042613634,308.80488888887015L159.06757256155302,308.80488888887766L159.21149408143938,308.80488888888215L159.34410617897728,308.8048888888849L159.47252284564394,308.80488888888647L159.57886789772726,308.80488888888743L159.93493229166666,308.804888888888L160.0868798532197,308.8048888888884L160.24922478693182,308.80488888888857L160.47997348484847,308.8048888888887L160.89039607007575,308.8048888888888L161.04526219223484,308.80488888888885L161.19921626420455,308.80488888888885L161.30027142518938,308.80488888888885L161.40734611742425,308.80488888888885L161.52591264204545,308.80488888888885L161.74936493844697,308.8048888888889L161.8635536221591,308.8048888888889L162.00236766098485,308.8048888888889L162.28692732007576,308.8048888888889L162.39108345170456,308.8048888888889L162.56090719696968,308.8048888888889L162.67819685132574,308.8048888888889L162.84072419507575,308.8048888888889L162.95400082859848,308.8048888888889L163.35147230113637,308.8048888888889L163.48371957859848,308.8048888888889L163.77739973958333,308.8048888888889L164.35746366003787,308.8048888888889L164.46964583333332,308.8048888888889L164.73870063920455,308.8048888888889L164.85708475378786,308.8048888888889L164.9997294034091,308.8048888888889L165.15295383522727,308.8048888888889L165.29468643465907,308.8048888888889L165.4460867660985,308.8048888888889L165.9272844460227,308.8048888888889L166.3796613399621,308.8048888888889L166.53197372159093,308.8048888888889L166.68009067234848,308.8048888888889L166.80777769886362,308.8048888888889L167.02739938446967,308.8048888888889L167.2975486505682,308.8048888888889L167.57535913825757,308.8048888888889L167.78002320075757,308.8048888888889L168.04251124526513,308.8048888888889L168.15122762784088,308.8048888888889L168.26614595170454,308.8048888888889L168.40423035037878,308.8048888888889L168.49324644886363,308.8048888888889L168.79239891098484,308.8048888888889L168.90859410511362,308.8048888888889L169.1426261837121,308.8048888888889L169.36954427083333,308.8048888888889L169.5993809185606,308.8048888888889L170.17670868844692,308.8048888888889L170.39505350378786,308.8048888888889L170.53550923295452,308.8048888888889L170.81569105113635,308.8048888888889L170.90087653882574,308.8048888888889L171.05172964015148,308.8048888888889L171.19929936079546,308.8048888888889L171.3045499526515,308.8048888888889L171.44427604166665,308.8048888888889L171.57743536931818,308.8048888888889L171.73138944128786,308.8048888888889L171.85396898674242,308.8048888888889L171.9933302556818,308.8048888888889L174.29680421401514,304.78355555555555L175.05854853219697,302.37075555555555L176.4454120501894,300.92307555555556L177.4400939867424,304.07580088888886L178.02818394886364,305.9674360888889L178.12960392992423,307.1024172088889L178.26440494791666,307.7834058808889L178.46195501893942,308.19199908408893L178.65640411931815,308.4371550060089L178.78792175662878,308.58424855916087L178.92637097537877,308.6725046910521L179.0520514914773,308.7254583701868L179.17900887784091,308.75723057766766L179.27167317708333,308.7762939021561L179.67297526041665,308.7877318968492L180.3216253551136,304.77326136033173L181.70210452178026,302.3645790384213L183.09954782196968,300.91936964527497L184.63762926136363,300.0522440093872L185.52742542613638,299.53196862785455L186.92322703598484,299.2198033989349L187.7123328598485,299.0325042615832L188.4653214962121,298.9201247791721L189.1464405776515,298.8526970897255L189.94795028409092,298.8122404760575L190.75529711174244,298.7879665078567L191.53053977272725,298.7734021269363L192.22132658617426,298.764663498384L192.88274538352275,298.7594203212526L194.41115909090905,289.1050744149738L196.11614571496213,292.9636668712065L197.11392862215908,285.6276223449461L198.58780172821966,290.8771956291899L199.9987433712121,294.0269395997361L200.65213612689394,295.9167859820639L201.5028965435606,287.39949381146056L202.30021081912875,282.28911850909856L203.07928409090908,283.5123155499036L203.98276100852271,284.2462337743866L204.73064216382573,290.0483624868542L205.67279000946968,293.52963971433473L206.44329000946968,295.61840605082307L207.2378681344697,296.8716658527161L207.98702616003783,297.62362173385185L209.08349289772727,288.42359526253335L209.99736718749998,282.9035793797422L211.43658238636365,289.2427698500676L213.02136079545454,293.04628413226277L213.78638849431815,295.3283927015799L214.0534367897727,288.45392450983684L214.9094870975379,287.21119915034654L216.0827484611742,282.17614171243014L217.6688037405303,279.1551072496803L218.4763329782197,286.9936865720304L220.1098148674242,286.3350563876627L220.87393051609848,285.93987827704206L221.8222803030303,281.41334918844746L222.68453255208334,278.6974317352907L223.71697336647725,277.06788126339666L225.49127580492424,276.0901509802602L226.43032267992422,275.5035128103783L227.31519377367425,279.44095213067146L228.04282741477272,287.1651935006251L232.62624443655304,282.1485383225973L233.44070525568182,288.7897452157806L235.02621330492423,292.7744693516906L235.74162547348487,295.1653038332366L236.4143536931818,296.59980452216416L238.16494282670453,292.0987271577429L238.98925378787877,289.39808073909023L240.52806486742423,287.7776928878986L242.04243300189393,286.8054601771836L246.15687381628788,286.2221205507546L247.0112824337121,285.8721167748972L249.3264306344697,291.02389228716055L250.1817513020833,294.11495759451856L250.9447724905303,290.6078190011556L251.70852331912877,288.5035358451378L252.5262675189394,287.24096595152713L253.39125591856063,286.4834240153607L254.77757220643937,291.3906766314386L256.2142336647727,294.3350282010854L257.6195205965909,296.10163914287347L258.7333162878788,287.5104057079463L261.1756042850378,282.35566564699L262.0770746922348,279.2628216104162L264.1521712831439,277.40711518847195L265.03193489583333,280.5831135575276L265.9427082149621,278.1992903567388L266.6557490530303,286.4201964362655L268.3403057528409,281.7015400839815L269.22298792613634,278.87034627261113L271.373967092803,241.3482522080111L272.01076053503783,218.83499576925112L273.47022324810604,241.1504196837729L275.984928030303,254.53967403248595L276.5569659090909,226.74984886393602L278.07042199337116,204.5466204294727L278.9518272964015,191.22468336879473L279.7816105587121,183.231521132388L280.5829378551136,178.4356237905439L281.288135061553,175.55808538543744L282.6153504971591,179.1263178979291L283.3756355350378,175.97250184986856L284.03906084280305,174.08021222103227L284.6793200757575,172.9448384437305L285.3735726799242,172.2636141773494L286.00562346117425,171.85487961752074L286.6805406013258,171.60963888162354L288.0498927556818,171.46249444008524L289.4028280066288,171.37420777516226L290.055673532197,171.32123577620845L292.79328338068177,156.34349702128063L294.0582969933712,147.35685376832393L298.89745288825753,141.96486781654988L303.289521780303,138.7296762454855L304.5975841619318,136.78856130284683L307.40049680397726,135.62389233726364L309.1343042140151,134.92509095791374L312.31425840435605,134.5058101303038L313.80874384469695,134.25424163373785L315.15638920454546,134.10330053579827L319.41876455965905,134.01273587703452L320.9276603929924,133.9583970817763L323.8301689157197,133.92579380462132L329.84805847537876,133.90623183832835L334.11316998106054,133.89449465855256L335.64486706912874,133.88745235068706L337.04194554924237,133.8832269659678L338.4145810842803,133.88069173513622L339.85616761363633,133.8791705966373L341.2897281013258,134.9506134690935L342.70979024621204,134.52112363701164L345.5411588541666,134.26342973776255L346.93969661458334,134.10881339821307L348.4405664062499,134.0160435944834L349.8274299242424,133.9603817122456L351.1882088068182,133.92698458290295L352.66864867424243,133.90694630529734L354.16167483428023,133.89492333873395L358.4517765151515,133.8877095587959L359.81346744791665,133.8833812908331L361.3404218749999,133.8807843300554L370.27541276041654,116.72153726469992L373.3324225852273,123.5836779143755L374.74828929924246,127.70096230418088L376.09429296875,130.17133293806407L377.8213512073863,116.64057754061622L379.4116019176136,106.3774131910364L381.14467968749994,100.21951458128854L382.77834398674236,98.66948652655094L384.3943145123106,95.5947585825972L385.8687348484848,95.89463292733609L387.5228290719697,96.0745575341794L388.5649376183712,85.76055674272988L390.09481060606055,98.57295626786015L391.7005661695076,95.53684042738274L393.31671910511363,93.71517092309625L394.8737711884469,92.62216922052443L396.5316960227272,89.2854793100924L398.1084483901514,89.9643542527221L401.2041291429925,101.09523477385551L402.5660024857954,114.2078964198688L404.0836540009469,107.06251562969908L406.75851479640147,117.78826493337505L409.3403464725378,98.78878118224725L412.2862685842803,106.38989093157056L413.3748916903409,91.94975678116458L417.10006948390145,102.28647629092092L418.7351930634469,108.48850799677479L420.4615216619318,93.44350479806485L422.8330345643939,84.1819251010611L423.938986624053,78.62497728285888L425.0100983664773,75.29080859193755L427.442353811553,73.29030737738475L428.5953676609848,72.09000664865306L429.7310525568181,71.36982621141408L431.1585935132576,89.93851794907067L433.469363873106,82.07893299166466L434.5789641335226,77.36318201722099L435.741828125,74.53373143255482L436.9645226089015,72.83606108175513L438.26054592803024,71.81745887127528L439.5277484611742,71.20629754498736L441.34965991950753,81.26155630477024L442.65407410037875,76.87275600508434L444.38696946022725,84.66143138082839L447.6367866950757,104.34761438405263L449.17468572443175,99.00163529709823L450.37786233428034,87.51680340048114L453.63917140151506,80.62590426251086L454.7476772017045,76.49136477972871L455.9068929924242,74.01064109005944L458.2357219460227,72.52220687625788L459.36556972064386,71.62914634797693L460.412785748106,71.0933100310084L461.550477154356,70.77180824082723L463.8054300426136,70.57890716671852L466.0789887547348,70.46316652225335L467.24513612689395,70.3937221355742L468.4866188446969,70.35205550356676L470.74832090435604,70.32705552436227L473.44963115530294,76.9807666479507L475.8479583333334,97.39343776654817L476.9415065104167,86.55188488215111L478.18846152935606,80.04695315151292L481.57235014204537,76.14399411312996L485.959676373106,73.80221869010018L486.95125733901517,72.39715343628234L487.9103693181819,71.55411428399162L488.943904592803,71.04829079261725L489.94697739109847,70.74479669779254L491.974829782197,70.56270024089775L493.0393747632575,70.45344236676084L496.2116677320075,70.38788764227877L497.38274017518927,70.3485548075895L499.38651444128783,70.32495510677592L501.4827705965909,70.31079528628777L502.53144590435596,70.30229939399493L505.85842258522723,70.29720185861913L508.003199810606,70.29414333739373L509.10769258996214,70.29230822465848L510.22495407196965,70.29120715701731L512.2425915009469,70.29054651643258L513.4300808475377,70.2901501320818L514.5717852746212,70.2899123014713L515.6883171164773,70.28976960310501L516.6600153882575,70.28968398408523L517.7873094223485,70.28963261267342L518.7841802793561,70.28960178982624L520.3534538352272,70.5241610738957L521.3999402225378,70.43031886655967L525.6929604640151,70.37401354215802L526.8481632339016,70.34023034751709L529.4573564157197,70.55453820851022L531.4697039535985,70.44854514732839L532.5822227746212,70.38494931061928L533.6518752367424,70.34679180859376L534.602049124053,70.32389730737845L535.6729784564394,70.31016060664933L536.7590478219697,70.3019185862118L537.7836450047348,70.2969733739493L538.9098445785985,70.29400624659178L540.0832883522726,70.2922259701773L542.3300327888256,70.29115780432863L543.3464215198862,70.29051690481936L544.4308491950758,70.29013236511383L545.5364364346591,70.2899016412905L546.6124732481061,70.2897632069965L548.7012505918561,70.28968014642015L549.6570791903409,70.2896303100743L550.6566861979167,70.28960040826678L552.7908836410985,70.28958246718224L553.8769530066287,70.28957170253159L554.8679867424241,70.28956524374115L555.9347206439394,70.28956136846693L557.0523469460228,70.2895590433024L558.1796409801136,70.28955764820364L559.2905181107955,70.2895568111444L560.3858903882575,70.28955630890886L561.4413148674242,70.28955600756751L564.3950806107955,70.28955582676275L566.5374865056818,70.28955571827981L568.7400877130681,70.28955565319012L572.0278462357954,70.2895556141363L573.1049775094697,70.28955559070403L574.1790078125,70.28955557664466L575.2223932291666,70.28955556820898L576.276723248106,70.28955556314759L577.307704782197,70.28955556011078L578.3275593039773,70.28955555828873L579.405420217803,70.28955555719546L580.4694179687499,70.28955555653948L581.5148098958333,70.2895555561459L582.5031074810606,70.28955555590983L583.6533851799243,70.28955555576806L584.6347511837121,70.28955555568314L587.7151094933712,70.28955555563209L588.7885925662879,70.28955555560151L589.7827272727272,70.28955555558315L591.8313744081439,70.28955555557206L592.8811441761363,70.28955555556547L595.0445272253787,70.28955555556149L596.2261794507575,70.28955555555916L597.3863072916666,70.28955555555768L598.4670867660985,70.28955555555683L599.5292604166667,70.28955555555632L600.6408671875,70.28955555555598L603.8852121212121,70.28955555555586L604.9579655539771,70.2895555555557L605.9812858664773,70.28955555555564L610.1289253077651,70.28955555555558L611.13291015625,70.28955555555552L613.3170879498107,70.28955555555552L614.4303364109848,70.28955555555552L615.5676629971591,70.28955555555552L616.4631138731061,70.28955555555552L618.6748355823863,70.28955555555552L620.83639453125,70.28955555555552L621.8391025094696,70.28955555555552L622.8812110558712,70.28955555555552L625.1224831912879,70.28955555555552L626.2873536931817,70.28955555555552L627.2506611032197,70.28955555555552L628.2032063210227,70.28955555555552L629.3910604876893,70.28955555555552L630.3257295217802,70.28955555555552L631.3391996922348,70.28955555555552L632.415054095644,70.28955555555552L635.6086890388257,70.28955555555552L636.5070584753787,70.28955555555552L638.6118879024621,70.28955555555552L640.7716227509469,70.28955555555552L641.9009232954545,70.28955555555552L642.9472272727272,70.28955555555552L644.0165149147728,70.28955555555552L646.1977741477273,70.28955555555552L647.1995700757576,70.28955555555552L648.2520759943181,70.28955555555552L649.2702888257576,70.28955555555552L650.193466027462,70.28955555555552L651.2924865056817,70.28955555555552L652.462829308712,70.28955555555552L653.4819541903408,70.28955555555552L656.6982079782198,70.28955555555552L657.7144142992423,70.28955555555552L660.0877513020832,70.28955555555552L661.3644391571969,70.28955555555552L662.622338778409,70.28955555555552L663.9645118371212,70.28955555555552L666.2772887073863,70.28955555555552L668.6548211410984,70.28955555555552L669.7018547585226,70.28955555555552L670.7087581676135,70.28955555555552L671.7222283380682,70.28955555555552L672.8289100378787,70.28955555555552L673.7995138494317,70.28955555555552L674.8076941287877,70.28955555555552L675.8423238636364,70.28955555555552L677.9070230823863,70.28955555555552L679.0598545217803,70.28955555555552L680.0917481060605,70.28955555555552L682.2702711884469,70.28955555555552L684.2829835464015,70.28955555555552L685.2599717092802,70.28955555555552L686.4536629971591,70.28955555555552L687.6427940340909,70.28955555555552L688.7219318181817,70.28955555555552L689.7687830255682,70.28955555555552L691.8557362689393,70.28955555555552L692.8338188920455,70.28955555555552L693.8845007102271,70.28955555555552L696.1339812973484,70.28955555555552L697.2501483191288,70.28955555555552L699.4387039535984,70.28955555555552L702.6279610558711,70.28955555555552L704.6671228693182,70.28955555555552L705.8215959990529,70.28955555555552L706.9118607954545,70.28955555555552L710.151280658144,70.28955555555552L711.2528548768939,70.28955555555552L713.6117814867423,70.28955555555552L714.7142677556817,70.28955555555552L716.7769604640151,70.28955555555552L717.865036339962,70.28955555555552L718.9467278645833,70.28955555555552L721.0760002367424,70.28955555555552L722.0690404829545,70.28955555555552L725.2809164299243,70.28955555555552L726.2918328598483,70.28955555555552L728.4420823863636,70.28955555555552L729.422536339962,70.28955555555552L730.4965666429923,70.28955555555552L731.5788053977273,70.28955555555552L733.5391660748105,70.28955555555552L734.6305253314393,70.28955555555552L735.7339236505682,70.28955555555552L736.8539212831439,70.28955555555552L739.0151154119318,70.28955555555552L741.1912671638256,70.28955555555552L743.2351716382575,70.28955555555552L744.3081074810606,70.28955555555552L745.3710107717803,70.28955555555552L746.4775100615531,70.28955555555552L747.6881654829546,70.28955555555552L752.1646902225378,70.28955555555552L753.0767404119316,70.28955555555552L754.1708358191287,70.28955555555552L755.3296867897728,70.28955555555552L758.4932240767045,70.28955555555552L759.4838929924241,70.28955555555552L760.5911219223485,70.28955555555552L761.6149894649622,70.28955555555552L762.5710004734848,70.28955555555552L764.5382927320076,70.28955555555552L765.6234500473485,70.28955555555552L766.6573501420455,70.28955555555552L767.8193020833332,70.28955555555552L769.9969131155303,70.28955555555552L770.9954256628788,70.28955555555552L771.995579900568,70.28955555555552L773.1467696496212,70.28955555555552L774.2496207386363,70.28955555555552L775.3048628077652,70.28955555555552L776.3458768939394,70.28955555555552L778.5353445785985,70.28955555555552L779.5402414772727,70.28955555555552L780.4995358664771,70.28955555555552L782.6778765388256,70.28955555555552L783.8465776515151,70.28955555555552L786.0460778882576,70.28955555555552L787.1593263494318,70.28955555555552L791.193324337121,70.28955555555552L792.2978171164772,70.28955555555552L794.4261774384469,70.28955555555552L795.4370938683711,70.28955555555552L796.5362967566285,70.28955555555552L797.6424312263256,70.28955555555552L798.7190152698862,70.28955555555552L799.7421531723484,70.28955555555552L800.7532520123106,70.28955555555552L802.8454951467802,70.28955555555552L803.9892060842803,70.28955555555552L804.9829759706438,70.28955555555552L805.9185570549241,70.28955555555552L807.9456798058711,70.28955555555552L809.0364918323863,70.28955555555552L810.1107045454545,70.28955555555552L811.0767481060607,70.28955555555552L812.1405634469696,70.28955555555552L813.1839488636361,70.28955555555552L819.2722486979166,70.28955555555552L820.5232167376893,70.28955555555552L821.592139559659,70.28955555555552L822.6541308001893,70.28955555555552L823.7283435132575,70.28955555555552L827.9812335464015,70.28955555555552L831.0415267518939,70.28955555555552L832.1507621922348,70.28955555555552L834.167122750947,70.28955555555552L837.1323803267045,70.28955555555552L838.135270714962,70.28955555555552L840.234445430871,70.28955555555552L841.2645149147726,70.28955555555552L842.3611640624998,70.28955555555552L843.3868557054924,70.28955555555552L845.5515156249999,70.28955555555552L846.5981844223485,70.28955555555552L847.5977914299241,70.28955555555552L848.8068051609848,70.28955555555552L849.9153109611741,70.28955555555552L850.9191133996211,70.28955555555552L851.9271112689393,70.28955555555552L852.9699494554923,70.28955555555552L854.0578429214014,70.28955555555552L856.0355325520833,70.28955555555552L857.1042729640152,70.28955555555552L859.3688935842802,70.28955555555552L861.4436253551135,70.28955555555552L862.4899293323862,70.28955555555552L864.6693644649621,70.28955555555552L866.8958613873104,70.28955555555552L867.9164455492423,70.28955555555552L868.9182414772727,70.28955555555552L870.047906841856,70.28955555555552L873.3475220170454,70.28955555555552L874.4253829308711,70.28955555555552L875.525497869318,70.28955555555552L876.5812871685606,70.28955555555552L878.6443446969696,70.28955555555552L879.6596389678028,70.28955555555552L881.6944229403407,70.28955555555552L882.7808571259469,70.28955555555552L887.661055279356,70.28955555555552L888.6272812499998,70.28955555555552L890.5706777935604,70.28955555555552L891.5443825757575,70.28955555555552L893.5525346827651,70.28955555555552L894.5506824100378,70.28955555555552L895.5745499526513,70.28955555555552L896.7306647727271,70.28955555555552L898.8004714725378,70.28955555555552L899.8391142282196,70.28955555555552L900.763933120265,70.28955555555552L902.8072903645833,70.28955555555552L903.7280962357953,70.28955555555552L904.687208214962,70.28955555555552L905.7189193892045,70.28955555555552L907.7998531013255,70.28955555555552L908.9306129261363,70.28955555555552L911.048575875947,70.28955555555552L914.4094808238635,70.28955555555552L916.5892807765151,70.28955555555552L917.638138494318,70.28955555555552L918.7108919270833,70.28955555555552L919.6814957386362,70.28955555555552L921.704423058712,70.28955555555552L923.6848488399621,70.28955555555552L924.8028399621211,70.28955555555552L925.8451309185605,70.28955555555552L926.9363077651514,70.28955555555552L927.9713023200757,70.28955555555552L929.0309222301136,70.28955555555552L930.0221383759468,70.28955555555552L931.0801165956439,70.28955555555552L932.1058082386362,70.28955555555552L935.2523813920453,70.28955555555552L936.2005487689393,70.28955555555552L937.2643641098483,70.28955555555552L942.9500849905303,70.28955555555552L944.0799327651514,70.28955555555552L945.2887640861742,70.28955555555552L946.6396928267044,70.28955555555552L949.1155442708332,70.28955555555552L950.3002974668559,70.28955555555552L951.2386147017046,70.28955555555552L952.4270160984847,70.28955555555552L953.5019584517045,70.28955555555552L959.1594057765151,70.28955555555552L960.240002840909,70.28955555555552L961.3568995028407,70.28955555555552L962.4661349431817,70.28955555555552L963.6496112689392,70.28955555555552L964.6842410037877,70.28955555555552L966.7969140624998,70.28955555555552L967.8952049005679,70.28955555555552L969.013378432765,70.28955555555552L970.0978061079544,70.28955555555552L971.2562922585225,70.28955555555552L972.3049675662878,70.28955555555552L973.2409134706437,70.28955555555552L974.3350088778408,70.28955555555552L975.5246871448863,70.28955555555552L977.5335688920453,70.28955555555552L978.6304004498104,70.28955555555552L979.7078965435604,70.28955555555552L980.8424869791666,70.28955555555552L981.9371296164773,70.28955555555552L982.9797853929923,70.28955555555552L984.0963172348484,70.28955555555552L986.2739282670453,70.28955555555552L988.6366854876893,70.28955555555552L990.7269221117424,70.28955555555552L991.9217078598483,70.28955555555552L993.0603113162878,70.28955555555552L995.2426650094695,70.28955555555552L997.3754031723483,70.28955555555552L998.4871923532196,70.28955555555552L1000.7065752840907,70.28955555555552L1003.0837428977272,70.28955555555552L1004.209760061553,70.28955555555552L1005.2566112689392,70.28955555555552L1007.4276555397726,70.28955555555552L1010.6468278882575,70.28955555555552L1011.6978745265151,70.28955555555552L1014.8858547585226,70.28955555555552L1017.0056418087119,70.28955555555552L1020.1549511126892,70.28955555555552L1023.4974326467801,70.28955555555552L1024.6256387310605,70.28955555555552L1025.7757340198862,70.28955555555552L1026.9896728219696,70.28955555555552L1028.0270387073863,70.28955555555552L1029.24006545928,70.28955555555552L1030.2493401988634,70.28955555555552L1031.30476467803,70.28955555555552L1032.3649318181815,70.28955555555552L1033.4203562973485,70.28955555555552L1035.5219023437498,70.28955555555552L1036.6145384706438,70.28955555555552L1037.6557349668558,70.28955555555552L1040.9655651041664,70.28955555555552L1042.006579190341,70.28955555555552L1044.2292455018937,70.28955555555552L1045.442272253788,70.28955555555552L1046.5779571496212,70.28955555555552L1047.7016029829545,70.28955555555552L1049.7267192234847,70.28955555555552L1053.0394679214014,70.28955555555552L1054.1525339725379,70.28955555555552L1055.1793200757575,70.28955555555552L1056.2969463778409,70.28955555555552L1057.3496347064392,70.28955555555552L1058.4026878551135,70.28955555555552L1059.4294739583331,70.28955555555552L1060.3256544744318,70.28955555555552L1061.5151503314394,70.28955555555552L1062.725440932765,70.28955555555552L1063.8972430160984,70.28955555555552L1065.008302556818,70.28955555555552L1065.9389585700758,70.28955555555552L1066.9836208570075,70.28955555555552L1068.9821052320076,70.28955555555552L1070.0816729403407,70.28955555555552L1071.1989344223484,70.28955555555552L1072.3269580965907,70.28955555555552L1074.4837743844696,70.28955555555552L1075.6340520833332,70.28955555555552L1079.8019390388258,70.28955555555552L1082.8474570312499,70.28955555555552L1086.2003359374999,70.28955555555552L1087.3498839962122,70.28955555555552L1088.3073542850377,70.28955555555552L1089.4953908617424,70.28955555555552L1091.5522464488633,70.28955555555552L1092.588700284091,70.28955555555552L1093.5910434422346,70.28955555555552L1094.6583245738636,70.28955555555552L1095.7132018229165,70.28955555555552L1097.7563766571968,70.28955555555552L1098.758172585227,70.28955555555552L1099.8891148200757,70.28955555555552L1100.9109758522727,70.28955555555552L1101.9213450520833,70.28955555555552L1103.0121570785984,70.28955555555552L1104.0821743607953,70.28955555555552L1105.1319441287878,70.28955555555552L1106.2300525568182,70.28955555555552L1107.2240048532194,70.28955555555552L1108.2724977509467,70.28955555555552L1110.4141740056816,70.28955555555552L1111.5277872869317,70.28955555555552L1113.6076265388258,70.28955555555552L1114.7081062973484,70.28955555555552L1115.8529116950756,70.28955555555552L1118.0504054214014,70.28955555555552L1119.155445430871,70.28955555555552L1120.249723248106,70.28955555555552L1121.470046401515,70.28955555555552L1122.678512902462,70.28955555555552L1123.8661846590908,70.28955555555552L1128.063074810606,70.28955555555552L1130.2881124526514,70.28955555555552L1133.6626981534089,70.28955555555552L1134.5659926609846,70.28955555555552L1136.6821315104166,70.28955555555552L1137.7238752367423,70.28955555555552L1138.9000551609847,70.28955555555552L1140.877015151515,70.28955555555552L1141.8957752130682,70.28955555555552L1142.8160338541666,70.28955555555552L1143.9159663825756,70.28955555555552L1144.9712084517046,70.28955555555552L1146.0383071732954,70.28955555555552L1147.205366595644,70.28955555555552L1148.4769469696969,70.28955555555552L1149.6181041666664,70.28955555555552L1150.7043559422348,70.28955555555552L1152.8808725142044,70.28955555555552L1154.0368049242422,70.28955555555552L1155.0860274621211,70.28955555555552L1157.2550652225377,70.28955555555552L1158.4197533143938,70.28955555555552L1159.4779139441287,70.28955555555552L1160.651175307765,70.28955555555552L1161.7018571259468,70.28955555555552L1162.8431967329543,70.28955555555552L1165.0053029119317,70.28955555555552L1166.1300432054923,70.28955555555552L1167.1272788825756,70.28955555555552L1168.17686624053,70.28955555555552L1169.1917956912878,70.28955555555552L1170.2047186316286,70.28955555555552L1171.3290941051134,70.28955555555552L1173.632385653409,70.28955555555552L1174.6858036221588,70.28955555555552L1175.73484375,70.28955555555552L1176.809056463068,70.28955555555552L1177.7989957386362,70.28955555555552L1178.849859966856,70.28955555555552L1179.9067437263257,70.28955555555552L1180.8370349195075,70.28955555555552L1184.0832039535983,70.28955555555552L1185.19408108428,70.28955555555552L1187.4377245501894,70.28955555555552L1191.641181463068,70.28955555555552L1192.662860085227,70.28955555555552L1194.9006664299243,70.28955555555552L1196.006800899621,70.28955555555552L1197.10071389678,70.28955555555552L1199.3775559895832,70.28955555555552L1201.4803789062498,70.28955555555552L1202.6815490056817,70.28955555555552L1203.734419744318,70.28955555555552L1205.967665838068,70.28955555555552L1207.1495004734847,70.28955555555552L1208.1673484848484,70.28955555555552L1209.3933263494316,70.28955555555552L1211.3389118134469,70.28955555555552L1212.411665246212,70.28955555555552L1213.480223248106,70.28955555555552L1214.551517400568,70.28955555555552L1215.6262773437497,70.28955555555552L1217.8164746685604,70.28955555555552L1219.0515730350378,70.28955555555552L1220.1817856297346,70.28955555555552L1222.243201467803,70.28955555555552L1223.2774663825755,70.28955555555552L1226.3910233191286,70.28955555555552L1228.4803478929923,70.28955555555552L1229.5363196022727,70.28955555555552L1231.719402935606,70.28955555555552L1232.7357916666665,70.28955555555552L1233.7983301373106,70.28955555555552L1234.9281779119317,70.28955555555552L1235.8838241003787,70.28955555555552L1236.9894113399619,70.28955555555552L1238.188757339015,70.28955555555552L1241.5775710227272,70.28955555555552L1242.7119790482955,70.28955555555552L1243.8113643465906,70.28955555555552L1244.9029060132575,70.28955555555552L1245.9721936553028,70.28955555555552L1247.0184976325756,70.28955555555552L1248.1322933238635,70.28955555555552L1250.4060344460224,70.28955555555552L1251.466383996212,70.28955555555552L1252.6314369081438,70.28955555555552L1253.778978456439,70.28955555555552L1254.8615820312498,70.28955555555552L1256.1068953598483,70.28955555555552L1259.2366867897726,70.28955555555552L1261.446766808712,70.28955555555552L1262.4919763257576,70.28955555555552L1263.723791311553,70.28955555555552L1264.8379518229165,70.28955555555552L1265.8897281013258,70.28955555555552L1266.9362144886363,70.28955555555552L1267.8858411458332,70.28955555555552L1268.8905556344696,70.28955555555552L1269.97315920928,70.28955555555552L1270.9503297821968,70.28955555555552L1274.1817236032196,70.28955555555552L1275.1508681344694,70.28955555555552L1278.239434895833,70.28955555555552L1279.3417387547347,70.28955555555552L1281.5253693181817,70.28955555555552L1282.6253018465907,70.28955555555552L1283.6537296401514,70.28955555555552L1286.2492420691285,70.28955555555552L1287.237539654356,70.28955555555552L1288.2989836647725,70.28955555555552L1290.337598248106,70.28955555555552L1291.4590551609847,70.28955555555552L1292.4991571969697,70.28955555555552L1294.6034393939392,70.28955555555552L1295.7340168087119,70.28955555555552L1296.8408809185605,70.28955555555552L1298.990400804924,70.28955555555552L1300.0264898200758,70.28955555555552L1301.1800508996212,70.28955555555552L1303.4410233191288,70.28955555555552L1304.364565340909,70.28955555555552L1306.5284956202652,70.28955555555552L1307.732219460227,70.28955555555552L1308.8449206912878,70.28955555555552L1310.0690744554922,70.28955555555552L1311.0599257812498,70.28955555555552L1312.1140733901514,70.28955555555552L1314.078811908144,70.28955555555552L1315.0953830492424,70.28955555555552L1318.4199883996214,70.28955555555552L1320.6576123342802,70.28955555555552L1324.073969933712,70.28955555555552L1328.3852311789774,70.28955555555552L1333.8956560132574,70.28955555555552L1337.5274398674242,70.28955555555552L1338.7428379498108,70.28955555555552L1339.8159562026515,70.28955555555552L1340.9011135179924,70.28955555555552L1341.9403035037878,70.28955555555552L1343.0199885179923,70.28955555555552L1345.1538211410984,70.28955555555552L1346.463707623106,70.28955555555552L1348.616875710227,70.28955555555552L1349.6684695785984,70.28955555555552L1351.9982105823863,70.28955555555552L1353.0251790956438,70.28955555555552L1354.2164990530302,70.28955555555552L1355.1812657433711,70.28955555555552L1357.3171048768938,70.28955555555552L1358.6426786221589,70.28955555555552L1359.8890864109846,70.28955555555552L1361.119442116477,70.28955555555552L1362.3164167850375,70.28955555555552L1363.3191247632574,70.28955555555552L1364.314536339962,70.28955555555552L1365.4266903409089,70.28955555555552L1366.464968276515,70.28955555555552L1367.5944512310607,70.28955555555552L1368.5564817708334,70.28955555555552L1370.7592653882575,70.28955555555552L1371.983419152462,70.28955555555552L1374.2516879734846,70.28955555555552L1377.6377655066287,70.28955555555552L1379.9074936079546,70.28955555555552L1384.3805525568182,70.28955555555552L1385.5248107244317,70.28955555555552L1386.6497334280302,70.28955555555552L1387.772649621212,70.28955555555552L1389.5941962594695,70.28955555555552" style="fill: none;" fill="none"></path></g></g></g></g><g opacity="0.2"><g><g><g><path stroke="rgb(255, 112, 67)" stroke-width="2px" d="M131.33522727272728,308.8048888888889L131.59406711647728,308.8048888888889L131.85473106060604,308.8048888888889L131.99646366003788,308.8048888888889L132.24344685132576,308.8048888888889L132.48860594223484,308.8048888888889L132.61246235795454,308.8048888888889L132.73267057291667,308.8048888888889L132.9085138494318,308.8048888888889L133.05553633996212,308.8048888888889L133.2027412405303,308.8048888888889L133.33626538825757,308.8048888888889L133.47745075757575,308.8048888888889L133.59711174242423,308.8048888888889L133.69597798295453,308.8048888888889L133.80998425662878,308.8048888888889L134.07174266098482,308.8048888888889L134.36742933238637,308.8048888888889L134.47742258522726,308.8048888888889L135.15835925662878,308.8048888888889L135.31833285984848,308.8048888888889L135.41902320075755,308.8048888888889L135.57662547348485,308.8048888888889L135.71033203124998,308.8048888888889L135.93579083806816,308.8048888888889L136.35496910511364,308.8048888888889L136.50199159564391,308.8048888888889L136.73365234375,308.8048888888889L136.84474005681818,308.8048888888889L137.00215991950756,308.8048888888889L137.15447230113637,308.8048888888889L137.3664327651515,308.8048888888889L137.64916832386365,308.8048888888889L137.78378693181816,308.8048888888889L138.1343790246212,308.8048888888889L138.28614417613636,308.8048888888889L138.40233937026514,308.8048888888889L138.51324467329545,308.8048888888889L138.6934657907197,308.8048888888889L139.06850082859847,308.8048888888889L139.18287192234848,308.8048888888889L139.29596614583335,308.8048888888889L139.46177687026514,308.8048888888889L139.60478633996212,308.7211111111111L139.71879261363637,308.7211111111111L139.81930054450757,308.7211111111111L139.95939145359847,308.7211111111111L140.07376254734848,308.8048888888889L140.1965245028409,308.8048888888889L140.43858262310607,308.8048888888889L140.57010026041667,308.8048888888889L140.7202237215909,308.8048888888889L140.8741777935606,308.8048888888889L141.1813562973485,308.8048888888889L141.42925153882575,308.8048888888889L141.53231321022727,308.8048888888889L141.8088468276515,308.8048888888889L141.9328856534091,308.8048888888889L142.20194045928028,308.8048888888889L142.30409008049241,308.8048888888889L142.38854592803028,308.8048888888889L142.5047411221591,308.8048888888889L142.63042163825756,308.8048888888889L142.74497514204543,308.8048888888889L143.01348271780302,308.8048888888889L143.18202959280305,308.8048888888889L143.30771010890152,308.8048888888889L143.41752095170455,308.8048888888889L144.03224277935604,308.8048888888889L144.17069199810607,308.8048888888889L144.40344720643938,308.8048888888889L144.65590269886363,308.8048888888889L144.7792118844697,308.8048888888889L144.86968726325756,308.8048888888889L145.22429237689394,308.8048888888889L145.3251651278409,308.8048888888889L145.7319395123106,308.8048888888889L146.20182776988634,308.8048888888889L147.13339583333334,298.75155555555557L147.9746709280303,298.75155555555557L148.09925698390148,308.8048888888889L148.52919744318183,308.8048888888889L148.677861624053,308.8048888888889L148.8019004498106,308.8048888888889L148.92283830492423,308.8048888888889L149.17310487689392,308.8048888888889L149.30881794507576,308.8048888888889L149.6780158617424,308.8048888888889L150.1305751657197,308.8048888888889L150.25370194128786,308.8048888888889L150.57912144886362,308.8048888888889L150.92843667140153,308.8048888888889L151.05046898674243,308.8048888888889L151.1984035274621,308.8048888888889L151.33539346590908,308.8048888888889L151.4565137310606,308.8048888888889L151.58292388731059,308.8048888888889L151.82151621685605,308.8048888888889L151.92403065814395,308.8048888888889L152.03730729166665,308.8048888888889L152.1418282433712,308.8048888888889L152.4041338778409,308.8048888888889L152.53437464488636,308.8048888888889L152.6578662405303,308.8048888888889L152.89226313920454,308.8048888888889L153.05770904356058,308.8048888888889L153.18229509943183,308.8048888888889L153.45207954545452,308.8048888888889L153.57684801136364,308.8048888888889L153.7618117897727,308.8048888888889L153.85775946969696,308.8048888888889L154.10747881155302,308.8048888888889L154.25085310132576,308.8048888888889L154.4042599431818,308.8048888888889L154.70085866477274,308.8048888888889L154.8385782433712,308.8048888888889L155.20978267045453,308.8048888888889L155.32816678503787,308.8048888888889L155.42648579545454,308.8048888888889L155.57168418560605,308.8048888888889L155.79002900094696,308.8048888888889L155.91643915719698,308.8048888888889L156.1508360558712,308.8048888888889L156.43867909564395,308.8048888888889L156.60959730113638,308.8048888888889L156.7354602272727,308.8048888888889L156.85220265151514,308.8048888888889L157.13366133996212,308.8048888888889L157.2635372869318,308.8048888888889L157.6765136126894,308.8048888888889L158.26241465435606,308.8048888888889L158.75255042613634,308.8048888888889L159.06757256155302,308.8048888888889L159.21149408143938,308.8048888888889L159.34410617897728,308.8048888888889L159.47252284564394,308.8048888888889L159.57886789772726,308.8048888888889L159.93493229166666,308.8048888888889L160.0868798532197,308.8048888888889L160.24922478693182,308.8048888888889L160.47997348484847,308.8048888888889L160.89039607007575,308.8048888888889L161.04526219223484,308.8048888888889L161.19921626420455,308.8048888888889L161.30027142518938,308.8048888888889L161.40734611742425,308.8048888888889L161.52591264204545,308.8048888888889L161.74936493844697,308.8048888888889L161.8635536221591,308.8048888888889L162.00236766098485,308.8048888888889L162.28692732007576,308.8048888888889L162.39108345170456,308.8048888888889L162.56090719696968,308.8048888888889L162.67819685132574,308.8048888888889L162.84072419507575,308.8048888888889L162.95400082859848,308.8048888888889L163.35147230113637,308.8048888888889L163.48371957859848,308.8048888888889L163.77739973958333,308.8048888888889L164.35746366003787,308.8048888888889L164.46964583333332,308.8048888888889L164.73870063920455,308.8048888888889L164.85708475378786,308.8048888888889L164.9997294034091,308.8048888888889L165.15295383522727,308.8048888888889L165.29468643465907,308.8048888888889L165.4460867660985,308.8048888888889L165.9272844460227,308.8048888888889L166.3796613399621,308.8048888888889L166.53197372159093,308.8048888888889L166.68009067234848,308.8048888888889L166.80777769886362,308.8048888888889L167.02739938446967,308.8048888888889L167.2975486505682,308.8048888888889L167.57535913825757,308.8048888888889L167.78002320075757,308.8048888888889L168.04251124526513,308.8048888888889L168.15122762784088,308.8048888888889L168.26614595170454,308.8048888888889L168.40423035037878,308.8048888888889L168.49324644886363,308.8048888888889L168.79239891098484,308.8048888888889L168.90859410511362,308.8048888888889L169.1426261837121,308.8048888888889L169.36954427083333,308.8048888888889L169.5993809185606,308.8048888888889L170.17670868844692,308.8048888888889L170.39505350378786,308.8048888888889L170.53550923295452,308.8048888888889L170.81569105113635,308.8048888888889L170.90087653882574,308.8048888888889L171.05172964015148,308.8048888888889L171.19929936079546,308.8048888888889L171.3045499526515,308.8048888888889L171.44427604166665,308.8048888888889L171.57743536931818,308.8048888888889L171.73138944128786,308.8048888888889L171.85396898674242,308.8048888888889L171.9933302556818,308.8048888888889L174.29680421401514,298.75155555555557L175.05854853219697,298.75155555555557L176.4454120501894,298.75155555555557L177.4400939867424,308.8048888888889L178.02818394886364,308.8048888888889L178.12960392992423,308.8048888888889L178.26440494791666,308.8048888888889L178.46195501893942,308.8048888888889L178.65640411931815,308.8048888888889L178.78792175662878,308.8048888888889L178.92637097537877,308.8048888888889L179.0520514914773,308.8048888888889L179.17900887784091,308.8048888888889L179.27167317708333,308.8048888888889L179.67297526041665,308.8048888888889L180.3216253551136,298.75155555555557L181.70210452178026,298.75155555555557L183.09954782196968,298.75155555555557L184.63762926136363,298.75155555555557L185.52742542613638,298.75155555555557L186.92322703598484,298.75155555555557L187.7123328598485,298.75155555555557L188.4653214962121,298.75155555555557L189.1464405776515,298.75155555555557L189.94795028409092,298.75155555555557L190.75529711174244,298.75155555555557L191.53053977272725,298.75155555555557L192.22132658617426,298.75155555555557L192.88274538352275,298.75155555555557L194.41115909090905,274.6235555555555L196.11614571496213,298.75155555555557L197.11392862215908,274.6235555555555L198.58780172821966,298.75155555555557L199.9987433712121,298.75155555555557L200.65213612689394,298.75155555555557L201.5028965435606,274.6235555555555L202.30021081912875,274.6235555555555L203.07928409090908,285.3471111111111L203.98276100852271,285.3471111111111L204.73064216382573,298.75155555555557L205.67279000946968,298.75155555555557L206.44329000946968,298.75155555555557L207.2378681344697,298.75155555555557L207.98702616003783,298.75155555555557L209.08349289772727,274.6235555555555L209.99736718749998,274.6235555555555L211.43658238636365,298.75155555555557L213.02136079545454,298.75155555555557L213.78638849431815,298.75155555555557L214.0534367897727,278.14222222222224L214.9094870975379,285.3471111111111L216.0827484611742,274.6235555555555L217.6688037405303,274.6235555555555L218.4763329782197,298.75155555555557L220.1098148674242,285.3471111111111L220.87393051609848,285.3471111111111L221.8222803030303,274.6235555555555L222.68453255208334,274.6235555555555L223.71697336647725,274.6235555555555L225.49127580492424,274.6235555555555L226.43032267992422,274.6235555555555L227.31519377367425,285.3471111111111L228.04282741477272,298.75155555555557L232.62624443655304,274.6235555555555L233.44070525568182,298.75155555555557L235.02621330492423,298.75155555555557L235.74162547348487,298.75155555555557L236.4143536931818,298.75155555555557L238.16494282670453,285.3471111111111L238.98925378787877,285.3471111111111L240.52806486742423,285.3471111111111L242.04243300189393,285.3471111111111L246.15687381628788,285.3471111111111L247.0112824337121,285.3471111111111L249.3264306344697,298.75155555555557L250.1817513020833,298.75155555555557L250.9447724905303,285.3471111111111L251.70852331912877,285.3471111111111L252.5262675189394,285.3471111111111L253.39125591856063,285.3471111111111L254.77757220643937,298.75155555555557L256.2142336647727,298.75155555555557L257.6195205965909,298.75155555555557L258.7333162878788,274.6235555555555L261.1756042850378,274.6235555555555L262.0770746922348,274.6235555555555L264.1521712831439,274.6235555555555L265.03193489583333,285.3471111111111L265.9427082149621,274.6235555555555L266.6557490530303,298.75155555555557L268.3403057528409,274.6235555555555L269.22298792613634,274.6235555555555L271.373967092803,185.06511111111112L272.01076053503783,185.06511111111112L273.47022324810604,274.6235555555555L275.984928030303,274.6235555555555L276.5569659090909,185.06511111111112L278.07042199337116,171.24177777777777L278.9518272964015,171.24177777777777L279.7816105587121,171.24177777777777L280.5829378551136,171.24177777777777L281.288135061553,171.24177777777777L282.6153504971591,184.47866666666664L283.3756355350378,171.24177777777777L284.03906084280305,171.24177777777777L284.6793200757575,171.24177777777777L285.3735726799242,171.24177777777777L286.00562346117425,171.24177777777777L286.6805406013258,171.24177777777777L288.0498927556818,171.24177777777777L289.4028280066288,171.24177777777777L290.055673532197,171.24177777777777L292.79328338068177,133.8768888888889L294.0582969933712,133.8768888888889L298.89745288825753,133.8768888888889L303.289521780303,133.8768888888889L304.5975841619318,133.8768888888889L307.40049680397726,133.8768888888889L309.1343042140151,133.8768888888889L312.31425840435605,133.8768888888889L313.80874384469695,133.8768888888889L315.15638920454546,133.8768888888889L319.41876455965905,133.8768888888889L320.9276603929924,133.8768888888889L323.8301689157197,133.8768888888889L329.84805847537876,133.8768888888889L334.11316998106054,133.8768888888889L335.64486706912874,133.8768888888889L337.04194554924237,133.8768888888889L338.4145810842803,133.8768888888889L339.85616761363633,133.8768888888889L341.2897281013258,136.55777777777777L342.70979024621204,133.8768888888889L345.5411588541666,133.8768888888889L346.93969661458334,133.8768888888889L348.4405664062499,133.8768888888889L349.8274299242424,133.8768888888889L351.1882088068182,133.8768888888889L352.66864867424243,133.8768888888889L354.16167483428023,133.8768888888889L358.4517765151515,133.8768888888889L359.81346744791665,133.8768888888889L361.3404218749999,133.8768888888889L370.27541276041654,90.98266666666666L373.3324225852273,133.8768888888889L374.74828929924246,133.8768888888889L376.09429296875,133.8768888888889L377.8213512073863,96.34444444444443L379.4116019176136,90.98266666666666L381.14467968749994,90.98266666666666L382.77834398674236,96.34444444444443L384.3943145123106,90.98266666666666L385.8687348484848,96.34444444444443L387.5228290719697,96.34444444444443L388.5649376183712,70.28955555555552L390.09481060606055,117.79155555555553L391.7005661695076,90.98266666666666L393.31671910511363,90.98266666666666L394.8737711884469,90.98266666666666L396.5316960227272,84.28044444444441L398.1084483901514,90.98266666666666L401.2041291429925,117.79155555555553L402.5660024857954,133.8768888888889L404.0836540009469,96.34444444444443L406.75851479640147,133.8768888888889L409.3403464725378,70.28955555555552L412.2862685842803,117.79155555555553L413.3748916903409,70.28955555555552L417.10006948390145,117.79155555555553L418.7351930634469,117.79155555555553L420.4615216619318,70.87599999999998L422.8330345643939,70.28955555555552L423.938986624053,70.28955555555552L425.0100983664773,70.28955555555552L427.442353811553,70.28955555555552L428.5953676609848,70.28955555555552L429.7310525568181,70.28955555555552L431.1585935132576,117.79155555555553L433.469363873106,70.28955555555552L434.5789641335226,70.28955555555552L435.741828125,70.28955555555552L436.9645226089015,70.28955555555552L438.26054592803024,70.28955555555552L439.5277484611742,70.28955555555552L441.34965991950753,96.34444444444443L442.65407410037875,70.28955555555552L444.38696946022725,96.34444444444443L447.6367866950757,133.8768888888889L449.17468572443175,90.98266666666666L450.37786233428034,70.28955555555552L453.63917140151506,70.28955555555552L454.7476772017045,70.28955555555552L455.9068929924242,70.28955555555552L458.2357219460227,70.28955555555552L459.36556972064386,70.28955555555552L460.412785748106,70.28955555555552L461.550477154356,70.28955555555552L463.8054300426136,70.28955555555552L466.0789887547348,70.28955555555552L467.24513612689395,70.28955555555552L468.4866188446969,70.28955555555552L470.74832090435604,70.28955555555552L473.44963115530294,86.96133333333336L475.8479583333334,128.01244444444447L476.9415065104167,70.28955555555552L478.18846152935606,70.28955555555552L481.57235014204537,70.28955555555552L485.959676373106,70.28955555555552L486.95125733901517,70.28955555555552L487.9103693181819,70.28955555555552L488.943904592803,70.28955555555552L489.94697739109847,70.28955555555552L491.974829782197,70.28955555555552L493.0393747632575,70.28955555555552L496.2116677320075,70.28955555555552L497.38274017518927,70.28955555555552L499.38651444128783,70.28955555555552L501.4827705965909,70.28955555555552L502.53144590435596,70.28955555555552L505.85842258522723,70.28955555555552L508.003199810606,70.28955555555552L509.10769258996214,70.28955555555552L510.22495407196965,70.28955555555552L512.2425915009469,70.28955555555552L513.4300808475377,70.28955555555552L514.5717852746212,70.28955555555552L515.6883171164773,70.28955555555552L516.6600153882575,70.28955555555552L517.7873094223485,70.28955555555552L518.7841802793561,70.28955555555552L520.3534538352272,70.87599999999998L521.3999402225378,70.28955555555552L525.6929604640151,70.28955555555552L526.8481632339016,70.28955555555552L529.4573564157197,70.87599999999998L531.4697039535985,70.28955555555552L532.5822227746212,70.28955555555552L533.6518752367424,70.28955555555552L534.602049124053,70.28955555555552L535.6729784564394,70.28955555555552L536.7590478219697,70.28955555555552L537.7836450047348,70.28955555555552L538.9098445785985,70.28955555555552L540.0832883522726,70.28955555555552L542.3300327888256,70.28955555555552L543.3464215198862,70.28955555555552L544.4308491950758,70.28955555555552L545.5364364346591,70.28955555555552L546.6124732481061,70.28955555555552L548.7012505918561,70.28955555555552L549.6570791903409,70.28955555555552L550.6566861979167,70.28955555555552L552.7908836410985,70.28955555555552L553.8769530066287,70.28955555555552L554.8679867424241,70.28955555555552L555.9347206439394,70.28955555555552L557.0523469460228,70.28955555555552L558.1796409801136,70.28955555555552L559.2905181107955,70.28955555555552L560.3858903882575,70.28955555555552L561.4413148674242,70.28955555555552L564.3950806107955,70.28955555555552L566.5374865056818,70.28955555555552L568.7400877130681,70.28955555555552L572.0278462357954,70.28955555555552L573.1049775094697,70.28955555555552L574.1790078125,70.28955555555552L575.2223932291666,70.28955555555552L576.276723248106,70.28955555555552L577.307704782197,70.28955555555552L578.3275593039773,70.28955555555552L579.405420217803,70.28955555555552L580.4694179687499,70.28955555555552L581.5148098958333,70.28955555555552L582.5031074810606,70.28955555555552L583.6533851799243,70.28955555555552L584.6347511837121,70.28955555555552L587.7151094933712,70.28955555555552L588.7885925662879,70.28955555555552L589.7827272727272,70.28955555555552L591.8313744081439,70.28955555555552L592.8811441761363,70.28955555555552L595.0445272253787,70.28955555555552L596.2261794507575,70.28955555555552L597.3863072916666,70.28955555555552L598.4670867660985,70.28955555555552L599.5292604166667,70.28955555555552L600.6408671875,70.28955555555552L603.8852121212121,70.28955555555552L604.9579655539771,70.28955555555552L605.9812858664773,70.28955555555552L610.1289253077651,70.28955555555552L611.13291015625,70.28955555555552L613.3170879498107,70.28955555555552L614.4303364109848,70.28955555555552L615.5676629971591,70.28955555555552L616.4631138731061,70.28955555555552L618.6748355823863,70.28955555555552L620.83639453125,70.28955555555552L621.8391025094696,70.28955555555552L622.8812110558712,70.28955555555552L625.1224831912879,70.28955555555552L626.2873536931817,70.28955555555552L627.2506611032197,70.28955555555552L628.2032063210227,70.28955555555552L629.3910604876893,70.28955555555552L630.3257295217802,70.28955555555552L631.3391996922348,70.28955555555552L632.415054095644,70.28955555555552L635.6086890388257,70.28955555555552L636.5070584753787,70.28955555555552L638.6118879024621,70.28955555555552L640.7716227509469,70.28955555555552L641.9009232954545,70.28955555555552L642.9472272727272,70.28955555555552L644.0165149147728,70.28955555555552L646.1977741477273,70.28955555555552L647.1995700757576,70.28955555555552L648.2520759943181,70.28955555555552L649.2702888257576,70.28955555555552L650.193466027462,70.28955555555552L651.2924865056817,70.28955555555552L652.462829308712,70.28955555555552L653.4819541903408,70.28955555555552L656.6982079782198,70.28955555555552L657.7144142992423,70.28955555555552L660.0877513020832,70.28955555555552L661.3644391571969,70.28955555555552L662.622338778409,70.28955555555552L663.9645118371212,70.28955555555552L666.2772887073863,70.28955555555552L668.6548211410984,70.28955555555552L669.7018547585226,70.28955555555552L670.7087581676135,70.28955555555552L671.7222283380682,70.28955555555552L672.8289100378787,70.28955555555552L673.7995138494317,70.28955555555552L674.8076941287877,70.28955555555552L675.8423238636364,70.28955555555552L677.9070230823863,70.28955555555552L679.0598545217803,70.28955555555552L680.0917481060605,70.28955555555552L682.2702711884469,70.28955555555552L684.2829835464015,70.28955555555552L685.2599717092802,70.28955555555552L686.4536629971591,70.28955555555552L687.6427940340909,70.28955555555552L688.7219318181817,70.28955555555552L689.7687830255682,70.28955555555552L691.8557362689393,70.28955555555552L692.8338188920455,70.28955555555552L693.8845007102271,70.28955555555552L696.1339812973484,70.28955555555552L697.2501483191288,70.28955555555552L699.4387039535984,70.28955555555552L702.6279610558711,70.28955555555552L704.6671228693182,70.28955555555552L705.8215959990529,70.28955555555552L706.9118607954545,70.28955555555552L710.151280658144,70.28955555555552L711.2528548768939,70.28955555555552L713.6117814867423,70.28955555555552L714.7142677556817,70.28955555555552L716.7769604640151,70.28955555555552L717.865036339962,70.28955555555552L718.9467278645833,70.28955555555552L721.0760002367424,70.28955555555552L722.0690404829545,70.28955555555552L725.2809164299243,70.28955555555552L726.2918328598483,70.28955555555552L728.4420823863636,70.28955555555552L729.422536339962,70.28955555555552L730.4965666429923,70.28955555555552L731.5788053977273,70.28955555555552L733.5391660748105,70.28955555555552L734.6305253314393,70.28955555555552L735.7339236505682,70.28955555555552L736.8539212831439,70.28955555555552L739.0151154119318,70.28955555555552L741.1912671638256,70.28955555555552L743.2351716382575,70.28955555555552L744.3081074810606,70.28955555555552L745.3710107717803,70.28955555555552L746.4775100615531,70.28955555555552L747.6881654829546,70.28955555555552L752.1646902225378,70.28955555555552L753.0767404119316,70.28955555555552L754.1708358191287,70.28955555555552L755.3296867897728,70.28955555555552L758.4932240767045,70.28955555555552L759.4838929924241,70.28955555555552L760.5911219223485,70.28955555555552L761.6149894649622,70.28955555555552L762.5710004734848,70.28955555555552L764.5382927320076,70.28955555555552L765.6234500473485,70.28955555555552L766.6573501420455,70.28955555555552L767.8193020833332,70.28955555555552L769.9969131155303,70.28955555555552L770.9954256628788,70.28955555555552L771.995579900568,70.28955555555552L773.1467696496212,70.28955555555552L774.2496207386363,70.28955555555552L775.3048628077652,70.28955555555552L776.3458768939394,70.28955555555552L778.5353445785985,70.28955555555552L779.5402414772727,70.28955555555552L780.4995358664771,70.28955555555552L782.6778765388256,70.28955555555552L783.8465776515151,70.28955555555552L786.0460778882576,70.28955555555552L787.1593263494318,70.28955555555552L791.193324337121,70.28955555555552L792.2978171164772,70.28955555555552L794.4261774384469,70.28955555555552L795.4370938683711,70.28955555555552L796.5362967566285,70.28955555555552L797.6424312263256,70.28955555555552L798.7190152698862,70.28955555555552L799.7421531723484,70.28955555555552L800.7532520123106,70.28955555555552L802.8454951467802,70.28955555555552L803.9892060842803,70.28955555555552L804.9829759706438,70.28955555555552L805.9185570549241,70.28955555555552L807.9456798058711,70.28955555555552L809.0364918323863,70.28955555555552L810.1107045454545,70.28955555555552L811.0767481060607,70.28955555555552L812.1405634469696,70.28955555555552L813.1839488636361,70.28955555555552L819.2722486979166,70.28955555555552L820.5232167376893,70.28955555555552L821.592139559659,70.28955555555552L822.6541308001893,70.28955555555552L823.7283435132575,70.28955555555552L827.9812335464015,70.28955555555552L831.0415267518939,70.28955555555552L832.1507621922348,70.28955555555552L834.167122750947,70.28955555555552L837.1323803267045,70.28955555555552L838.135270714962,70.28955555555552L840.234445430871,70.28955555555552L841.2645149147726,70.28955555555552L842.3611640624998,70.28955555555552L843.3868557054924,70.28955555555552L845.5515156249999,70.28955555555552L846.5981844223485,70.28955555555552L847.5977914299241,70.28955555555552L848.8068051609848,70.28955555555552L849.9153109611741,70.28955555555552L850.9191133996211,70.28955555555552L851.9271112689393,70.28955555555552L852.9699494554923,70.28955555555552L854.0578429214014,70.28955555555552L856.0355325520833,70.28955555555552L857.1042729640152,70.28955555555552L859.3688935842802,70.28955555555552L861.4436253551135,70.28955555555552L862.4899293323862,70.28955555555552L864.6693644649621,70.28955555555552L866.8958613873104,70.28955555555552L867.9164455492423,70.28955555555552L868.9182414772727,70.28955555555552L870.047906841856,70.28955555555552L873.3475220170454,70.28955555555552L874.4253829308711,70.28955555555552L875.525497869318,70.28955555555552L876.5812871685606,70.28955555555552L878.6443446969696,70.28955555555552L879.6596389678028,70.28955555555552L881.6944229403407,70.28955555555552L882.7808571259469,70.28955555555552L887.661055279356,70.28955555555552L888.6272812499998,70.28955555555552L890.5706777935604,70.28955555555552L891.5443825757575,70.28955555555552L893.5525346827651,70.28955555555552L894.5506824100378,70.28955555555552L895.5745499526513,70.28955555555552L896.7306647727271,70.28955555555552L898.8004714725378,70.28955555555552L899.8391142282196,70.28955555555552L900.763933120265,70.28955555555552L902.8072903645833,70.28955555555552L903.7280962357953,70.28955555555552L904.687208214962,70.28955555555552L905.7189193892045,70.28955555555552L907.7998531013255,70.28955555555552L908.9306129261363,70.28955555555552L911.048575875947,70.28955555555552L914.4094808238635,70.28955555555552L916.5892807765151,70.28955555555552L917.638138494318,70.28955555555552L918.7108919270833,70.28955555555552L919.6814957386362,70.28955555555552L921.704423058712,70.28955555555552L923.6848488399621,70.28955555555552L924.8028399621211,70.28955555555552L925.8451309185605,70.28955555555552L926.9363077651514,70.28955555555552L927.9713023200757,70.28955555555552L929.0309222301136,70.28955555555552L930.0221383759468,70.28955555555552L931.0801165956439,70.28955555555552L932.1058082386362,70.28955555555552L935.2523813920453,70.28955555555552L936.2005487689393,70.28955555555552L937.2643641098483,70.28955555555552L942.9500849905303,70.28955555555552L944.0799327651514,70.28955555555552L945.2887640861742,70.28955555555552L946.6396928267044,70.28955555555552L949.1155442708332,70.28955555555552L950.3002974668559,70.28955555555552L951.2386147017046,70.28955555555552L952.4270160984847,70.28955555555552L953.5019584517045,70.28955555555552L959.1594057765151,70.28955555555552L960.240002840909,70.28955555555552L961.3568995028407,70.28955555555552L962.4661349431817,70.28955555555552L963.6496112689392,70.28955555555552L964.6842410037877,70.28955555555552L966.7969140624998,70.28955555555552L967.8952049005679,70.28955555555552L969.013378432765,70.28955555555552L970.0978061079544,70.28955555555552L971.2562922585225,70.28955555555552L972.3049675662878,70.28955555555552L973.2409134706437,70.28955555555552L974.3350088778408,70.28955555555552L975.5246871448863,70.28955555555552L977.5335688920453,70.28955555555552L978.6304004498104,70.28955555555552L979.7078965435604,70.28955555555552L980.8424869791666,70.28955555555552L981.9371296164773,70.28955555555552L982.9797853929923,70.28955555555552L984.0963172348484,70.28955555555552L986.2739282670453,70.28955555555552L988.6366854876893,70.28955555555552L990.7269221117424,70.28955555555552L991.9217078598483,70.28955555555552L993.0603113162878,70.28955555555552L995.2426650094695,70.28955555555552L997.3754031723483,70.28955555555552L998.4871923532196,70.28955555555552L1000.7065752840907,70.28955555555552L1003.0837428977272,70.28955555555552L1004.209760061553,70.28955555555552L1005.2566112689392,70.28955555555552L1007.4276555397726,70.28955555555552L1010.6468278882575,70.28955555555552L1011.6978745265151,70.28955555555552L1014.8858547585226,70.28955555555552L1017.0056418087119,70.28955555555552L1020.1549511126892,70.28955555555552L1023.4974326467801,70.28955555555552L1024.6256387310605,70.28955555555552L1025.7757340198862,70.28955555555552L1026.9896728219696,70.28955555555552L1028.0270387073863,70.28955555555552L1029.24006545928,70.28955555555552L1030.2493401988634,70.28955555555552L1031.30476467803,70.28955555555552L1032.3649318181815,70.28955555555552L1033.4203562973485,70.28955555555552L1035.5219023437498,70.28955555555552L1036.6145384706438,70.28955555555552L1037.6557349668558,70.28955555555552L1040.9655651041664,70.28955555555552L1042.006579190341,70.28955555555552L1044.2292455018937,70.28955555555552L1045.442272253788,70.28955555555552L1046.5779571496212,70.28955555555552L1047.7016029829545,70.28955555555552L1049.7267192234847,70.28955555555552L1053.0394679214014,70.28955555555552L1054.1525339725379,70.28955555555552L1055.1793200757575,70.28955555555552L1056.2969463778409,70.28955555555552L1057.3496347064392,70.28955555555552L1058.4026878551135,70.28955555555552L1059.4294739583331,70.28955555555552L1060.3256544744318,70.28955555555552L1061.5151503314394,70.28955555555552L1062.725440932765,70.28955555555552L1063.8972430160984,70.28955555555552L1065.008302556818,70.28955555555552L1065.9389585700758,70.28955555555552L1066.9836208570075,70.28955555555552L1068.9821052320076,70.28955555555552L1070.0816729403407,70.28955555555552L1071.1989344223484,70.28955555555552L1072.3269580965907,70.28955555555552L1074.4837743844696,70.28955555555552L1075.6340520833332,70.28955555555552L1079.8019390388258,70.28955555555552L1082.8474570312499,70.28955555555552L1086.2003359374999,70.28955555555552L1087.3498839962122,70.28955555555552L1088.3073542850377,70.28955555555552L1089.4953908617424,70.28955555555552L1091.5522464488633,70.28955555555552L1092.588700284091,70.28955555555552L1093.5910434422346,70.28955555555552L1094.6583245738636,70.28955555555552L1095.7132018229165,70.28955555555552L1097.7563766571968,70.28955555555552L1098.758172585227,70.28955555555552L1099.8891148200757,70.28955555555552L1100.9109758522727,70.28955555555552L1101.9213450520833,70.28955555555552L1103.0121570785984,70.28955555555552L1104.0821743607953,70.28955555555552L1105.1319441287878,70.28955555555552L1106.2300525568182,70.28955555555552L1107.2240048532194,70.28955555555552L1108.2724977509467,70.28955555555552L1110.4141740056816,70.28955555555552L1111.5277872869317,70.28955555555552L1113.6076265388258,70.28955555555552L1114.7081062973484,70.28955555555552L1115.8529116950756,70.28955555555552L1118.0504054214014,70.28955555555552L1119.155445430871,70.28955555555552L1120.249723248106,70.28955555555552L1121.470046401515,70.28955555555552L1122.678512902462,70.28955555555552L1123.8661846590908,70.28955555555552L1128.063074810606,70.28955555555552L1130.2881124526514,70.28955555555552L1133.6626981534089,70.28955555555552L1134.5659926609846,70.28955555555552L1136.6821315104166,70.28955555555552L1137.7238752367423,70.28955555555552L1138.9000551609847,70.28955555555552L1140.877015151515,70.28955555555552L1141.8957752130682,70.28955555555552L1142.8160338541666,70.28955555555552L1143.9159663825756,70.28955555555552L1144.9712084517046,70.28955555555552L1146.0383071732954,70.28955555555552L1147.205366595644,70.28955555555552L1148.4769469696969,70.28955555555552L1149.6181041666664,70.28955555555552L1150.7043559422348,70.28955555555552L1152.8808725142044,70.28955555555552L1154.0368049242422,70.28955555555552L1155.0860274621211,70.28955555555552L1157.2550652225377,70.28955555555552L1158.4197533143938,70.28955555555552L1159.4779139441287,70.28955555555552L1160.651175307765,70.28955555555552L1161.7018571259468,70.28955555555552L1162.8431967329543,70.28955555555552L1165.0053029119317,70.28955555555552L1166.1300432054923,70.28955555555552L1167.1272788825756,70.28955555555552L1168.17686624053,70.28955555555552L1169.1917956912878,70.28955555555552L1170.2047186316286,70.28955555555552L1171.3290941051134,70.28955555555552L1173.632385653409,70.28955555555552L1174.6858036221588,70.28955555555552L1175.73484375,70.28955555555552L1176.809056463068,70.28955555555552L1177.7989957386362,70.28955555555552L1178.849859966856,70.28955555555552L1179.9067437263257,70.28955555555552L1180.8370349195075,70.28955555555552L1184.0832039535983,70.28955555555552L1185.19408108428,70.28955555555552L1187.4377245501894,70.28955555555552L1191.641181463068,70.28955555555552L1192.662860085227,70.28955555555552L1194.9006664299243,70.28955555555552L1196.006800899621,70.28955555555552L1197.10071389678,70.28955555555552L1199.3775559895832,70.28955555555552L1201.4803789062498,70.28955555555552L1202.6815490056817,70.28955555555552L1203.734419744318,70.28955555555552L1205.967665838068,70.28955555555552L1207.1495004734847,70.28955555555552L1208.1673484848484,70.28955555555552L1209.3933263494316,70.28955555555552L1211.3389118134469,70.28955555555552L1212.411665246212,70.28955555555552L1213.480223248106,70.28955555555552L1214.551517400568,70.28955555555552L1215.6262773437497,70.28955555555552L1217.8164746685604,70.28955555555552L1219.0515730350378,70.28955555555552L1220.1817856297346,70.28955555555552L1222.243201467803,70.28955555555552L1223.2774663825755,70.28955555555552L1226.3910233191286,70.28955555555552L1228.4803478929923,70.28955555555552L1229.5363196022727,70.28955555555552L1231.719402935606,70.28955555555552L1232.7357916666665,70.28955555555552L1233.7983301373106,70.28955555555552L1234.9281779119317,70.28955555555552L1235.8838241003787,70.28955555555552L1236.9894113399619,70.28955555555552L1238.188757339015,70.28955555555552L1241.5775710227272,70.28955555555552L1242.7119790482955,70.28955555555552L1243.8113643465906,70.28955555555552L1244.9029060132575,70.28955555555552L1245.9721936553028,70.28955555555552L1247.0184976325756,70.28955555555552L1248.1322933238635,70.28955555555552L1250.4060344460224,70.28955555555552L1251.466383996212,70.28955555555552L1252.6314369081438,70.28955555555552L1253.778978456439,70.28955555555552L1254.8615820312498,70.28955555555552L1256.1068953598483,70.28955555555552L1259.2366867897726,70.28955555555552L1261.446766808712,70.28955555555552L1262.4919763257576,70.28955555555552L1263.723791311553,70.28955555555552L1264.8379518229165,70.28955555555552L1265.8897281013258,70.28955555555552L1266.9362144886363,70.28955555555552L1267.8858411458332,70.28955555555552L1268.8905556344696,70.28955555555552L1269.97315920928,70.28955555555552L1270.9503297821968,70.28955555555552L1274.1817236032196,70.28955555555552L1275.1508681344694,70.28955555555552L1278.239434895833,70.28955555555552L1279.3417387547347,70.28955555555552L1281.5253693181817,70.28955555555552L1282.6253018465907,70.28955555555552L1283.6537296401514,70.28955555555552L1286.2492420691285,70.28955555555552L1287.237539654356,70.28955555555552L1288.2989836647725,70.28955555555552L1290.337598248106,70.28955555555552L1291.4590551609847,70.28955555555552L1292.4991571969697,70.28955555555552L1294.6034393939392,70.28955555555552L1295.7340168087119,70.28955555555552L1296.8408809185605,70.28955555555552L1298.990400804924,70.28955555555552L1300.0264898200758,70.28955555555552L1301.1800508996212,70.28955555555552L1303.4410233191288,70.28955555555552L1304.364565340909,70.28955555555552L1306.5284956202652,70.28955555555552L1307.732219460227,70.28955555555552L1308.8449206912878,70.28955555555552L1310.0690744554922,70.28955555555552L1311.0599257812498,70.28955555555552L1312.1140733901514,70.28955555555552L1314.078811908144,70.28955555555552L1315.0953830492424,70.28955555555552L1318.4199883996214,70.28955555555552L1320.6576123342802,70.28955555555552L1324.073969933712,70.28955555555552L1328.3852311789774,70.28955555555552L1333.8956560132574,70.28955555555552L1337.5274398674242,70.28955555555552L1338.7428379498108,70.28955555555552L1339.8159562026515,70.28955555555552L1340.9011135179924,70.28955555555552L1341.9403035037878,70.28955555555552L1343.0199885179923,70.28955555555552L1345.1538211410984,70.28955555555552L1346.463707623106,70.28955555555552L1348.616875710227,70.28955555555552L1349.6684695785984,70.28955555555552L1351.9982105823863,70.28955555555552L1353.0251790956438,70.28955555555552L1354.2164990530302,70.28955555555552L1355.1812657433711,70.28955555555552L1357.3171048768938,70.28955555555552L1358.6426786221589,70.28955555555552L1359.8890864109846,70.28955555555552L1361.119442116477,70.28955555555552L1362.3164167850375,70.28955555555552L1363.3191247632574,70.28955555555552L1364.314536339962,70.28955555555552L1365.4266903409089,70.28955555555552L1366.464968276515,70.28955555555552L1367.5944512310607,70.28955555555552L1368.5564817708334,70.28955555555552L1370.7592653882575,70.28955555555552L1371.983419152462,70.28955555555552L1374.2516879734846,70.28955555555552L1377.6377655066287,70.28955555555552L1379.9074936079546,70.28955555555552L1384.3805525568182,70.28955555555552L1385.5248107244317,70.28955555555552L1386.6497334280302,70.28955555555552L1387.772649621212,70.28955555555552L1389.5941962594695,70.28955555555552" style="fill: none;" fill="none"></path></g></g></g></g></g><g><g opacity="0.396515"><span fill="rgb(0, 0, 0)" stroke="none" stroke-width="1px">Alt + Scroll to Zoom</span></g></g></g><g transform="translate(68, 377)" clip-path="url(#clip_1)"><clipPath id="clip_1"><rect width="1444" height="23"></rect></clipPath><g><g><line x1="0" y1="0" x2="0" y2="5" style="visibility: inherit;" fill="rgb(0, 0, 0)" stroke="rgb(204, 204, 204)" stroke-width="1px"></line><line x1="131.33522727272728" y1="0" x2="131.33522727272728" y2="5" style="visibility: inherit;" fill="rgb(0, 0, 0)" stroke="rgb(204, 204, 204)" stroke-width="1px"></line><line x1="262.67045454545456" y1="0" x2="262.67045454545456" y2="5" style="visibility: inherit;" fill="rgb(0, 0, 0)" stroke="rgb(204, 204, 204)" stroke-width="1px"></line><line x1="394.00568181818187" y1="0" x2="394.00568181818187" y2="5" style="visibility: inherit;" fill="rgb(0, 0, 0)" stroke="rgb(204, 204, 204)" stroke-width="1px"></line><line x1="525.3409090909091" y1="0" x2="525.3409090909091" y2="5" style="visibility: inherit;" fill="rgb(0, 0, 0)" stroke="rgb(204, 204, 204)" stroke-width="1px"></line><line x1="656.6761363636364" y1="0" x2="656.6761363636364" y2="5" style="visibility: inherit;" fill="rgb(0, 0, 0)" stroke="rgb(204, 204, 204)" stroke-width="1px"></line><line x1="788.0113636363636" y1="0" x2="788.0113636363636" y2="5" style="visibility: inherit;" fill="rgb(0, 0, 0)" stroke="rgb(204, 204, 204)" stroke-width="1px"></line><line x1="919.3465909090908" y1="0" x2="919.3465909090908" y2="5" style="visibility: inherit;" fill="rgb(0, 0, 0)" stroke="rgb(204, 204, 204)" stroke-width="1px"></line><line x1="1050.681818181818" y1="0" x2="1050.681818181818" y2="5" style="visibility: inherit;" fill="rgb(0, 0, 0)" stroke="rgb(204, 204, 204)" stroke-width="1px"></line><line x1="1182.0170454545453" y1="0" x2="1182.0170454545453" y2="5" style="visibility: inherit;" fill="rgb(0, 0, 0)" stroke="rgb(204, 204, 204)" stroke-width="1px"></line><line x1="1313.3522727272727" y1="0" x2="1313.3522727272727" y2="5" style="visibility: inherit;" fill="rgb(0, 0, 0)" stroke="rgb(204, 204, 204)" stroke-width="1px"></line><line x1="1444.6875" y1="0" x2="1444.6875" y2="5" style="visibility: inherit;" fill="rgb(0, 0, 0)" stroke="rgb(204, 204, 204)" stroke-width="1px"></line></g><g transform="translate(0, 8)"><text x="0" y="0" dx="0em" dy="0.95em" style="text-anchor: middle; visibility: hidden; font-family: &quot;Helvetica Neue&quot;, sans-serif; font-size: 12px; font-weight: 200;" fill="rgb(50, 49, 63)" stroke="none" stroke-width="1px">-0.2</text><text x="131.33522727272728" y="0" dx="0em" dy="0.95em" style="text-anchor: middle; visibility: inherit; font-family: &quot;Helvetica Neue&quot;, sans-serif; font-size: 12px; font-weight: 200;" fill="rgb(50, 49, 63)" stroke="none" stroke-width="1px">0</text><text x="262.67045454545456" y="0" dx="0em" dy="0.95em" style="text-anchor: middle; visibility: inherit; font-family: &quot;Helvetica Neue&quot;, sans-serif; font-size: 12px; font-weight: 200;" fill="rgb(50, 49, 63)" stroke="none" stroke-width="1px">0.2</text><text x="394.00568181818187" y="0" dx="0em" dy="0.95em" style="text-anchor: middle; visibility: inherit; font-family: &quot;Helvetica Neue&quot;, sans-serif; font-size: 12px; font-weight: 200;" fill="rgb(50, 49, 63)" stroke="none" stroke-width="1px">0.4</text><text x="525.3409090909091" y="0" dx="0em" dy="0.95em" style="text-anchor: middle; visibility: inherit; font-family: &quot;Helvetica Neue&quot;, sans-serif; font-size: 12px; font-weight: 200;" fill="rgb(50, 49, 63)" stroke="none" stroke-width="1px">0.6</text><text x="656.6761363636364" y="0" dx="0em" dy="0.95em" style="text-anchor: middle; visibility: inherit; font-family: &quot;Helvetica Neue&quot;, sans-serif; font-size: 12px; font-weight: 200;" fill="rgb(50, 49, 63)" stroke="none" stroke-width="1px">0.8</text><text x="788.0113636363636" y="0" dx="0em" dy="0.95em" style="text-anchor: middle; visibility: inherit; font-family: &quot;Helvetica Neue&quot;, sans-serif; font-size: 12px; font-weight: 200;" fill="rgb(50, 49, 63)" stroke="none" stroke-width="1px">1</text><text x="919.3465909090908" y="0" dx="0em" dy="0.95em" style="text-anchor: middle; visibility: inherit; font-family: &quot;Helvetica Neue&quot;, sans-serif; font-size: 12px; font-weight: 200;" fill="rgb(50, 49, 63)" stroke="none" stroke-width="1px">1.2</text><text x="1050.681818181818" y="0" dx="0em" dy="0.95em" style="text-anchor: middle; visibility: inherit; font-family: &quot;Helvetica Neue&quot;, sans-serif; font-size: 12px; font-weight: 200;" fill="rgb(50, 49, 63)" stroke="none" stroke-width="1px">1.4</text><text x="1182.0170454545453" y="0" dx="0em" dy="0.95em" style="text-anchor: middle; visibility: inherit; font-family: &quot;Helvetica Neue&quot;, sans-serif; font-size: 12px; font-weight: 200;" fill="rgb(50, 49, 63)" stroke="none" stroke-width="1px">1.6</text><text x="1313.3522727272727" y="0" dx="0em" dy="0.95em" style="text-anchor: middle; visibility: inherit; font-family: &quot;Helvetica Neue&quot;, sans-serif; font-size: 12px; font-weight: 200;" fill="rgb(50, 49, 63)" stroke="none" stroke-width="1px">1.8</text><text x="1444.6875" y="0" dx="0em" dy="0.95em" style="text-anchor: middle; visibility: hidden; font-family: &quot;Helvetica Neue&quot;, sans-serif; font-size: 12px; font-weight: 200;" fill="rgb(50, 49, 63)" stroke="none" stroke-width="1px">2</text></g><line x1="0" y1="0" x2="1444.6875" y2="0" fill="rgb(0, 0, 0)" stroke="rgb(204, 204, 204)" stroke-width="1px"></line></g></g></g></g></svg>