<svg viewBox="0 0 1513 400" xmlns="http://www.w3.org/2000/svg"><g><g><g><g><g><line x1="58.59375" y1="377" x2="53.59375" y2="377" style="visibility: inherit;" fill="rgb(0, 0, 0)" stroke="rgb(204, 204, 204)" stroke-width="1px"></line><line x1="58.59375" y1="335.1111111111111" x2="53.59375" y2="335.1111111111111" style="visibility: inherit;" fill="rgb(0, 0, 0)" stroke="rgb(204, 204, 204)" stroke-width="1px"></line><line x1="58.59375" y1="293.22222222222223" x2="53.59375" y2="293.22222222222223" style="visibility: inherit;" fill="rgb(0, 0, 0)" stroke="rgb(204, 204, 204)" stroke-width="1px"></line><line x1="58.59375" y1="251.33333333333331" x2="53.59375" y2="251.33333333333331" style="visibility: inherit;" fill="rgb(0, 0, 0)" stroke="rgb(204, 204, 204)" stroke-width="1px"></line><line x1="58.59375" y1="209.44444444444443" x2="53.59375" y2="209.44444444444443" style="visibility: inherit;" fill="rgb(0, 0, 0)" stroke="rgb(204, 204, 204)" stroke-width="1px"></line><line x1="58.59375" y1="167.55555555555554" x2="53.59375" y2="167.55555555555554" style="visibility: inherit;" fill="rgb(0, 0, 0)" stroke="rgb(204, 204, 204)" stroke-width="1px"></line><line x1="58.59375" y1="125.66666666666669" x2="53.59375" y2="125.66666666666669" style="visibility: inherit;" fill="rgb(0, 0, 0)" stroke="rgb(204, 204, 204)" stroke-width="1px"></line><line x1="58.59375" y1="83.77777777777783" x2="53.59375" y2="83.77777777777783" style="visibility: inherit;" fill="rgb(0, 0, 0)" stroke="rgb(204, 204, 204)" stroke-width="1px"></line><line x1="58.59375" y1="41.888888888888914" x2="53.59375" y2="41.888888888888914" style="visibility: inherit;" fill="rgb(0, 0, 0)" stroke="rgb(204, 204, 204)" stroke-width="1px"></line><line x1="58.59375" y1="0" x2="53.59375" y2="0" style="visibility: inherit;" fill="rgb(0, 0, 0)" stroke="rgb(204, 204, 204)" stroke-width="1px"></line></g><g transform="translate(48.59375, 0)"><text x="0" y="377" dx="0em" dy="0.3em" style="text-anchor: end; visibility: hidden; font-family: &quot;Helvetica Neue&quot;, sans-serif; font-size: 12px; font-weight: 200;" fill="rgb(50, 49, 63)" stroke="none" stroke-width="1px">-0.05</text><text x="0" y="335.1111111111111" dx="0em" dy="0.3em" style="text-anchor: end; visibility: inherit; font-family: &quot;Helvetica Neue&quot;, sans-serif; font-size: 12px; font-weight: 200;" fill="rgb(50, 49, 63)" stroke="none" stroke-width="1px">0</text><text x="0" y="293.22222222222223" dx="0em" dy="0.3em" style="text-anchor: end; visibility: inherit; font-family: &quot;Helvetica Neue&quot;, sans-serif; font-size: 12px; font-weight: 200;" fill="rgb(50, 49, 63)" stroke="none" stroke-width="1px">0.05</text><text x="0" y="251.33333333333331" dx="0em" dy="0.3em" style="text-anchor: end; visibility: inherit; font-family: &quot;Helvetica Neue&quot;, sans-serif; font-size: 12px; font-weight: 200;" fill="rgb(50, 49, 63)" stroke="none" stroke-width="1px">0.1</text><text x="0" y="209.44444444444443" dx="0em" dy="0.3em" style="text-anchor: end; visibility: inherit; font-family: &quot;Helvetica Neue&quot;, sans-serif; font-size: 12px; font-weight: 200;" fill="rgb(50, 49, 63)" stroke="none" stroke-width="1px">0.15</text><text x="0" y="167.55555555555554" dx="0em" dy="0.3em" style="text-anchor: end; visibility: inherit; font-family: &quot;Helvetica Neue&quot;, sans-serif; font-size: 12px; font-weight: 200;" fill="rgb(50, 49, 63)" stroke="none" stroke-width="1px">0.2</text><text x="0" y="125.66666666666669" dx="0em" dy="0.3em" style="text-anchor: end; visibility: inherit; font-family: &quot;Helvetica Neue&quot;, sans-serif; font-size: 12px; font-weight: 200;" fill="rgb(50, 49, 63)" stroke="none" stroke-width="1px">0.25</text><text x="0" y="83.77777777777783" dx="0em" dy="0.3em" style="text-anchor: end; visibility: inherit; font-family: &quot;Helvetica Neue&quot;, sans-serif; font-size: 12px; font-weight: 200;" fill="rgb(50, 49, 63)" stroke="none" stroke-width="1px">0.3</text><text x="0" y="41.888888888888914" dx="0em" dy="0.3em" style="text-anchor: end; visibility: inherit; font-family: &quot;Helvetica Neue&quot;, sans-serif; font-size: 12px; font-weight: 200;" fill="rgb(50, 49, 63)" stroke="none" stroke-width="1px">0.35</text><text x="0" y="0" dx="0em" dy="0.3em" style="text-anchor: end; visibility: hidden; font-family: &quot;Helvetica Neue&quot;, sans-serif; font-size: 12px; font-weight: 200;" fill="rgb(50, 49, 63)" stroke="none" stroke-width="1px">0.4</text></g><line x1="58.59375" y1="0" x2="58.59375" y2="377" fill="rgb(0, 0, 0)" stroke="rgb(204, 204, 204)" stroke-width="1px"></line></g></g><g transform="translate(58, 0)" clip-path="url(#clip_0)"><clipPath id="clip_0"><rect width="1454" height="377"></rect></clipPath><g><g><g><line x1="0" y1="0" x2="0" y2="377" fill="rgb(0, 0, 0)" stroke="rgb(60, 60, 60)" stroke-width="1px" opacity="0.25"></line><line x1="132.21875" y1="0" x2="132.21875" y2="377" fill="rgb(0, 0, 0)" stroke="rgb(60, 60, 60)" stroke-width="1px" opacity="0.25"></line><line x1="264.4375" y1="0" x2="264.4375" y2="377" fill="rgb(0, 0, 0)" stroke="rgb(60, 60, 60)" stroke-width="1px" opacity="0.25"></line><line x1="396.65625000000006" y1="0" x2="396.65625000000006" y2="377" fill="rgb(0, 0, 0)" stroke="rgb(60, 60, 60)" stroke-width="1px" opacity="0.25"></line><line x1="528.875" y1="0" x2="528.875" y2="377" fill="rgb(0, 0, 0)" stroke="rgb(60, 60, 60)" stroke-width="1px" opacity="0.25"></line><line x1="661.09375" y1="0" x2="661.09375" y2="377" fill="rgb(0, 0, 0)" stroke="rgb(60, 60, 60)" stroke-width="1px" opacity="0.25"></line><line x1="793.3124999999999" y1="0" x2="793.3124999999999" y2="377" fill="rgb(0, 0, 0)" stroke="rgb(60, 60, 60)" stroke-width="1px" opacity="0.25"></line><line x1="925.5312499999998" y1="0" x2="925.5312499999998" y2="377" fill="rgb(0, 0, 0)" stroke="rgb(60, 60, 60)" stroke-width="1px" opacity="0.25"></line><line x1="1057.7499999999998" y1="0" x2="1057.7499999999998" y2="377" fill="rgb(0, 0, 0)" stroke="rgb(60, 60, 60)" stroke-width="1px" opacity="0.25"></line><line x1="1189.96875" y1="0" x2="1189.96875" y2="377" fill="rgb(0, 0, 0)" stroke="rgb(60, 60, 60)" stroke-width="1px" opacity="0.25"></line><line x1="1322.1875" y1="0" x2="1322.1875" y2="377" fill="rgb(0, 0, 0)" stroke="rgb(60, 60, 60)" stroke-width="1px" opacity="0.25"></line><line x1="1454.40625" y1="0" x2="1454.40625" y2="377" fill="rgb(0, 0, 0)" stroke="rgb(60, 60, 60)" stroke-width="1px" opacity="0.25"></line></g><g><line x1="0" y1="377" x2="1454.40625" y2="377" fill="rgb(0, 0, 0)" stroke="rgb(60, 60, 60)" stroke-width="1px" opacity="0.25"></line><line x1="0" y1="335.1111111111111" x2="1454.40625" y2="335.1111111111111" fill="rgb(0, 0, 0)" stroke="rgb(60, 60, 60)" stroke-width="1px" opacity="0.25"></line><line x1="0" y1="293.22222222222223" x2="1454.40625" y2="293.22222222222223" fill="rgb(0, 0, 0)" stroke="rgb(60, 60, 60)" stroke-width="1px" opacity="0.25"></line><line x1="0" y1="251.33333333333331" x2="1454.40625" y2="251.33333333333331" fill="rgb(0, 0, 0)" stroke="rgb(60, 60, 60)" stroke-width="1px" opacity="0.25"></line><line x1="0" y1="209.44444444444443" x2="1454.40625" y2="209.44444444444443" fill="rgb(0, 0, 0)" stroke="rgb(60, 60, 60)" stroke-width="1px" opacity="0.25"></line><line x1="0" y1="167.55555555555554" x2="1454.40625" y2="167.55555555555554" fill="rgb(0, 0, 0)" stroke="rgb(60, 60, 60)" stroke-width="1px" opacity="0.25"></line><line x1="0" y1="125.66666666666669" x2="1454.40625" y2="125.66666666666669" fill="rgb(0, 0, 0)" stroke="rgb(60, 60, 60)" stroke-width="1px" opacity="0.25"></line><line x1="0" y1="83.77777777777783" x2="1454.40625" y2="83.77777777777783" fill="rgb(0, 0, 0)" stroke="rgb(60, 60, 60)" stroke-width="1px" opacity="0.25"></line><line x1="0" y1="41.888888888888914" x2="1454.40625" y2="41.888888888888914" fill="rgb(0, 0, 0)" stroke="rgb(60, 60, 60)" stroke-width="1px" opacity="0.25"></line><line x1="0" y1="0" x2="1454.40625" y2="0" fill="rgb(0, 0, 0)" stroke="rgb(60, 60, 60)" stroke-width="1px" opacity="0.25"></line></g></g></g><g><g><line x1="0" y1="335.1111111111111" x2="1454.40625" y2="335.1111111111111" fill="rgb(0, 0, 0)" stroke="rgb(153, 153, 153)" stroke-width="1.5px"></line></g></g><g><g><line x1="132.21875" y1="0" x2="132.21875" y2="377" fill="rgb(0, 0, 0)" stroke="rgb(153, 153, 153)" stroke-width="1.5px"></line></g></g><g><g><g><g><g><path stroke="rgb(255, 112, 67)" stroke-width="2px" d="M132.21875,251.3333320849472L132.47933111979165,251.3333320849472L132.74193224826388,251.33333208494716L132.88443467881945,251.3333320849472L133.13307938368055,251.3333320849472L133.37988771701387,251.33333208494716L133.50457734375,251.3333320849472L133.62577786458334,251.3333320849472L133.80262044270833,251.3333320849472L133.95063198784723,251.3333320849472L134.0988271701389,251.3333320849472L134.23324956597222,251.33333208494716L134.37538472222224,251.3333320849472L134.49585069444444,251.3333320849472L134.59574930555553,251.3333320849472L134.7101552517361,251.3333320849472L134.9736745659722,251.3333320849472L135.271350390625,251.3333320849472L135.38208359375,251.3333320849472L136.06815199652777,251.33333208494716L136.22865086805555,251.3333320849472L136.33001857638888,251.3333320849472L136.4886810763889,251.3333320849472L136.62328710937498,251.3333320849472L136.85026263020833,251.3333320849472L137.27244444444446,251.3333320849472L137.42027235243054,251.3333320849472L137.65367517361113,251.3333320849472L137.76551019965277,251.3333320849472L137.9239890625,251.3333320849472L138.07714244791666,251.3333320849472L138.29071245659722,251.3333320849472L138.57516640625002,251.3333320849472L138.71069062499998,251.3333320849472L139.06382486979166,251.3333320849472L139.21642734375,251.3333320849472L139.33340421006943,251.3333320849472L139.44505559895833,251.3333320849472L139.62648910590278,251.3333320849472L140.00404709201388,251.3333320849472L140.11918758680557,251.3333320849472L140.23322625868056,251.3333320849472L140.3999687934028,251.3333320849472L140.54394032118057,251.3333320849472L140.65871354166666,251.3333320849472L140.76008124999998,251.3333320849472L140.9011145833333,251.3333320849472L141.016255078125,251.3333320849472L141.1396592447917,251.3333320849472L141.38352938368055,251.3333320849472L141.51593177083333,251.3333320849472L141.6668815104167,251.3333320849472L141.8218712673611,251.3333320849472L142.1311162326389,251.3333320849472L142.38086276041668,251.3333320849472L142.4846177517361,251.3333320849472L142.7630116753472,251.3333320849472L142.88770130208334,251.3333320849472L143.15874973958333,251.3333320849472L143.2615865451389,251.3333320849472L143.3464269097222,251.3333320849472L143.46340377604167,251.3333320849472L143.58992977430555,251.3333320849472L143.70525390625,251.3333320849472L143.9755677951389,251.3333320849472L144.14524852430557,251.3333320849472L144.27177452256944,251.3333320849472L144.38232408854165,251.3333320849472L145.00136493055555,251.3333320849472L145.1405618923611,251.3333320849472L145.37488289930556,251.3333320849472L145.62922035590276,251.3333320849472L145.75317543402778,251.3333320849472L145.84425946180554,251.3333320849472L146.20125008680554,251.3333320849472L146.30280143229166,251.3333320849472L146.7123122829861,251.3333320849472L147.18536158854164,251.3333320849472L148.1231965277778,268.6124997503228L148.9701310763889,278.98000034954816L149.0955552517361,267.92133304370776L149.52838802083335,261.2861326602035L149.67805230034722,257.305012430101L149.8029255642361,254.91634029203945L149.92467699652778,253.48313700920255L150.17662717013886,252.6232150395004L150.31325321180555,252.10726185767913L150.68493480902777,251.7976899485863L151.14053858506944,251.61194680313068L151.26449366319443,251.5005009158573L151.59228598090277,251.43363338349326L151.94376749131945,251.3935128640748L152.06662074652778,251.36944055242373L152.21555047743053,251.35499716543313L152.35346197916664,251.34633113323872L152.47558068576387,251.3411315139221L152.6026575954861,251.3380117423321L152.84285499131943,251.33613987937815L152.94605907118054,251.33501676160577L153.06009774305554,251.3343428909423L153.16550546874998,251.33393856854428L153.42939205729166,251.3336959751054L153.560508984375,251.33355041904213L153.68501497395832,251.33346308540413L153.920805078125,251.33341068522134L154.08736397569442,251.33337924511164L154.21297178819444,251.33336038104588L154.4843875,251.33334906260637L154.6099953125,251.33334227154268L154.79638702256943,251.3333381969045L154.8927965277778,251.33333575212157L155.14419578993056,251.3333342852518L155.28871822916665,251.33333340512996L155.4429734375,251.33333287705685L155.74156744791668,251.33333256021297L155.88021349826388,251.33333237010663L156.25391510416665,251.33333225604287L156.37327925347222,251.33333218760458L156.47207604166667,251.33333214654164L156.61825121527775,251.33333212190382L156.83806488715277,251.33333210712118L156.96550907118055,251.33333209825156L157.2012991753472,251.33333209292977L157.49107860243055,251.33333208973676L157.6633302517361,251.3333320878209L157.78985624999999,251.33333208667142L157.90738402777777,251.33333208598168L158.19091979166666,251.33333208556792L158.32148580729165,251.33333208531957L158.73724032118056,251.33333208517064L159.32726649305556,251.33333208508122L159.82051588541665,251.33333208502762L160.13765724826388,251.33333208499545L160.28254696180554,251.33333208497615L160.416051171875,251.33333208496458L160.54533172743055,251.3333320849576L160.65239218749997,251.33333208495344L161.011035546875,251.33333208495094L161.16584166666667,251.3333320849494L161.32725872395832,251.33333208494852L161.559743359375,251.33333208494795L161.97274331597222,251.33333208494764L162.12883489583334,251.33333208494747L162.283641015625,251.33333208494736L162.3853759982639,251.33333208494724L162.49335464409722,251.33333208494722L162.61253515624998,251.33333208494722L162.83767430555554,251.3333320849472L162.95244752604165,251.3333320849472L163.09219539930555,251.3333320849472L163.37866935763887,251.3333320849472L163.483526171875,251.3333320849472L163.65467599826388,251.3333320849472L163.7725710503472,251.3333320849472L163.93619175347223,251.3333320849472L164.0504140625,251.3333320849472L164.45037578125,251.3333320849472L164.5835127170139,251.3333320849472L164.8791685329861,251.3333320849472L165.46313467881942,251.3333320849472L165.57607152777777,251.3333320849472L165.846936328125,251.3333320849472L165.96611684027775,251.3333320849472L166.10972109375,251.3333320849472L166.26397630208334,251.3333320849472L166.40666236979166,251.3333320849472L166.55908120659723,251.3333320849472L167.04369965277778,251.3333320849472L167.49893615451387,251.3333320849472L167.6524568142361,251.3333320849472L167.80138654513888,251.3333320849472L167.92993255208333,251.3333320849472L168.15121532118053,251.3333320849472L168.42318194444445,251.3333320849472L168.70267769097222,251.3333320849472L168.90871857638888,251.3333320849472L169.1729724392361,251.3333320849472L169.28242018229165,251.3333320849472L169.39811158854167,251.3333320849472L169.53712491319445,251.3333320849472L169.62673984375,251.3333320849472L169.92790477430555,251.3333320849472L170.044881640625,251.3333320849472L170.28048810763886,251.3333320849472L170.50893272569445,251.3333320849472L170.74031553819444,251.3333320849472L171.32152712673607,251.3333320849472L171.54134079861112,251.3333320849472L171.68274140625,251.3333320849472L171.96499171006946,251.3333320849472L172.05075026041663,251.3333320849472L172.20243454861108,251.3333320849472L172.35099700520834,251.3333320849472L172.45713927951388,251.3333320849472L172.59762170138887,251.3333320849472L172.73167682291665,251.3333320849472L172.8866665798611,251.3333320849472L173.0100707465278,251.3333320849472L173.15036953125,251.3333320849472L175.46933949652777,266.66892602046335L176.23620824652778,275.870282381773L177.63258515624997,281.3910961985588L178.63395855034722,269.36799055311417L179.22582109375003,262.1541271658474L179.32792335069442,257.82580913348727L179.46381484375,255.22881831407122L179.66269388020834,253.67062382242162L179.85826744791663,252.7357071274318L179.99066983506944,252.17475711043795L180.13005043402777,251.83818710024164L180.2565764322917,251.63624509412384L180.384387890625,251.5150798904532L180.4776755642361,251.44238076825076L180.8816773003472,251.39876129492933L181.534691015625,267.12567634011856L182.92445698784718,276.1443325735662L184.33130121527776,281.5555263136347L185.8797296875,285.2197353513418L186.77569535590277,287.4182607739661L188.18070321180554,288.3198832338747L188.97530117187497,289.57680368218996L189.7331717013889,289.615008978809L190.4188728298611,289.6379321567804L191.22577447916666,290.3676330359334L192.03873615451386,290.08950659105506L192.81901041666666,289.92263072412806L193.51444431423613,289.82250520397184L194.18031263020836,289.7624298918781L195.7190083333333,281.57174272203997L197.43546480034723,285.95725311158833L198.43996002604166,279.2886366538661L199.9237482204861,283.44210876181467L201.3441815972222,286.35168482024983L202.0019698784722,288.09743045531087L202.85863719618058,282.26890787340625L203.66113155381942,278.4411367758889L204.4454458333333,278.4324338983364L205.35518428819447,278.9274330202593L206.10791297743052,283.2253865816506L207.05639887152776,287.35400892737715L207.8320822048611,289.16079271898593L208.6320056423611,290.2448629939512L209.3862034288194,290.89530515893034L210.49004635416665,259.99051782688406L211.4100684895833,263.7922897887284L212.858965625,275.02376123579666L214.45440520833333,281.9010127304732L215.2247630642361,286.02736362727916L215.49342421874996,237.82129600591918L216.35523337673612,254.0605294363546L217.53638754340272,262.1090457062697L219.13311258680557,264.97971221067496L219.94607426215276,275.8745833154002L221.59054496527773,276.8925018220432L222.3598009982639,277.503252926029L223.31471419270835,276.29493434316686L224.18258337673612,275.56994319344955L225.2219696614583,273.32221188642484L227.00820824652777,271.97357310221L227.95357230902775,270.89842864823913L228.84457977430557,273.9068090217466L229.57692473958332,280.63050497620895L234.19117547743056,276.09258777263847L235.01111536458333,283.0743296419699L236.60728949652778,286.13101734834294L237.32751440972223,287.96502997216675L238.00476822916664,289.06543754646106L239.76731762152778,284.8070143606797L240.59699027777776,282.25196044921097L242.1461532986111,280.71892810232964L243.6707089409722,279.79910869420087L247.8128285590278,279.2472170493236L248.67316861979165,278.91608206239727L251.00370772569445,284.63853787665L251.86496597222222,288.07201136520166L252.63312018229163,284.2109586519241L253.40200894097222,281.89432702395754L254.2250706597222,280.5043480471776L255.09606167534722,279.67036066110967L256.49152039930556,285.0911050358775L257.9378466145833,288.3435516607381L259.35258723958333,290.1587957366609L260.47405933159723,250.9737072283608L262.93259353298606,257.9135168158428L263.8401283420138,260.86662777576674L265.9291845920139,263.8492691442864L266.8148665798611,269.3463786292703L267.7319505208333,268.7958497804912L268.44960451388886,278.5663985075064L270.14549361979164,273.2583567907649L271.0342974392361,270.07353176072L273.1995631076389,213.07938712739468L273.8406404079861,178.8829003473995L275.3099212673611,213.44825789470076L277.8415430555555,234.18747242308154L278.41742916666664,191.5477515248116L279.94106662326385,162.42700626644103L280.8284013454861,144.9545591114186L281.66395039062496,134.47109081840523L282.470484765625,128.18100984259718L283.18060963541666,124.40696125711236L284.516569921875,127.00528586796062L285.2821532118055,123.70152687233042L285.95004153645834,121.71927147495228L286.59442430555555,120.52991823652536L287.29334730902775,119.81630629346921L287.9296500434028,119.38813912763561L288.60910750868055,119.1312388281354L289.9876716145833,118.97709864843529L291.3497083767361,118.88461454061519L292.0069457465278,118.82912407592318L294.76297213541665,150.95503156481743L296.03649578993054,170.006765385394L300.90820581597217,181.38693643803876L305.3300048177083,188.21503906962565L306.646683203125,192.31190064857773L309.4684516927083,194.770017595949L311.2139228298611,196.24488776437178L314.4152693142361,197.12980986542541L315.91980850694443,197.66076312605765L317.27651979166666,197.97933508243693L321.567569140625,198.17047825626452L323.08661566840277,198.2851641605611L326.0086500434027,198.35397570313904L332.0672069878472,198.39526262868577L336.3608272569444,198.42003478401384L337.90282842881936,198.43489807721065L339.3093053819444,198.44381605312878L340.6911749565972,198.44916683867962L342.142459375,198.45237731001015L343.5856637586806,197.9710033705176L345.0152789930555,198.1654792291129L347.86587851562496,198.28216474427015L349.2738245659721,198.35217605336447L350.7846074218749,198.39418283882102L352.18080069444443,198.419386910095L353.55091749131947,198.43450935285935L355.04131662326387,198.443582818518L356.5442030815972,198.4490268979132L360.86316527777774,198.22734913814688L362.23401662326387,198.31928668969053L363.77124322916654,198.1495050132133L372.76634188368047,193.95459221640374L375.84391692708334,195.7556325366446L377.26930850694447,196.61131252138574L378.6243670572917,197.12472051223045L380.3630436197916,196.14940934218254L381.96399231770835,192.75453481378526L383.70872890625,191.80341644003747L385.3533832465277,190.88393633248597L386.9802247829861,190.14207411218993L388.4645638888888,189.51616050116476L390.1297855902778,189.51158276916235L391.17890464409714,150.88594518071162L392.7190694444444,169.62292617009197L394.33562730034726,176.83864491053095L395.9628361111111,181.07512631403674L397.5301792100694,183.61701515614018L399.19925729166664,185.8029242553256L400.7866168402777,186.54664376167108L403.9031229600695,190.0774479396402L405.2741579427083,193.20440176318309L406.8020190538194,191.56904851907626L409.49487426215273,194.09936211084474L412.09407452256943,156.3150628528173L415.0598145399306,171.93849939432795L416.15576106770834,137.36516353086864L419.90599900173606,160.56855980115876L421.55212243923603,174.4905975633328L423.2902480902777,177.86221510146183L425.6775310763889,140.919392955149L426.7909231336805,118.75369966736122L427.86924049479165,105.45428369468863L430.31785828993054,96.0855298507463L431.4788123697917,90.46427754438099L432.6219536458333,88.48063042090047L434.05909800347223,132.17973731420528L436.3855970920139,112.12080202245636L437.5026618923611,101.47454510774566L438.6731651041666,95.08679095891927L439.9040849392361,88.97581373313426L441.2088269097222,87.58755213415242L442.4845542100694,86.75459517476327L444.31872209201384,127.85464357332145L445.63191137152774,110.91485003826472L447.37646432291666,142.40922595777582L450.6481438368055,164.37666676803843L452.19638867187496,173.69088926929882L453.40765933159724,138.5848998858981L456.69109162326384,117.35300382581067L457.8070546006944,102.33554145326906L458.9738850694444,93.32506402974411L461.3183805989583,90.19710231211826L462.4558291232638,86.04200054505367L463.510273654514,83.54893948481487L464.65543493923605,82.05310284867159L466.92555742187494,81.1556008669856L469.21459453124993,82.8954244144632L470.38840321180555,83.93931854294982L471.63823767361106,84.56565502004179L473.9151547309027,84.94145690629693L476.6346373263888,124.31697253192021L479.04909861111116,122.1397326908118L480.1500033420139,104.0924403475023L481.4053469184028,96.65752810277326L484.81199973958326,89.91825601944663L489.2288405381944,84.03888597581391L490.22709210069445,80.51126394963427L491.19265625,78.3946907339265L492.2331443576389,77.1247468045018L493.24314869791664,76.36278044684701L495.2846429253471,75.9056006322541L496.3561657118055,75.63129274349842L499.5497994357638,75.46670801024493L500.72893359375,75.36795717029293L502.74600407986105,75.30870666632171L504.85654587673605,75.27315636393894L505.91209223090266,75.25182618250926L509.2614502604166,75.23902807365153L511.42065590277775,75.23134920833684L512.5325788628472,75.226741889148L513.6573564236111,75.22397749763479L515.6885669704861,75.22231886272675L516.8840448350693,75.221323681782L518.0334297743055,75.22072657321513L519.1574727864582,75.22036830807497L520.1357078993055,75.22015334899095L521.2705855034721,75.22002437354053L522.2741625434028,75.21994698827018L523.8539929687499,117.28222523997954L524.907519314236,100.45726750813361L529.229603342014,90.36229286902613L530.3925774305555,84.30530808556165L533.0191396267361,122.73344189835439L535.0450246961806,101.99561700702748L536.1650276909722,89.55292207223135L537.241875954861,82.08730511135366L538.1984418836805,77.60793493482714L539.2765756076388,74.92031282891116L540.3699512152778,73.30773956536154L541.4014411024305,72.3401956072318L542.5352168836805,71.75966923235399L543.7165546874999,71.41135340742727L545.9785971354167,71.20236391247124L547.0016397135415,71.07697021549762L548.0933625868055,71.00173399731341L549.2065710069444,70.95659226640294L550.2896629340278,70.92950722785667L552.3924919704862,70.91325620472884L553.3549342881944,70.9035055908522L554.3610822482639,70.89765522252623L556.5096369357639,70.89414500153066L557.6030125434028,70.89203886893324L558.6007131944443,70.89077518937484L559.6748069010416,70.8900169816398L560.7997680989583,70.88956205699878L561.9346457031249,70.8892891022141L563.0529959635417,70.88912532934341L564.1557370659722,70.8890270656209L565.2182616319444,70.88896810738743L568.191898046875,70.88893273244736L570.34871640625,70.88891150748327L572.5661350260416,70.88889877250483L575.8760110677083,70.88889113151777L576.9603884548611,70.88888654692556L578.0416440104167,70.8888837961702L579.0920485243055,70.88888214571699L580.153471267361,70.88888115544506L581.191572092014,70.8888805612819L582.2181037760416,70.88888020478402L583.3032157118055,70.8888799908853L584.3743712239582,70.88887986254605L585.4267957465278,70.88887978554254L586.4219254774305,70.88887973934038L587.5797577256944,70.88887971161915L588.5677256076389,70.88887969498631L591.6688062065972,70.88887968500671L592.7495108506944,70.88887967901888L593.7503333333333,70.88887967542621L595.8127621961805,70.88887967327065L596.8697776475694,70.88887967197724L599.047530642361,70.88887967120121L600.2371321180555,70.8888796707356L601.4050644097222,70.88887967045628L602.4931145399305,70.88887967028865L603.5626173177083,70.88887967018803L604.6815184895834,70.88887967012772L607.9476888888888,70.88887967009151L609.0278426215278,70.8888796700698L610.0578634114582,70.88887967005678L614.233588628472,70.88887967004894L615.2441438802083,70.88887967004422L617.4430151475694,70.88887967004149L618.5637526909721,70.88887967003978L619.7089139756944,70.88887967003876L620.6103887586804,70.88887967003814L622.8368055989583,70.88887967003774L625.012905859375,70.88887967003757L626.0225429253472,70.8888796700374L627.0714783420138,70.88887967003734L629.3278280381944,70.88887967003728L630.5005348958332,70.88887967003728L631.4703226996528,70.88887967003728L632.4292759114584,70.88887967003728L633.6253046874999,70.88887967003728L634.5660778211804,70.88887967003728L635.5863658420138,70.88887967003728L636.6694577690972,70.88887967003728L639.8845770399305,70.88887967003728L640.788990017361,70.88887967003728L642.9079791232639,70.88887967003728L645.0822430121527,70.88887967003728L646.2193242621527,70.88887967003728L647.2724833333333,70.88887967003728L648.3489643229167,70.88887967003728L650.5448973958333,70.88887967003728L651.5534326388889,70.88887967003728L652.6130190104167,70.88887967003728L653.6380815972221,70.88887967003728L654.5674692274305,70.88887967003728L655.6738830729166,70.88887967003728L656.8520990451387,70.88887967003728L657.8780798177083,70.88887967003728L661.1159700954862,70.88887967003728L662.139012673611,70.88887967003728L664.5283156684027,70.88887967003728L665.8137757378472,70.88887967003728L667.07995390625,70.88887967003728L668.4311560763889,70.88887967003728L670.7596751736111,70.88887967003728L673.1530181857638,70.88887967003728L674.2070954427082,70.88887967003728L675.2209561631945,70.88887967003728L676.241060546875,70.88887967003728L677.3553707899306,70.88887967003728L678.3325040798611,70.88887967003728L679.3474666232639,70.88887967003728L680.3888729166666,70.88887967003728L682.467645486111,70.88887967003728L683.6280486545139,70.88887967003728L684.6668840277778,70.88887967003728L686.8600625434028,70.88887967003728L688.8864985243056,70.88887967003728L689.8698754774305,70.88887967003728L691.0715970052083,70.88887967003728L692.2687276041667,70.88887967003728L693.3551249999999,70.88887967003728L694.4090186197916,70.88887967003728L696.5100112847222,70.88887967003728L697.4948573350694,70.88887967003728L698.5524236979165,70.88887967003728L700.8170370659722,70.88887967003728L701.9407128038195,70.88887967003728L704.1439913628471,70.88887967003728L707.3547033420139,70.88887967003728L709.4077667100694,70.88887967003728L710.5698226128471,70.88887967003728L711.667421875,70.88887967003728L714.9288177083332,70.88887967003728L716.0376188368056,70.88887967003728L718.4124144965277,70.88887967003728L719.5223174479165,70.88887967003728L721.5988863715278,70.88887967003728L722.6942819878471,70.88887967003728L723.7832503038194,70.88887967003728L725.9268467881944,70.88887967003728L726.9267510850693,70.88887967003728L730.1600504340279,70.88887967003728L731.1777675347221,70.88887967003728L733.3424822916666,70.88887967003728L734.3297156250001,70.88887967003728L735.4107875434028,70.88887967003728L736.5003067708334,70.88887967003728L738.4738552517359,70.88887967003728L739.5725563368055,70.88887967003728L740.6833774739583,70.88887967003728L741.8109095920138,70.88887967003728L743.9866425781249,70.88887967003728L746.1774338107638,70.88887967003728L748.2350881076388,70.88887967003728L749.3152418402777,70.88887967003728L750.3852955295139,70.88887967003728L751.4992384982639,70.88887967003728L752.71803828125,70.88887967003728L757.2248612847221,70.88887967003728L758.1428634114582,70.88887967003728L759.2443190538193,70.88887967003728L760.4111495225693,70.88887967003728L763.5957850260415,70.88887967003728L764.5931184027777,70.88887967003728L765.7077959201389,70.88887967003728L766.7385512586806,70.88887967003728L767.7009935763888,70.88887967003728L769.6815202690972,70.88887967003728L770.7739776909722,70.88887967003728L771.8148330729167,70.88887967003728L772.984601736111,70.88887967003728L775.1768620659722,70.88887967003728L776.1822754774304,70.88887967003728L777.1889743489583,70.88887967003728L778.3479084201389,70.88887967003728L779.4583622829861,70.88887967003728L780.5207032118055,70.88887967003728L781.5685368055555,70.88887967003728L783.7727335503472,74.98059018452972L784.7845742621527,73.34390597873272L785.7501384114582,72.36189545525451L787.9431332899304,71.77268914116763L789.1196965277777,71.41916535271542L791.3339933159723,71.20705107964415L792.454730859375,71.07978251580136L796.5158664930553,71.00342137749573L797.6277894531248,70.95760469451233L799.7706513888888,70.9301146847223L800.7883684895831,70.91362067884825L801.8949659722222,70.90372427532384L803.0083580295137,70.8977864332092L804.0921845052081,70.89422372794041L805.1222052951388,70.89208610477914L806.1401060329861,70.89080353088235L808.2464241753471,70.89003398654427L809.3978291232639,70.88957225994147L810.3984679687499,70.88929522397979L811.3401592881943,70.88912900240274L813.3809189670137,70.8890292694565L814.4790691406249,70.88896942968881L815.5605083333332,70.88893352582818L816.5330506944445,70.88891198351178L817.6040225694443,70.88889905812192L818.6544270833332,70.88889130288806L824.7836843315971,70.88888664974775L826.0430679253471,70.8888838578635L827.1191816406249,70.88888218273303L828.1883171440971,70.88888117765464L829.2697563368055,70.8888805746077L833.5512565538195,70.8888802127795L836.6321370659722,70.8888799956826L837.7488345920137,70.88887986542443L839.7787596788194,70.8888797872695L842.7639652343748,70.88887974037658L843.7737859375,70.8888797122408L845.8868986545137,70.88887969535938L846.9238976562499,70.8888796852305L848.0279242187498,70.8888796791532L849.0606995659722,70.88887967550681L851.2397380208332,70.88887967331897L852.2934480034722,70.88887967200628L853.2997796006944,70.8888796712186L854.5171102864582,70.88887967074601L855.632889626736,70.88887967046253L856.6434448784721,70.8888796702924L857.658223784722,70.8888796701903L858.7080773871526,70.88887967012909L859.8034730034722,70.88887967009231L861.7942833767361,70.88887967007025L862.8702134548611,70.88887967005707L865.1502523437498,70.88887967004916L867.2387576822915,70.88887967004433L868.2922840277777,70.88887967004149L870.4863807291665,70.88887967003978L872.7276721788193,70.88887967003876L873.755122048611,70.88887967003814L874.7638409288193,70.88887967003774L875.9009221788194,70.88887967003757L879.2227346354166,70.8888796700374L880.3080302083332,70.88887967003734L881.4153622395831,70.88887967003728L882.4784377170138,70.88887967003728L884.5553739149304,70.88887967003728L885.5774983072916,70.88887967003728L887.6257871093749,70.88887967003728L888.7195299913194,70.88887967003728L893.6327420138888,70.88887967003728L894.6052843749998,70.88887967003728L896.5617546006943,70.88887967003728L897.5420097222221,70.88887967003728L899.5638547743055,70.88887967003728L900.5685336371527,70.88887967003728L901.5994726128472,70.88887967003728L902.7631812499998,70.88887967003728L904.8469120225693,70.88887967003728L905.892541970486,70.88887967003728L906.8235823350693,70.88887967003728L908.8806857204861,70.88887967003728L909.8076860677081,70.88887967003728L910.7732502170137,70.88887967003728L911.8119019531249,70.88887967003728L913.9068345920136,70.88887967003728L915.045384939236,70.88887967003728L917.1775959201387,70.88887967003728L920.5609268229166,70.88887967003728L922.7555744357638,70.88887967003728L923.8113044270832,70.88887967003728L924.8912745225693,70.88887967003728L925.8684078124998,70.88887967003728L927.9049438368054,70.88887967003728L929.8988760416664,70.88887967003728L931.0242045138888,70.88887967003728L932.0735072048609,70.88887967003728L933.1722082899305,70.88887967003728L934.2139818576388,70.88887967003728L935.2809137152777,70.88887967003728L936.2786143663193,70.88887967003728L937.3437098524305,70.88887967003728L938.3763015624999,70.88887967003728L941.5440424479166,70.88887967003728L942.4985883680554,70.88887967003728L943.5695602430554,70.88887967003728L949.2937139322914,70.88887967003728L950.4309788194442,70.88887967003728L951.6479422309027,70.88887967003728L953.0079589843749,70.88887967003728L955.5004660590276,70.88887967003728L956.6931893663193,70.88887967003728L957.6378188802083,70.88887967003728L958.8342149305554,70.88887967003728L959.9163886718749,70.88887967003728L965.6120786024304,70.88887967003728L966.6997614583332,70.88887967003728L967.8241717447914,70.88887967003728L968.9408692708332,70.88887967003728L970.1324907552082,70.88887967003728L971.1740806857639,70.88887967003728L973.3009661892361,70.88887967003728L974.4064618489581,70.88887967003728L975.532157595486,70.88887967003728L976.6238804687499,70.88887967003728L977.7903436631944,70.88887967003728L978.8458900173611,70.88887967003728L979.7881322482637,70.88887967003728L980.8895878906249,70.88887967003728L982.0874530381943,70.88887967003728L984.1096653645832,70.88887967003728L985.2138755642359,70.88887967003728L986.2986202256943,70.88887967003728L987.4408433159721,70.88887967003728L988.5428498697917,70.88887967003728L989.5925198350693,70.88887967003728L990.716562847222,70.88887967003728L992.9088231770833,70.88887967003728L995.2874752170138,70.88887967003728L997.3917733506944,70.88887967003728L998.5945967013887,70.88887967003728L999.7408598090276,70.88887967003728L1001.9378947048609,70.88887967003728L1004.0849802951387,70.88887967003728L1005.2042487413194,70.88887967003728L1007.4385619791665,70.88887967003728L1009.8317213541666,70.88887967003728L1010.9653134982638,70.88887967003728L1012.0193907552083,70.88887967003728L1014.2050401475693,70.88887967003728L1017.4456849826387,70.88887967003728L1018.5038022569444,70.88887967003728L1021.7132287760415,70.88887967003728L1023.847276128472,70.88887967003728L1027.0177715711804,70.88887967003728L1030.3827387586805,70.88887967003728L1031.5185345486111,70.88887967003728L1032.6763667968748,70.88887967003728L1033.898472048611,70.88887967003728L1034.9428165364582,70.88887967003728L1036.1640036024303,70.88887967003728L1037.1800679687499,70.88887967003728L1038.2427761718748,70.88887967003728L1039.3098916666663,70.88887967003728L1040.372416232639,70.88887967003728L1042.4882835069443,70.88887967003728L1043.5880864149303,70.88887967003728L1044.636287282986,70.88887967003728L1047.9683834201387,70.88887967003728L1049.0165842881943,70.88887967003728L1051.2543866319443,70.88887967003728L1052.475206423611,70.88887967003728L1053.6185313368055,70.88887967003728L1054.7497361979165,70.88887967003728L1056.7884758680555,70.88887967003728L1060.1235101996526,70.88887967003728L1061.2440641059027,70.88887967003728L1062.2779412760417,70.88887967003728L1063.4029024739582,70.88887967003728L1064.4626724826387,70.88887967003728L1065.522809765625,70.88887967003728L1066.556503298611,70.88887967003728L1067.4587126302083,70.88887967003728L1068.656210503472,70.88887967003728L1069.8746430121528,70.88887967003728L1071.054328081597,70.88887967003728L1072.1728619791666,70.88887967003728L1073.109778732639,70.88887967003728L1074.16165234375,70.88887967003728L1076.1733973524306,70.88887967003728L1077.280362109375,70.88887967003728L1078.4053233072916,70.88887967003728L1079.5407518229165,70.88887967003728L1081.712077517361,70.88887967003728L1082.8700934027777,70.88887967003728L1087.0662023437499,70.88887967003728L1090.1320246093749,70.88887967003728L1093.5074591145833,70.88887967003728L1094.6649240885415,70.88887967003728L1095.6288355034721,70.88887967003728L1096.8248642795138,70.88887967003728L1098.8953731770832,70.88887967003728L1099.9387994791666,70.88887967003728L1100.9478856336805,70.88887967003728L1102.0223466145833,70.88887967003728L1103.0843202690971,70.88887967003728L1105.141240017361,70.88887967003728L1106.1497752604164,70.88887967003728L1107.2885092447916,70.88887967003728L1108.3172445746527,70.88887967003728L1109.3344107638886,70.88887967003728L1110.4325609374998,70.88887967003728L1111.5097764756943,70.88887967003728L1112.5664246527776,70.88887967003728L1113.6719203125,70.88887967003728L1114.672559157986,70.88887967003728L1115.7281055121525,70.88887967003728L1117.8841893229167,70.88887967003728L1119.0054777777777,70.88887967003728L1121.0991249565973,70.88887967003728L1122.2070078993056,70.88887967003728L1123.3595146701389,70.88887967003728L1125.5719750868054,70.88887967003728L1126.6844489583332,70.88887967003728L1127.7859046006943,70.88887967003728L1129.0146207899304,70.88887967003728L1130.2312169270833,70.88887967003728L1131.4266947916665,70.88887967003728L1135.6518184027777,70.88887967003728L1137.891824392361,70.88887967003728L1141.2891117187498,70.88887967003728L1142.1984828993054,70.88887967003728L1144.3290411458331,70.88887967003728L1145.3777929253472,70.88887967003728L1146.5617016493054,70.88887967003728L1148.551961111111,70.88887967003728L1149.577574609375,70.88887967003728L1150.5040240451387,70.88887967003728L1151.6113560763886,70.88887967003728L1152.6736970052084,70.88887967003728L1153.7479743489582,70.88887967003728L1154.923068489583,70.88887967003728L1156.2030194444444,70.88887967003728L1157.352037109375,70.88887967003728L1158.4454127170138,70.88887967003728L1160.636571223958,70.88887967003728L1161.800279861111,70.88887967003728L1162.8565607638889,70.88887967003728L1165.0401901475693,70.88887967003728L1166.2127133680553,70.88887967003728L1167.278176128472,70.88887967003728L1168.459146657986,70.88887967003728L1169.5168966579859,70.88887967003728L1170.6659143229165,70.88887967003728L1172.8425654947916,70.88887967003728L1173.9748721788194,70.88887967003728L1174.9788164930555,70.88887967003728L1176.0354646701387,70.88887967003728L1177.0572217881943,70.88887967003728L1178.0769588975693,70.88887967003728L1179.2090819444443,70.88887967003728L1181.5276846354166,70.88887967003728L1182.5881891927081,70.88887967003728L1183.6442864583332,70.88887967003728L1184.7257256510416,70.88887967003728L1185.7223244791667,70.88887967003728L1186.7802581163194,70.88887967003728L1187.8442517795138,70.88887967003728L1188.7809848958332,70.88887967003728L1192.0488080295138,70.88887967003728L1193.1671582899303,70.88887967003728L1195.42607890625,70.88887967003728L1199.6576298177083,70.88887967003728L1200.6861815104164,70.88887967003728L1202.9390421006945,70.88887967003728L1204.0528014322915,70.88887967003728L1205.1540734374998,70.88887967003728L1207.4462323784721,70.88887967003728L1209.5630178385416,70.88887967003728L1210.7722684895832,70.88887967003728L1211.8322221354165,70.88887967003728L1214.0804917968749,70.88887967003728L1215.2704605468748,70.88887967003728L1216.294972222222,70.88887967003728L1217.5293811631946,70.88887967003728L1219.488055034722,70.88887967003728L1220.5678414930553,70.88887967003728L1221.6435879340277,70.88887967003728L1222.7220889322914,70.88887967003728L1223.804262673611,70.88887967003728L1226.009010329861,70.88887967003728L1227.2526011284722,70.88887967003728L1228.3904169270832,70.88887967003728L1230.465516753472,70.88887967003728L1231.506739409722,70.88887967003728L1234.641241970486,70.88887967003728L1236.7446219184028,70.88887967003728L1237.8076973958332,70.88887967003728L1240.0054668402777,70.88887967003728L1241.0286930555553,70.88887967003728L1242.098379470486,70.88887967003728L1243.2360116319442,70.88887967003728L1244.1980866753472,70.88887967003728L1245.3109278211803,70.88887967003728L1246.5183421006943,70.88887967003728L1249.9299531249999,70.88887967003728L1251.071992578125,70.88887967003728L1252.1787736979165,70.88887967003728L1253.2776584201388,70.88887967003728L1254.3541394097222,70.88887967003728L1255.4074821180554,70.88887967003728L1256.5287705729165,70.88887967003728L1258.8178076822915,70.88887967003728L1259.8852904513888,70.88887967003728L1261.0581809461803,70.88887967003728L1262.2134422743054,70.88887967003728L1263.3033287760416,70.88887967003728L1264.5570196180554,70.88887967003728L1267.7078658854166,70.88887967003728L1269.932813628472,70.88887967003728L1270.9850545138888,70.88887967003728L1272.2251562065971,70.88887967003728L1273.3468119357638,70.88887967003728L1274.4056637586805,70.88887967003728L1275.4591901041665,70.88887967003728L1276.4152051215276,70.88887967003728L1277.4266785590276,70.88887967003728L1278.5167486979165,70.88887967003728L1279.5003092881943,70.88887967003728L1282.7534414496527,70.88887967003728L1283.729105642361,70.88887967003728L1286.8386335503471,70.88887967003728L1287.9483528645833,70.88887967003728L1290.1464895833333,70.88887967003728L1291.253821614583,70.88887967003728L1292.2891678819442,70.88887967003728L1294.9021409288193,70.88887967003728L1295.8972706597222,70.88887967003728L1296.965671614583,70.88887967003728L1299.0180004340277,70.88887967003728L1300.1470016493054,70.88887967003728L1301.1941006944444,70.88887967003728L1303.3127225260416,70.88887967003728L1304.4507219618054,70.88887967003728L1305.565032204861,70.88887967003728L1307.7290124131944,70.88887967003728L1308.7720714409722,70.88887967003728L1309.9333927951388,70.88887967003728L1312.209758940972,70.88887967003728L1313.1393302083331,70.88887967003728L1315.3180013888887,70.88887967003728L1316.5296393229164,70.88887967003728L1317.649825954861,70.88887967003728L1318.8823985243055,70.88887967003728L1319.8799155381944,70.88887967003728L1320.9409710069442,70.88887967003728L1322.9189267795139,70.88887967003728L1323.9423366319443,70.88887967003728L1327.2893073784724,70.88887967003728L1329.5419843315972,70.88887967003728L1332.9813245659723,70.88887967003728L1337.3215886718751,70.88887967003728L1342.8690834201388,70.88887967003728L1346.5254827690972,70.88887967003728L1347.7488734809028,70.88887967003728L1348.8292108506944,70.88887967003728L1349.9218519097221,70.88887967003728L1350.9678491319444,70.88887967003728L1352.054797439236,70.88887967003728L1354.2029848524305,70.88887967003728L1355.5218668836806,70.88887967003728L1357.6893361979164,70.88887967003728L1358.7481880208334,70.88887967003728L1361.093601736111,70.88887967003728L1362.127295269097,70.88887967003728L1363.3266295138887,70.88887967003728L1364.2978864149306,70.88887967003728L1366.4480938368054,70.88887967003728L1367.7825850260415,70.88887967003728L1369.037377690972,70.88887967003728L1370.2760102864584,70.88887967003728L1371.4812209201389,70.88887967003728L1372.4904907118055,70.88887967003728L1373.4927822916666,70.88887967003728L1374.6122343749998,70.88887967003728L1375.657497048611,70.88887967003728L1376.794761935764,70.88887967003728L1377.7630806423613,70.88887967003728L1379.9806828993055,70.88887967003728L1381.213071831597,70.88887967003728L1383.4965998263888,70.88887967003728L1386.9054562934027,70.88887967003728L1389.1904533854167,70.88887967003728L1393.693787282986,70.88887967003728L1394.8455595052083,70.88887967003728L1395.9782334635415,70.88887967003728L1397.1085201388887,70.88887967003728L1398.072064279514,70.88887967003728" style="fill: none;" fill="none"></path></g></g></g></g><g opacity="0.2"><g><g><g><path stroke="rgb(255, 112, 67)" stroke-width="2px" d="M132.21875,251.3333320849472L132.47933111979165,251.3333320849472L132.74193224826388,251.3333320849472L132.88443467881945,251.3333320849472L133.13307938368055,251.3333320849472L133.37988771701387,251.3333320849472L133.50457734375,251.3333320849472L133.62577786458334,251.3333320849472L133.80262044270833,251.3333320849472L133.95063198784723,251.3333320849472L134.0988271701389,251.3333320849472L134.23324956597222,251.3333320849472L134.37538472222224,251.3333320849472L134.49585069444444,251.3333320849472L134.59574930555553,251.3333320849472L134.7101552517361,251.3333320849472L134.9736745659722,251.3333320849472L135.271350390625,251.3333320849472L135.38208359375,251.3333320849472L136.06815199652777,251.3333320849472L136.22865086805555,251.3333320849472L136.33001857638888,251.3333320849472L136.4886810763889,251.3333320849472L136.62328710937498,251.3333320849472L136.85026263020833,251.3333320849472L137.27244444444446,251.3333320849472L137.42027235243054,251.3333320849472L137.65367517361113,251.3333320849472L137.76551019965277,251.3333320849472L137.9239890625,251.3333320849472L138.07714244791666,251.3333320849472L138.29071245659722,251.3333320849472L138.57516640625002,251.3333320849472L138.71069062499998,251.3333320849472L139.06382486979166,251.3333320849472L139.21642734375,251.3333320849472L139.33340421006943,251.3333320849472L139.44505559895833,251.3333320849472L139.62648910590278,251.3333320849472L140.00404709201388,251.3333320849472L140.11918758680557,251.3333320849472L140.23322625868056,251.3333320849472L140.3999687934028,251.3333320849472L140.54394032118057,251.3333320849472L140.65871354166666,251.3333320849472L140.76008124999998,251.3333320849472L140.9011145833333,251.3333320849472L141.016255078125,251.3333320849472L141.1396592447917,251.3333320849472L141.38352938368055,251.3333320849472L141.51593177083333,251.3333320849472L141.6668815104167,251.3333320849472L141.8218712673611,251.3333320849472L142.1311162326389,251.3333320849472L142.38086276041668,251.3333320849472L142.4846177517361,251.3333320849472L142.7630116753472,251.3333320849472L142.88770130208334,251.3333320849472L143.15874973958333,251.3333320849472L143.2615865451389,251.3333320849472L143.3464269097222,251.3333320849472L143.46340377604167,251.3333320849472L143.58992977430555,251.3333320849472L143.70525390625,251.3333320849472L143.9755677951389,251.3333320849472L144.14524852430557,251.3333320849472L144.27177452256944,251.3333320849472L144.38232408854165,251.3333320849472L145.00136493055555,251.3333320849472L145.1405618923611,251.3333320849472L145.37488289930556,251.3333320849472L145.62922035590276,251.3333320849472L145.75317543402778,251.3333320849472L145.84425946180554,251.3333320849472L146.20125008680554,251.3333320849472L146.30280143229166,251.3333320849472L146.7123122829861,251.3333320849472L147.18536158854164,251.3333320849472L148.1231965277778,294.5312512483862L148.9701310763889,294.5312512483862L149.0955552517361,251.3333320849472L149.52838802083335,251.3333320849472L149.67805230034722,251.3333320849472L149.8029255642361,251.3333320849472L149.92467699652778,251.3333320849472L150.17662717013886,251.3333320849472L150.31325321180555,251.3333320849472L150.68493480902777,251.3333320849472L151.14053858506944,251.3333320849472L151.26449366319443,251.3333320849472L151.59228598090277,251.3333320849472L151.94376749131945,251.3333320849472L152.06662074652778,251.3333320849472L152.21555047743053,251.3333320849472L152.35346197916664,251.3333320849472L152.47558068576387,251.3333320849472L152.6026575954861,251.3333320849472L152.84285499131943,251.3333320849472L152.94605907118054,251.3333320849472L153.06009774305554,251.3333320849472L153.16550546874998,251.3333320849472L153.42939205729166,251.3333320849472L153.560508984375,251.3333320849472L153.68501497395832,251.3333320849472L153.920805078125,251.3333320849472L154.08736397569442,251.3333320849472L154.21297178819444,251.3333320849472L154.4843875,251.3333320849472L154.6099953125,251.3333320849472L154.79638702256943,251.3333320849472L154.8927965277778,251.3333320849472L155.14419578993056,251.3333320849472L155.28871822916665,251.3333320849472L155.4429734375,251.3333320849472L155.74156744791668,251.3333320849472L155.88021349826388,251.3333320849472L156.25391510416665,251.3333320849472L156.37327925347222,251.3333320849472L156.47207604166667,251.3333320849472L156.61825121527775,251.3333320849472L156.83806488715277,251.3333320849472L156.96550907118055,251.3333320849472L157.2012991753472,251.3333320849472L157.49107860243055,251.3333320849472L157.6633302517361,251.3333320849472L157.78985624999999,251.3333320849472L157.90738402777777,251.3333320849472L158.19091979166666,251.3333320849472L158.32148580729165,251.3333320849472L158.73724032118056,251.3333320849472L159.32726649305556,251.3333320849472L159.82051588541665,251.3333320849472L160.13765724826388,251.3333320849472L160.28254696180554,251.3333320849472L160.416051171875,251.3333320849472L160.54533172743055,251.3333320849472L160.65239218749997,251.3333320849472L161.011035546875,251.3333320849472L161.16584166666667,251.3333320849472L161.32725872395832,251.3333320849472L161.559743359375,251.3333320849472L161.97274331597222,251.3333320849472L162.12883489583334,251.3333320849472L162.283641015625,251.3333320849472L162.3853759982639,251.3333320849472L162.49335464409722,251.3333320849472L162.61253515624998,251.3333320849472L162.83767430555554,251.3333320849472L162.95244752604165,251.3333320849472L163.09219539930555,251.3333320849472L163.37866935763887,251.3333320849472L163.483526171875,251.3333320849472L163.65467599826388,251.3333320849472L163.7725710503472,251.3333320849472L163.93619175347223,251.3333320849472L164.0504140625,251.3333320849472L164.45037578125,251.3333320849472L164.5835127170139,251.3333320849472L164.8791685329861,251.3333320849472L165.46313467881942,251.3333320849472L165.57607152777777,251.3333320849472L165.846936328125,251.3333320849472L165.96611684027775,251.3333320849472L166.10972109375,251.3333320849472L166.26397630208334,251.3333320849472L166.40666236979166,251.3333320849472L166.55908120659723,251.3333320849472L167.04369965277778,251.3333320849472L167.49893615451387,251.3333320849472L167.6524568142361,251.3333320849472L167.80138654513888,251.3333320849472L167.92993255208333,251.3333320849472L168.15121532118053,251.3333320849472L168.42318194444445,251.3333320849472L168.70267769097222,251.3333320849472L168.90871857638888,251.3333320849472L169.1729724392361,251.3333320849472L169.28242018229165,251.3333320849472L169.39811158854167,251.3333320849472L169.53712491319445,251.3333320849472L169.62673984375,251.3333320849472L169.92790477430555,251.3333320849472L170.044881640625,251.3333320849472L170.28048810763886,251.3333320849472L170.50893272569445,251.3333320849472L170.74031553819444,251.3333320849472L171.32152712673607,251.3333320849472L171.54134079861112,251.3333320849472L171.68274140625,251.3333320849472L171.96499171006946,251.3333320849472L172.05075026041663,251.3333320849472L172.20243454861108,251.3333320849472L172.35099700520834,251.3333320849472L172.45713927951388,251.3333320849472L172.59762170138887,251.3333320849472L172.73167682291665,251.3333320849472L172.8866665798611,251.3333320849472L173.0100707465278,251.3333320849472L173.15036953125,251.3333320849472L175.46933949652777,289.6723169237375L176.23620824652778,289.6723169237375L177.63258515624997,289.6723169237375L178.63395855034722,251.3333320849472L179.22582109375003,251.3333320849472L179.32792335069442,251.3333320849472L179.46381484375,251.3333320849472L179.66269388020834,251.3333320849472L179.85826744791663,251.3333320849472L179.99066983506944,251.3333320849472L180.13005043402777,251.3333320849472L180.2565764322917,251.3333320849472L180.384387890625,251.3333320849472L180.4776755642361,251.3333320849472L180.8816773003472,251.3333320849472L181.534691015625,290.7160489079025L182.92445698784718,289.6723169237375L184.33130121527776,289.6723169237375L185.8797296875,290.7160489079025L186.77569535590277,290.7160489079025L188.18070321180554,289.6723169237375L188.97530117187497,291.4621843546629L189.7331717013889,289.6723169237375L190.4188728298611,289.6723169237375L191.22577447916666,291.4621843546629L192.03873615451386,289.6723169237375L192.81901041666666,289.6723169237375L193.51444431423613,289.6723169237375L194.18031263020836,289.6723169237375L195.7190083333333,269.28571196728285L197.43546480034723,292.53551869591075L198.43996002604166,269.28571196728285L199.9237482204861,289.6723169237375L201.3441815972222,290.7160489079025L202.0019698784722,290.7160489079025L202.85863719618058,273.5261240005493L203.66113155381942,272.6994801296128L204.4454458333333,278.41937958200776L205.35518428819447,279.6699317031437L206.10791297743052,289.6723169237375L207.05639887152776,293.5469424459669L207.8320822048611,291.8709684063991L208.6320056423611,291.8709684063991L209.3862034288194,291.8709684063991L210.49004635416665,213.63333682881463L211.4100684895833,269.4949477314949L212.858965625,291.8709684063991L214.45440520833333,292.2168899724881L215.2247630642361,292.2168899724881L215.49342421874996,165.51219457387924L216.35523337673612,278.41937958200776L217.53638754340272,274.18182011114226L219.13311258680557,269.28571196728285L219.94607426215276,292.2168899724881L221.59054496527773,278.41937958200776L222.3598009982639,278.41937958200776L223.31471419270835,274.4824564688736L224.18258337673612,274.4824564688736L225.2219696614583,269.95061492588786L227.00820824652777,269.95061492588786L227.95357230902775,269.28571196728285L228.84457977430557,278.41937958200776L229.57692473958332,290.7160489079025L234.19117547743056,269.28571196728285L235.01111536458333,293.5469424459669L236.60728949652778,290.7160489079025L237.32751440972223,290.7160489079025L238.00476822916664,290.7160489079025L239.76731762152778,278.41937958200776L240.59699027777776,278.41937958200776L242.1461532986111,278.41937958200776L243.6707089409722,278.41937958200776L247.8128285590278,278.41937958200776L248.67316861979165,278.41937958200776L251.00370772569445,293.22222159802914L251.86496597222222,293.22222159802914L252.63312018229163,278.41937958200776L253.40200894097222,278.41937958200776L254.2250706597222,278.41937958200776L255.09606167534722,278.41937958200776L256.49152039930556,293.22222159802914L257.9378466145833,293.22222159802914L259.35258723958333,292.88166185054513L260.47405933159723,192.1960744659106L262.93259353298606,268.32323119706575L263.8401283420138,265.29629421565267L265.9291845920139,268.32323119706575L266.8148665798611,277.5920428567463L267.7319505208333,267.9700565073225L268.44960451388886,293.22222159802914L270.14549361979164,265.29629421565267L271.0342974392361,265.29629421565267L273.1995631076389,127.58817017740677L273.8406404079861,127.58817017740677L275.3099212673611,265.29629421565267L277.8415430555555,265.29629421565267L278.41742916666664,127.58817017740677L279.94106662326385,118.74588837888507L280.8284013454861,118.74588837888507L281.66395039062496,118.74588837888507L282.470484765625,118.74588837888507L283.18060963541666,118.74588837888507L284.516569921875,130.9027727842331L285.2821532118055,118.74588837888507L285.95004153645834,118.74588837888507L286.59442430555555,118.74588837888507L287.29334730902775,118.74588837888507L287.9296500434028,118.74588837888507L288.60910750868055,118.74588837888507L289.9876716145833,118.74588837888507L291.3497083767361,118.74588837888507L292.0069457465278,118.74588837888507L294.76297213541665,199.14389279815887L296.03649578993054,198.58436611625885L300.90820581597217,198.45719301700595L305.3300048177083,198.45719301700595L306.646683203125,198.45719301700595L309.4684516927083,198.45719301700595L311.2139228298611,198.45719301700595L314.4152693142361,198.45719301700595L315.91980850694443,198.45719301700595L317.27651979166666,198.45719301700595L321.567569140625,198.45719301700595L323.08661566840277,198.45719301700595L326.0086500434027,198.45719301700595L332.0672069878472,198.45719301700595L336.3608272569444,198.45719301700595L337.90282842881936,198.45719301700595L339.3093053819444,198.45719301700595L340.6911749565972,198.45719301700595L342.142459375,198.45719301700595L343.5856637586806,197.24894246127872L345.0152789930555,198.45719301700595L347.86587851562496,198.45719301700595L349.2738245659721,198.45719301700595L350.7846074218749,198.45719301700595L352.18080069444443,198.45719301700595L353.55091749131947,198.45719301700595L355.04131662326387,198.45719301700595L356.5442030815972,198.45719301700595L360.86316527777774,197.89483249849746L362.23401662326387,198.45719301700595L363.77124322916654,197.89483249849746L372.76634188368047,187.6622230211894L375.84391692708334,198.45719301700595L377.26930850694447,197.89483249849746L378.6243670572917,197.89483249849746L380.3630436197916,194.68644258711075L381.96399231770835,187.6622230211894L383.70872890625,190.37673887941574L385.3533832465277,189.5047161711587L386.9802247829861,189.02928078174594L388.4645638888888,188.57729008462695L390.1297855902778,189.5047161711587L391.17890464409714,92.94748879803552L392.7190694444444,197.72839765416253L394.33562730034726,187.6622230211894L395.9628361111111,187.4298484192954L397.5301792100694,187.4298484192954L399.19925729166664,189.0817879041036L400.7866168402777,187.6622230211894L403.9031229600695,195.37365420659384L405.2741579427083,197.89483249849746L406.8020190538194,189.11601865291598L409.49487426215273,197.89483249849746L412.09407452256943,99.63861396577624L415.0598145399306,195.37365420659384L416.15576106770834,85.50515973567963L419.90599900173606,195.37365420659384L421.55212243923603,195.37365420659384L423.2902480902777,182.91964140865542L425.6775310763889,85.50515973567963L426.7909231336805,85.50515973567963L427.86924049479165,85.50515973567963L430.31785828993054,82.03239908483295L431.4788123697917,82.03239908483295L432.6219536458333,85.50515973567963L434.05909800347223,197.72839765416253L436.3855970920139,82.03239908483295L437.5026618923611,85.50515973567963L438.6731651041666,85.50515973567963L439.9040849392361,79.80934789445666L441.2088269097222,85.50515973567963L442.4845542100694,85.50515973567963L444.31872209201384,189.5047161711587L445.63191137152774,85.50515973567963L447.37646432291666,189.6507898370425L450.6481438368055,197.32782798343237L452.19638867187496,187.6622230211894L453.40765933159724,85.925915810797L456.69109162326384,85.50515973567963L457.8070546006944,79.80934789445666L458.9738850694444,79.80934789445666L461.3183805989583,85.50515973567963L462.4558291232638,79.80934789445666L463.510273654514,79.80934789445666L464.65543493923605,79.80934789445666L466.92555742187494,79.80934789445666L469.21459453124993,85.50515973567963L470.38840321180555,85.50515973567963L471.63823767361106,85.50515973567963L473.9151547309027,85.50515973567963L476.6346373263888,183.38024597035513L479.04909861111116,118.87387292914923L480.1500033420139,77.0215018325382L481.4053469184028,85.50515973567963L484.81199973958326,79.80934789445666L489.2288405381944,75.2198309103648L490.22709210069445,75.2198309103648L491.19265625,75.2198309103648L492.2331443576389,75.2198309103648L493.24314869791664,75.2198309103648L495.2846429253471,75.2198309103648L496.3561657118055,75.2198309103648L499.5497994357638,75.2198309103648L500.72893359375,75.2198309103648L502.74600407986105,75.2198309103648L504.85654587673605,75.2198309103648L505.91209223090266,75.2198309103648L509.2614502604166,75.2198309103648L511.42065590277775,75.2198309103648L512.5325788628472,75.2198309103648L513.6573564236111,75.2198309103648L515.6885669704861,75.2198309103648L516.8840448350693,75.2198309103648L518.0334297743055,75.2198309103648L519.1574727864582,75.2198309103648L520.1357078993055,75.2198309103648L521.2705855034721,75.2198309103648L522.2741625434028,75.2198309103648L523.8539929687499,180.37564261754358L524.907519314236,75.2198309103648L529.229603342014,75.2198309103648L530.3925774305555,75.2198309103648L533.0191396267361,180.37564261754358L535.0450246961806,70.88887967003717L536.1650276909722,70.88887967003717L537.241875954861,70.88887967003717L538.1984418836805,70.88887967003717L539.2765756076388,70.88887967003717L540.3699512152778,70.88887967003717L541.4014411024305,70.88887967003717L542.5352168836805,70.88887967003717L543.7165546874999,70.88887967003717L545.9785971354167,70.88887967003717L547.0016397135415,70.88887967003717L548.0933625868055,70.88887967003717L549.2065710069444,70.88887967003717L550.2896629340278,70.88887967003717L552.3924919704862,70.88887967003717L553.3549342881944,70.88887967003717L554.3610822482639,70.88887967003717L556.5096369357639,70.88887967003717L557.6030125434028,70.88887967003717L558.6007131944443,70.88887967003717L559.6748069010416,70.88887967003717L560.7997680989583,70.88887967003717L561.9346457031249,70.88887967003717L563.0529959635417,70.88887967003717L564.1557370659722,70.88887967003717L565.2182616319444,70.88887967003717L568.191898046875,70.88887967003717L570.34871640625,70.88887967003717L572.5661350260416,70.88887967003717L575.8760110677083,70.88887967003717L576.9603884548611,70.88887967003717L578.0416440104167,70.88887967003717L579.0920485243055,70.88887967003717L580.153471267361,70.88887967003717L581.191572092014,70.88887967003717L582.2181037760416,70.88887967003717L583.3032157118055,70.88887967003717L584.3743712239582,70.88887967003717L585.4267957465278,70.88887967003717L586.4219254774305,70.88887967003717L587.5797577256944,70.88887967003717L588.5677256076389,70.88887967003717L591.6688062065972,70.88887967003717L592.7495108506944,70.88887967003717L593.7503333333333,70.88887967003717L595.8127621961805,70.88887967003717L596.8697776475694,70.88887967003717L599.047530642361,70.88887967003717L600.2371321180555,70.88887967003717L601.4050644097222,70.88887967003717L602.4931145399305,70.88887967003717L603.5626173177083,70.88887967003717L604.6815184895834,70.88887967003717L607.9476888888888,70.88887967003717L609.0278426215278,70.88887967003717L610.0578634114582,70.88887967003717L614.233588628472,70.88887967003717L615.2441438802083,70.88887967003717L617.4430151475694,70.88887967003717L618.5637526909721,70.88887967003717L619.7089139756944,70.88887967003717L620.6103887586804,70.88887967003717L622.8368055989583,70.88887967003717L625.012905859375,70.88887967003717L626.0225429253472,70.88887967003717L627.0714783420138,70.88887967003717L629.3278280381944,70.88887967003717L630.5005348958332,70.88887967003717L631.4703226996528,70.88887967003717L632.4292759114584,70.88887967003717L633.6253046874999,70.88887967003717L634.5660778211804,70.88887967003717L635.5863658420138,70.88887967003717L636.6694577690972,70.88887967003717L639.8845770399305,70.88887967003717L640.788990017361,70.88887967003717L642.9079791232639,70.88887967003717L645.0822430121527,70.88887967003717L646.2193242621527,70.88887967003717L647.2724833333333,70.88887967003717L648.3489643229167,70.88887967003717L650.5448973958333,70.88887967003717L651.5534326388889,70.88887967003717L652.6130190104167,70.88887967003717L653.6380815972221,70.88887967003717L654.5674692274305,70.88887967003717L655.6738830729166,70.88887967003717L656.8520990451387,70.88887967003717L657.8780798177083,70.88887967003717L661.1159700954862,70.88887967003717L662.139012673611,70.88887967003717L664.5283156684027,70.88887967003717L665.8137757378472,70.88887967003717L667.07995390625,70.88887967003717L668.4311560763889,70.88887967003717L670.7596751736111,70.88887967003717L673.1530181857638,70.88887967003717L674.2070954427082,70.88887967003717L675.2209561631945,70.88887967003717L676.241060546875,70.88887967003717L677.3553707899306,70.88887967003717L678.3325040798611,70.88887967003717L679.3474666232639,70.88887967003717L680.3888729166666,70.88887967003717L682.467645486111,70.88887967003717L683.6280486545139,70.88887967003717L684.6668840277778,70.88887967003717L686.8600625434028,70.88887967003717L688.8864985243056,70.88887967003717L689.8698754774305,70.88887967003717L691.0715970052083,70.88887967003717L692.2687276041667,70.88887967003717L693.3551249999999,70.88887967003717L694.4090186197916,70.88887967003717L696.5100112847222,70.88887967003717L697.4948573350694,70.88887967003717L698.5524236979165,70.88887967003717L700.8170370659722,70.88887967003717L701.9407128038195,70.88887967003717L704.1439913628471,70.88887967003717L707.3547033420139,70.88887967003717L709.4077667100694,70.88887967003717L710.5698226128471,70.88887967003717L711.667421875,70.88887967003717L714.9288177083332,70.88887967003717L716.0376188368056,70.88887967003717L718.4124144965277,70.88887967003717L719.5223174479165,70.88887967003717L721.5988863715278,70.88887967003717L722.6942819878471,70.88887967003717L723.7832503038194,70.88887967003717L725.9268467881944,70.88887967003717L726.9267510850693,70.88887967003717L730.1600504340279,70.88887967003717L731.1777675347221,70.88887967003717L733.3424822916666,70.88887967003717L734.3297156250001,70.88887967003717L735.4107875434028,70.88887967003717L736.5003067708334,70.88887967003717L738.4738552517359,70.88887967003717L739.5725563368055,70.88887967003717L740.6833774739583,70.88887967003717L741.8109095920138,70.88887967003717L743.9866425781249,70.88887967003717L746.1774338107638,70.88887967003717L748.2350881076388,70.88887967003717L749.3152418402777,70.88887967003717L750.3852955295139,70.88887967003717L751.4992384982639,70.88887967003717L752.71803828125,70.88887967003717L757.2248612847221,70.88887967003717L758.1428634114582,70.88887967003717L759.2443190538193,70.88887967003717L760.4111495225693,70.88887967003717L763.5957850260415,70.88887967003717L764.5931184027777,70.88887967003717L765.7077959201389,70.88887967003717L766.7385512586806,70.88887967003717L767.7009935763888,70.88887967003717L769.6815202690972,70.88887967003717L770.7739776909722,70.88887967003717L771.8148330729167,70.88887967003717L772.984601736111,70.88887967003717L775.1768620659722,70.88887967003717L776.1822754774304,70.88887967003717L777.1889743489583,70.88887967003717L778.3479084201389,70.88887967003717L779.4583622829861,70.88887967003717L780.5207032118055,70.88887967003717L781.5685368055555,70.88887967003717L783.7727335503472,81.11815595626831L784.7845742621527,70.88887967003717L785.7501384114582,70.88887967003717L787.9431332899304,70.88887967003717L789.1196965277777,70.88887967003717L791.3339933159723,70.88887967003717L792.454730859375,70.88887967003717L796.5158664930553,70.88887967003717L797.6277894531248,70.88887967003717L799.7706513888888,70.88887967003717L800.7883684895831,70.88887967003717L801.8949659722222,70.88887967003717L803.0083580295137,70.88887967003717L804.0921845052081,70.88887967003717L805.1222052951388,70.88887967003717L806.1401060329861,70.88887967003717L808.2464241753471,70.88887967003717L809.3978291232639,70.88887967003717L810.3984679687499,70.88887967003717L811.3401592881943,70.88887967003717L813.3809189670137,70.88887967003717L814.4790691406249,70.88887967003717L815.5605083333332,70.88887967003717L816.5330506944445,70.88887967003717L817.6040225694443,70.88887967003717L818.6544270833332,70.88887967003717L824.7836843315971,70.88887967003717L826.0430679253471,70.88887967003717L827.1191816406249,70.88887967003717L828.1883171440971,70.88887967003717L829.2697563368055,70.88887967003717L833.5512565538195,70.88887967003717L836.6321370659722,70.88887967003717L837.7488345920137,70.88887967003717L839.7787596788194,70.88887967003717L842.7639652343748,70.88887967003717L843.7737859375,70.88887967003717L845.8868986545137,70.88887967003717L846.9238976562499,70.88887967003717L848.0279242187498,70.88887967003717L849.0606995659722,70.88887967003717L851.2397380208332,70.88887967003717L852.2934480034722,70.88887967003717L853.2997796006944,70.88887967003717L854.5171102864582,70.88887967003717L855.632889626736,70.88887967003717L856.6434448784721,70.88887967003717L857.658223784722,70.88887967003717L858.7080773871526,70.88887967003717L859.8034730034722,70.88887967003717L861.7942833767361,70.88887967003717L862.8702134548611,70.88887967003717L865.1502523437498,70.88887967003717L867.2387576822915,70.88887967003717L868.2922840277777,70.88887967003717L870.4863807291665,70.88887967003717L872.7276721788193,70.88887967003717L873.755122048611,70.88887967003717L874.7638409288193,70.88887967003717L875.9009221788194,70.88887967003717L879.2227346354166,70.88887967003717L880.3080302083332,70.88887967003717L881.4153622395831,70.88887967003717L882.4784377170138,70.88887967003717L884.5553739149304,70.88887967003717L885.5774983072916,70.88887967003717L887.6257871093749,70.88887967003717L888.7195299913194,70.88887967003717L893.6327420138888,70.88887967003717L894.6052843749998,70.88887967003717L896.5617546006943,70.88887967003717L897.5420097222221,70.88887967003717L899.5638547743055,70.88887967003717L900.5685336371527,70.88887967003717L901.5994726128472,70.88887967003717L902.7631812499998,70.88887967003717L904.8469120225693,70.88887967003717L905.892541970486,70.88887967003717L906.8235823350693,70.88887967003717L908.8806857204861,70.88887967003717L909.8076860677081,70.88887967003717L910.7732502170137,70.88887967003717L911.8119019531249,70.88887967003717L913.9068345920136,70.88887967003717L915.045384939236,70.88887967003717L917.1775959201387,70.88887967003717L920.5609268229166,70.88887967003717L922.7555744357638,70.88887967003717L923.8113044270832,70.88887967003717L924.8912745225693,70.88887967003717L925.8684078124998,70.88887967003717L927.9049438368054,70.88887967003717L929.8988760416664,70.88887967003717L931.0242045138888,70.88887967003717L932.0735072048609,70.88887967003717L933.1722082899305,70.88887967003717L934.2139818576388,70.88887967003717L935.2809137152777,70.88887967003717L936.2786143663193,70.88887967003717L937.3437098524305,70.88887967003717L938.3763015624999,70.88887967003717L941.5440424479166,70.88887967003717L942.4985883680554,70.88887967003717L943.5695602430554,70.88887967003717L949.2937139322914,70.88887967003717L950.4309788194442,70.88887967003717L951.6479422309027,70.88887967003717L953.0079589843749,70.88887967003717L955.5004660590276,70.88887967003717L956.6931893663193,70.88887967003717L957.6378188802083,70.88887967003717L958.8342149305554,70.88887967003717L959.9163886718749,70.88887967003717L965.6120786024304,70.88887967003717L966.6997614583332,70.88887967003717L967.8241717447914,70.88887967003717L968.9408692708332,70.88887967003717L970.1324907552082,70.88887967003717L971.1740806857639,70.88887967003717L973.3009661892361,70.88887967003717L974.4064618489581,70.88887967003717L975.532157595486,70.88887967003717L976.6238804687499,70.88887967003717L977.7903436631944,70.88887967003717L978.8458900173611,70.88887967003717L979.7881322482637,70.88887967003717L980.8895878906249,70.88887967003717L982.0874530381943,70.88887967003717L984.1096653645832,70.88887967003717L985.2138755642359,70.88887967003717L986.2986202256943,70.88887967003717L987.4408433159721,70.88887967003717L988.5428498697917,70.88887967003717L989.5925198350693,70.88887967003717L990.716562847222,70.88887967003717L992.9088231770833,70.88887967003717L995.2874752170138,70.88887967003717L997.3917733506944,70.88887967003717L998.5945967013887,70.88887967003717L999.7408598090276,70.88887967003717L1001.9378947048609,70.88887967003717L1004.0849802951387,70.88887967003717L1005.2042487413194,70.88887967003717L1007.4385619791665,70.88887967003717L1009.8317213541666,70.88887967003717L1010.9653134982638,70.88887967003717L1012.0193907552083,70.88887967003717L1014.2050401475693,70.88887967003717L1017.4456849826387,70.88887967003717L1018.5038022569444,70.88887967003717L1021.7132287760415,70.88887967003717L1023.847276128472,70.88887967003717L1027.0177715711804,70.88887967003717L1030.3827387586805,70.88887967003717L1031.5185345486111,70.88887967003717L1032.6763667968748,70.88887967003717L1033.898472048611,70.88887967003717L1034.9428165364582,70.88887967003717L1036.1640036024303,70.88887967003717L1037.1800679687499,70.88887967003717L1038.2427761718748,70.88887967003717L1039.3098916666663,70.88887967003717L1040.372416232639,70.88887967003717L1042.4882835069443,70.88887967003717L1043.5880864149303,70.88887967003717L1044.636287282986,70.88887967003717L1047.9683834201387,70.88887967003717L1049.0165842881943,70.88887967003717L1051.2543866319443,70.88887967003717L1052.475206423611,70.88887967003717L1053.6185313368055,70.88887967003717L1054.7497361979165,70.88887967003717L1056.7884758680555,70.88887967003717L1060.1235101996526,70.88887967003717L1061.2440641059027,70.88887967003717L1062.2779412760417,70.88887967003717L1063.4029024739582,70.88887967003717L1064.4626724826387,70.88887967003717L1065.522809765625,70.88887967003717L1066.556503298611,70.88887967003717L1067.4587126302083,70.88887967003717L1068.656210503472,70.88887967003717L1069.8746430121528,70.88887967003717L1071.054328081597,70.88887967003717L1072.1728619791666,70.88887967003717L1073.109778732639,70.88887967003717L1074.16165234375,70.88887967003717L1076.1733973524306,70.88887967003717L1077.280362109375,70.88887967003717L1078.4053233072916,70.88887967003717L1079.5407518229165,70.88887967003717L1081.712077517361,70.88887967003717L1082.8700934027777,70.88887967003717L1087.0662023437499,70.88887967003717L1090.1320246093749,70.88887967003717L1093.5074591145833,70.88887967003717L1094.6649240885415,70.88887967003717L1095.6288355034721,70.88887967003717L1096.8248642795138,70.88887967003717L1098.8953731770832,70.88887967003717L1099.9387994791666,70.88887967003717L1100.9478856336805,70.88887967003717L1102.0223466145833,70.88887967003717L1103.0843202690971,70.88887967003717L1105.141240017361,70.88887967003717L1106.1497752604164,70.88887967003717L1107.2885092447916,70.88887967003717L1108.3172445746527,70.88887967003717L1109.3344107638886,70.88887967003717L1110.4325609374998,70.88887967003717L1111.5097764756943,70.88887967003717L1112.5664246527776,70.88887967003717L1113.6719203125,70.88887967003717L1114.672559157986,70.88887967003717L1115.7281055121525,70.88887967003717L1117.8841893229167,70.88887967003717L1119.0054777777777,70.88887967003717L1121.0991249565973,70.88887967003717L1122.2070078993056,70.88887967003717L1123.3595146701389,70.88887967003717L1125.5719750868054,70.88887967003717L1126.6844489583332,70.88887967003717L1127.7859046006943,70.88887967003717L1129.0146207899304,70.88887967003717L1130.2312169270833,70.88887967003717L1131.4266947916665,70.88887967003717L1135.6518184027777,70.88887967003717L1137.891824392361,70.88887967003717L1141.2891117187498,70.88887967003717L1142.1984828993054,70.88887967003717L1144.3290411458331,70.88887967003717L1145.3777929253472,70.88887967003717L1146.5617016493054,70.88887967003717L1148.551961111111,70.88887967003717L1149.577574609375,70.88887967003717L1150.5040240451387,70.88887967003717L1151.6113560763886,70.88887967003717L1152.6736970052084,70.88887967003717L1153.7479743489582,70.88887967003717L1154.923068489583,70.88887967003717L1156.2030194444444,70.88887967003717L1157.352037109375,70.88887967003717L1158.4454127170138,70.88887967003717L1160.636571223958,70.88887967003717L1161.800279861111,70.88887967003717L1162.8565607638889,70.88887967003717L1165.0401901475693,70.88887967003717L1166.2127133680553,70.88887967003717L1167.278176128472,70.88887967003717L1168.459146657986,70.88887967003717L1169.5168966579859,70.88887967003717L1170.6659143229165,70.88887967003717L1172.8425654947916,70.88887967003717L1173.9748721788194,70.88887967003717L1174.9788164930555,70.88887967003717L1176.0354646701387,70.88887967003717L1177.0572217881943,70.88887967003717L1178.0769588975693,70.88887967003717L1179.2090819444443,70.88887967003717L1181.5276846354166,70.88887967003717L1182.5881891927081,70.88887967003717L1183.6442864583332,70.88887967003717L1184.7257256510416,70.88887967003717L1185.7223244791667,70.88887967003717L1186.7802581163194,70.88887967003717L1187.8442517795138,70.88887967003717L1188.7809848958332,70.88887967003717L1192.0488080295138,70.88887967003717L1193.1671582899303,70.88887967003717L1195.42607890625,70.88887967003717L1199.6576298177083,70.88887967003717L1200.6861815104164,70.88887967003717L1202.9390421006945,70.88887967003717L1204.0528014322915,70.88887967003717L1205.1540734374998,70.88887967003717L1207.4462323784721,70.88887967003717L1209.5630178385416,70.88887967003717L1210.7722684895832,70.88887967003717L1211.8322221354165,70.88887967003717L1214.0804917968749,70.88887967003717L1215.2704605468748,70.88887967003717L1216.294972222222,70.88887967003717L1217.5293811631946,70.88887967003717L1219.488055034722,70.88887967003717L1220.5678414930553,70.88887967003717L1221.6435879340277,70.88887967003717L1222.7220889322914,70.88887967003717L1223.804262673611,70.88887967003717L1226.009010329861,70.88887967003717L1227.2526011284722,70.88887967003717L1228.3904169270832,70.88887967003717L1230.465516753472,70.88887967003717L1231.506739409722,70.88887967003717L1234.641241970486,70.88887967003717L1236.7446219184028,70.88887967003717L1237.8076973958332,70.88887967003717L1240.0054668402777,70.88887967003717L1241.0286930555553,70.88887967003717L1242.098379470486,70.88887967003717L1243.2360116319442,70.88887967003717L1244.1980866753472,70.88887967003717L1245.3109278211803,70.88887967003717L1246.5183421006943,70.88887967003717L1249.9299531249999,70.88887967003717L1251.071992578125,70.88887967003717L1252.1787736979165,70.88887967003717L1253.2776584201388,70.88887967003717L1254.3541394097222,70.88887967003717L1255.4074821180554,70.88887967003717L1256.5287705729165,70.88887967003717L1258.8178076822915,70.88887967003717L1259.8852904513888,70.88887967003717L1261.0581809461803,70.88887967003717L1262.2134422743054,70.88887967003717L1263.3033287760416,70.88887967003717L1264.5570196180554,70.88887967003717L1267.7078658854166,70.88887967003717L1269.932813628472,70.88887967003717L1270.9850545138888,70.88887967003717L1272.2251562065971,70.88887967003717L1273.3468119357638,70.88887967003717L1274.4056637586805,70.88887967003717L1275.4591901041665,70.88887967003717L1276.4152051215276,70.88887967003717L1277.4266785590276,70.88887967003717L1278.5167486979165,70.88887967003717L1279.5003092881943,70.88887967003717L1282.7534414496527,70.88887967003717L1283.729105642361,70.88887967003717L1286.8386335503471,70.88887967003717L1287.9483528645833,70.88887967003717L1290.1464895833333,70.88887967003717L1291.253821614583,70.88887967003717L1292.2891678819442,70.88887967003717L1294.9021409288193,70.88887967003717L1295.8972706597222,70.88887967003717L1296.965671614583,70.88887967003717L1299.0180004340277,70.88887967003717L1300.1470016493054,70.88887967003717L1301.1941006944444,70.88887967003717L1303.3127225260416,70.88887967003717L1304.4507219618054,70.88887967003717L1305.565032204861,70.88887967003717L1307.7290124131944,70.88887967003717L1308.7720714409722,70.88887967003717L1309.9333927951388,70.88887967003717L1312.209758940972,70.88887967003717L1313.1393302083331,70.88887967003717L1315.3180013888887,70.88887967003717L1316.5296393229164,70.88887967003717L1317.649825954861,70.88887967003717L1318.8823985243055,70.88887967003717L1319.8799155381944,70.88887967003717L1320.9409710069442,70.88887967003717L1322.9189267795139,70.88887967003717L1323.9423366319443,70.88887967003717L1327.2893073784724,70.88887967003717L1329.5419843315972,70.88887967003717L1332.9813245659723,70.88887967003717L1337.3215886718751,70.88887967003717L1342.8690834201388,70.88887967003717L1346.5254827690972,70.88887967003717L1347.7488734809028,70.88887967003717L1348.8292108506944,70.88887967003717L1349.9218519097221,70.88887967003717L1350.9678491319444,70.88887967003717L1352.054797439236,70.88887967003717L1354.2029848524305,70.88887967003717L1355.5218668836806,70.88887967003717L1357.6893361979164,70.88887967003717L1358.7481880208334,70.88887967003717L1361.093601736111,70.88887967003717L1362.127295269097,70.88887967003717L1363.3266295138887,70.88887967003717L1364.2978864149306,70.88887967003717L1366.4480938368054,70.88887967003717L1367.7825850260415,70.88887967003717L1369.037377690972,70.88887967003717L1370.2760102864584,70.88887967003717L1371.4812209201389,70.88887967003717L1372.4904907118055,70.88887967003717L1373.4927822916666,70.88887967003717L1374.6122343749998,70.88887967003717L1375.657497048611,70.88887967003717L1376.794761935764,70.88887967003717L1377.7630806423613,70.88887967003717L1379.9806828993055,70.88887967003717L1381.213071831597,70.88887967003717L1383.4965998263888,70.88887967003717L1386.9054562934027,70.88887967003717L1389.1904533854167,70.88887967003717L1393.693787282986,70.88887967003717L1394.8455595052083,70.88887967003717L1395.9782334635415,70.88887967003717L1397.1085201388887,70.88887967003717L1398.072064279514,70.88887967003717" style="fill: none;" fill="none"></path></g></g></g></g></g></g><g transform="translate(58, 377)" clip-path="url(#clip_1)"><clipPath id="clip_1"><rect width="1454" height="23"></rect></clipPath><g><g><line x1="0" y1="0" x2="0" y2="5" style="visibility: inherit;" fill="rgb(0, 0, 0)" stroke="rgb(204, 204, 204)" stroke-width="1px"></line><line x1="132.21875" y1="0" x2="132.21875" y2="5" style="visibility: inherit;" fill="rgb(0, 0, 0)" stroke="rgb(204, 204, 204)" stroke-width="1px"></line><line x1="264.4375" y1="0" x2="264.4375" y2="5" style="visibility: inherit;" fill="rgb(0, 0, 0)" stroke="rgb(204, 204, 204)" stroke-width="1px"></line><line x1="396.65625000000006" y1="0" x2="396.65625000000006" y2="5" style="visibility: inherit;" fill="rgb(0, 0, 0)" stroke="rgb(204, 204, 204)" stroke-width="1px"></line><line x1="528.875" y1="0" x2="528.875" y2="5" style="visibility: inherit;" fill="rgb(0, 0, 0)" stroke="rgb(204, 204, 204)" stroke-width="1px"></line><line x1="661.09375" y1="0" x2="661.09375" y2="5" style="visibility: inherit;" fill="rgb(0, 0, 0)" stroke="rgb(204, 204, 204)" stroke-width="1px"></line><line x1="793.3124999999999" y1="0" x2="793.3124999999999" y2="5" style="visibility: inherit;" fill="rgb(0, 0, 0)" stroke="rgb(204, 204, 204)" stroke-width="1px"></line><line x1="925.5312499999998" y1="0" x2="925.5312499999998" y2="5" style="visibility: inherit;" fill="rgb(0, 0, 0)" stroke="rgb(204, 204, 204)" stroke-width="1px"></line><line x1="1057.7499999999998" y1="0" x2="1057.7499999999998" y2="5" style="visibility: inherit;" fill="rgb(0, 0, 0)" stroke="rgb(204, 204, 204)" stroke-width="1px"></line><line x1="1189.96875" y1="0" x2="1189.96875" y2="5" style="visibility: inherit;" fill="rgb(0, 0, 0)" stroke="rgb(204, 204, 204)" stroke-width="1px"></line><line x1="1322.1875" y1="0" x2="1322.1875" y2="5" style="visibility: inherit;" fill="rgb(0, 0, 0)" stroke="rgb(204, 204, 204)" stroke-width="1px"></line><line x1="1454.40625" y1="0" x2="1454.40625" y2="5" style="visibility: inherit;" fill="rgb(0, 0, 0)" stroke="rgb(204, 204, 204)" stroke-width="1px"></line></g><g transform="translate(0, 8)"><text x="0" y="0" dx="0em" dy="0.95em" style="text-anchor: middle; visibility: hidden; font-family: &quot;Helvetica Neue&quot;, sans-serif; font-size: 12px; font-weight: 200;" fill="rgb(50, 49, 63)" stroke="none" stroke-width="1px">-0.2</text><text x="132.21875" y="0" dx="0em" dy="0.95em" style="text-anchor: middle; visibility: inherit; font-family: &quot;Helvetica Neue&quot;, sans-serif; font-size: 12px; font-weight: 200;" fill="rgb(50, 49, 63)" stroke="none" stroke-width="1px">0</text><text x="264.4375" y="0" dx="0em" dy="0.95em" style="text-anchor: middle; visibility: inherit; font-family: &quot;Helvetica Neue&quot;, sans-serif; font-size: 12px; font-weight: 200;" fill="rgb(50, 49, 63)" stroke="none" stroke-width="1px">0.2</text><text x="396.65625000000006" y="0" dx="0em" dy="0.95em" style="text-anchor: middle; visibility: inherit; font-family: &quot;Helvetica Neue&quot;, sans-serif; font-size: 12px; font-weight: 200;" fill="rgb(50, 49, 63)" stroke="none" stroke-width="1px">0.4</text><text x="528.875" y="0" dx="0em" dy="0.95em" style="text-anchor: middle; visibility: inherit; font-family: &quot;Helvetica Neue&quot;, sans-serif; font-size: 12px; font-weight: 200;" fill="rgb(50, 49, 63)" stroke="none" stroke-width="1px">0.6</text><text x="661.09375" y="0" dx="0em" dy="0.95em" style="text-anchor: middle; visibility: inherit; font-family: &quot;Helvetica Neue&quot;, sans-serif; font-size: 12px; font-weight: 200;" fill="rgb(50, 49, 63)" stroke="none" stroke-width="1px">0.8</text><text x="793.3124999999999" y="0" dx="0em" dy="0.95em" style="text-anchor: middle; visibility: inherit; font-family: &quot;Helvetica Neue&quot;, sans-serif; font-size: 12px; font-weight: 200;" fill="rgb(50, 49, 63)" stroke="none" stroke-width="1px">1</text><text x="925.5312499999998" y="0" dx="0em" dy="0.95em" style="text-anchor: middle; visibility: inherit; font-family: &quot;Helvetica Neue&quot;, sans-serif; font-size: 12px; font-weight: 200;" fill="rgb(50, 49, 63)" stroke="none" stroke-width="1px">1.2</text><text x="1057.7499999999998" y="0" dx="0em" dy="0.95em" style="text-anchor: middle; visibility: inherit; font-family: &quot;Helvetica Neue&quot;, sans-serif; font-size: 12px; font-weight: 200;" fill="rgb(50, 49, 63)" stroke="none" stroke-width="1px">1.4</text><text x="1189.96875" y="0" dx="0em" dy="0.95em" style="text-anchor: middle; visibility: inherit; font-family: &quot;Helvetica Neue&quot;, sans-serif; font-size: 12px; font-weight: 200;" fill="rgb(50, 49, 63)" stroke="none" stroke-width="1px">1.6</text><text x="1322.1875" y="0" dx="0em" dy="0.95em" style="text-anchor: middle; visibility: inherit; font-family: &quot;Helvetica Neue&quot;, sans-serif; font-size: 12px; font-weight: 200;" fill="rgb(50, 49, 63)" stroke="none" stroke-width="1px">1.8</text><text x="1454.40625" y="0" dx="0em" dy="0.95em" style="text-anchor: middle; visibility: hidden; font-family: &quot;Helvetica Neue&quot;, sans-serif; font-size: 12px; font-weight: 200;" fill="rgb(50, 49, 63)" stroke="none" stroke-width="1px">2</text></g><line x1="0" y1="0" x2="1454.40625" y2="0" fill="rgb(0, 0, 0)" stroke="rgb(204, 204, 204)" stroke-width="1px"></line></g></g></g></g></svg>