<svg viewBox="0 0 1513 400" xmlns="http://www.w3.org/2000/svg"><g><g><g><g><g><line x1="39.15625" y1="377" x2="34.15625" y2="377" style="visibility: inherit;" fill="rgb(0, 0, 0)" stroke="rgb(204, 204, 204)" stroke-width="1px"></line><line x1="39.15625" y1="348" x2="34.15625" y2="348" style="visibility: inherit;" fill="rgb(0, 0, 0)" stroke="rgb(204, 204, 204)" stroke-width="1px"></line><line x1="39.15625" y1="319" x2="34.15625" y2="319" style="visibility: inherit;" fill="rgb(0, 0, 0)" stroke="rgb(204, 204, 204)" stroke-width="1px"></line><line x1="39.15625" y1="290" x2="34.15625" y2="290" style="visibility: inherit;" fill="rgb(0, 0, 0)" stroke="rgb(204, 204, 204)" stroke-width="1px"></line><line x1="39.15625" y1="261" x2="34.15625" y2="261" style="visibility: inherit;" fill="rgb(0, 0, 0)" stroke="rgb(204, 204, 204)" stroke-width="1px"></line><line x1="39.15625" y1="232" x2="34.15625" y2="232" style="visibility: inherit;" fill="rgb(0, 0, 0)" stroke="rgb(204, 204, 204)" stroke-width="1px"></line><line x1="39.15625" y1="203" x2="34.15625" y2="203" style="visibility: inherit;" fill="rgb(0, 0, 0)" stroke="rgb(204, 204, 204)" stroke-width="1px"></line><line x1="39.15625" y1="174" x2="34.15625" y2="174" style="visibility: inherit;" fill="rgb(0, 0, 0)" stroke="rgb(204, 204, 204)" stroke-width="1px"></line><line x1="39.15625" y1="145" x2="34.15625" y2="145" style="visibility: inherit;" fill="rgb(0, 0, 0)" stroke="rgb(204, 204, 204)" stroke-width="1px"></line><line x1="39.15625" y1="116" x2="34.15625" y2="116" style="visibility: inherit;" fill="rgb(0, 0, 0)" stroke="rgb(204, 204, 204)" stroke-width="1px"></line><line x1="39.15625" y1="87" x2="34.15625" y2="87" style="visibility: inherit;" fill="rgb(0, 0, 0)" stroke="rgb(204, 204, 204)" stroke-width="1px"></line><line x1="39.15625" y1="58" x2="34.15625" y2="58" style="visibility: inherit;" fill="rgb(0, 0, 0)" stroke="rgb(204, 204, 204)" stroke-width="1px"></line><line x1="39.15625" y1="29" x2="34.15625" y2="29" style="visibility: inherit;" fill="rgb(0, 0, 0)" stroke="rgb(204, 204, 204)" stroke-width="1px"></line><line x1="39.15625" y1="0" x2="34.15625" y2="0" style="visibility: inherit;" fill="rgb(0, 0, 0)" stroke="rgb(204, 204, 204)" stroke-width="1px"></line></g><g transform="translate(29.15625, 0)"><text x="0" y="377" dx="0em" dy="0.3em" style="text-anchor: end; visibility: hidden; font-family: &quot;Helvetica Neue&quot;, sans-serif; font-size: 12px; font-weight: 200;" fill="rgb(50, 49, 63)" stroke="none" stroke-width="1px">-20</text><text x="0" y="348" dx="0em" dy="0.3em" style="text-anchor: end; visibility: inherit; font-family: &quot;Helvetica Neue&quot;, sans-serif; font-size: 12px; font-weight: 200;" fill="rgb(50, 49, 63)" stroke="none" stroke-width="1px">0</text><text x="0" y="319" dx="0em" dy="0.3em" style="text-anchor: end; visibility: inherit; font-family: &quot;Helvetica Neue&quot;, sans-serif; font-size: 12px; font-weight: 200;" fill="rgb(50, 49, 63)" stroke="none" stroke-width="1px">20</text><text x="0" y="290" dx="0em" dy="0.3em" style="text-anchor: end; visibility: inherit; font-family: &quot;Helvetica Neue&quot;, sans-serif; font-size: 12px; font-weight: 200;" fill="rgb(50, 49, 63)" stroke="none" stroke-width="1px">40</text><text x="0" y="261" dx="0em" dy="0.3em" style="text-anchor: end; visibility: inherit; font-family: &quot;Helvetica Neue&quot;, sans-serif; font-size: 12px; font-weight: 200;" fill="rgb(50, 49, 63)" stroke="none" stroke-width="1px">60</text><text x="0" y="232" dx="0em" dy="0.3em" style="text-anchor: end; visibility: inherit; font-family: &quot;Helvetica Neue&quot;, sans-serif; font-size: 12px; font-weight: 200;" fill="rgb(50, 49, 63)" stroke="none" stroke-width="1px">80</text><text x="0" y="203" dx="0em" dy="0.3em" style="text-anchor: end; visibility: inherit; font-family: &quot;Helvetica Neue&quot;, sans-serif; font-size: 12px; font-weight: 200;" fill="rgb(50, 49, 63)" stroke="none" stroke-width="1px">100</text><text x="0" y="174" dx="0em" dy="0.3em" style="text-anchor: end; visibility: inherit; font-family: &quot;Helvetica Neue&quot;, sans-serif; font-size: 12px; font-weight: 200;" fill="rgb(50, 49, 63)" stroke="none" stroke-width="1px">120</text><text x="0" y="145" dx="0em" dy="0.3em" style="text-anchor: end; visibility: inherit; font-family: &quot;Helvetica Neue&quot;, sans-serif; font-size: 12px; font-weight: 200;" fill="rgb(50, 49, 63)" stroke="none" stroke-width="1px">140</text><text x="0" y="116" dx="0em" dy="0.3em" style="text-anchor: end; visibility: inherit; font-family: &quot;Helvetica Neue&quot;, sans-serif; font-size: 12px; font-weight: 200;" fill="rgb(50, 49, 63)" stroke="none" stroke-width="1px">160</text><text x="0" y="87" dx="0em" dy="0.3em" style="text-anchor: end; visibility: inherit; font-family: &quot;Helvetica Neue&quot;, sans-serif; font-size: 12px; font-weight: 200;" fill="rgb(50, 49, 63)" stroke="none" stroke-width="1px">180</text><text x="0" y="58" dx="0em" dy="0.3em" style="text-anchor: end; visibility: inherit; font-family: &quot;Helvetica Neue&quot;, sans-serif; font-size: 12px; font-weight: 200;" fill="rgb(50, 49, 63)" stroke="none" stroke-width="1px">200</text><text x="0" y="29" dx="0em" dy="0.3em" style="text-anchor: end; visibility: inherit; font-family: &quot;Helvetica Neue&quot;, sans-serif; font-size: 12px; font-weight: 200;" fill="rgb(50, 49, 63)" stroke="none" stroke-width="1px">220</text><text x="0" y="0" dx="0em" dy="0.3em" style="text-anchor: end; visibility: hidden; font-family: &quot;Helvetica Neue&quot;, sans-serif; font-size: 12px; font-weight: 200;" fill="rgb(50, 49, 63)" stroke="none" stroke-width="1px">240</text></g><line x1="39.15625" y1="0" x2="39.15625" y2="377" fill="rgb(0, 0, 0)" stroke="rgb(204, 204, 204)" stroke-width="1px"></line></g></g><g transform="translate(39, 0)" clip-path="url(#clip_0)"><clipPath id="clip_0"><rect width="1473" height="377"></rect></clipPath><g><g><g><line x1="0" y1="0" x2="0" y2="377" fill="rgb(0, 0, 0)" stroke="rgb(60, 60, 60)" stroke-width="1px" opacity="0.25"></line><line x1="133.98579545454547" y1="0" x2="133.98579545454547" y2="377" fill="rgb(0, 0, 0)" stroke="rgb(60, 60, 60)" stroke-width="1px" opacity="0.25"></line><line x1="267.97159090909093" y1="0" x2="267.97159090909093" y2="377" fill="rgb(0, 0, 0)" stroke="rgb(60, 60, 60)" stroke-width="1px" opacity="0.25"></line><line x1="401.95738636363643" y1="0" x2="401.95738636363643" y2="377" fill="rgb(0, 0, 0)" stroke="rgb(60, 60, 60)" stroke-width="1px" opacity="0.25"></line><line x1="535.9431818181819" y1="0" x2="535.9431818181819" y2="377" fill="rgb(0, 0, 0)" stroke="rgb(60, 60, 60)" stroke-width="1px" opacity="0.25"></line><line x1="669.9289772727273" y1="0" x2="669.9289772727273" y2="377" fill="rgb(0, 0, 0)" stroke="rgb(60, 60, 60)" stroke-width="1px" opacity="0.25"></line><line x1="803.9147727272726" y1="0" x2="803.9147727272726" y2="377" fill="rgb(0, 0, 0)" stroke="rgb(60, 60, 60)" stroke-width="1px" opacity="0.25"></line><line x1="937.900568181818" y1="0" x2="937.900568181818" y2="377" fill="rgb(0, 0, 0)" stroke="rgb(60, 60, 60)" stroke-width="1px" opacity="0.25"></line><line x1="1071.8863636363635" y1="0" x2="1071.8863636363635" y2="377" fill="rgb(0, 0, 0)" stroke="rgb(60, 60, 60)" stroke-width="1px" opacity="0.25"></line><line x1="1205.872159090909" y1="0" x2="1205.872159090909" y2="377" fill="rgb(0, 0, 0)" stroke="rgb(60, 60, 60)" stroke-width="1px" opacity="0.25"></line><line x1="1339.8579545454545" y1="0" x2="1339.8579545454545" y2="377" fill="rgb(0, 0, 0)" stroke="rgb(60, 60, 60)" stroke-width="1px" opacity="0.25"></line><line x1="1473.84375" y1="0" x2="1473.84375" y2="377" fill="rgb(0, 0, 0)" stroke="rgb(60, 60, 60)" stroke-width="1px" opacity="0.25"></line></g><g><line x1="0" y1="377" x2="1473.84375" y2="377" fill="rgb(0, 0, 0)" stroke="rgb(60, 60, 60)" stroke-width="1px" opacity="0.25"></line><line x1="0" y1="348" x2="1473.84375" y2="348" fill="rgb(0, 0, 0)" stroke="rgb(60, 60, 60)" stroke-width="1px" opacity="0.25"></line><line x1="0" y1="319" x2="1473.84375" y2="319" fill="rgb(0, 0, 0)" stroke="rgb(60, 60, 60)" stroke-width="1px" opacity="0.25"></line><line x1="0" y1="290" x2="1473.84375" y2="290" fill="rgb(0, 0, 0)" stroke="rgb(60, 60, 60)" stroke-width="1px" opacity="0.25"></line><line x1="0" y1="261" x2="1473.84375" y2="261" fill="rgb(0, 0, 0)" stroke="rgb(60, 60, 60)" stroke-width="1px" opacity="0.25"></line><line x1="0" y1="232" x2="1473.84375" y2="232" fill="rgb(0, 0, 0)" stroke="rgb(60, 60, 60)" stroke-width="1px" opacity="0.25"></line><line x1="0" y1="203" x2="1473.84375" y2="203" fill="rgb(0, 0, 0)" stroke="rgb(60, 60, 60)" stroke-width="1px" opacity="0.25"></line><line x1="0" y1="174" x2="1473.84375" y2="174" fill="rgb(0, 0, 0)" stroke="rgb(60, 60, 60)" stroke-width="1px" opacity="0.25"></line><line x1="0" y1="145" x2="1473.84375" y2="145" fill="rgb(0, 0, 0)" stroke="rgb(60, 60, 60)" stroke-width="1px" opacity="0.25"></line><line x1="0" y1="116" x2="1473.84375" y2="116" fill="rgb(0, 0, 0)" stroke="rgb(60, 60, 60)" stroke-width="1px" opacity="0.25"></line><line x1="0" y1="87" x2="1473.84375" y2="87" fill="rgb(0, 0, 0)" stroke="rgb(60, 60, 60)" stroke-width="1px" opacity="0.25"></line><line x1="0" y1="58" x2="1473.84375" y2="58" fill="rgb(0, 0, 0)" stroke="rgb(60, 60, 60)" stroke-width="1px" opacity="0.25"></line><line x1="0" y1="29" x2="1473.84375" y2="29" fill="rgb(0, 0, 0)" stroke="rgb(60, 60, 60)" stroke-width="1px" opacity="0.25"></line><line x1="0" y1="0" x2="1473.84375" y2="0" fill="rgb(0, 0, 0)" stroke="rgb(60, 60, 60)" stroke-width="1px" opacity="0.25"></line></g></g></g><g><g><line x1="0" y1="348" x2="1473.84375" y2="348" fill="rgb(0, 0, 0)" stroke="rgb(153, 153, 153)" stroke-width="1.5px"></line></g></g><g><g><line x1="133.98579545454547" y1="0" x2="133.98579545454547" y2="377" fill="rgb(0, 0, 0)" stroke="rgb(153, 153, 153)" stroke-width="1.5px"></line></g></g><g><g><g><g><g><path stroke="rgb(255, 112, 67)" stroke-width="2px" d="M133.98579545454547,348L134.24985912642046,348L134.5159698035038,348L134.66037671638256,348L134.91234444839014,348L135.16245126657194,348L135.2888073153409,348L135.41144153645834,348L135.59083362926137,348L135.74082328361743,348L135.89099902935607,348L136.0272179214015,348L136.17125265151515,348L136.29332859848483,348L136.39419012784091,348L136.51049724195073,348L136.77753837594696,348L137.07919250710228,348L137.19140561079544,348L137.88608474195075,348L138.0492868844697,348L138.1520093276515,348L138.31279228219697,348L138.449197265625,348L138.67920621448863,348L139.1070303030303,348L139.25683386600377,348L139.493169921875,348L139.60649957386363,348L139.7670964370265,348L139.92248274147727,348L140.13890701941287,348L140.42716257102273,348L140.5644980113636,348L140.92216564867425,348L141.0769936789773,348L141.19553388967802,348L141.30867745028408,348L141.49253573626893,348L141.87513961884468,348L141.9918189157197,348L142.10738166429923,348L142.27635263967804,348L142.42224828361742,348L142.53855539772727,348L142.64127784090908,348L142.78400993134468,348L142.9006892282197,348L143.0259287286932,348L143.2728719933712,348L143.4072299715909,348L143.56019708806818,348L143.7172582149621,348L144.0306361032197,348L144.28372038352273,348L144.38867592329547,348L144.67079045928028,348L144.79733259943183,348L145.07200348011364,348L145.17621465435604,348L145.26218887310606,348L145.3807290838068,348L145.50894604640152,348L145.62581143465908,348L145.8997379498106,348L146.07168638731062,348L146.1999033499053,348L146.3119303622159,348L146.9390583214962,348L147.0803016808712,348L147.31775428503786,348L147.57530475852272,348L147.70110253314394,348L147.7934038589015,348L148.15516550662878,348L148.2580740411932,348L148.67305782433712,348L149.15242922585225,348L150.10279791666667,348L150.96105137310605,348L151.08815178740528,348L151.52676917613636,348L151.67843365293558,348L151.80497579308712,348L151.92835437973486,348L152.18367175662877,348L152.32212374526515,348L152.69877270359848,348L153.16046542376893,348L153.28607710700757,348L153.6182502249053,348L153.97442913115532,348L154.0989242660985,348L154.2498443773674,348L154.38959900568182,348L154.5133497750947,348L154.6421250118371,348L154.8855325402462,348L154.9901158972538,348L155.10567864583334,348L155.21230900804926,348L155.47990841619315,348L155.61277766335226,348L155.73894762073863,348L155.9778889559659,348L156.1466738399621,348L156.27396034564393,348L156.5490034090909,348L156.67628991477272,348L156.86498657670455,348L156.9628706439394,348L157.21762974668562,348L157.36408366477272,348L157.52040042613635,348L157.82298501420456,348L157.96348400804922,348L158.3421799715909,348L158.46295327888257,348L158.5632565340909,348L158.7113852746212,348L158.9341366595644,348L159.0630979876894,348L159.30222541429922,348L159.59587761600378,348L159.77024524147728,348L159.89864829545454,348L160.017746780303,348L160.3048857836174,348L160.43738284801134,348L160.85869373816288,348L161.4566053503788,348L161.95644680397726,348L162.27782662168562,348L162.42465272253787,348L162.55994115767047,348L162.69094949100378,348L162.79944076704544,348L163.16269114583332,348L163.31975227272727,348L163.48332659801136,348L163.71873219696968,348L164.13743780776514,348L164.29561548295453,348L164.4524905184659,348L164.55558514441287,348L164.66482078598486,348L164.78578018465907,348L165.01392821969696,348L165.1302353338068,348L165.27185087594697,348L165.56215343276514,348L165.66841161221592,348L165.84166268939393,348L165.96131944839016,348L166.12712687026516,348L166.24287571022728,348L166.64818274147726,348L166.78309899384467,348L167.08270611979165,348L167.67447671638254,348L167.78892291666668,348L168.06340770596591,348L168.18418101325756,348L168.32970447443182,348L168.48602123579545,348L168.63061424005681,348L168.7850700875947,348L169.27616524621212,348L169.73748578361742,348L169.8928720880682,348L170.0439782907197,348L170.17424225852272,348L170.39848237452648,348L170.67389762073864,348L170.9573147964015,348L171.1661093276515,348L171.43389482717802,348L171.54480529119314,348L171.6620428622159,348L171.80291403882575,348L171.8937266335227,348L172.19891650094695,348L172.3174567116477,348L172.55621195549242,348L172.78770963541666,348L173.02218477746212,348L173.61116400331437,348L173.83391538825757,348L173.9772057528409,348L174.26304211647727,348L174.35013288352272,348L174.50384436553028,348L174.6543922940341,348L174.76176702178032,348L174.90431302083334,348L175.04015973011363,348L175.19722085700755,348L175.32227426609847,348L175.46444808238635,348L177.81441006155302,348L178.59152767518938,348L180.00656654829544,348L181.02132285748107,348L181.62109538352274,348L181.72456219223483,348L181.86208372395834,348L182.0636206912879,348L182.26199410511362,348L182.39616599195077,348L182.53740935132575,348L182.66562631392048,348L182.79514591619318,348L182.88968033854167,348L183.29908138020832,348L183.9608223366477,348L185.36916191998102,348L186.79480800189393,348L188.36393053977272,348L189.27168430397728,348L190.69565556344696,348L191.5006868844697,348L192.26887211174244,348L192.9637373342803,348L193.7814228693182,348L194.60506332859848,348L195.39595170454544,348L196.10067977035987,348L196.77544712357957,348L198.3347068181818,290L200.0741029711174,313.2L201.09202283380682,269.12L202.59564120501892,300.672L204.0350580492424,319.6032L204.70163738162879,330.96192L205.5697536813447,279.777152L206.38297302320072,249.06629120000002L207.1777693181818,288.63977472L208.09966602746212,312.38386483200003L208.86245460464013,326.6303188992L209.82361659564393,335.17819133952L210.60966659564392,340.306914803712L211.42028065814392,343.3841488822272L212.18455796638253,345.2304893293363L213.30315326704545,346.3382935976018L214.23547109374996,289.00297615856107L215.70373210227274,312.60178569513664L217.3204940340909,326.761071417082L218.10096129261362,335.2566428502492L218.37339907670452,340.3539857101495L219.2467259351326,343.4123914260897L220.4436657078598,287.24743485565386L222.06173027935608,253.54846091339232L222.8855568300189,291.3290765480354L224.5520051609848,313.9974459288212L225.3315419625947,327.59846755729274L226.29903106060607,277.75908053437564L227.17868502604168,247.8554483206254L228.23196225142044,229.91326899237524L230.04207312973486,219.14796139542514L231.00007156723484,212.6887768372551L231.90298695549245,266.81326610235305L232.64511938920455,299.28795966141183L237.3210375591856,260.7727757968471L238.1519355823864,295.66366547810827L239.76944187973484,316.598199286865L240.499292282197,329.158919572119L241.18559730113634,336.6953517432714L242.9717023910985,341.2172110459628L243.81246325757573,343.9303266275777L245.38233016098485,345.55819597654664L246.92726081912875,346.534917585928L251.12473804450758,347.1209505515568L251.9963900804924,347.47257033093405L254.35826190814393,347.6835421985604L255.23103049242422,347.81012531913626L256.0094507457386,347.8860751914818L256.78861536458334,347.9316451148891L257.62267694128786,347.9589870689334L258.50512227746214,347.97539224136005L259.91941678503787,347.98523534481603L261.3850725142045,347.9911412068896L262.8187205255682,347.9946847241338L263.95518059895835,347.99681083448024L266.44657202888254,289.99808650068815L267.3662356415719,255.1988519004129L269.4832112097538,234.31931114024772L270.3807299479167,279.7915866841486L271.30988422111744,249.0749520104892L272.03731543560605,288.6449712062935L273.7558693536932,254.3869827237761L274.65655164535985,233.8321896342657L276.8507551373106,163.49931378055942L277.50040015388254,121.29958826833564L278.9893173058712,153.9797529610014L281.55477310606057,173.58785177660084L282.13835568181815,127.3527110659605L283.6823558830492,157.6116266395763L284.5815494436553,175.7669759837458L285.428265234375,186.6601855902475L286.2455785866477,193.19611135414846L286.9650078716856,197.1176668124891L288.3190087713068,141.47060008749347L289.09463765388256,166.0823600524961L289.7714520123106,180.84941603149767L290.4246327651515,189.7096496188986L291.1328965672348,195.02578977133916L291.7777032078598,198.2154738628035L292.46624132339014,200.12928431768208L293.8632293323863,201.27757059060926L295.2434691169508,201.96654235436554L295.9094901751894,202.37992541261934L298.70234964488634,144.62795524757158L299.9928933830492,109.97677314854297L304.9297116714015,89.18606388912576L309.41041998106056,76.71163833347549L310.7448812855114,69.22698300008528L313.60436147017043,64.73618980005119L315.373160061553,62.04171388003073L318.6172911339962,60.42502832801841L320.1419378314394,59.45501699681108L321.5167809659091,58.87301019808666L325.8651783025568,58.52380611885201L327.40452621922344,58.31428367131116L330.3656122987689,58.18857020278671L336.5051391927083,58.11314212167207L340.8561418087121,116.06788527300324L342.41875114820067,150.840731163802L343.84402504734845,113.7044386982812L345.24436270123107,91.4226632189687L346.71504289772724,78.05359793138126L348.1775350733902,128.03215875882873L349.62625648674236,158.01929525529724L352.51495301846586,176.01157715317834L353.9417156486742,186.806946291907L355.47268945312493,193.2841677751442L356.88754223484847,197.17050066508654L358.27578394886365,199.50230039905193L359.7861016098485,200.90138023943115L361.309259576231,201.74082814365872L365.6859428030303,202.2444968861952L367.07511497395836,202.54669813171714L368.6328859374999,202.7280188790303L377.7482001302082,202.83681132741816L380.86690561079547,202.90208679645087L382.3113469223485,202.94125207787053L383.684515234375,202.96475124672236L385.4464284446022,144.9788507480334L387.0687731178977,168.18731044882L388.83682734375,124.11238626929202L390.50346176609844,97.66743176157519L392.1520453243371,139.8004590569451L393.6562219696969,107.08027543416705L395.3436986268939,87.44816526050022L396.4068386955492,75.6688991563002L397.9675871212121,126.6013394937801L399.6057495620266,157.16080369626806L401.2547053030303,117.49648221776084L402.8429952533143,93.6978893306565L404.5343798295454,79.41873359839394L406.14295374053023,128.85124015903634L409.30111059422353,158.5107440954218L410.6904688565341,176.3064464572531L412.23874915956435,128.98386787435186L414.96759319365526,158.59032072461108L417.60153062263254,176.35419243476667L420.6069064512311,187.01251546086002L421.7174998224432,193.407509276516L425.51785803740523,197.2445055659096L427.18598119081435,199.5467033395458L428.9473361268939,200.92802200372748L431.3665241003788,201.7568132022365L432.4947961529356,202.25408792134192L433.58752475142046,202.55245275280515L436.06886724668556,202.7314716516831L437.24533696732954,202.83888299100988L438.40375582386355,202.9033297946059L439.8601069839015,202.94199787676357L442.21751261837113,202.96519872605813L443.34969258996216,202.9791192356349L444.5358390625,202.98747154138093L445.7832095999053,202.99248292482855L447.105388873106,202.99548975489714L448.3981657078598,202.9972938529383L450.25684643702647,202.99837631176297L451.5875859138257,202.99902578705778L453.3554540482954,144.99941547223472L456.6708581202651,168.19964928334082L458.2397945667613,182.11978957000446L459.46725332623106,190.47187374200269L462.794381155303,195.48312424520162L463.9252584872159,198.489874547121L465.10786922348484,200.2939247282726L467.4836979048295,201.37635483696357L468.6363479285037,202.02581290217816L469.7046985558711,202.4154877413069L470.86535050899613,202.64929264478417L473.16581218039767,202.78957558687048L475.4852551728219,202.8737453521223L476.6749373816288,202.92424721127338L477.94147533143934,202.95454832676404L480.2488223839962,202.9727289960584L483.00464966856055,202.98363739763508L485.45137916666675,202.99018243858103L486.56699700520835,202.99410946314862L487.8391176964962,202.99646567788918L491.291298934659,202.99787940673352L495.76716886837113,202.99872764404012L496.77876162405306,202.99923658642408L497.7572301136364,202.99954195185447L498.8116238873106,202.9997251711127L499.8349404000947,202.99983510266762L501.90390439157187,202.99990106160058L502.98974760890144,202.99994063696036L506.22606284327645,202.99996438217622L507.4207695194127,202.99997862930573L509.4649833570075,202.99998717758345L511.6037316169507,202.99999230655004L512.6733848839962,202.99999538393004L516.0675056107954,202.99999723035805L518.2555680871212,202.99999833821482L519.3823514086174,202.99999900292892L520.5221611268938,202.99999940175735L522.5805179095644,202.99999964105442L523.7919728101325,202.99999978463265L524.9567187736742,202.9999998707796L526.0957841264204,202.99999992246777L527.0870929214014,202.99999995348068L528.2371376657196,202.99999997208843L529.2541270714962,202.99999998325305L530.8550712357954,202.99999998995185L531.9226774976324,202.99999999397113L536.3025242779356,202.99999999638266L537.4810410037878,202.9999999978296L540.1427060487689,202.99999999869777L542.1956661813447,202.9999999992187L543.3306375236742,202.9999999995312L544.4218773910984,202.9999999997187L545.3912274029356,202.99999999983123L546.4837699100378,202.99999999989873L547.5917580018939,202.99999999993926L548.6370332978219,202.99999999996356L549.7859614938446,202.99999999997817L550.9830873579544,202.9999999999869L553.27517491714,202.99999999999213L554.3120761008522,202.99999999999528L555.4183893702651,202.9999999999972L556.5464753314393,202.99999999999832L557.6440423058712,202.99999999999898L559.7749747277462,202.9999999999994L560.7500935724432,202.99999999999966L561.7698743489583,202.9999999999998L563.9471435250947,202.9999999999999L565.0551316169507,202.99999999999991L566.0661660984847,202.99999999999994L567.1544285037878,202.99999999999997L568.2946104048295,203L569.4446551491477,203L570.5779516690341,203L571.6954304214015,203L572.7721551609848,203L575.7855329190342,203L577.9711762073863,203L580.2182296519885,203L583.5723407315342,203L584.6712103456439,203L585.7669164062501,203L586.8313591145833,203L587.9069673058711,203L588.9589418915721,203L589.9991927201705,203L591.0988066998106,203L592.1842777343749,203L593.2507674479167,203L594.2591966500946,203L595.4325028172349,203L596.4336744554925,203L599.5761996330492,203L600.6713474195076,203L601.6855454545455,203L603.7755377722538,203L604.8466797703599,203L607.0535374763257,203L608.2590374526515,203L609.4425786458332,203L610.5451700875947,203L611.6287802083334,203L612.7628210937501,203L616.0726424242424,203L617.1670458451704,203L618.2110185014204,203L622.442364358428,203L623.466611328125,203L625.6948695430872,203L626.8305852509469,203L627.9910511126893,203L628.9043876183712,203L631.1607456321022,203L633.365928515625,203L634.3888728456438,203L635.4520129142992,203L637.7385177320075,203L638.9268973011363,203L639.9096458925189,203L640.8814150923296,203L642.0934282670454,203L643.046774419981,203L644.0806981415719,203L645.1782651160038,203L648.43635304214,203L649.3528531013258,203L651.5001615648674,203L653.7034835345644,203L654.8555752840908,203L655.9229954545455,203L657.0138631392045,203L659.2391438920454,203L660.2611577651516,203L661.3349050426136,203L662.3736671401515,203L663.3154756273674,203L664.4366762073863,203L665.6306385179923,203L666.6703310724431,203L669.9514943300189,203L670.9882094223484,203L673.4094444010416,203L674.7120840790719,203L675.9951841619318,203L677.3644445549243,203L679.7238971946022,203L682.1494122750946,203L683.2175768110794,203L684.2448012428977,203L685.2787249644887,203L686.4077413825756,203L687.3979336292613,203L688.4264607007575,203L689.4819710227272,203L691.5883393821023,203L692.7644369199811,203L693.8171558712121,203L696.0396452533145,203L698.0929775686552,203L699.0896830137309,203L700.3074650213068,203L701.5205947443181,203L702.6215113636363,203L703.6894898082386,203L705.8185613162877,203L706.8165694010416,203L707.8882696732953,203L710.1831486032196,203L711.3218417732008,203L713.5545661813446,203L716.8081879142992,203L718.8886895714961,203L720.0662758404354,203L721.1785440340908,203L724.4835269886362,203L725.6071467566288,203L728.0136805160984,203L729.1384168323863,203L731.242738186553,203L732.3527732836174,203L733.4562951822916,203L735.6285398910985,203L736.6418074692234,203L739.9183184422349,203L740.9496368844696,203L743.1432821022727,203L744.1435232836174,203L745.2392293442234,203L746.3433095170454,203L748.343233605587,203L749.4566183475379,203L750.5822851207387,203L751.7248862097537,203L753.9296969105113,203L756.1497671046401,203L758.2349210464015,203L759.3295105587122,203L760.4138650449811,203L761.5426953716857,203L762.7777838778409,203L767.3446524976325,203L768.2751094105112,203L769.3912855232006,203L770.573710168087,203L773.8009069247158,203L774.8115692234848,203L775.9411439157196,203L776.9856748461175,203L777.9609797821969,203L779.9679753432765,203L781.0750329782196,203L782.1297989346591,203L783.3152010416666,203L785.536759966856,203L786.5556102864582,203L787.5757632457385,203L788.7501859611742,203L789.8754805516097,203L790.951833108428,203L792.0138566287878,203L794.2475114938446,203L795.272875011837,203L796.2513435014204,203L798.47364679214,203L799.665934280303,203L801.9098241714015,203L803.0455398792614,203L807.160950804924,203L808.2877341264203,203L810.4590483783144,203L811.4903668205492,203L812.6119395833332,203L813.74021163589,203L814.8385229758521,203L815.8823095407196,203L816.9138140743371,203L819.048282232481,203L820.2150752012311,203L821.2289010535037,203L822.1833637547347,203L824.2513972892991,203L825.3642237571022,203L826.4601159090909,203L827.4456558712121,203L828.5309408143938,203L829.595383522727,203L835.8065555989582,203L837.0827703006628,203L838.1732658025567,203L839.2566898319128,203L840.3525819839015,203L844.6913025686553,203L847.8133576941287,203L848.9449793915719,203L851.0020335345644,203L854.0271350497158,203L855.0504515624999,203L857.1918051017991,203L858.2426631392044,203L859.3614445312498,203L860.408022466856,203L862.6161828124999,203L863.6839751657196,203L864.7037559422347,203L865.9371696259469,203L867.0680469578597,203L868.0921078361741,203L869.1204488162876,203L870.1843332504733,203L871.2941822561552,203L873.3117850260415,203L874.402094436553,203L876.7124189512309,203L878.8290223366475,203L879.8966285984848,203L882.1198623461173,203L884.391293761837,203L885.4324750473484,203L886.4546750118369,203L887.6069528527462,203L890.973159872159,203L892.0727738517992,203L893.1950909801135,203L894.2721879024621,203L896.3768814393939,203L897.4128521661931,203L899.488515447443,203L900.5968757220643,203L905.5755645714961,203L906.5612906249999,203L908.543908214962,203L909.5372640151514,203L911.5859440459279,203L912.6042360913825,203L913.6489531131629,203L914.8282142045452,203L916.9397931226324,203L917.9993974550189,203L918.942880764678,203L921.0274764322917,203L921.9668657315339,203L922.9453342211173,203L923.9978670809659,203L926.12079757339,203L927.2743780539772,203L929.4350850970644,203L932.8638188210226,203L935.087610842803,203L936.1576362926135,203L937.2520397135416,203L938.2422319602271,203L940.3059853929923,203L942.3263795336175,203L943.4669336174242,203L944.530259777462,203L945.6434584280302,203L946.699340932765,203L947.7805318655302,203L948.7915663470642,203L949.8708963660038,203L950.9172882102272,203L954.127364559659,203L955.0946675662877,203L956.1799525094696,203L961.980420904356,203L963.1330709280302,203L964.3662985203598,203L965.7444912997157,203L968.2703096354165,203L969.4789731652461,203L970.4362272372159,203L971.6486125946968,203L972.7452491122158,203L978.5168733428029,203L979.6192786931817,203L980.758716228693,203L981.8903379261362,203L983.0978849076703,203L984.1532091382575,203L986.3085195312498,203L987.4289757457384,203L988.5697159209278,203L989.6760291903408,203L990.8578955610793,203L991.9277349195074,203L992.8825698035035,203L993.998745916193,203L995.2124339133522,203L997.261858309659,203L998.380825793087,203L999.4800675899619,203L1000.6375559895832,203L1001.7542903764205,203L1002.8179887192234,203L1003.9570540719695,203L1006.178612997159,203L1008.5890546756629,203L1010.7214758285984,203L1011.9403743844695,203L1013.1019567945075,203L1015.3283540956438,203L1017.5041345407196,203L1018.6383615175189,203L1020.902535369318,203L1023.3276782670454,203L1024.4764203716854,203L1025.5443988162876,203L1027.759444543087,203L1031.0433991714015,203L1032.1156577178028,203L1035.3679768110794,203L1037.5305447679923,203L1040.7434124881627,203L1044.1533509824808,203L1045.304326183712,203L1046.4776323508522,203L1047.716070501894,203L1048.7743721946022,203L1050.0118798887308,203L1051.0415235085225,203L1052.1184343394884,203L1053.1998113636362,203L1054.2765361032195,203L1056.4206810132575,203L1057.5351823035037,203L1058.5973919152461,203L1061.9740200520832,203L1063.0362296638255,203L1065.3037531605112,203L1066.5410747632575,203L1067.699679711174,203L1068.8460026278408,203L1070.9119891571968,203L1074.2915947561553,203L1075.4271243726325,203L1076.4746327651515,203L1077.614814666193,203L1078.6887480350379,203L1079.7630535866476,203L1080.8105619791666,203L1081.7248289417612,203L1082.9383308475378,203L1084.173047170928,203L1085.3684982125947,203L1086.5019808238635,203L1087.4514190577652,203L1088.5171644057764,203L1090.5559815932766,203L1091.677740447443,203L1092.8175501657197,203L1093.968339275568,203L1096.168683783144,203L1097.3421760416666,203L1101.5941780421401,203L1104.7011597656249,203L1108.12170546875,203L1109.2946394531248,203L1110.271433120265,203L1111.4832602035985,203L1113.5816266335225,203L1114.6389978693182,203L1115.6615700165719,203L1116.7503906960226,203L1117.8265571614581,203L1119.9109667376893,203L1120.9329806107953,203L1122.086747182765,203L1123.129417199337,203L1124.160177367424,203L1125.2728177438446,203L1126.3644297940339,203L1127.4353857007575,203L1128.5556558238636,203L1129.5696677675187,203L1130.639321034564,203L1132.8242199573863,203L1133.960493939394,203L1136.08212179214,203L1137.2048111032198,203L1138.372720620265,203L1140.614563506155,203L1141.741905101799,203L1142.858267305871,203L1144.1034047466853,203L1145.3362601562499,203L1146.547715056818,203L1150.829305587121,203L1153.0992482717802,203L1156.5419388494317,203L1157.463463375947,203L1159.6223095052082,203L1160.685263482481,203L1161.8849946259468,203L1163.901853030303,203L1164.9411734019886,203L1165.8800044270831,203L1167.0021354640148,203L1168.0786741122158,203L1169.1673087002841,203L1170.3579213660037,203L1171.6551643939395,203L1172.819538174716,203L1173.927526266572,203L1176.1479686434657,203L1177.3272297348483,203L1178.3976273674243,203L1180.6104399976325,203L1181.7986334753787,203L1182.8781495857008,203L1184.075089358428,203L1185.1469757220643,203L1186.3113495028408,203L1188.5170906605113,203L1189.6645301254732,203L1190.6818917140151,203L1191.7526615293557,203L1192.7880739820075,203L1193.8214394294505,203L1194.96869280303,203L1197.3182825994318,203L1198.3929603338065,203L1199.463171875,203L1200.5590640269884,203L1201.5689819602271,203L1202.6410544152461,203L1203.71926788589,203L1204.6683339370263,203L1207.9800161813446,203L1209.1133127012308,203L1211.4022367069128,203L1215.6905265269886,203L1216.7328243607953,203L1219.0157934422348,203L1220.144251586174,203L1221.2602416074808,203L1223.583220336174,203L1225.7282957031248,203L1226.9537074573861,203L1228.0278269176135,203L1230.3061437144884,203L1231.5120158735795,203L1232.5502196969696,203L1233.8011259706439,203L1235.7857905658143,203L1236.8801939867421,203L1237.970317305871,203L1239.0632319957383,203L1240.1598685132576,203L1242.394081652462,203L1243.654292495265,203L1244.8071286103218,203L1246.9101473248104,203L1247.965285464015,203L1251.1416792732007,203L1253.2731699692235,203L1254.3504529829545,203L1256.5775946496212,203L1257.6144958333332,203L1258.698478136837,203L1259.8513142518939,203L1260.8262470052082,203L1261.9539607836173,203L1263.1775116240528,203L1266.6347173295455,203L1267.792019637784,203L1268.913592400568,203L1270.0271632339013,203L1271.1180309185604,203L1272.185451089015,203L1273.3217250710227,203L1275.6413541548293,203L1276.7231033617422,203L1277.9116690222536,203L1279.0823699100376,203L1280.1868222656249,203L1281.4572681344696,203L1284.6502240767045,203L1286.9049072679925,203L1287.9712108901515,203L1289.2278859966855,203L1290.364532161458,203L1291.43753507339,203L1292.505141335227,203L1293.4739330729167,203L1294.4989244081437,203L1295.6035628551135,203L1296.6002683001893,203L1299.8968771425189,203L1300.8855806581437,203L1304.0366660392992,203L1305.1610301728217,203L1307.3887301136363,203L1308.510861150568,203L1309.56004436553,203L1312.2079386482005,203L1313.216181758996,203L1314.2990475142042,203L1316.3788048058711,203L1317.5228946259467,203L1318.5839876893938,203L1320.7307378787877,203L1321.8841322679923,203L1323.013334777462,203L1325.2062356297347,203L1326.2632346827652,203L1327.4400765861742,203L1329.7466792732007,203L1330.6888599431816,203L1332.896462014678,203L1334.1244790482954,203L1335.2596364820074,203L1336.5084957504735,203L1337.5193441406248,203L1338.5947662405301,203L1340.599156522254,203L1341.6362437973485,203L1345.0279453361743,203L1347.310728326231,203L1350.7960338304924,203L1355.1943036576706,203L1360.8159382339013,203L1364.5210176609849,203L1365.7609445430871,203L1366.8557201467802,203L1367.9627777817234,203L1369.0229403882577,203L1370.1244152817233,203L1372.3013122750947,203L1373.6376344933713,203L1375.8342571732953,203L1376.9070739938447,203L1379.2840192234848,203L1380.3315276160035,203L1381.546890435606,203L1382.5311277580493,203L1384.7100717566286,203L1386.0623978338067,203L1387.3339602509468,203L1388.5891466264204,203L1389.8104643702652,203L1390.8332226089012,203L1391.848909375,203L1392.9833224431818,203L1394.042554592803,203L1395.1950185250946,203L1396.1762783854167,203L1398.4235179214015,203L1399.6723771898671,203L1401.9864235321968,203L1405.4408378669507,203L1407.756372940341,203L1412.3198919152462,203L1413.4870570667613,203L1414.634682623106,203L1415.7802611742422,203L1417.6385697206438,203" style="fill: none;" fill="none"></path></g></g></g></g><g opacity="0.2"><g><g><g><path stroke="rgb(255, 112, 67)" stroke-width="2px" d="M133.98579545454547,348L134.24985912642046,348L134.5159698035038,348L134.66037671638256,348L134.91234444839014,348L135.16245126657194,348L135.2888073153409,348L135.41144153645834,348L135.59083362926137,348L135.74082328361743,348L135.89099902935607,348L136.0272179214015,348L136.17125265151515,348L136.29332859848483,348L136.39419012784091,348L136.51049724195073,348L136.77753837594696,348L137.07919250710228,348L137.19140561079544,348L137.88608474195075,348L138.0492868844697,348L138.1520093276515,348L138.31279228219697,348L138.449197265625,348L138.67920621448863,348L139.1070303030303,348L139.25683386600377,348L139.493169921875,348L139.60649957386363,348L139.7670964370265,348L139.92248274147727,348L140.13890701941287,348L140.42716257102273,348L140.5644980113636,348L140.92216564867425,348L141.0769936789773,348L141.19553388967802,348L141.30867745028408,348L141.49253573626893,348L141.87513961884468,348L141.9918189157197,348L142.10738166429923,348L142.27635263967804,348L142.42224828361742,348L142.53855539772727,348L142.64127784090908,348L142.78400993134468,348L142.9006892282197,348L143.0259287286932,348L143.2728719933712,348L143.4072299715909,348L143.56019708806818,348L143.7172582149621,348L144.0306361032197,348L144.28372038352273,348L144.38867592329547,348L144.67079045928028,348L144.79733259943183,348L145.07200348011364,348L145.17621465435604,348L145.26218887310606,348L145.3807290838068,348L145.50894604640152,348L145.62581143465908,348L145.8997379498106,348L146.07168638731062,348L146.1999033499053,348L146.3119303622159,348L146.9390583214962,348L147.0803016808712,348L147.31775428503786,348L147.57530475852272,348L147.70110253314394,348L147.7934038589015,348L148.15516550662878,348L148.2580740411932,348L148.67305782433712,348L149.15242922585225,348L150.10279791666667,348L150.96105137310605,348L151.08815178740528,348L151.52676917613636,348L151.67843365293558,348L151.80497579308712,348L151.92835437973486,348L152.18367175662877,348L152.32212374526515,348L152.69877270359848,348L153.16046542376893,348L153.28607710700757,348L153.6182502249053,348L153.97442913115532,348L154.0989242660985,348L154.2498443773674,348L154.38959900568182,348L154.5133497750947,348L154.6421250118371,348L154.8855325402462,348L154.9901158972538,348L155.10567864583334,348L155.21230900804926,348L155.47990841619315,348L155.61277766335226,348L155.73894762073863,348L155.9778889559659,348L156.1466738399621,348L156.27396034564393,348L156.5490034090909,348L156.67628991477272,348L156.86498657670455,348L156.9628706439394,348L157.21762974668562,348L157.36408366477272,348L157.52040042613635,348L157.82298501420456,348L157.96348400804922,348L158.3421799715909,348L158.46295327888257,348L158.5632565340909,348L158.7113852746212,348L158.9341366595644,348L159.0630979876894,348L159.30222541429922,348L159.59587761600378,348L159.77024524147728,348L159.89864829545454,348L160.017746780303,348L160.3048857836174,348L160.43738284801134,348L160.85869373816288,348L161.4566053503788,348L161.95644680397726,348L162.27782662168562,348L162.42465272253787,348L162.55994115767047,348L162.69094949100378,348L162.79944076704544,348L163.16269114583332,348L163.31975227272727,348L163.48332659801136,348L163.71873219696968,348L164.13743780776514,348L164.29561548295453,348L164.4524905184659,348L164.55558514441287,348L164.66482078598486,348L164.78578018465907,348L165.01392821969696,348L165.1302353338068,348L165.27185087594697,348L165.56215343276514,348L165.66841161221592,348L165.84166268939393,348L165.96131944839016,348L166.12712687026516,348L166.24287571022728,348L166.64818274147726,348L166.78309899384467,348L167.08270611979165,348L167.67447671638254,348L167.78892291666668,348L168.06340770596591,348L168.18418101325756,348L168.32970447443182,348L168.48602123579545,348L168.63061424005681,348L168.7850700875947,348L169.27616524621212,348L169.73748578361742,348L169.8928720880682,348L170.0439782907197,348L170.17424225852272,348L170.39848237452648,348L170.67389762073864,348L170.9573147964015,348L171.1661093276515,348L171.43389482717802,348L171.54480529119314,348L171.6620428622159,348L171.80291403882575,348L171.8937266335227,348L172.19891650094695,348L172.3174567116477,348L172.55621195549242,348L172.78770963541666,348L173.02218477746212,348L173.61116400331437,348L173.83391538825757,348L173.9772057528409,348L174.26304211647727,348L174.35013288352272,348L174.50384436553028,348L174.6543922940341,348L174.76176702178032,348L174.90431302083334,348L175.04015973011363,348L175.19722085700755,348L175.32227426609847,348L175.46444808238635,348L177.81441006155302,348L178.59152767518938,348L180.00656654829544,348L181.02132285748107,348L181.62109538352274,348L181.72456219223483,348L181.86208372395834,348L182.0636206912879,348L182.26199410511362,348L182.39616599195077,348L182.53740935132575,348L182.66562631392048,348L182.79514591619318,348L182.88968033854167,348L183.29908138020832,348L183.9608223366477,348L185.36916191998102,348L186.79480800189393,348L188.36393053977272,348L189.27168430397728,348L190.69565556344696,348L191.5006868844697,348L192.26887211174244,348L192.9637373342803,348L193.7814228693182,348L194.60506332859848,348L195.39595170454544,348L196.10067977035987,348L196.77544712357957,348L198.3347068181818,203L200.0741029711174,348L201.09202283380682,203L202.59564120501892,348L204.0350580492424,348L204.70163738162879,348L205.5697536813447,203L206.38297302320072,203L207.1777693181818,348L208.09966602746212,348L208.86245460464013,348L209.82361659564393,348L210.60966659564392,348L211.42028065814392,348L212.18455796638253,348L213.30315326704545,348L214.23547109374996,203L215.70373210227274,348L217.3204940340909,348L218.10096129261362,348L218.37339907670452,348L219.2467259351326,348L220.4436657078598,203L222.06173027935608,203L222.8855568300189,348L224.5520051609848,348L225.3315419625947,348L226.29903106060607,203L227.17868502604168,203L228.23196225142044,203L230.04207312973486,203L231.00007156723484,203L231.90298695549245,348L232.64511938920455,348L237.3210375591856,203L238.1519355823864,348L239.76944187973484,348L240.499292282197,348L241.18559730113634,348L242.9717023910985,348L243.81246325757573,348L245.38233016098485,348L246.92726081912875,348L251.12473804450758,348L251.9963900804924,348L254.35826190814393,348L255.23103049242422,348L256.0094507457386,348L256.78861536458334,348L257.62267694128786,348L258.50512227746214,348L259.91941678503787,348L261.3850725142045,348L262.8187205255682,348L263.95518059895835,348L266.44657202888254,203L267.3662356415719,203L269.4832112097538,203L270.3807299479167,348L271.30988422111744,203L272.03731543560605,348L273.7558693536932,203L274.65655164535985,203L276.8507551373106,58L277.50040015388254,58L278.9893173058712,203L281.55477310606057,203L282.13835568181815,58L283.6823558830492,203L284.5815494436553,203L285.428265234375,203L286.2455785866477,203L286.9650078716856,203L288.3190087713068,58L289.09463765388256,203L289.7714520123106,203L290.4246327651515,203L291.1328965672348,203L291.7777032078598,203L292.46624132339014,203L293.8632293323863,203L295.2434691169508,203L295.9094901751894,203L298.70234964488634,58L299.9928933830492,58L304.9297116714015,58L309.41041998106056,58L310.7448812855114,58L313.60436147017043,58L315.373160061553,58L318.6172911339962,58L320.1419378314394,58L321.5167809659091,58L325.8651783025568,58L327.40452621922344,58L330.3656122987689,58L336.5051391927083,58L340.8561418087121,203L342.41875114820067,203L343.84402504734845,58L345.24436270123107,58L346.71504289772724,58L348.1775350733902,203L349.62625648674236,203L352.51495301846586,203L353.9417156486742,203L355.47268945312493,203L356.88754223484847,203L358.27578394886365,203L359.7861016098485,203L361.309259576231,203L365.6859428030303,203L367.07511497395836,203L368.6328859374999,203L377.7482001302082,203L380.86690561079547,203L382.3113469223485,203L383.684515234375,203L385.4464284446022,58L387.0687731178977,203L388.83682734375,58L390.50346176609844,58L392.1520453243371,203L393.6562219696969,58L395.3436986268939,58L396.4068386955492,58L397.9675871212121,203L399.6057495620266,203L401.2547053030303,58L402.8429952533143,58L404.5343798295454,58L406.14295374053023,203L409.30111059422353,203L410.6904688565341,203L412.23874915956435,58L414.96759319365526,203L417.60153062263254,203L420.6069064512311,203L421.7174998224432,203L425.51785803740523,203L427.18598119081435,203L428.9473361268939,203L431.3665241003788,203L432.4947961529356,203L433.58752475142046,203L436.06886724668556,203L437.24533696732954,203L438.40375582386355,203L439.8601069839015,203L442.21751261837113,203L443.34969258996216,203L444.5358390625,203L445.7832095999053,203L447.105388873106,203L448.3981657078598,203L450.25684643702647,203L451.5875859138257,203L453.3554540482954,58L456.6708581202651,203L458.2397945667613,203L459.46725332623106,203L462.794381155303,203L463.9252584872159,203L465.10786922348484,203L467.4836979048295,203L468.6363479285037,203L469.7046985558711,203L470.86535050899613,203L473.16581218039767,203L475.4852551728219,203L476.6749373816288,203L477.94147533143934,203L480.2488223839962,203L483.00464966856055,203L485.45137916666675,203L486.56699700520835,203L487.8391176964962,203L491.291298934659,203L495.76716886837113,203L496.77876162405306,203L497.7572301136364,203L498.8116238873106,203L499.8349404000947,203L501.90390439157187,203L502.98974760890144,203L506.22606284327645,203L507.4207695194127,203L509.4649833570075,203L511.6037316169507,203L512.6733848839962,203L516.0675056107954,203L518.2555680871212,203L519.3823514086174,203L520.5221611268938,203L522.5805179095644,203L523.7919728101325,203L524.9567187736742,203L526.0957841264204,203L527.0870929214014,203L528.2371376657196,203L529.2541270714962,203L530.8550712357954,203L531.9226774976324,203L536.3025242779356,203L537.4810410037878,203L540.1427060487689,203L542.1956661813447,203L543.3306375236742,203L544.4218773910984,203L545.3912274029356,203L546.4837699100378,203L547.5917580018939,203L548.6370332978219,203L549.7859614938446,203L550.9830873579544,203L553.27517491714,203L554.3120761008522,203L555.4183893702651,203L556.5464753314393,203L557.6440423058712,203L559.7749747277462,203L560.7500935724432,203L561.7698743489583,203L563.9471435250947,203L565.0551316169507,203L566.0661660984847,203L567.1544285037878,203L568.2946104048295,203L569.4446551491477,203L570.5779516690341,203L571.6954304214015,203L572.7721551609848,203L575.7855329190342,203L577.9711762073863,203L580.2182296519885,203L583.5723407315342,203L584.6712103456439,203L585.7669164062501,203L586.8313591145833,203L587.9069673058711,203L588.9589418915721,203L589.9991927201705,203L591.0988066998106,203L592.1842777343749,203L593.2507674479167,203L594.2591966500946,203L595.4325028172349,203L596.4336744554925,203L599.5761996330492,203L600.6713474195076,203L601.6855454545455,203L603.7755377722538,203L604.8466797703599,203L607.0535374763257,203L608.2590374526515,203L609.4425786458332,203L610.5451700875947,203L611.6287802083334,203L612.7628210937501,203L616.0726424242424,203L617.1670458451704,203L618.2110185014204,203L622.442364358428,203L623.466611328125,203L625.6948695430872,203L626.8305852509469,203L627.9910511126893,203L628.9043876183712,203L631.1607456321022,203L633.365928515625,203L634.3888728456438,203L635.4520129142992,203L637.7385177320075,203L638.9268973011363,203L639.9096458925189,203L640.8814150923296,203L642.0934282670454,203L643.046774419981,203L644.0806981415719,203L645.1782651160038,203L648.43635304214,203L649.3528531013258,203L651.5001615648674,203L653.7034835345644,203L654.8555752840908,203L655.9229954545455,203L657.0138631392045,203L659.2391438920454,203L660.2611577651516,203L661.3349050426136,203L662.3736671401515,203L663.3154756273674,203L664.4366762073863,203L665.6306385179923,203L666.6703310724431,203L669.9514943300189,203L670.9882094223484,203L673.4094444010416,203L674.7120840790719,203L675.9951841619318,203L677.3644445549243,203L679.7238971946022,203L682.1494122750946,203L683.2175768110794,203L684.2448012428977,203L685.2787249644887,203L686.4077413825756,203L687.3979336292613,203L688.4264607007575,203L689.4819710227272,203L691.5883393821023,203L692.7644369199811,203L693.8171558712121,203L696.0396452533145,203L698.0929775686552,203L699.0896830137309,203L700.3074650213068,203L701.5205947443181,203L702.6215113636363,203L703.6894898082386,203L705.8185613162877,203L706.8165694010416,203L707.8882696732953,203L710.1831486032196,203L711.3218417732008,203L713.5545661813446,203L716.8081879142992,203L718.8886895714961,203L720.0662758404354,203L721.1785440340908,203L724.4835269886362,203L725.6071467566288,203L728.0136805160984,203L729.1384168323863,203L731.242738186553,203L732.3527732836174,203L733.4562951822916,203L735.6285398910985,203L736.6418074692234,203L739.9183184422349,203L740.9496368844696,203L743.1432821022727,203L744.1435232836174,203L745.2392293442234,203L746.3433095170454,203L748.343233605587,203L749.4566183475379,203L750.5822851207387,203L751.7248862097537,203L753.9296969105113,203L756.1497671046401,203L758.2349210464015,203L759.3295105587122,203L760.4138650449811,203L761.5426953716857,203L762.7777838778409,203L767.3446524976325,203L768.2751094105112,203L769.3912855232006,203L770.573710168087,203L773.8009069247158,203L774.8115692234848,203L775.9411439157196,203L776.9856748461175,203L777.9609797821969,203L779.9679753432765,203L781.0750329782196,203L782.1297989346591,203L783.3152010416666,203L785.536759966856,203L786.5556102864582,203L787.5757632457385,203L788.7501859611742,203L789.8754805516097,203L790.951833108428,203L792.0138566287878,203L794.2475114938446,203L795.272875011837,203L796.2513435014204,203L798.47364679214,203L799.665934280303,203L801.9098241714015,203L803.0455398792614,203L807.160950804924,203L808.2877341264203,203L810.4590483783144,203L811.4903668205492,203L812.6119395833332,203L813.74021163589,203L814.8385229758521,203L815.8823095407196,203L816.9138140743371,203L819.048282232481,203L820.2150752012311,203L821.2289010535037,203L822.1833637547347,203L824.2513972892991,203L825.3642237571022,203L826.4601159090909,203L827.4456558712121,203L828.5309408143938,203L829.595383522727,203L835.8065555989582,203L837.0827703006628,203L838.1732658025567,203L839.2566898319128,203L840.3525819839015,203L844.6913025686553,203L847.8133576941287,203L848.9449793915719,203L851.0020335345644,203L854.0271350497158,203L855.0504515624999,203L857.1918051017991,203L858.2426631392044,203L859.3614445312498,203L860.408022466856,203L862.6161828124999,203L863.6839751657196,203L864.7037559422347,203L865.9371696259469,203L867.0680469578597,203L868.0921078361741,203L869.1204488162876,203L870.1843332504733,203L871.2941822561552,203L873.3117850260415,203L874.402094436553,203L876.7124189512309,203L878.8290223366475,203L879.8966285984848,203L882.1198623461173,203L884.391293761837,203L885.4324750473484,203L886.4546750118369,203L887.6069528527462,203L890.973159872159,203L892.0727738517992,203L893.1950909801135,203L894.2721879024621,203L896.3768814393939,203L897.4128521661931,203L899.488515447443,203L900.5968757220643,203L905.5755645714961,203L906.5612906249999,203L908.543908214962,203L909.5372640151514,203L911.5859440459279,203L912.6042360913825,203L913.6489531131629,203L914.8282142045452,203L916.9397931226324,203L917.9993974550189,203L918.942880764678,203L921.0274764322917,203L921.9668657315339,203L922.9453342211173,203L923.9978670809659,203L926.12079757339,203L927.2743780539772,203L929.4350850970644,203L932.8638188210226,203L935.087610842803,203L936.1576362926135,203L937.2520397135416,203L938.2422319602271,203L940.3059853929923,203L942.3263795336175,203L943.4669336174242,203L944.530259777462,203L945.6434584280302,203L946.699340932765,203L947.7805318655302,203L948.7915663470642,203L949.8708963660038,203L950.9172882102272,203L954.127364559659,203L955.0946675662877,203L956.1799525094696,203L961.980420904356,203L963.1330709280302,203L964.3662985203598,203L965.7444912997157,203L968.2703096354165,203L969.4789731652461,203L970.4362272372159,203L971.6486125946968,203L972.7452491122158,203L978.5168733428029,203L979.6192786931817,203L980.758716228693,203L981.8903379261362,203L983.0978849076703,203L984.1532091382575,203L986.3085195312498,203L987.4289757457384,203L988.5697159209278,203L989.6760291903408,203L990.8578955610793,203L991.9277349195074,203L992.8825698035035,203L993.998745916193,203L995.2124339133522,203L997.261858309659,203L998.380825793087,203L999.4800675899619,203L1000.6375559895832,203L1001.7542903764205,203L1002.8179887192234,203L1003.9570540719695,203L1006.178612997159,203L1008.5890546756629,203L1010.7214758285984,203L1011.9403743844695,203L1013.1019567945075,203L1015.3283540956438,203L1017.5041345407196,203L1018.6383615175189,203L1020.902535369318,203L1023.3276782670454,203L1024.4764203716854,203L1025.5443988162876,203L1027.759444543087,203L1031.0433991714015,203L1032.1156577178028,203L1035.3679768110794,203L1037.5305447679923,203L1040.7434124881627,203L1044.1533509824808,203L1045.304326183712,203L1046.4776323508522,203L1047.716070501894,203L1048.7743721946022,203L1050.0118798887308,203L1051.0415235085225,203L1052.1184343394884,203L1053.1998113636362,203L1054.2765361032195,203L1056.4206810132575,203L1057.5351823035037,203L1058.5973919152461,203L1061.9740200520832,203L1063.0362296638255,203L1065.3037531605112,203L1066.5410747632575,203L1067.699679711174,203L1068.8460026278408,203L1070.9119891571968,203L1074.2915947561553,203L1075.4271243726325,203L1076.4746327651515,203L1077.614814666193,203L1078.6887480350379,203L1079.7630535866476,203L1080.8105619791666,203L1081.7248289417612,203L1082.9383308475378,203L1084.173047170928,203L1085.3684982125947,203L1086.5019808238635,203L1087.4514190577652,203L1088.5171644057764,203L1090.5559815932766,203L1091.677740447443,203L1092.8175501657197,203L1093.968339275568,203L1096.168683783144,203L1097.3421760416666,203L1101.5941780421401,203L1104.7011597656249,203L1108.12170546875,203L1109.2946394531248,203L1110.271433120265,203L1111.4832602035985,203L1113.5816266335225,203L1114.6389978693182,203L1115.6615700165719,203L1116.7503906960226,203L1117.8265571614581,203L1119.9109667376893,203L1120.9329806107953,203L1122.086747182765,203L1123.129417199337,203L1124.160177367424,203L1125.2728177438446,203L1126.3644297940339,203L1127.4353857007575,203L1128.5556558238636,203L1129.5696677675187,203L1130.639321034564,203L1132.8242199573863,203L1133.960493939394,203L1136.08212179214,203L1137.2048111032198,203L1138.372720620265,203L1140.614563506155,203L1141.741905101799,203L1142.858267305871,203L1144.1034047466853,203L1145.3362601562499,203L1146.547715056818,203L1150.829305587121,203L1153.0992482717802,203L1156.5419388494317,203L1157.463463375947,203L1159.6223095052082,203L1160.685263482481,203L1161.8849946259468,203L1163.901853030303,203L1164.9411734019886,203L1165.8800044270831,203L1167.0021354640148,203L1168.0786741122158,203L1169.1673087002841,203L1170.3579213660037,203L1171.6551643939395,203L1172.819538174716,203L1173.927526266572,203L1176.1479686434657,203L1177.3272297348483,203L1178.3976273674243,203L1180.6104399976325,203L1181.7986334753787,203L1182.8781495857008,203L1184.075089358428,203L1185.1469757220643,203L1186.3113495028408,203L1188.5170906605113,203L1189.6645301254732,203L1190.6818917140151,203L1191.7526615293557,203L1192.7880739820075,203L1193.8214394294505,203L1194.96869280303,203L1197.3182825994318,203L1198.3929603338065,203L1199.463171875,203L1200.5590640269884,203L1201.5689819602271,203L1202.6410544152461,203L1203.71926788589,203L1204.6683339370263,203L1207.9800161813446,203L1209.1133127012308,203L1211.4022367069128,203L1215.6905265269886,203L1216.7328243607953,203L1219.0157934422348,203L1220.144251586174,203L1221.2602416074808,203L1223.583220336174,203L1225.7282957031248,203L1226.9537074573861,203L1228.0278269176135,203L1230.3061437144884,203L1231.5120158735795,203L1232.5502196969696,203L1233.8011259706439,203L1235.7857905658143,203L1236.8801939867421,203L1237.970317305871,203L1239.0632319957383,203L1240.1598685132576,203L1242.394081652462,203L1243.654292495265,203L1244.8071286103218,203L1246.9101473248104,203L1247.965285464015,203L1251.1416792732007,203L1253.2731699692235,203L1254.3504529829545,203L1256.5775946496212,203L1257.6144958333332,203L1258.698478136837,203L1259.8513142518939,203L1260.8262470052082,203L1261.9539607836173,203L1263.1775116240528,203L1266.6347173295455,203L1267.792019637784,203L1268.913592400568,203L1270.0271632339013,203L1271.1180309185604,203L1272.185451089015,203L1273.3217250710227,203L1275.6413541548293,203L1276.7231033617422,203L1277.9116690222536,203L1279.0823699100376,203L1280.1868222656249,203L1281.4572681344696,203L1284.6502240767045,203L1286.9049072679925,203L1287.9712108901515,203L1289.2278859966855,203L1290.364532161458,203L1291.43753507339,203L1292.505141335227,203L1293.4739330729167,203L1294.4989244081437,203L1295.6035628551135,203L1296.6002683001893,203L1299.8968771425189,203L1300.8855806581437,203L1304.0366660392992,203L1305.1610301728217,203L1307.3887301136363,203L1308.510861150568,203L1309.56004436553,203L1312.2079386482005,203L1313.216181758996,203L1314.2990475142042,203L1316.3788048058711,203L1317.5228946259467,203L1318.5839876893938,203L1320.7307378787877,203L1321.8841322679923,203L1323.013334777462,203L1325.2062356297347,203L1326.2632346827652,203L1327.4400765861742,203L1329.7466792732007,203L1330.6888599431816,203L1332.896462014678,203L1334.1244790482954,203L1335.2596364820074,203L1336.5084957504735,203L1337.5193441406248,203L1338.5947662405301,203L1340.599156522254,203L1341.6362437973485,203L1345.0279453361743,203L1347.310728326231,203L1350.7960338304924,203L1355.1943036576706,203L1360.8159382339013,203L1364.5210176609849,203L1365.7609445430871,203L1366.8557201467802,203L1367.9627777817234,203L1369.0229403882577,203L1370.1244152817233,203L1372.3013122750947,203L1373.6376344933713,203L1375.8342571732953,203L1376.9070739938447,203L1379.2840192234848,203L1380.3315276160035,203L1381.546890435606,203L1382.5311277580493,203L1384.7100717566286,203L1386.0623978338067,203L1387.3339602509468,203L1388.5891466264204,203L1389.8104643702652,203L1390.8332226089012,203L1391.848909375,203L1392.9833224431818,203L1394.042554592803,203L1395.1950185250946,203L1396.1762783854167,203L1398.4235179214015,203L1399.6723771898671,203L1401.9864235321968,203L1405.4408378669507,203L1407.756372940341,203L1412.3198919152462,203L1413.4870570667613,203L1414.634682623106,203L1415.7802611742422,203L1417.6385697206438,203" style="fill: none;" fill="none"></path></g></g></g></g></g></g><g transform="translate(39, 377)" clip-path="url(#clip_1)"><clipPath id="clip_1"><rect width="1473" height="23"></rect></clipPath><g><g><line x1="0" y1="0" x2="0" y2="5" style="visibility: inherit;" fill="rgb(0, 0, 0)" stroke="rgb(204, 204, 204)" stroke-width="1px"></line><line x1="133.98579545454547" y1="0" x2="133.98579545454547" y2="5" style="visibility: inherit;" fill="rgb(0, 0, 0)" stroke="rgb(204, 204, 204)" stroke-width="1px"></line><line x1="267.97159090909093" y1="0" x2="267.97159090909093" y2="5" style="visibility: inherit;" fill="rgb(0, 0, 0)" stroke="rgb(204, 204, 204)" stroke-width="1px"></line><line x1="401.95738636363643" y1="0" x2="401.95738636363643" y2="5" style="visibility: inherit;" fill="rgb(0, 0, 0)" stroke="rgb(204, 204, 204)" stroke-width="1px"></line><line x1="535.9431818181819" y1="0" x2="535.9431818181819" y2="5" style="visibility: inherit;" fill="rgb(0, 0, 0)" stroke="rgb(204, 204, 204)" stroke-width="1px"></line><line x1="669.9289772727273" y1="0" x2="669.9289772727273" y2="5" style="visibility: inherit;" fill="rgb(0, 0, 0)" stroke="rgb(204, 204, 204)" stroke-width="1px"></line><line x1="803.9147727272726" y1="0" x2="803.9147727272726" y2="5" style="visibility: inherit;" fill="rgb(0, 0, 0)" stroke="rgb(204, 204, 204)" stroke-width="1px"></line><line x1="937.900568181818" y1="0" x2="937.900568181818" y2="5" style="visibility: inherit;" fill="rgb(0, 0, 0)" stroke="rgb(204, 204, 204)" stroke-width="1px"></line><line x1="1071.8863636363635" y1="0" x2="1071.8863636363635" y2="5" style="visibility: inherit;" fill="rgb(0, 0, 0)" stroke="rgb(204, 204, 204)" stroke-width="1px"></line><line x1="1205.872159090909" y1="0" x2="1205.872159090909" y2="5" style="visibility: inherit;" fill="rgb(0, 0, 0)" stroke="rgb(204, 204, 204)" stroke-width="1px"></line><line x1="1339.8579545454545" y1="0" x2="1339.8579545454545" y2="5" style="visibility: inherit;" fill="rgb(0, 0, 0)" stroke="rgb(204, 204, 204)" stroke-width="1px"></line><line x1="1473.84375" y1="0" x2="1473.84375" y2="5" style="visibility: inherit;" fill="rgb(0, 0, 0)" stroke="rgb(204, 204, 204)" stroke-width="1px"></line></g><g transform="translate(0, 8)"><text x="0" y="0" dx="0em" dy="0.95em" style="text-anchor: middle; visibility: hidden; font-family: &quot;Helvetica Neue&quot;, sans-serif; font-size: 12px; font-weight: 200;" fill="rgb(50, 49, 63)" stroke="none" stroke-width="1px">-0.2</text><text x="133.98579545454547" y="0" dx="0em" dy="0.95em" style="text-anchor: middle; visibility: inherit; font-family: &quot;Helvetica Neue&quot;, sans-serif; font-size: 12px; font-weight: 200;" fill="rgb(50, 49, 63)" stroke="none" stroke-width="1px">0</text><text x="267.97159090909093" y="0" dx="0em" dy="0.95em" style="text-anchor: middle; visibility: inherit; font-family: &quot;Helvetica Neue&quot;, sans-serif; font-size: 12px; font-weight: 200;" fill="rgb(50, 49, 63)" stroke="none" stroke-width="1px">0.2</text><text x="401.95738636363643" y="0" dx="0em" dy="0.95em" style="text-anchor: middle; visibility: inherit; font-family: &quot;Helvetica Neue&quot;, sans-serif; font-size: 12px; font-weight: 200;" fill="rgb(50, 49, 63)" stroke="none" stroke-width="1px">0.4</text><text x="535.9431818181819" y="0" dx="0em" dy="0.95em" style="text-anchor: middle; visibility: inherit; font-family: &quot;Helvetica Neue&quot;, sans-serif; font-size: 12px; font-weight: 200;" fill="rgb(50, 49, 63)" stroke="none" stroke-width="1px">0.6</text><text x="669.9289772727273" y="0" dx="0em" dy="0.95em" style="text-anchor: middle; visibility: inherit; font-family: &quot;Helvetica Neue&quot;, sans-serif; font-size: 12px; font-weight: 200;" fill="rgb(50, 49, 63)" stroke="none" stroke-width="1px">0.8</text><text x="803.9147727272726" y="0" dx="0em" dy="0.95em" style="text-anchor: middle; visibility: inherit; font-family: &quot;Helvetica Neue&quot;, sans-serif; font-size: 12px; font-weight: 200;" fill="rgb(50, 49, 63)" stroke="none" stroke-width="1px">1</text><text x="937.900568181818" y="0" dx="0em" dy="0.95em" style="text-anchor: middle; visibility: inherit; font-family: &quot;Helvetica Neue&quot;, sans-serif; font-size: 12px; font-weight: 200;" fill="rgb(50, 49, 63)" stroke="none" stroke-width="1px">1.2</text><text x="1071.8863636363635" y="0" dx="0em" dy="0.95em" style="text-anchor: middle; visibility: inherit; font-family: &quot;Helvetica Neue&quot;, sans-serif; font-size: 12px; font-weight: 200;" fill="rgb(50, 49, 63)" stroke="none" stroke-width="1px">1.4</text><text x="1205.872159090909" y="0" dx="0em" dy="0.95em" style="text-anchor: middle; visibility: inherit; font-family: &quot;Helvetica Neue&quot;, sans-serif; font-size: 12px; font-weight: 200;" fill="rgb(50, 49, 63)" stroke="none" stroke-width="1px">1.6</text><text x="1339.8579545454545" y="0" dx="0em" dy="0.95em" style="text-anchor: middle; visibility: inherit; font-family: &quot;Helvetica Neue&quot;, sans-serif; font-size: 12px; font-weight: 200;" fill="rgb(50, 49, 63)" stroke="none" stroke-width="1px">1.8</text><text x="1473.84375" y="0" dx="0em" dy="0.95em" style="text-anchor: middle; visibility: hidden; font-family: &quot;Helvetica Neue&quot;, sans-serif; font-size: 12px; font-weight: 200;" fill="rgb(50, 49, 63)" stroke="none" stroke-width="1px">2</text></g><line x1="0" y1="0" x2="1473.84375" y2="0" fill="rgb(0, 0, 0)" stroke="rgb(204, 204, 204)" stroke-width="1px"></line></g></g></g></g></svg>