<svg viewBox="0 0 1513 400" xmlns="http://www.w3.org/2000/svg"><g><g><g><g><g><line x1="39.15625" y1="377" x2="34.15625" y2="377" style="visibility: inherit;" fill="rgb(0, 0, 0)" stroke="rgb(204, 204, 204)" stroke-width="1px"></line><line x1="39.15625" y1="329.875" x2="34.15625" y2="329.875" style="visibility: inherit;" fill="rgb(0, 0, 0)" stroke="rgb(204, 204, 204)" stroke-width="1px"></line><line x1="39.15625" y1="282.75" x2="34.15625" y2="282.75" style="visibility: inherit;" fill="rgb(0, 0, 0)" stroke="rgb(204, 204, 204)" stroke-width="1px"></line><line x1="39.15625" y1="235.625" x2="34.15625" y2="235.625" style="visibility: inherit;" fill="rgb(0, 0, 0)" stroke="rgb(204, 204, 204)" stroke-width="1px"></line><line x1="39.15625" y1="188.5" x2="34.15625" y2="188.5" style="visibility: inherit;" fill="rgb(0, 0, 0)" stroke="rgb(204, 204, 204)" stroke-width="1px"></line><line x1="39.15625" y1="141.375" x2="34.15625" y2="141.375" style="visibility: inherit;" fill="rgb(0, 0, 0)" stroke="rgb(204, 204, 204)" stroke-width="1px"></line><line x1="39.15625" y1="94.25" x2="34.15625" y2="94.25" style="visibility: inherit;" fill="rgb(0, 0, 0)" stroke="rgb(204, 204, 204)" stroke-width="1px"></line><line x1="39.15625" y1="47.125" x2="34.15625" y2="47.125" style="visibility: inherit;" fill="rgb(0, 0, 0)" stroke="rgb(204, 204, 204)" stroke-width="1px"></line><line x1="39.15625" y1="0" x2="34.15625" y2="0" style="visibility: inherit;" fill="rgb(0, 0, 0)" stroke="rgb(204, 204, 204)" stroke-width="1px"></line></g><g transform="translate(29.15625, 0)"><text x="0" y="377" dx="0em" dy="0.3em" style="text-anchor: end; visibility: hidden; font-family: &quot;Helvetica Neue&quot;, sans-serif; font-size: 12px; font-weight: 200;" fill="rgb(50, 49, 63)" stroke="none" stroke-width="1px">-10</text><text x="0" y="329.875" dx="0em" dy="0.3em" style="text-anchor: end; visibility: inherit; font-family: &quot;Helvetica Neue&quot;, sans-serif; font-size: 12px; font-weight: 200;" fill="rgb(50, 49, 63)" stroke="none" stroke-width="1px">0</text><text x="0" y="282.75" dx="0em" dy="0.3em" style="text-anchor: end; visibility: inherit; font-family: &quot;Helvetica Neue&quot;, sans-serif; font-size: 12px; font-weight: 200;" fill="rgb(50, 49, 63)" stroke="none" stroke-width="1px">10</text><text x="0" y="235.625" dx="0em" dy="0.3em" style="text-anchor: end; visibility: inherit; font-family: &quot;Helvetica Neue&quot;, sans-serif; font-size: 12px; font-weight: 200;" fill="rgb(50, 49, 63)" stroke="none" stroke-width="1px">20</text><text x="0" y="188.5" dx="0em" dy="0.3em" style="text-anchor: end; visibility: inherit; font-family: &quot;Helvetica Neue&quot;, sans-serif; font-size: 12px; font-weight: 200;" fill="rgb(50, 49, 63)" stroke="none" stroke-width="1px">30</text><text x="0" y="141.375" dx="0em" dy="0.3em" style="text-anchor: end; visibility: inherit; font-family: &quot;Helvetica Neue&quot;, sans-serif; font-size: 12px; font-weight: 200;" fill="rgb(50, 49, 63)" stroke="none" stroke-width="1px">40</text><text x="0" y="94.25" dx="0em" dy="0.3em" style="text-anchor: end; visibility: inherit; font-family: &quot;Helvetica Neue&quot;, sans-serif; font-size: 12px; font-weight: 200;" fill="rgb(50, 49, 63)" stroke="none" stroke-width="1px">50</text><text x="0" y="47.125" dx="0em" dy="0.3em" style="text-anchor: end; visibility: inherit; font-family: &quot;Helvetica Neue&quot;, sans-serif; font-size: 12px; font-weight: 200;" fill="rgb(50, 49, 63)" stroke="none" stroke-width="1px">60</text><text x="0" y="0" dx="0em" dy="0.3em" style="text-anchor: end; visibility: hidden; font-family: &quot;Helvetica Neue&quot;, sans-serif; font-size: 12px; font-weight: 200;" fill="rgb(50, 49, 63)" stroke="none" stroke-width="1px">70</text></g><line x1="39.15625" y1="0" x2="39.15625" y2="377" fill="rgb(0, 0, 0)" stroke="rgb(204, 204, 204)" stroke-width="1px"></line></g></g><g transform="translate(39, 0)" clip-path="url(#clip_0)"><clipPath id="clip_0"><rect width="1473" height="377"></rect></clipPath><g><g><g><line x1="0" y1="0" x2="0" y2="377" fill="rgb(0, 0, 0)" stroke="rgb(60, 60, 60)" stroke-width="1px" opacity="0.25"></line><line x1="133.98579545454547" y1="0" x2="133.98579545454547" y2="377" fill="rgb(0, 0, 0)" stroke="rgb(60, 60, 60)" stroke-width="1px" opacity="0.25"></line><line x1="267.97159090909093" y1="0" x2="267.97159090909093" y2="377" fill="rgb(0, 0, 0)" stroke="rgb(60, 60, 60)" stroke-width="1px" opacity="0.25"></line><line x1="401.95738636363643" y1="0" x2="401.95738636363643" y2="377" fill="rgb(0, 0, 0)" stroke="rgb(60, 60, 60)" stroke-width="1px" opacity="0.25"></line><line x1="535.9431818181819" y1="0" x2="535.9431818181819" y2="377" fill="rgb(0, 0, 0)" stroke="rgb(60, 60, 60)" stroke-width="1px" opacity="0.25"></line><line x1="669.9289772727273" y1="0" x2="669.9289772727273" y2="377" fill="rgb(0, 0, 0)" stroke="rgb(60, 60, 60)" stroke-width="1px" opacity="0.25"></line><line x1="803.9147727272726" y1="0" x2="803.9147727272726" y2="377" fill="rgb(0, 0, 0)" stroke="rgb(60, 60, 60)" stroke-width="1px" opacity="0.25"></line><line x1="937.900568181818" y1="0" x2="937.900568181818" y2="377" fill="rgb(0, 0, 0)" stroke="rgb(60, 60, 60)" stroke-width="1px" opacity="0.25"></line><line x1="1071.8863636363635" y1="0" x2="1071.8863636363635" y2="377" fill="rgb(0, 0, 0)" stroke="rgb(60, 60, 60)" stroke-width="1px" opacity="0.25"></line><line x1="1205.872159090909" y1="0" x2="1205.872159090909" y2="377" fill="rgb(0, 0, 0)" stroke="rgb(60, 60, 60)" stroke-width="1px" opacity="0.25"></line><line x1="1339.8579545454545" y1="0" x2="1339.8579545454545" y2="377" fill="rgb(0, 0, 0)" stroke="rgb(60, 60, 60)" stroke-width="1px" opacity="0.25"></line><line x1="1473.84375" y1="0" x2="1473.84375" y2="377" fill="rgb(0, 0, 0)" stroke="rgb(60, 60, 60)" stroke-width="1px" opacity="0.25"></line></g><g><line x1="0" y1="377" x2="1473.84375" y2="377" fill="rgb(0, 0, 0)" stroke="rgb(60, 60, 60)" stroke-width="1px" opacity="0.25"></line><line x1="0" y1="329.875" x2="1473.84375" y2="329.875" fill="rgb(0, 0, 0)" stroke="rgb(60, 60, 60)" stroke-width="1px" opacity="0.25"></line><line x1="0" y1="282.75" x2="1473.84375" y2="282.75" fill="rgb(0, 0, 0)" stroke="rgb(60, 60, 60)" stroke-width="1px" opacity="0.25"></line><line x1="0" y1="235.625" x2="1473.84375" y2="235.625" fill="rgb(0, 0, 0)" stroke="rgb(60, 60, 60)" stroke-width="1px" opacity="0.25"></line><line x1="0" y1="188.5" x2="1473.84375" y2="188.5" fill="rgb(0, 0, 0)" stroke="rgb(60, 60, 60)" stroke-width="1px" opacity="0.25"></line><line x1="0" y1="141.375" x2="1473.84375" y2="141.375" fill="rgb(0, 0, 0)" stroke="rgb(60, 60, 60)" stroke-width="1px" opacity="0.25"></line><line x1="0" y1="94.25" x2="1473.84375" y2="94.25" fill="rgb(0, 0, 0)" stroke="rgb(60, 60, 60)" stroke-width="1px" opacity="0.25"></line><line x1="0" y1="47.125" x2="1473.84375" y2="47.125" fill="rgb(0, 0, 0)" stroke="rgb(60, 60, 60)" stroke-width="1px" opacity="0.25"></line><line x1="0" y1="0" x2="1473.84375" y2="0" fill="rgb(0, 0, 0)" stroke="rgb(60, 60, 60)" stroke-width="1px" opacity="0.25"></line></g></g></g><g><g><line x1="0" y1="329.875" x2="1473.84375" y2="329.875" fill="rgb(0, 0, 0)" stroke="rgb(153, 153, 153)" stroke-width="1.5px"></line></g></g><g><g><line x1="133.98579545454547" y1="0" x2="133.98579545454547" y2="377" fill="rgb(0, 0, 0)" stroke="rgb(153, 153, 153)" stroke-width="1.5px"></line></g></g><g><g><g><g><g><path stroke="rgb(255, 112, 67)" stroke-width="2px" d="M133.98579545454547,320.45L134.24985912642046,320.45L134.5159698035038,320.45L134.66037671638256,320.45L134.91234444839014,320.45L135.16245126657194,320.45L135.2888073153409,320.45L135.41162762784091,320.45L135.59083362926137,320.45L135.74082328361743,320.45L135.89099902935607,320.45L136.0272179214015,320.45L136.17125265151515,320.45L136.29332859848483,320.45L136.39419012784091,320.45L136.51049724195073,320.45L136.77753837594696,320.45L137.07919250710228,320.45L137.19140561079544,320.45L137.8864569247159,320.45L138.0492868844697,320.45L138.1520093276515,320.45L138.31279228219697,320.45L138.449197265625,320.45L138.67920621448863,320.45L139.1070303030303,320.45L139.25683386600377,320.45L139.493169921875,320.45L139.6066856652462,320.45L139.76728252840908,320.45L139.92248274147727,320.45L140.13890701941287,320.45L140.42716257102273,320.45L140.5644980113636,320.45L140.92235174005683,320.45L141.0769936789773,320.45L141.19553388967802,320.45L141.30867745028408,320.45L141.49253573626893,320.45L141.87513961884468,320.45L141.9918189157197,320.45L142.10738166429923,320.45L142.27635263967804,320.45L142.42224828361742,320.45L142.53855539772727,320.45L142.64127784090908,320.45L142.78419602272726,320.45L142.90087531960228,320.45L143.0259287286932,320.45L143.27305808475379,320.45L143.4072299715909,320.45L143.56019708806818,320.45L143.7172582149621,320.45L144.0306361032197,320.45L144.28372038352273,320.45L144.38867592329547,320.45L144.67079045928028,320.45L144.79733259943183,320.45L145.07200348011364,320.45L145.17621465435604,320.45L145.26218887310606,320.45L145.3807290838068,320.45L145.50894604640152,320.45L145.62581143465908,320.45L145.8997379498106,320.45L146.07168638731062,320.45L146.1999033499053,320.45L146.3119303622159,320.45L146.9392444128788,320.45L147.0803016808712,320.45L147.31775428503786,320.45L147.57530475852272,320.45L147.70110253314394,320.45L147.7934038589015,320.45L148.15516550662878,320.45L148.2580740411932,320.45L148.67305782433712,320.45L149.15242922585225,320.45L150.10279791666667,312.5330003595352L150.96105137310605,307.7828005752564L151.08815178740528,312.84968034515384L151.52676917613636,315.8898082070923L151.67843365293558,317.71388492425535L151.80497579308712,318.80833095455324L151.92835437973486,319.46499857273193L152.18367175662877,319.85899914363915L152.32212374526515,320.0953994861835L152.69877270359848,320.2372396917101L153.16046542376893,320.32234381502604L153.28607710700757,320.37340628901563L153.6182502249053,320.4040437734094L153.97442913115532,320.4224262640456L154.0989242660985,320.4334557584274L154.2498443773674,320.44007345505645L154.38959900568182,320.44404407303387L154.5133497750947,320.4464264438203L154.6421250118371,320.4478558662922L154.8855325402462,320.4487135197753L154.9901158972538,320.4492281118652L155.10567864583334,320.4495368671191L155.2124950994318,320.4497221202715L155.47990841619315,320.4498332721629L155.61277766335226,320.44989996329775L155.73894762073863,320.44993997797866L155.9778889559659,320.44996398678717L156.1466738399621,320.4499783920723L156.27396034564393,320.4499870352434L156.5490034090909,320.44999222114603L156.67628991477272,320.44999533268765L156.8651726680871,320.44999719961254L156.9628706439394,320.44999831976753L157.21762974668562,320.4499989918605L157.36408366477272,320.4499993951163L157.52040042613635,320.4499996370698L157.82298501420456,320.4499997822419L157.96348400804922,320.4499998693451L158.3421799715909,320.44999992160706L158.46295327888257,320.4499999529642L158.5632565340909,320.44999997177854L158.7113852746212,320.44999998306713L158.9341366595644,320.4499999898403L159.06328407907196,320.44999999390416L159.30222541429922,320.4499999963425L159.59587761600378,320.4499999978055L159.77043133285986,320.4499999986833L159.89864829545454,320.44999999921L160.017746780303,320.44999999952597L160.3048857836174,320.4499999997156L160.43738284801134,320.44999999982934L160.85869373816288,320.4499999998976L161.4566053503788,320.44999999993854L161.95644680397726,320.44999999996315L162.27782662168562,320.4499999999779L162.42465272253787,320.44999999998674L162.55994115767047,320.44999999999203L162.69094949100378,320.4499999999952L162.79944076704544,320.44999999999715L163.1628772372159,320.4499999999983L163.31975227272727,320.44999999999897L163.48332659801136,320.44999999999936L163.71891828835226,320.44999999999965L164.13743780776514,320.44999999999976L164.29561548295453,320.4499999999999L164.4524905184659,320.44999999999993L164.55558514441287,320.44999999999993L164.66500687736743,320.45L164.78578018465907,320.45L165.01392821969696,320.45L165.1302353338068,320.45L165.27185087594697,320.45L165.56215343276514,320.45L165.66841161221592,320.45L165.8418487807765,320.45L165.96131944839016,320.45L166.12712687026516,320.45L166.24287571022728,320.45L166.64818274147726,320.45L166.78309899384467,320.45L167.08270611979165,320.45L167.67447671638254,320.45L167.78892291666668,320.45L168.06340770596591,320.45L168.18418101325756,320.45L168.32970447443182,320.45L168.48602123579545,320.45L168.63061424005681,320.45L168.7850700875947,320.45L169.27616524621212,320.45L169.73748578361742,320.45L169.8928720880682,320.45L170.0439782907197,320.45L170.17424225852272,320.45L170.39848237452648,320.45L170.67408371212122,320.45L170.9573147964015,320.45L171.1661093276515,320.45L171.43389482717802,320.45L171.54480529119314,320.45L171.6620428622159,320.45L171.80291403882575,320.45L171.8937266335227,320.45L172.19891650094695,320.45L172.3174567116477,320.45L172.55621195549242,320.45L172.78770963541666,320.45L173.02218477746212,320.45L173.61116400331437,320.45L173.83391538825757,320.45L173.9772057528409,320.45L174.26322820785987,320.45L174.35013288352272,320.45L174.50384436553028,320.45L174.6543922940341,320.45L174.7619531131629,320.45L174.90431302083334,320.45L175.04015973011363,320.45L175.19722085700755,320.45L175.32227426609847,320.45L175.46444808238635,320.45L177.81441006155302,312.1559998202324L178.59152767518938,307.17959971237184L180.00656654829544,304.1937596476555L181.02132285748107,310.6962557885933L181.62109538352274,314.597753473156L181.72456219223483,316.9386520838936L181.86208372395834,318.34319125033613L182.06380678267047,319.1859147502017L182.26199410511362,319.691548850121L182.39616599195077,319.9949293100726L182.53740935132575,320.17695758604356L182.66562631392048,320.2861745516261L182.79514591619318,320.35170473097565L182.88968033854167,320.3910228385854L183.29908138020832,320.41461370315125L183.9608223366477,312.51176858142594L185.36916191998102,307.39306096908797L186.79480800189393,304.3218364016852L188.36393053977272,302.85610220054633L189.27187039535985,301.976661679863L190.69565556344696,301.0719968281502L191.50087297585225,300.90619845642533L192.26887211174244,300.4297188940876L192.9637373342803,300.14383115668494L193.7814228693182,300.3492990535462L194.60524941998102,300.0955792523601L195.39595170454544,299.94334737164843L196.10067977035987,299.85200824322146L196.77544712357957,299.7972047661653L198.3347068181818,291.09332285969913L200.0741029711174,294.9189940753547L201.09202283380682,288.16639644521285L202.59564120501892,292.7858376873601L204.0350580492424,295.93450297195125L204.70163738162879,297.823702142706L205.5697536813447,289.72072056655315L206.38297302320072,284.8589316208614L207.1777693181818,285.90035897251687L208.09966602746212,286.5252153835101L208.86245460464013,291.8011290503385L209.82361659564393,294.96667725043545L210.60966659564392,296.8660061704937L211.42028065814392,298.0056035225286L212.18455796638253,298.6893619337495L213.30315326704545,294.7641175197849L214.23547109374996,287.6964708714062L215.70373210227274,292.5038823430761L217.3204940340909,295.38832922607804L218.10096129261362,297.11899735587923L218.37339907670452,294.5758980539923L219.2467259351326,291.7305388323954L220.4436657078598,285.87632365897247L222.06173027935608,282.7407941953835L222.8855568300189,289.53047633746246L224.5520051609848,288.70328580247747L225.3315419625947,288.2069714814865L226.29921715198864,284.1391828888919L227.17868502604168,281.69850973333513L228.23196225142044,279.8571061995363L230.04207312973486,278.752264079257L231.00007156723484,278.46635844755417L231.90298695549245,282.06481506853254L232.64511938920455,289.5018894006547L237.3210375591856,284.91613364039284L238.1519355823864,290.8356800044681L239.76944187973484,294.76440836221605L240.499292282197,297.1216453768649L241.18559730113634,298.53598758565414L242.9717023910985,294.10659255139245L243.81246325757573,291.44895553083546L245.38233016098485,289.8543733185013L246.92726081912875,288.8976239911008L251.12473804450758,288.32357439466045L251.99657617187498,287.97914463679626L254.35826190814393,293.05048714161296L255.23103049242422,296.093292644503L256.0094507457386,292.6409755867018L256.78861536458334,290.5695853520211L257.62267694128786,289.32675121121264L258.5053083688447,288.5810507267276L259.91941678503787,293.4116307955718L261.3850725142045,296.30997883687826L262.8187205255682,298.0489876616622L263.95518059895835,294.3798929565325L266.44657202888254,287.08893649298994L267.3662356415719,282.525861895794L269.4832112097538,279.9765178565468L270.3807299479167,282.5939110734633L271.3100703125,280.20584628454276L272.03731543560605,287.82100777072566L273.7558693536932,282.9651046624354L274.65655164535985,280.0515627974612L276.8507551373106,249.08593767847674L277.50040015388254,230.50656260708604L278.9893173058712,248.57643756425162L281.55477310606057,259.418362538551L282.13835568181815,236.70601752313058L283.6823558830492,217.98910907573745L284.5815494436553,206.7589640073016L285.428265234375,200.02087696624008L286.2455785866477,195.97802474160315L286.9651939630682,193.55231340682104L288.3190087713068,196.62088948223348L289.0948237452651,193.93803225119922L289.7716381036932,192.32831791257865L290.4246327651515,191.3624893094063L291.1328965672348,190.78299214750294L291.7777032078598,190.4352938503609L292.46624132339014,190.22667487207568L293.8632293323863,190.10150348510453L295.2434691169508,190.02640065292184L295.9094901751894,189.98133895361224L298.70234964488634,171.29280624844907L299.9928933830492,160.0796866253512L304.9297116714015,152.97481341335157L309.41060607244316,148.71188948615182L310.7448812855114,146.15413512983199L313.60436147017043,144.61948251604005L315.373160061553,143.6986909477649L318.6172911339962,143.14621600679982L320.1419378314394,142.81473104222076L321.5167809659091,142.6158400634733L325.8651783025568,142.49650547622483L327.40452621922344,142.42490472387576L330.3656122987689,142.38194427246634L336.5051391927083,142.35616800162066L340.8561418087121,142.34070223911326L342.41875114820067,142.33142278160884L343.84402504734845,142.32585510710615L345.24436270123107,142.32251450240452L346.71504289772724,142.3205101395836L348.1775350733902,143.8273060837502L349.62625648674236,143.22338508839096L352.51495301846586,142.86103249117542L353.9417156486742,142.64362093284615L355.47268945312493,142.51317399784858L356.88754223484847,142.43490583685L358.27597004024625,142.38794494025083L359.78628770123106,142.3597684022914L361.309259576231,142.3428624795157L365.6859428030303,142.3327189258503L367.07511497395836,142.32663279365102L368.6328859374999,142.3229811143315L377.7482001302082,126.10978579231713L380.86690561079547,132.59287291353115L382.3113469223485,136.4827251862595L383.684515234375,138.81663654989657L385.4464284446022,126.45648480621972L387.0687731178977,116.5898880074501L388.83682734375,111.0469313663292L390.50346176609844,109.79466169607923L392.1520453243371,106.78129845578843L393.6562219696969,106.66977619719131L395.3436986268939,107.16836859459653L396.4068386955492,86.73252403303968L397.9675871212121,103.31151585796471L399.6057495620266,102.70290663849704L401.2547053030303,102.52624542123908L402.8429952533143,102.4202486908843L404.5343798295454,98.7751477763897L406.14295374053023,99.98108578955208L409.30111059422353,110.50665003559038L410.6904688565341,123.23099145949507L412.23874915956435,116.53959199941528L414.96759319365526,126.85075663779003L417.60153062263254,98.91895110639229L420.6069064512311,109.86936922569453L421.7174998224432,88.9186229735576L425.51785803740523,103.86917234599366L427.18598119081435,112.83950196945534L428.9473361268939,100.6912011816732L431.3665241003788,83.41172214714476L432.4947961529356,73.0440347264277L433.58752475142046,66.8234222739975L436.06886724668556,62.714053364398524L437.24533696732954,60.24843201863911L438.40375582386355,59.14606064932434L439.8601069839015,86.75963782773545L442.21751261837113,74.67578269664125L443.34969258996216,67.80247105612563L444.5358390625,63.678484071816285L445.7832095999053,61.01558756680805L447.105388873106,59.60635397822574L448.3981657078598,58.7608138250763L450.25684643702647,78.42299117132751L451.5875859138257,70.0507961409374L453.3554540482954,84.6314748082807L456.6708581202651,107.70588632310933L458.2397945667613,105.33952891758383L459.46725332623106,85.82371735055028L462.7945672466856,74.49123184847105L463.9252584872159,67.50323623280093L465.10786922348484,63.310438863398815L467.4836979048295,60.983264756180176L468.6363479285037,59.39845597742641L469.70488464725383,58.44757071017409L470.86535050899613,57.87703954982271L473.16581218039767,57.53472085361187L475.48544126420444,57.51783395030799L476.6749373816288,57.507701808325635L477.94147533143934,57.501622523136234L480.2488223839962,57.497974952022616L483.00464966856055,74.27228209493182L485.45137916666675,104.5063678188182L486.56699700520835,86.6433221294318L487.8391176964962,74.98299471579998L491.291298934659,67.79829395319825L495.76716886837113,63.86447493377807L496.77876162405306,61.50418352212591L497.7572301136364,60.088008675134745L498.8116238873106,59.238303766939964L499.83512649147724,58.72848082202307L501.90390439157187,58.42258705507294L502.98974760890144,58.23905079490288L506.22606284327645,58.12892903880089L507.4207695194127,58.062855985139606L509.4649833570075,58.02321215294296L511.6037316169507,57.99942585362487L512.6733848839962,57.98515407403403L516.0675056107954,57.97659100627959L518.2555680871212,57.97145316562688L519.3823514086174,57.96837046123528L520.5221611268938,57.966520838600275L522.5805179095644,57.96541106501928L523.7919728101325,57.96474520087065L524.9567187736742,57.96434568238152L526.0957841264204,57.96410597128801L527.0870929214014,57.96396214463192L528.2371376657196,57.96387584863834L529.2541270714962,57.9638240710421L530.8550712357954,68.89679156634355L531.9226774976324,64.52357350166523L536.3025242779356,61.89964266285824L537.4810410037878,60.325284159574096L540.1427060487689,70.3136676194627L542.1956661813447,65.93919769539588L543.3306375236742,63.314515740955756L544.4218773910984,61.73970656829175L545.3912274029356,60.79482106469334L546.4837699100378,60.22788976253429L547.5917580018939,59.8877309812388L548.6370332978219,59.68363571246152L549.7859614938446,59.561178551195155L550.9830873579544,59.48770425443536L553.2753610085227,59.443619676379456L554.3120761008522,59.41716892954594L555.4183893702651,59.40129848144585L556.5464753314393,59.39177621258574L557.6440423058712,59.386062851269685L559.7749747277462,59.382634834480086L560.7502796638256,59.38057802440636L561.7698743489583,59.37934393836207L563.9471435250947,59.37860348673547L565.0551316169507,59.37815921575958L566.0661660984847,59.377892653174L567.1546145951704,59.37773271562264L568.2946104048295,59.377636753091906L569.4446551491477,59.37757917557337L570.5779516690341,59.3775446290623L571.6954304214015,59.377523901155655L572.7721551609848,59.37751146441161L575.7855329190342,59.37750400236524L577.9711762073863,59.377499525137466L580.2182296519885,59.37749683880071L583.5723407315342,59.37749522699869L584.6712103456439,59.377494259917455L585.7669164062501,59.37749367966876L586.8313591145833,59.377493331519474L587.9069673058711,59.377493122629915L588.9589418915721,59.37749299729626L589.9991927201705,59.37749292209605L591.0988066998106,59.37749287697591L592.1842777343749,59.37749284990383L593.2507674479167,59.3774928336606L594.2591966500946,59.37749282391462L595.4325028172349,59.37749281806708L596.4336744554925,59.37749281455848L599.5761996330492,59.3774928124534L600.6713474195076,59.37749281119028L601.6855454545455,59.377492810432386L603.7755377722538,59.377492809977696L604.8466797703599,59.37749280970479L607.0535374763257,59.37749280954114L608.2590374526515,59.37749280944297L609.4425786458332,59.37749280938402L610.5451700875947,59.37749280934872L611.6289662997158,59.377492809327464L612.7628210937501,59.37749280931473L616.0726424242424,59.377492809307114L617.1672319365531,59.37749280930251L618.2110185014204,59.37749280929984L622.442364358428,59.37749280929813L623.466611328125,59.377492809297166L625.6948695430872,59.37749280929654L626.8305852509469,59.3774928092962L627.9910511126893,59.37749280929597L628.9043876183712,59.37749280929586L631.1607456321022,59.3774928092958L633.365928515625,59.377492809295745L634.3890589370264,59.37749280929563L635.4520129142992,59.37749280929563L637.7385177320075,59.37749280929563L638.9268973011363,59.37749280929563L639.9096458925189,59.37749280929563L640.8814150923296,59.37749280929563L642.0934282670454,59.37749280929563L643.046774419981,59.37749280929563L644.0806981415719,59.37749280929563L645.1782651160038,59.37749280929563L648.43635304214,59.37749280929563L649.3528531013258,59.37749280929563L651.5001615648674,59.37749280929563L653.7034835345644,59.37749280929563L654.8557613754734,59.37749280929563L655.9229954545455,59.37749280929563L657.0138631392045,59.37749280929563L659.2391438920454,59.37749280929563L660.2611577651516,59.37749280929563L661.3349050426136,59.37749280929563L662.3736671401515,59.37749280929563L663.3154756273674,59.37749280929563L664.4366762073863,59.37749280929563L665.6306385179923,59.37749280929563L666.6703310724431,59.37749280929563L669.9514943300189,59.37749280929563L670.9882094223484,59.37749280929563L673.4094444010416,59.37749280929563L674.7120840790719,59.37749280929563L675.9951841619318,59.37749280929563L677.3644445549243,59.37749280929563L679.7240832859849,59.37749280929563L682.1494122750946,59.37749280929563L683.2175768110794,59.37749280929563L684.2449873342804,59.37749280929563L685.2787249644887,59.37749280929563L686.4079274739584,59.37749280929563L687.3981197206439,59.37749280929563L688.4264607007575,59.37749280929563L689.4819710227272,59.37749280929563L691.5885254734848,59.37749280929563L692.7644369199811,59.37749280929563L693.8171558712121,59.37749280929563L696.0396452533145,59.37749280929563L698.0931636600379,59.37749280929563L699.0896830137309,59.37749280929563L700.3074650213068,59.37749280929563L701.5205947443181,59.37749280929563L702.6215113636363,59.37749280929563L703.6894898082386,59.37749280929563L705.8185613162877,59.37749280929563L706.8165694010416,59.37749280929563L707.8882696732953,59.37749280929563L710.1831486032196,59.37749280929563L711.3218417732008,59.37749280929563L713.5545661813446,59.37749280929563L716.8081879142992,59.37749280929563L718.8886895714961,59.37749280929563L720.0662758404354,59.37749280929563L721.1785440340908,59.37749280929563L724.4835269886362,59.37749280929563L725.6071467566288,59.37749280929563L728.0136805160984,59.37749280929563L729.1384168323863,59.37749280929563L731.242738186553,59.37749280929563L732.3527732836174,59.37749280929563L733.4562951822916,59.37749280929563L735.6285398910985,59.37749280929563L736.6418074692234,59.37749280929563L739.9183184422349,59.37749280929563L740.9496368844696,59.37749280929563L743.1432821022727,59.37749280929563L744.1435232836174,59.37749280929563L745.2392293442234,59.37749280929563L746.3433095170454,59.37749280929563L748.343233605587,59.37749280929563L749.4566183475379,59.37749280929563L750.5822851207387,59.37749280929563L751.7248862097537,59.37749280929563L753.9296969105113,59.37749280929563L756.1497671046401,59.37749280929563L758.2349210464015,59.37749280929563L759.3295105587122,59.37749280929563L760.4138650449811,59.37749280929563L761.5426953716857,59.37749280929563L762.7777838778409,59.37749280929563L767.3446524976325,59.37749280929563L768.2751094105112,59.37749280929563L769.3912855232006,59.37749280929563L770.573710168087,59.37749280929563L773.8009069247158,59.37749280929563L774.8115692234848,59.37749280929563L775.9411439157196,59.37749280929563L776.9856748461175,59.37749280929563L777.9609797821969,59.37749280929563L779.9679753432765,59.37749280929563L781.0750329782196,59.37749280929563L782.1297989346591,59.37749280929563L783.3152010416666,59.37749280929563L785.536759966856,59.37749280929563L786.5556102864582,59.37749280929563L787.5757632457385,59.37749280929563L788.7501859611742,59.37749280929563L789.8754805516097,59.37749280929563L790.951833108428,59.37749280929563L792.0138566287878,59.37749280929563L794.2475114938446,59.56599712371826L795.272875011837,59.49059539794922L796.2513435014204,59.44535436248782L798.47364679214,59.418209741210944L799.665934280303,59.401922968444865L801.9098241714015,59.392150904785126L803.0455398792614,59.38628766658934L807.160950804924,59.382769723671856L808.2877341264203,59.380658957921355L810.4592344696969,59.37939249847108L811.4905529119317,59.37863262280098L812.6119395833332,59.37817669739883L813.74021163589,59.37790314215761L814.8385229758521,59.37773900901283L815.8823095407196,59.37764052912593L816.9138140743371,59.3775814411938L819.048282232481,59.37754598843452L820.2150752012311,59.37752471677902L821.2289010535037,59.37751195378564L822.1833637547347,59.37750429598964L824.2513972892991,59.37749970131199L825.3642237571022,59.37749694450548L826.4601159090909,59.377495290421564L827.4456558712121,59.37749429797117L828.5309408143938,59.37749370250094L829.595383522727,59.37749334521885L835.8065555989582,59.37749313084959L837.0827703006628,59.37749300222805L838.1732658025567,59.37749292505515L839.2566898319128,59.377492878751355L840.3525819839015,59.37749285096908L844.6913025686553,59.37749283429969L847.8133576941287,59.377492824298145L848.9449793915719,59.37749281829713L851.0020335345644,59.37749281469655L854.0271350497158,59.37749281253622L855.0504515624999,59.37749281124002L857.1918051017991,59.37749281046223L858.2426631392044,59.3774928099956L859.3614445312498,59.37749280971559L860.408022466856,59.37749280954762L862.6161828124999,59.377492809446835L863.6839751657196,59.377492809386354L864.7037559422347,59.37749280935003L865.9373557173294,59.37749280932832L867.0680469578597,59.37749280931524L868.0921078361741,59.377492809307455L869.1204488162876,59.37749280930274L870.1843332504733,59.37749280929995L871.2943683475379,59.37749280929819L873.3117850260415,59.377492809297166L874.402094436553,59.3774928092966L876.7124189512309,59.3774928092962L878.8290223366475,59.37749280929597L879.8966285984848,59.37749280929586L882.1200484374999,59.3774928092958L884.391293761837,59.377492809295745L885.4324750473484,59.37749280929563L886.4546750118369,59.37749280929563L887.6069528527462,59.37749280929563L890.973159872159,59.37749280929563L892.0727738517992,59.37749280929563L893.1950909801135,59.37749280929563L894.2723739938447,59.37749280929563L896.3770675307765,59.37749280929563L897.4128521661931,59.37749280929563L899.488515447443,59.37749280929563L900.5968757220643,59.37749280929563L905.5755645714961,59.37749280929563L906.5612906249999,59.37749280929563L908.543908214962,59.37749280929563L909.5372640151514,59.37749280929563L911.5861301373105,59.37749280929563L912.6042360913825,59.37749280929563L913.6489531131629,59.37749280929563L914.8282142045452,59.37749280929563L916.9397931226324,59.37749280929563L917.9993974550189,59.37749280929563L918.942880764678,59.37749280929563L921.0274764322917,59.37749280929563L921.9668657315339,59.37749280929563L922.9453342211173,59.37749280929563L923.9978670809659,59.37749280929563L926.12079757339,59.37749280929563L927.2745641453598,59.37749280929563L929.4352711884468,59.37749280929563L932.8638188210226,59.37749280929563L935.0877969341856,59.37749280929563L936.1576362926135,59.37749280929563L937.2520397135416,59.37749280929563L938.2422319602271,59.37749280929563L940.3059853929923,59.37749280929563L942.3263795336175,59.37749280929563L943.4669336174242,59.37749280929563L944.530259777462,59.37749280929563L945.6434584280302,59.37749280929563L946.699340932765,59.37749280929563L947.7805318655302,59.37749280929563L948.7915663470642,59.37749280929563L949.8708963660038,59.37749280929563L950.9172882102272,59.37749280929563L954.127364559659,59.37749280929563L955.0946675662877,59.37749280929563L956.1799525094696,59.37749280929563L961.9806069957384,59.37749280929563L963.1330709280302,59.37749280929563L964.3662985203598,59.37749280929563L965.7444912997157,59.37749280929563L968.2703096354165,59.37749280929563L969.4789731652461,59.37749280929563L970.4362272372159,59.37749280929563L971.6486125946968,59.37749280929563L972.7452491122158,59.37749280929563L978.5170594341855,59.37749280929563L979.6192786931817,59.37749280929563L980.758716228693,59.37749280929563L981.8903379261362,59.37749280929563L983.0978849076703,59.37749280929563L984.1533952296402,59.37749280929563L986.3087056226325,59.37749280929563L987.4289757457384,59.37749280929563L988.5697159209278,59.37749280929563L989.6760291903408,59.37749280929563L990.8578955610793,59.37749280929563L991.9277349195074,59.37749280929563L992.8825698035035,59.37749280929563L993.998745916193,59.37749280929563L995.2124339133522,59.37749280929563L997.261858309659,59.37749280929563L998.380825793087,59.37749280929563L999.4800675899619,59.37749280929563L1000.6375559895832,59.37749280929563L1001.7542903764205,59.37749280929563L1002.8179887192234,59.37749280929563L1003.9570540719695,59.37749280929563L1006.178612997159,59.37749280929563L1008.5890546756629,59.37749280929563L1010.7214758285984,59.37749280929563L1011.9403743844695,59.37749280929563L1013.1019567945075,59.37749280929563L1015.3283540956438,59.37749280929563L1017.5041345407196,59.37749280929563L1018.6383615175189,59.37749280929563L1020.902535369318,59.37749280929563L1023.3276782670454,59.37749280929563L1024.4764203716854,59.37749280929563L1025.5445849076705,59.37749280929563L1027.759444543087,59.37749280929563L1031.0433991714015,59.37749280929563L1032.1156577178028,59.37749280929563L1035.3679768110794,59.37749280929563L1037.5305447679923,59.37749280929563L1040.7434124881627,59.37749280929563L1044.1533509824808,59.37749280929563L1045.304326183712,59.37749280929563L1046.4776323508522,59.37749280929563L1047.716070501894,59.37749280929563L1048.7743721946022,59.37749280929563L1050.0118798887308,59.37749280929563L1051.0415235085225,59.37749280929563L1052.1184343394884,59.37749280929563L1053.1998113636362,59.37749280929563L1054.2765361032195,59.37749280929563L1056.4206810132575,59.37749280929563L1057.5351823035037,59.37749280929563L1058.5973919152461,59.37749280929563L1061.9740200520832,59.37749280929563L1063.0362296638255,59.37749280929563L1065.3039392518938,59.37749280929563L1066.5410747632575,59.37749280929563L1067.699679711174,59.37749280929563L1068.8460026278408,59.37749280929563L1070.9119891571968,59.37749280929563L1074.2915947561553,59.37749280929563L1075.4271243726325,59.37749280929563L1076.474818856534,59.37749280929563L1077.614814666193,59.37749280929563L1078.6887480350379,59.37749280929563L1079.7630535866476,59.37749280929563L1080.8105619791666,59.37749280929563L1081.7248289417612,59.37749280929563L1082.9383308475378,59.37749280929563L1084.173047170928,59.37749280929563L1085.3684982125947,59.37749280929563L1086.5019808238635,59.37749280929563L1087.4514190577652,59.37749280929563L1088.5171644057764,59.37749280929563L1090.5559815932766,59.37749280929563L1091.677740447443,59.37749280929563L1092.8177362571023,59.37749280929563L1093.968339275568,59.37749280929563L1096.168683783144,59.37749280929563L1097.3421760416666,59.37749280929563L1101.5943641335225,59.37749280929563L1104.7011597656249,59.37749280929563L1108.12170546875,59.37749280929563L1109.2946394531248,59.37749280929563L1110.271433120265,59.37749280929563L1111.483446294981,59.37749280929563L1113.5816266335225,59.37749280929563L1114.6389978693182,59.37749280929563L1115.6615700165719,59.37749280929563L1116.7503906960226,59.37749280929563L1117.8265571614581,59.37749280929563L1119.9109667376893,59.37749280929563L1120.9329806107953,59.37749280929563L1122.0869332741477,59.37749280929563L1123.129417199337,59.37749280929563L1124.160177367424,59.37749280929563L1125.2730038352272,59.37749280929563L1126.3646158854165,59.37749280929563L1127.4353857007575,59.37749280929563L1128.5556558238636,59.37749280929563L1129.5696677675187,59.37749280929563L1130.639321034564,59.37749280929563L1132.8242199573863,59.37749280929563L1133.960493939394,59.37749280929563L1136.08212179214,59.37749280929563L1137.2048111032198,59.37749280929563L1138.372720620265,59.37749280929563L1140.6147495975379,59.37749280929563L1141.7420911931817,59.37749280929563L1142.858267305871,59.37749280929563L1144.1034047466853,59.37749280929563L1145.3362601562499,59.37749280929563L1146.547715056818,59.37749280929563L1150.829305587121,59.37749280929563L1153.0992482717802,59.37749280929563L1156.5419388494317,59.37749280929563L1157.463463375947,59.37749280929563L1159.6224955965906,59.37749280929563L1160.685263482481,59.37749280929563L1161.8849946259468,59.37749280929563L1163.901853030303,59.37749280929563L1164.9411734019886,59.37749280929563L1165.8800044270831,59.37749280929563L1167.0021354640148,59.37749280929563L1168.0786741122158,59.37749280929563L1169.1673087002841,59.37749280929563L1170.3581074573863,59.37749280929563L1171.6551643939395,59.37749280929563L1172.819538174716,59.37749280929563L1173.927526266572,59.37749280929563L1176.1479686434657,59.37749280929563L1177.3272297348483,59.37749280929563L1178.3976273674243,59.37749280929563L1180.6104399976325,59.37749280929563L1181.7986334753787,59.37749280929563L1182.8783356770832,59.37749280929563L1184.075089358428,59.37749280929563L1185.1469757220643,59.37749280929563L1186.3113495028408,59.37749280929563L1188.5170906605113,59.37749280929563L1189.6645301254732,59.37749280929563L1190.6818917140151,59.37749280929563L1191.7526615293557,59.37749280929563L1192.7880739820075,59.37749280929563L1193.8214394294505,59.37749280929563L1194.96869280303,59.37749280929563L1197.3182825994318,59.37749280929563L1198.3929603338065,59.37749280929563L1199.463171875,59.37749280929563L1200.5590640269884,59.37749280929563L1201.5689819602271,59.37749280929563L1202.6410544152461,59.37749280929563L1203.71926788589,59.37749280929563L1204.668520028409,59.37749280929563L1207.9800161813446,59.37749280929563L1209.1133127012308,59.37749280929563L1211.4022367069128,59.37749280929563L1215.6905265269886,59.37749280929563L1216.7328243607953,59.37749280929563L1219.0157934422348,59.37749280929563L1220.144251586174,59.37749280929563L1221.2604276988636,59.37749280929563L1223.583220336174,59.37749280929563L1225.7282957031248,59.37749280929563L1226.9537074573861,59.37749280929563L1228.0278269176135,59.37749280929563L1230.3061437144884,59.37749280929563L1231.5120158735795,59.37749280929563L1232.5502196969696,59.37749280929563L1233.8011259706439,59.37749280929563L1235.785976657197,59.37749280929563L1236.8801939867421,59.37749280929563L1237.970317305871,59.37749280929563L1239.0632319957383,59.37749280929563L1240.1598685132576,59.37749280929563L1242.394081652462,59.37749280929563L1243.654292495265,59.37749280929563L1244.8073147017044,59.37749280929563L1246.9101473248104,59.37749280929563L1247.965285464015,59.37749280929563L1251.1416792732007,59.37749280929563L1253.2731699692235,59.37749280929563L1254.3504529829545,59.37749280929563L1256.5775946496212,59.37749280929563L1257.6144958333332,59.37749280929563L1258.698478136837,59.37749280929563L1259.8513142518939,59.37749280929563L1260.8262470052082,59.37749280929563L1261.9539607836173,59.37749280929563L1263.1775116240528,59.37749280929563L1266.6347173295455,59.37749280929563L1267.792019637784,59.37749280929563L1268.913592400568,59.37749280929563L1270.0271632339013,59.37749280929563L1271.1180309185604,59.37749280929563L1272.185451089015,59.37749280929563L1273.3217250710227,59.37749280929563L1275.6413541548293,59.37749280929563L1276.7231033617422,59.37749280929563L1277.9116690222536,59.37749280929563L1279.0823699100376,59.37749280929563L1280.1868222656249,59.37749280929563L1281.4572681344696,59.37749280929563L1284.6502240767045,59.37749280929563L1286.9049072679925,59.37749280929563L1287.9712108901515,59.37749280929563L1289.2278859966855,59.37749280929563L1290.364532161458,59.37749280929563L1291.43753507339,59.37749280929563L1292.505141335227,59.37749280929563L1293.4739330729167,59.37749280929563L1294.4989244081437,59.37749280929563L1295.6035628551135,59.37749280929563L1296.6002683001893,59.37749280929563L1299.8968771425189,59.37749280929563L1300.8855806581437,59.37749280929563L1304.0366660392992,59.37749280929563L1305.1612162642045,59.37749280929563L1307.3887301136363,59.37749280929563L1308.510861150568,59.37749280929563L1309.56004436553,59.37749280929563L1312.2079386482005,59.37749280929563L1313.2163678503787,59.37749280929563L1314.2990475142042,59.37749280929563L1316.3788048058711,59.37749280929563L1317.5228946259467,59.37749280929563L1318.5839876893938,59.37749280929563L1320.7307378787877,59.37749280929563L1321.8841322679923,59.37749280929563L1323.013334777462,59.37749280929563L1325.2062356297347,59.37749280929563L1326.2632346827652,59.37749280929563L1327.4400765861742,59.37749280929563L1329.7466792732007,59.37749280929563L1330.6888599431816,59.37749280929563L1332.896462014678,59.37749280929563L1334.1244790482954,59.37749280929563L1335.2596364820074,59.37749280929563L1336.5086818418558,59.37749280929563L1337.5195302320076,59.37749280929563L1338.5947662405301,59.37749280929563L1340.599156522254,59.37749280929563L1341.6362437973485,59.37749280929563L1345.0279453361743,59.37749280929563L1347.310728326231,59.37749280929563L1350.7960338304924,59.37749280929563L1355.1943036576706,59.37749280929563L1360.8159382339013,59.37749280929563L1364.5210176609849,59.37749280929563L1365.7609445430871,59.37749280929563L1366.8557201467802,59.37749280929563L1367.962963873106,59.37749280929563L1369.0229403882577,59.37749280929563L1370.1244152817233,59.37749280929563L1372.3013122750947,59.37749280929563L1373.6378205847539,59.37749280929563L1375.8342571732953,59.37749280929563L1376.907260085227,59.37749280929563L1379.2840192234848,59.37749280929563L1380.3315276160035,59.37749280929563L1381.546890435606,59.37749280929563L1382.5311277580493,59.37749280929563L1384.7100717566286,59.37749280929563L1386.0623978338067,59.37749280929563L1387.3339602509468,59.37749280929563L1388.5891466264204,59.37749280929563L1389.8104643702652,59.37749280929563L1390.8332226089012,59.37749280929563L1391.848909375,59.37749280929563L1392.9833224431818,59.37749280929563L1394.042554592803,59.37749280929563L1395.1950185250946,59.37749280929563L1396.1762783854167,59.37749280929563L1398.4235179214015,59.37749280929563L1399.6723771898671,59.37749280929563L1401.9864235321968,59.37749280929563L1405.4408378669507,59.37749280929563L1407.756372940341,59.37749280929563L1412.3198919152462,59.37749280929563L1413.4870570667613,59.37749280929563L1414.634682623106,59.37749280929563L1415.7802611742422,59.37749280929563L1416.7566826586176,59.37749280929563" style="fill: none;" fill="none"></path></g></g></g></g><g opacity="0.2"><g><g><g><path stroke="rgb(255, 112, 67)" stroke-width="2px" d="M133.98579545454547,320.45L134.24985912642046,320.45L134.5159698035038,320.45L134.66037671638256,320.45L134.91234444839014,320.45L135.16245126657194,320.45L135.2888073153409,320.45L135.41162762784091,320.45L135.59083362926137,320.45L135.74082328361743,320.45L135.89099902935607,320.45L136.0272179214015,320.45L136.17125265151515,320.45L136.29332859848483,320.45L136.39419012784091,320.45L136.51049724195073,320.45L136.77753837594696,320.45L137.07919250710228,320.45L137.19140561079544,320.45L137.8864569247159,320.45L138.0492868844697,320.45L138.1520093276515,320.45L138.31279228219697,320.45L138.449197265625,320.45L138.67920621448863,320.45L139.1070303030303,320.45L139.25683386600377,320.45L139.493169921875,320.45L139.6066856652462,320.45L139.76728252840908,320.45L139.92248274147727,320.45L140.13890701941287,320.45L140.42716257102273,320.45L140.5644980113636,320.45L140.92235174005683,320.45L141.0769936789773,320.45L141.19553388967802,320.45L141.30867745028408,320.45L141.49253573626893,320.45L141.87513961884468,320.45L141.9918189157197,320.45L142.10738166429923,320.45L142.27635263967804,320.45L142.42224828361742,320.45L142.53855539772727,320.45L142.64127784090908,320.45L142.78419602272726,320.45L142.90087531960228,320.45L143.0259287286932,320.45L143.27305808475379,320.45L143.4072299715909,320.45L143.56019708806818,320.45L143.7172582149621,320.45L144.0306361032197,320.45L144.28372038352273,320.45L144.38867592329547,320.45L144.67079045928028,320.45L144.79733259943183,320.45L145.07200348011364,320.45L145.17621465435604,320.45L145.26218887310606,320.45L145.3807290838068,320.45L145.50894604640152,320.45L145.62581143465908,320.45L145.8997379498106,320.45L146.07168638731062,320.45L146.1999033499053,320.45L146.3119303622159,320.45L146.9392444128788,320.45L147.0803016808712,320.45L147.31775428503786,320.45L147.57530475852272,320.45L147.70110253314394,320.45L147.7934038589015,320.45L148.15516550662878,320.45L148.2580740411932,320.45L148.67305782433712,320.45L149.15242922585225,320.45L150.10279791666667,300.65750089883807L150.96105137310605,300.65750089883807L151.08815178740528,320.45L151.52676917613636,320.45L151.67843365293558,320.45L151.80497579308712,320.45L151.92835437973486,320.45L152.18367175662877,320.45L152.32212374526515,320.45L152.69877270359848,320.45L153.16046542376893,320.45L153.28607710700757,320.45L153.6182502249053,320.45L153.97442913115532,320.45L154.0989242660985,320.45L154.2498443773674,320.45L154.38959900568182,320.45L154.5133497750947,320.45L154.6421250118371,320.45L154.8855325402462,320.45L154.9901158972538,320.45L155.10567864583334,320.45L155.2124950994318,320.45L155.47990841619315,320.45L155.61277766335226,320.45L155.73894762073863,320.45L155.9778889559659,320.45L156.1466738399621,320.45L156.27396034564393,320.45L156.5490034090909,320.45L156.67628991477272,320.45L156.8651726680871,320.45L156.9628706439394,320.45L157.21762974668562,320.45L157.36408366477272,320.45L157.52040042613635,320.45L157.82298501420456,320.45L157.96348400804922,320.45L158.3421799715909,320.45L158.46295327888257,320.45L158.5632565340909,320.45L158.7113852746212,320.45L158.9341366595644,320.45L159.06328407907196,320.45L159.30222541429922,320.45L159.59587761600378,320.45L159.77043133285986,320.45L159.89864829545454,320.45L160.017746780303,320.45L160.3048857836174,320.45L160.43738284801134,320.45L160.85869373816288,320.45L161.4566053503788,320.45L161.95644680397726,320.45L162.27782662168562,320.45L162.42465272253787,320.45L162.55994115767047,320.45L162.69094949100378,320.45L162.79944076704544,320.45L163.1628772372159,320.45L163.31975227272727,320.45L163.48332659801136,320.45L163.71891828835226,320.45L164.13743780776514,320.45L164.29561548295453,320.45L164.4524905184659,320.45L164.55558514441287,320.45L164.66500687736743,320.45L164.78578018465907,320.45L165.01392821969696,320.45L165.1302353338068,320.45L165.27185087594697,320.45L165.56215343276514,320.45L165.66841161221592,320.45L165.8418487807765,320.45L165.96131944839016,320.45L166.12712687026516,320.45L166.24287571022728,320.45L166.64818274147726,320.45L166.78309899384467,320.45L167.08270611979165,320.45L167.67447671638254,320.45L167.78892291666668,320.45L168.06340770596591,320.45L168.18418101325756,320.45L168.32970447443182,320.45L168.48602123579545,320.45L168.63061424005681,320.45L168.7850700875947,320.45L169.27616524621212,320.45L169.73748578361742,320.45L169.8928720880682,320.45L170.0439782907197,320.45L170.17424225852272,320.45L170.39848237452648,320.45L170.67408371212122,320.45L170.9573147964015,320.45L171.1661093276515,320.45L171.43389482717802,320.45L171.54480529119314,320.45L171.6620428622159,320.45L171.80291403882575,320.45L171.8937266335227,320.45L172.19891650094695,320.45L172.3174567116477,320.45L172.55621195549242,320.45L172.78770963541666,320.45L173.02218477746212,320.45L173.61116400331437,320.45L173.83391538825757,320.45L173.9772057528409,320.45L174.26322820785987,320.45L174.35013288352272,320.45L174.50384436553028,320.45L174.6543922940341,320.45L174.7619531131629,320.45L174.90431302083334,320.45L175.04015973011363,320.45L175.19722085700755,320.45L175.32227426609847,320.45L175.46444808238635,320.45L177.81441006155302,299.71499955058096L178.59152767518938,299.71499955058096L180.00656654829544,299.71499955058096L181.02132285748107,320.45L181.62109538352274,320.45L181.72456219223483,320.45L181.86208372395834,320.45L182.06380678267047,320.45L182.26199410511362,320.45L182.39616599195077,320.45L182.53740935132575,320.45L182.66562631392048,320.45L182.79514591619318,320.45L182.88968033854167,320.45L183.29908138020832,320.45L183.9608223366477,300.65750089883807L185.36916191998102,299.71499955058096L186.79480800189393,299.71499955058096L188.36393053977272,300.65750089883807L189.27187039535985,300.65750089883807L190.69565556344696,299.71499955058096L191.50087297585225,300.65750089883807L192.26887211174244,299.71499955058096L192.9637373342803,299.71499955058096L193.7814228693182,300.65750089883807L194.60524941998102,299.71499955058096L195.39595170454544,299.71499955058096L196.10067977035987,299.71499955058096L196.77544712357957,299.71499955058096L198.3347068181818,278.0375L200.0741029711174,300.65750089883807L201.09202283380682,278.0375L202.59564120501892,299.71499955058096L204.0350580492424,300.65750089883807L204.70163738162879,300.65750089883807L205.5697536813447,277.5662482023239L206.38297302320072,277.5662482023239L207.1777693181818,287.4625L208.09966602746212,287.4625L208.86245460464013,299.71499955058096L209.82361659564393,299.71499955058096L210.60966659564392,299.71499955058096L211.42028065814392,299.71499955058096L212.18455796638253,299.71499955058096L213.30315326704545,288.87625089883807L214.23547109374996,277.09500089883807L215.70373210227274,299.71499955058096L217.3204940340909,299.71499955058096L218.10096129261362,299.71499955058096L218.37339907670452,290.761249101162L219.2467259351326,287.4625L220.4436657078598,277.09500089883807L222.06173027935608,278.0375L222.8855568300189,299.71499955058096L224.5520051609848,287.4625L225.3315419625947,287.4625L226.29921715198864,278.0375L227.17868502604168,278.0375L228.23196225142044,277.09500089883807L230.04207312973486,277.09500089883807L231.00007156723484,278.0375L231.90298695549245,287.4625L232.64511938920455,300.65750089883807L237.3210375591856,278.0375L238.1519355823864,299.71499955058096L239.76944187973484,300.65750089883807L240.499292282197,300.65750089883807L241.18559730113634,300.65750089883807L242.9717023910985,287.4625L243.81246325757573,287.4625L245.38233016098485,287.4625L246.92726081912875,287.4625L251.12473804450758,287.4625L251.99657617187498,287.4625L254.35826190814393,300.65750089883807L255.23103049242422,300.65750089883807L256.0094507457386,287.4625L256.78861536458334,287.4625L257.62267694128786,287.4625L258.5053083688447,287.4625L259.91941678503787,300.65750089883807L261.3850725142045,300.65750089883807L262.8187205255682,300.65750089883807L263.95518059895835,288.87625089883807L266.44657202888254,276.1525017976761L267.3662356415719,275.68125L269.4832112097538,276.1525017976761L270.3807299479167,286.520000898838L271.3100703125,276.62374910116193L272.03731543560605,299.24375L273.7558693536932,275.68125L274.65655164535985,275.68125L276.8507551373106,202.6375L277.50040015388254,202.6375L278.9893173058712,275.68125L281.55477310606057,275.68125L282.13835568181815,202.6375L283.6823558830492,189.91374640464784L284.5815494436553,189.91374640464784L285.428265234375,189.91374640464784L286.2455785866477,189.91374640464784L286.9651939630682,189.91374640464784L288.3190087713068,201.22375359535218L289.0948237452651,189.91374640464784L289.7716381036932,189.91374640464784L290.4246327651515,189.91374640464784L291.1328965672348,189.91374640464784L291.7777032078598,189.91374640464784L292.46624132339014,189.91374640464784L293.8632293323863,189.91374640464784L295.2434691169508,189.91374640464784L295.9094901751894,189.91374640464784L298.70234964488634,143.26000719070436L299.9928933830492,143.26000719070436L304.9297116714015,142.31750359535215L309.41060607244316,142.31750359535215L310.7448812855114,142.31750359535215L313.60436147017043,142.31750359535215L315.373160061553,142.31750359535215L318.6172911339962,142.31750359535215L320.1419378314394,142.31750359535215L321.5167809659091,142.31750359535215L325.8651783025568,142.31750359535215L327.40452621922344,142.31750359535215L330.3656122987689,142.31750359535215L336.5051391927083,142.31750359535215L340.8561418087121,142.31750359535215L342.41875114820067,142.31750359535215L343.84402504734845,142.31750359535215L345.24436270123107,142.31750359535215L346.71504289772724,142.31750359535215L348.1775350733902,146.08749999999998L349.62625648674236,142.31750359535215L352.51495301846586,142.31750359535215L353.9417156486742,142.31750359535215L355.47268945312493,142.31750359535215L356.88754223484847,142.31750359535215L358.27597004024625,142.31750359535215L359.78628770123106,142.31750359535215L361.309259576231,142.31750359535215L365.6859428030303,142.31750359535215L367.07511497395836,142.31750359535215L368.6328859374999,142.31750359535215L377.7482001302082,101.78999280929565L380.86690561079547,142.31750359535215L382.3113469223485,142.31750359535215L383.684515234375,142.31750359535215L385.4464284446022,107.91625719070436L387.0687731178977,101.78999280929565L388.83682734375,102.7324964046478L390.50346176609844,107.91625719070436L392.1520453243371,102.26125359535217L393.6562219696969,106.50249280929563L395.3436986268939,107.91625719070436L396.4068386955492,56.07875719070432L397.9675871212121,128.18000359535216L399.6057495620266,101.78999280929565L401.2547053030303,102.26125359535217L402.8429952533143,102.26125359535217L404.5343798295454,93.30749640464785L406.14295374053023,101.78999280929565L409.30111059422353,126.2949964046478L410.6904688565341,142.31750359535215L412.23874915956435,106.50249280929563L414.96759319365526,142.31750359535215L417.60153062263254,57.02124280929564L420.6069064512311,126.2949964046478L421.7174998224432,57.49250359535216L425.51785803740523,126.2949964046478L427.18598119081435,126.2949964046478L428.9473361268939,82.46875L431.3665241003788,57.49250359535216L432.4947961529356,57.49250359535216L433.58752475142046,57.49250359535216L436.06886724668556,56.55000000000001L437.24533696732954,56.55000000000001L438.40375582386355,57.49250359535216L439.8601069839015,128.18000359535216L442.21751261837113,56.55000000000001L443.34969258996216,57.49250359535216L444.5358390625,57.49250359535216L445.7832095999053,57.02124280929564L447.105388873106,57.49250359535216L448.3981657078598,57.49250359535216L450.25684643702647,107.91625719070436L451.5875859138257,57.49250359535216L453.3554540482954,106.50249280929563L456.6708581202651,142.31750359535215L458.2397945667613,101.78999280929565L459.46725332623106,56.55000000000001L462.7945672466856,57.49250359535216L463.9252584872159,57.02124280929564L465.10786922348484,57.02124280929564L467.4836979048295,57.49250359535216L468.6363479285037,57.02124280929564L469.70488464725383,57.02124280929564L470.86535050899613,57.02124280929564L473.16581218039767,57.02124280929564L475.48544126420444,57.49250359535216L476.6749373816288,57.49250359535216L477.94147533143934,57.49250359535216L480.2488223839962,57.49250359535216L483.00464966856055,99.43374280929567L485.45137916666675,149.8574964046478L486.56699700520835,59.84875359535215L487.8391176964962,57.49250359535216L491.291298934659,57.02124280929564L495.76716886837113,57.96374640464785L496.77876162405306,57.96374640464785L497.7572301136364,57.96374640464785L498.8116238873106,57.96374640464785L499.83512649147724,57.96374640464785L501.90390439157187,57.96374640464785L502.98974760890144,57.96374640464785L506.22606284327645,57.96374640464785L507.4207695194127,57.96374640464785L509.4649833570075,57.96374640464785L511.6037316169507,57.96374640464785L512.6733848839962,57.96374640464785L516.0675056107954,57.96374640464785L518.2555680871212,57.96374640464785L519.3823514086174,57.96374640464785L520.5221611268938,57.96374640464785L522.5805179095644,57.96374640464785L523.7919728101325,57.96374640464785L524.9567187736742,57.96374640464785L526.0957841264204,57.96374640464785L527.0870929214014,57.96374640464785L528.2371376657196,57.96374640464785L529.2541270714962,57.96374640464785L530.8550712357954,85.29624280929568L531.9226774976324,57.96374640464785L536.3025242779356,57.96374640464785L537.4810410037878,57.96374640464785L540.1427060487689,85.29624280929568L542.1956661813447,59.37749280929563L543.3306375236742,59.37749280929563L544.4218773910984,59.37749280929563L545.3912274029356,59.37749280929563L546.4837699100378,59.37749280929563L547.5917580018939,59.37749280929563L548.6370332978219,59.37749280929563L549.7859614938446,59.37749280929563L550.9830873579544,59.37749280929563L553.2753610085227,59.37749280929563L554.3120761008522,59.37749280929563L555.4183893702651,59.37749280929563L556.5464753314393,59.37749280929563L557.6440423058712,59.37749280929563L559.7749747277462,59.37749280929563L560.7502796638256,59.37749280929563L561.7698743489583,59.37749280929563L563.9471435250947,59.37749280929563L565.0551316169507,59.37749280929563L566.0661660984847,59.37749280929563L567.1546145951704,59.37749280929563L568.2946104048295,59.37749280929563L569.4446551491477,59.37749280929563L570.5779516690341,59.37749280929563L571.6954304214015,59.37749280929563L572.7721551609848,59.37749280929563L575.7855329190342,59.37749280929563L577.9711762073863,59.37749280929563L580.2182296519885,59.37749280929563L583.5723407315342,59.37749280929563L584.6712103456439,59.37749280929563L585.7669164062501,59.37749280929563L586.8313591145833,59.37749280929563L587.9069673058711,59.37749280929563L588.9589418915721,59.37749280929563L589.9991927201705,59.37749280929563L591.0988066998106,59.37749280929563L592.1842777343749,59.37749280929563L593.2507674479167,59.37749280929563L594.2591966500946,59.37749280929563L595.4325028172349,59.37749280929563L596.4336744554925,59.37749280929563L599.5761996330492,59.37749280929563L600.6713474195076,59.37749280929563L601.6855454545455,59.37749280929563L603.7755377722538,59.37749280929563L604.8466797703599,59.37749280929563L607.0535374763257,59.37749280929563L608.2590374526515,59.37749280929563L609.4425786458332,59.37749280929563L610.5451700875947,59.37749280929563L611.6289662997158,59.37749280929563L612.7628210937501,59.37749280929563L616.0726424242424,59.37749280929563L617.1672319365531,59.37749280929563L618.2110185014204,59.37749280929563L622.442364358428,59.37749280929563L623.466611328125,59.37749280929563L625.6948695430872,59.37749280929563L626.8305852509469,59.37749280929563L627.9910511126893,59.37749280929563L628.9043876183712,59.37749280929563L631.1607456321022,59.37749280929563L633.365928515625,59.37749280929563L634.3890589370264,59.37749280929563L635.4520129142992,59.37749280929563L637.7385177320075,59.37749280929563L638.9268973011363,59.37749280929563L639.9096458925189,59.37749280929563L640.8814150923296,59.37749280929563L642.0934282670454,59.37749280929563L643.046774419981,59.37749280929563L644.0806981415719,59.37749280929563L645.1782651160038,59.37749280929563L648.43635304214,59.37749280929563L649.3528531013258,59.37749280929563L651.5001615648674,59.37749280929563L653.7034835345644,59.37749280929563L654.8557613754734,59.37749280929563L655.9229954545455,59.37749280929563L657.0138631392045,59.37749280929563L659.2391438920454,59.37749280929563L660.2611577651516,59.37749280929563L661.3349050426136,59.37749280929563L662.3736671401515,59.37749280929563L663.3154756273674,59.37749280929563L664.4366762073863,59.37749280929563L665.6306385179923,59.37749280929563L666.6703310724431,59.37749280929563L669.9514943300189,59.37749280929563L670.9882094223484,59.37749280929563L673.4094444010416,59.37749280929563L674.7120840790719,59.37749280929563L675.9951841619318,59.37749280929563L677.3644445549243,59.37749280929563L679.7240832859849,59.37749280929563L682.1494122750946,59.37749280929563L683.2175768110794,59.37749280929563L684.2449873342804,59.37749280929563L685.2787249644887,59.37749280929563L686.4079274739584,59.37749280929563L687.3981197206439,59.37749280929563L688.4264607007575,59.37749280929563L689.4819710227272,59.37749280929563L691.5885254734848,59.37749280929563L692.7644369199811,59.37749280929563L693.8171558712121,59.37749280929563L696.0396452533145,59.37749280929563L698.0931636600379,59.37749280929563L699.0896830137309,59.37749280929563L700.3074650213068,59.37749280929563L701.5205947443181,59.37749280929563L702.6215113636363,59.37749280929563L703.6894898082386,59.37749280929563L705.8185613162877,59.37749280929563L706.8165694010416,59.37749280929563L707.8882696732953,59.37749280929563L710.1831486032196,59.37749280929563L711.3218417732008,59.37749280929563L713.5545661813446,59.37749280929563L716.8081879142992,59.37749280929563L718.8886895714961,59.37749280929563L720.0662758404354,59.37749280929563L721.1785440340908,59.37749280929563L724.4835269886362,59.37749280929563L725.6071467566288,59.37749280929563L728.0136805160984,59.37749280929563L729.1384168323863,59.37749280929563L731.242738186553,59.37749280929563L732.3527732836174,59.37749280929563L733.4562951822916,59.37749280929563L735.6285398910985,59.37749280929563L736.6418074692234,59.37749280929563L739.9183184422349,59.37749280929563L740.9496368844696,59.37749280929563L743.1432821022727,59.37749280929563L744.1435232836174,59.37749280929563L745.2392293442234,59.37749280929563L746.3433095170454,59.37749280929563L748.343233605587,59.37749280929563L749.4566183475379,59.37749280929563L750.5822851207387,59.37749280929563L751.7248862097537,59.37749280929563L753.9296969105113,59.37749280929563L756.1497671046401,59.37749280929563L758.2349210464015,59.37749280929563L759.3295105587122,59.37749280929563L760.4138650449811,59.37749280929563L761.5426953716857,59.37749280929563L762.7777838778409,59.37749280929563L767.3446524976325,59.37749280929563L768.2751094105112,59.37749280929563L769.3912855232006,59.37749280929563L770.573710168087,59.37749280929563L773.8009069247158,59.37749280929563L774.8115692234848,59.37749280929563L775.9411439157196,59.37749280929563L776.9856748461175,59.37749280929563L777.9609797821969,59.37749280929563L779.9679753432765,59.37749280929563L781.0750329782196,59.37749280929563L782.1297989346591,59.37749280929563L783.3152010416666,59.37749280929563L785.536759966856,59.37749280929563L786.5556102864582,59.37749280929563L787.5757632457385,59.37749280929563L788.7501859611742,59.37749280929563L789.8754805516097,59.37749280929563L790.951833108428,59.37749280929563L792.0138566287878,59.37749280929563L794.2475114938446,59.84875359535215L795.272875011837,59.37749280929563L796.2513435014204,59.37749280929563L798.47364679214,59.37749280929563L799.665934280303,59.37749280929563L801.9098241714015,59.37749280929563L803.0455398792614,59.37749280929563L807.160950804924,59.37749280929563L808.2877341264203,59.37749280929563L810.4592344696969,59.37749280929563L811.4905529119317,59.37749280929563L812.6119395833332,59.37749280929563L813.74021163589,59.37749280929563L814.8385229758521,59.37749280929563L815.8823095407196,59.37749280929563L816.9138140743371,59.37749280929563L819.048282232481,59.37749280929563L820.2150752012311,59.37749280929563L821.2289010535037,59.37749280929563L822.1833637547347,59.37749280929563L824.2513972892991,59.37749280929563L825.3642237571022,59.37749280929563L826.4601159090909,59.37749280929563L827.4456558712121,59.37749280929563L828.5309408143938,59.37749280929563L829.595383522727,59.37749280929563L835.8065555989582,59.37749280929563L837.0827703006628,59.37749280929563L838.1732658025567,59.37749280929563L839.2566898319128,59.37749280929563L840.3525819839015,59.37749280929563L844.6913025686553,59.37749280929563L847.8133576941287,59.37749280929563L848.9449793915719,59.37749280929563L851.0020335345644,59.37749280929563L854.0271350497158,59.37749280929563L855.0504515624999,59.37749280929563L857.1918051017991,59.37749280929563L858.2426631392044,59.37749280929563L859.3614445312498,59.37749280929563L860.408022466856,59.37749280929563L862.6161828124999,59.37749280929563L863.6839751657196,59.37749280929563L864.7037559422347,59.37749280929563L865.9373557173294,59.37749280929563L867.0680469578597,59.37749280929563L868.0921078361741,59.37749280929563L869.1204488162876,59.37749280929563L870.1843332504733,59.37749280929563L871.2943683475379,59.37749280929563L873.3117850260415,59.37749280929563L874.402094436553,59.37749280929563L876.7124189512309,59.37749280929563L878.8290223366475,59.37749280929563L879.8966285984848,59.37749280929563L882.1200484374999,59.37749280929563L884.391293761837,59.37749280929563L885.4324750473484,59.37749280929563L886.4546750118369,59.37749280929563L887.6069528527462,59.37749280929563L890.973159872159,59.37749280929563L892.0727738517992,59.37749280929563L893.1950909801135,59.37749280929563L894.2723739938447,59.37749280929563L896.3770675307765,59.37749280929563L897.4128521661931,59.37749280929563L899.488515447443,59.37749280929563L900.5968757220643,59.37749280929563L905.5755645714961,59.37749280929563L906.5612906249999,59.37749280929563L908.543908214962,59.37749280929563L909.5372640151514,59.37749280929563L911.5861301373105,59.37749280929563L912.6042360913825,59.37749280929563L913.6489531131629,59.37749280929563L914.8282142045452,59.37749280929563L916.9397931226324,59.37749280929563L917.9993974550189,59.37749280929563L918.942880764678,59.37749280929563L921.0274764322917,59.37749280929563L921.9668657315339,59.37749280929563L922.9453342211173,59.37749280929563L923.9978670809659,59.37749280929563L926.12079757339,59.37749280929563L927.2745641453598,59.37749280929563L929.4352711884468,59.37749280929563L932.8638188210226,59.37749280929563L935.0877969341856,59.37749280929563L936.1576362926135,59.37749280929563L937.2520397135416,59.37749280929563L938.2422319602271,59.37749280929563L940.3059853929923,59.37749280929563L942.3263795336175,59.37749280929563L943.4669336174242,59.37749280929563L944.530259777462,59.37749280929563L945.6434584280302,59.37749280929563L946.699340932765,59.37749280929563L947.7805318655302,59.37749280929563L948.7915663470642,59.37749280929563L949.8708963660038,59.37749280929563L950.9172882102272,59.37749280929563L954.127364559659,59.37749280929563L955.0946675662877,59.37749280929563L956.1799525094696,59.37749280929563L961.9806069957384,59.37749280929563L963.1330709280302,59.37749280929563L964.3662985203598,59.37749280929563L965.7444912997157,59.37749280929563L968.2703096354165,59.37749280929563L969.4789731652461,59.37749280929563L970.4362272372159,59.37749280929563L971.6486125946968,59.37749280929563L972.7452491122158,59.37749280929563L978.5170594341855,59.37749280929563L979.6192786931817,59.37749280929563L980.758716228693,59.37749280929563L981.8903379261362,59.37749280929563L983.0978849076703,59.37749280929563L984.1533952296402,59.37749280929563L986.3087056226325,59.37749280929563L987.4289757457384,59.37749280929563L988.5697159209278,59.37749280929563L989.6760291903408,59.37749280929563L990.8578955610793,59.37749280929563L991.9277349195074,59.37749280929563L992.8825698035035,59.37749280929563L993.998745916193,59.37749280929563L995.2124339133522,59.37749280929563L997.261858309659,59.37749280929563L998.380825793087,59.37749280929563L999.4800675899619,59.37749280929563L1000.6375559895832,59.37749280929563L1001.7542903764205,59.37749280929563L1002.8179887192234,59.37749280929563L1003.9570540719695,59.37749280929563L1006.178612997159,59.37749280929563L1008.5890546756629,59.37749280929563L1010.7214758285984,59.37749280929563L1011.9403743844695,59.37749280929563L1013.1019567945075,59.37749280929563L1015.3283540956438,59.37749280929563L1017.5041345407196,59.37749280929563L1018.6383615175189,59.37749280929563L1020.902535369318,59.37749280929563L1023.3276782670454,59.37749280929563L1024.4764203716854,59.37749280929563L1025.5445849076705,59.37749280929563L1027.759444543087,59.37749280929563L1031.0433991714015,59.37749280929563L1032.1156577178028,59.37749280929563L1035.3679768110794,59.37749280929563L1037.5305447679923,59.37749280929563L1040.7434124881627,59.37749280929563L1044.1533509824808,59.37749280929563L1045.304326183712,59.37749280929563L1046.4776323508522,59.37749280929563L1047.716070501894,59.37749280929563L1048.7743721946022,59.37749280929563L1050.0118798887308,59.37749280929563L1051.0415235085225,59.37749280929563L1052.1184343394884,59.37749280929563L1053.1998113636362,59.37749280929563L1054.2765361032195,59.37749280929563L1056.4206810132575,59.37749280929563L1057.5351823035037,59.37749280929563L1058.5973919152461,59.37749280929563L1061.9740200520832,59.37749280929563L1063.0362296638255,59.37749280929563L1065.3039392518938,59.37749280929563L1066.5410747632575,59.37749280929563L1067.699679711174,59.37749280929563L1068.8460026278408,59.37749280929563L1070.9119891571968,59.37749280929563L1074.2915947561553,59.37749280929563L1075.4271243726325,59.37749280929563L1076.474818856534,59.37749280929563L1077.614814666193,59.37749280929563L1078.6887480350379,59.37749280929563L1079.7630535866476,59.37749280929563L1080.8105619791666,59.37749280929563L1081.7248289417612,59.37749280929563L1082.9383308475378,59.37749280929563L1084.173047170928,59.37749280929563L1085.3684982125947,59.37749280929563L1086.5019808238635,59.37749280929563L1087.4514190577652,59.37749280929563L1088.5171644057764,59.37749280929563L1090.5559815932766,59.37749280929563L1091.677740447443,59.37749280929563L1092.8177362571023,59.37749280929563L1093.968339275568,59.37749280929563L1096.168683783144,59.37749280929563L1097.3421760416666,59.37749280929563L1101.5943641335225,59.37749280929563L1104.7011597656249,59.37749280929563L1108.12170546875,59.37749280929563L1109.2946394531248,59.37749280929563L1110.271433120265,59.37749280929563L1111.483446294981,59.37749280929563L1113.5816266335225,59.37749280929563L1114.6389978693182,59.37749280929563L1115.6615700165719,59.37749280929563L1116.7503906960226,59.37749280929563L1117.8265571614581,59.37749280929563L1119.9109667376893,59.37749280929563L1120.9329806107953,59.37749280929563L1122.0869332741477,59.37749280929563L1123.129417199337,59.37749280929563L1124.160177367424,59.37749280929563L1125.2730038352272,59.37749280929563L1126.3646158854165,59.37749280929563L1127.4353857007575,59.37749280929563L1128.5556558238636,59.37749280929563L1129.5696677675187,59.37749280929563L1130.639321034564,59.37749280929563L1132.8242199573863,59.37749280929563L1133.960493939394,59.37749280929563L1136.08212179214,59.37749280929563L1137.2048111032198,59.37749280929563L1138.372720620265,59.37749280929563L1140.6147495975379,59.37749280929563L1141.7420911931817,59.37749280929563L1142.858267305871,59.37749280929563L1144.1034047466853,59.37749280929563L1145.3362601562499,59.37749280929563L1146.547715056818,59.37749280929563L1150.829305587121,59.37749280929563L1153.0992482717802,59.37749280929563L1156.5419388494317,59.37749280929563L1157.463463375947,59.37749280929563L1159.6224955965906,59.37749280929563L1160.685263482481,59.37749280929563L1161.8849946259468,59.37749280929563L1163.901853030303,59.37749280929563L1164.9411734019886,59.37749280929563L1165.8800044270831,59.37749280929563L1167.0021354640148,59.37749280929563L1168.0786741122158,59.37749280929563L1169.1673087002841,59.37749280929563L1170.3581074573863,59.37749280929563L1171.6551643939395,59.37749280929563L1172.819538174716,59.37749280929563L1173.927526266572,59.37749280929563L1176.1479686434657,59.37749280929563L1177.3272297348483,59.37749280929563L1178.3976273674243,59.37749280929563L1180.6104399976325,59.37749280929563L1181.7986334753787,59.37749280929563L1182.8783356770832,59.37749280929563L1184.075089358428,59.37749280929563L1185.1469757220643,59.37749280929563L1186.3113495028408,59.37749280929563L1188.5170906605113,59.37749280929563L1189.6645301254732,59.37749280929563L1190.6818917140151,59.37749280929563L1191.7526615293557,59.37749280929563L1192.7880739820075,59.37749280929563L1193.8214394294505,59.37749280929563L1194.96869280303,59.37749280929563L1197.3182825994318,59.37749280929563L1198.3929603338065,59.37749280929563L1199.463171875,59.37749280929563L1200.5590640269884,59.37749280929563L1201.5689819602271,59.37749280929563L1202.6410544152461,59.37749280929563L1203.71926788589,59.37749280929563L1204.668520028409,59.37749280929563L1207.9800161813446,59.37749280929563L1209.1133127012308,59.37749280929563L1211.4022367069128,59.37749280929563L1215.6905265269886,59.37749280929563L1216.7328243607953,59.37749280929563L1219.0157934422348,59.37749280929563L1220.144251586174,59.37749280929563L1221.2604276988636,59.37749280929563L1223.583220336174,59.37749280929563L1225.7282957031248,59.37749280929563L1226.9537074573861,59.37749280929563L1228.0278269176135,59.37749280929563L1230.3061437144884,59.37749280929563L1231.5120158735795,59.37749280929563L1232.5502196969696,59.37749280929563L1233.8011259706439,59.37749280929563L1235.785976657197,59.37749280929563L1236.8801939867421,59.37749280929563L1237.970317305871,59.37749280929563L1239.0632319957383,59.37749280929563L1240.1598685132576,59.37749280929563L1242.394081652462,59.37749280929563L1243.654292495265,59.37749280929563L1244.8073147017044,59.37749280929563L1246.9101473248104,59.37749280929563L1247.965285464015,59.37749280929563L1251.1416792732007,59.37749280929563L1253.2731699692235,59.37749280929563L1254.3504529829545,59.37749280929563L1256.5775946496212,59.37749280929563L1257.6144958333332,59.37749280929563L1258.698478136837,59.37749280929563L1259.8513142518939,59.37749280929563L1260.8262470052082,59.37749280929563L1261.9539607836173,59.37749280929563L1263.1775116240528,59.37749280929563L1266.6347173295455,59.37749280929563L1267.792019637784,59.37749280929563L1268.913592400568,59.37749280929563L1270.0271632339013,59.37749280929563L1271.1180309185604,59.37749280929563L1272.185451089015,59.37749280929563L1273.3217250710227,59.37749280929563L1275.6413541548293,59.37749280929563L1276.7231033617422,59.37749280929563L1277.9116690222536,59.37749280929563L1279.0823699100376,59.37749280929563L1280.1868222656249,59.37749280929563L1281.4572681344696,59.37749280929563L1284.6502240767045,59.37749280929563L1286.9049072679925,59.37749280929563L1287.9712108901515,59.37749280929563L1289.2278859966855,59.37749280929563L1290.364532161458,59.37749280929563L1291.43753507339,59.37749280929563L1292.505141335227,59.37749280929563L1293.4739330729167,59.37749280929563L1294.4989244081437,59.37749280929563L1295.6035628551135,59.37749280929563L1296.6002683001893,59.37749280929563L1299.8968771425189,59.37749280929563L1300.8855806581437,59.37749280929563L1304.0366660392992,59.37749280929563L1305.1612162642045,59.37749280929563L1307.3887301136363,59.37749280929563L1308.510861150568,59.37749280929563L1309.56004436553,59.37749280929563L1312.2079386482005,59.37749280929563L1313.2163678503787,59.37749280929563L1314.2990475142042,59.37749280929563L1316.3788048058711,59.37749280929563L1317.5228946259467,59.37749280929563L1318.5839876893938,59.37749280929563L1320.7307378787877,59.37749280929563L1321.8841322679923,59.37749280929563L1323.013334777462,59.37749280929563L1325.2062356297347,59.37749280929563L1326.2632346827652,59.37749280929563L1327.4400765861742,59.37749280929563L1329.7466792732007,59.37749280929563L1330.6888599431816,59.37749280929563L1332.896462014678,59.37749280929563L1334.1244790482954,59.37749280929563L1335.2596364820074,59.37749280929563L1336.5086818418558,59.37749280929563L1337.5195302320076,59.37749280929563L1338.5947662405301,59.37749280929563L1340.599156522254,59.37749280929563L1341.6362437973485,59.37749280929563L1345.0279453361743,59.37749280929563L1347.310728326231,59.37749280929563L1350.7960338304924,59.37749280929563L1355.1943036576706,59.37749280929563L1360.8159382339013,59.37749280929563L1364.5210176609849,59.37749280929563L1365.7609445430871,59.37749280929563L1366.8557201467802,59.37749280929563L1367.962963873106,59.37749280929563L1369.0229403882577,59.37749280929563L1370.1244152817233,59.37749280929563L1372.3013122750947,59.37749280929563L1373.6378205847539,59.37749280929563L1375.8342571732953,59.37749280929563L1376.907260085227,59.37749280929563L1379.2840192234848,59.37749280929563L1380.3315276160035,59.37749280929563L1381.546890435606,59.37749280929563L1382.5311277580493,59.37749280929563L1384.7100717566286,59.37749280929563L1386.0623978338067,59.37749280929563L1387.3339602509468,59.37749280929563L1388.5891466264204,59.37749280929563L1389.8104643702652,59.37749280929563L1390.8332226089012,59.37749280929563L1391.848909375,59.37749280929563L1392.9833224431818,59.37749280929563L1394.042554592803,59.37749280929563L1395.1950185250946,59.37749280929563L1396.1762783854167,59.37749280929563L1398.4235179214015,59.37749280929563L1399.6723771898671,59.37749280929563L1401.9864235321968,59.37749280929563L1405.4408378669507,59.37749280929563L1407.756372940341,59.37749280929563L1412.3198919152462,59.37749280929563L1413.4870570667613,59.37749280929563L1414.634682623106,59.37749280929563L1415.7802611742422,59.37749280929563L1416.7566826586176,59.37749280929563" style="fill: none;" fill="none"></path></g></g></g></g></g><g><g><span fill="rgb(0, 0, 0)" stroke="none" stroke-width="1px">Alt + Scroll to Zoom</span></g></g></g><g transform="translate(39, 377)" clip-path="url(#clip_1)"><clipPath id="clip_1"><rect width="1473" height="23"></rect></clipPath><g><g><line x1="0" y1="0" x2="0" y2="5" style="visibility: inherit;" fill="rgb(0, 0, 0)" stroke="rgb(204, 204, 204)" stroke-width="1px"></line><line x1="133.98579545454547" y1="0" x2="133.98579545454547" y2="5" style="visibility: inherit;" fill="rgb(0, 0, 0)" stroke="rgb(204, 204, 204)" stroke-width="1px"></line><line x1="267.97159090909093" y1="0" x2="267.97159090909093" y2="5" style="visibility: inherit;" fill="rgb(0, 0, 0)" stroke="rgb(204, 204, 204)" stroke-width="1px"></line><line x1="401.95738636363643" y1="0" x2="401.95738636363643" y2="5" style="visibility: inherit;" fill="rgb(0, 0, 0)" stroke="rgb(204, 204, 204)" stroke-width="1px"></line><line x1="535.9431818181819" y1="0" x2="535.9431818181819" y2="5" style="visibility: inherit;" fill="rgb(0, 0, 0)" stroke="rgb(204, 204, 204)" stroke-width="1px"></line><line x1="669.9289772727273" y1="0" x2="669.9289772727273" y2="5" style="visibility: inherit;" fill="rgb(0, 0, 0)" stroke="rgb(204, 204, 204)" stroke-width="1px"></line><line x1="803.9147727272726" y1="0" x2="803.9147727272726" y2="5" style="visibility: inherit;" fill="rgb(0, 0, 0)" stroke="rgb(204, 204, 204)" stroke-width="1px"></line><line x1="937.900568181818" y1="0" x2="937.900568181818" y2="5" style="visibility: inherit;" fill="rgb(0, 0, 0)" stroke="rgb(204, 204, 204)" stroke-width="1px"></line><line x1="1071.8863636363635" y1="0" x2="1071.8863636363635" y2="5" style="visibility: inherit;" fill="rgb(0, 0, 0)" stroke="rgb(204, 204, 204)" stroke-width="1px"></line><line x1="1205.872159090909" y1="0" x2="1205.872159090909" y2="5" style="visibility: inherit;" fill="rgb(0, 0, 0)" stroke="rgb(204, 204, 204)" stroke-width="1px"></line><line x1="1339.8579545454545" y1="0" x2="1339.8579545454545" y2="5" style="visibility: inherit;" fill="rgb(0, 0, 0)" stroke="rgb(204, 204, 204)" stroke-width="1px"></line><line x1="1473.84375" y1="0" x2="1473.84375" y2="5" style="visibility: inherit;" fill="rgb(0, 0, 0)" stroke="rgb(204, 204, 204)" stroke-width="1px"></line></g><g transform="translate(0, 8)"><text x="0" y="0" dx="0em" dy="0.95em" style="text-anchor: middle; visibility: hidden; font-family: &quot;Helvetica Neue&quot;, sans-serif; font-size: 12px; font-weight: 200;" fill="rgb(50, 49, 63)" stroke="none" stroke-width="1px">-0.2</text><text x="133.98579545454547" y="0" dx="0em" dy="0.95em" style="text-anchor: middle; visibility: inherit; font-family: &quot;Helvetica Neue&quot;, sans-serif; font-size: 12px; font-weight: 200;" fill="rgb(50, 49, 63)" stroke="none" stroke-width="1px">0</text><text x="267.97159090909093" y="0" dx="0em" dy="0.95em" style="text-anchor: middle; visibility: inherit; font-family: &quot;Helvetica Neue&quot;, sans-serif; font-size: 12px; font-weight: 200;" fill="rgb(50, 49, 63)" stroke="none" stroke-width="1px">0.2</text><text x="401.95738636363643" y="0" dx="0em" dy="0.95em" style="text-anchor: middle; visibility: inherit; font-family: &quot;Helvetica Neue&quot;, sans-serif; font-size: 12px; font-weight: 200;" fill="rgb(50, 49, 63)" stroke="none" stroke-width="1px">0.4</text><text x="535.9431818181819" y="0" dx="0em" dy="0.95em" style="text-anchor: middle; visibility: inherit; font-family: &quot;Helvetica Neue&quot;, sans-serif; font-size: 12px; font-weight: 200;" fill="rgb(50, 49, 63)" stroke="none" stroke-width="1px">0.6</text><text x="669.9289772727273" y="0" dx="0em" dy="0.95em" style="text-anchor: middle; visibility: inherit; font-family: &quot;Helvetica Neue&quot;, sans-serif; font-size: 12px; font-weight: 200;" fill="rgb(50, 49, 63)" stroke="none" stroke-width="1px">0.8</text><text x="803.9147727272726" y="0" dx="0em" dy="0.95em" style="text-anchor: middle; visibility: inherit; font-family: &quot;Helvetica Neue&quot;, sans-serif; font-size: 12px; font-weight: 200;" fill="rgb(50, 49, 63)" stroke="none" stroke-width="1px">1</text><text x="937.900568181818" y="0" dx="0em" dy="0.95em" style="text-anchor: middle; visibility: inherit; font-family: &quot;Helvetica Neue&quot;, sans-serif; font-size: 12px; font-weight: 200;" fill="rgb(50, 49, 63)" stroke="none" stroke-width="1px">1.2</text><text x="1071.8863636363635" y="0" dx="0em" dy="0.95em" style="text-anchor: middle; visibility: inherit; font-family: &quot;Helvetica Neue&quot;, sans-serif; font-size: 12px; font-weight: 200;" fill="rgb(50, 49, 63)" stroke="none" stroke-width="1px">1.4</text><text x="1205.872159090909" y="0" dx="0em" dy="0.95em" style="text-anchor: middle; visibility: inherit; font-family: &quot;Helvetica Neue&quot;, sans-serif; font-size: 12px; font-weight: 200;" fill="rgb(50, 49, 63)" stroke="none" stroke-width="1px">1.6</text><text x="1339.8579545454545" y="0" dx="0em" dy="0.95em" style="text-anchor: middle; visibility: inherit; font-family: &quot;Helvetica Neue&quot;, sans-serif; font-size: 12px; font-weight: 200;" fill="rgb(50, 49, 63)" stroke="none" stroke-width="1px">1.8</text><text x="1473.84375" y="0" dx="0em" dy="0.95em" style="text-anchor: middle; visibility: hidden; font-family: &quot;Helvetica Neue&quot;, sans-serif; font-size: 12px; font-weight: 200;" fill="rgb(50, 49, 63)" stroke="none" stroke-width="1px">2</text></g><line x1="0" y1="0" x2="1473.84375" y2="0" fill="rgb(0, 0, 0)" stroke="rgb(204, 204, 204)" stroke-width="1px"></line></g></g></g></g></svg>