<svg viewBox="0 0 1513 400" xmlns="http://www.w3.org/2000/svg"><g><g><g><g><g><line x1="48.875" y1="377" x2="43.875" y2="377" style="visibility: inherit;" fill="rgb(0, 0, 0)" stroke="rgb(204, 204, 204)" stroke-width="1px"></line><line x1="48.875" y1="345.5833333333333" x2="43.875" y2="345.5833333333333" style="visibility: inherit;" fill="rgb(0, 0, 0)" stroke="rgb(204, 204, 204)" stroke-width="1px"></line><line x1="48.875" y1="314.1666666666667" x2="43.875" y2="314.1666666666667" style="visibility: inherit;" fill="rgb(0, 0, 0)" stroke="rgb(204, 204, 204)" stroke-width="1px"></line><line x1="48.875" y1="282.75" x2="43.875" y2="282.75" style="visibility: inherit;" fill="rgb(0, 0, 0)" stroke="rgb(204, 204, 204)" stroke-width="1px"></line><line x1="48.875" y1="251.33333333333334" x2="43.875" y2="251.33333333333334" style="visibility: inherit;" fill="rgb(0, 0, 0)" stroke="rgb(204, 204, 204)" stroke-width="1px"></line><line x1="48.875" y1="219.91666666666666" x2="43.875" y2="219.91666666666666" style="visibility: inherit;" fill="rgb(0, 0, 0)" stroke="rgb(204, 204, 204)" stroke-width="1px"></line><line x1="48.875" y1="188.5" x2="43.875" y2="188.5" style="visibility: inherit;" fill="rgb(0, 0, 0)" stroke="rgb(204, 204, 204)" stroke-width="1px"></line><line x1="48.875" y1="157.08333333333331" x2="43.875" y2="157.08333333333331" style="visibility: inherit;" fill="rgb(0, 0, 0)" stroke="rgb(204, 204, 204)" stroke-width="1px"></line><line x1="48.875" y1="125.66666666666663" x2="43.875" y2="125.66666666666663" style="visibility: inherit;" fill="rgb(0, 0, 0)" stroke="rgb(204, 204, 204)" stroke-width="1px"></line><line x1="48.875" y1="94.25" x2="43.875" y2="94.25" style="visibility: inherit;" fill="rgb(0, 0, 0)" stroke="rgb(204, 204, 204)" stroke-width="1px"></line><line x1="48.875" y1="62.833333333333314" x2="43.875" y2="62.833333333333314" style="visibility: inherit;" fill="rgb(0, 0, 0)" stroke="rgb(204, 204, 204)" stroke-width="1px"></line><line x1="48.875" y1="31.41666666666663" x2="43.875" y2="31.41666666666663" style="visibility: inherit;" fill="rgb(0, 0, 0)" stroke="rgb(204, 204, 204)" stroke-width="1px"></line><line x1="48.875" y1="0" x2="43.875" y2="0" style="visibility: inherit;" fill="rgb(0, 0, 0)" stroke="rgb(204, 204, 204)" stroke-width="1px"></line></g><g transform="translate(38.875, 0)"><text x="0" y="377" dx="0em" dy="0.3em" style="text-anchor: end; visibility: hidden; font-family: &quot;Helvetica Neue&quot;, sans-serif; font-size: 12px; font-weight: 200;" fill="rgb(50, 49, 63)" stroke="none" stroke-width="1px">-1.2</text><text x="0" y="345.5833333333333" dx="0em" dy="0.3em" style="text-anchor: end; visibility: inherit; font-family: &quot;Helvetica Neue&quot;, sans-serif; font-size: 12px; font-weight: 200;" fill="rgb(50, 49, 63)" stroke="none" stroke-width="1px">-1</text><text x="0" y="314.1666666666667" dx="0em" dy="0.3em" style="text-anchor: end; visibility: inherit; font-family: &quot;Helvetica Neue&quot;, sans-serif; font-size: 12px; font-weight: 200;" fill="rgb(50, 49, 63)" stroke="none" stroke-width="1px">-0.8</text><text x="0" y="282.75" dx="0em" dy="0.3em" style="text-anchor: end; visibility: inherit; font-family: &quot;Helvetica Neue&quot;, sans-serif; font-size: 12px; font-weight: 200;" fill="rgb(50, 49, 63)" stroke="none" stroke-width="1px">-0.6</text><text x="0" y="251.33333333333334" dx="0em" dy="0.3em" style="text-anchor: end; visibility: inherit; font-family: &quot;Helvetica Neue&quot;, sans-serif; font-size: 12px; font-weight: 200;" fill="rgb(50, 49, 63)" stroke="none" stroke-width="1px">-0.4</text><text x="0" y="219.91666666666666" dx="0em" dy="0.3em" style="text-anchor: end; visibility: inherit; font-family: &quot;Helvetica Neue&quot;, sans-serif; font-size: 12px; font-weight: 200;" fill="rgb(50, 49, 63)" stroke="none" stroke-width="1px">-0.2</text><text x="0" y="188.5" dx="0em" dy="0.3em" style="text-anchor: end; visibility: inherit; font-family: &quot;Helvetica Neue&quot;, sans-serif; font-size: 12px; font-weight: 200;" fill="rgb(50, 49, 63)" stroke="none" stroke-width="1px">0</text><text x="0" y="157.08333333333331" dx="0em" dy="0.3em" style="text-anchor: end; visibility: inherit; font-family: &quot;Helvetica Neue&quot;, sans-serif; font-size: 12px; font-weight: 200;" fill="rgb(50, 49, 63)" stroke="none" stroke-width="1px">0.2</text><text x="0" y="125.66666666666663" dx="0em" dy="0.3em" style="text-anchor: end; visibility: inherit; font-family: &quot;Helvetica Neue&quot;, sans-serif; font-size: 12px; font-weight: 200;" fill="rgb(50, 49, 63)" stroke="none" stroke-width="1px">0.4</text><text x="0" y="94.25" dx="0em" dy="0.3em" style="text-anchor: end; visibility: inherit; font-family: &quot;Helvetica Neue&quot;, sans-serif; font-size: 12px; font-weight: 200;" fill="rgb(50, 49, 63)" stroke="none" stroke-width="1px">0.6</text><text x="0" y="62.833333333333314" dx="0em" dy="0.3em" style="text-anchor: end; visibility: inherit; font-family: &quot;Helvetica Neue&quot;, sans-serif; font-size: 12px; font-weight: 200;" fill="rgb(50, 49, 63)" stroke="none" stroke-width="1px">0.8</text><text x="0" y="31.41666666666663" dx="0em" dy="0.3em" style="text-anchor: end; visibility: inherit; font-family: &quot;Helvetica Neue&quot;, sans-serif; font-size: 12px; font-weight: 200;" fill="rgb(50, 49, 63)" stroke="none" stroke-width="1px">1</text><text x="0" y="0" dx="0em" dy="0.3em" style="text-anchor: end; visibility: hidden; font-family: &quot;Helvetica Neue&quot;, sans-serif; font-size: 12px; font-weight: 200;" fill="rgb(50, 49, 63)" stroke="none" stroke-width="1px">1.2</text></g><line x1="48.875" y1="0" x2="48.875" y2="377" fill="rgb(0, 0, 0)" stroke="rgb(204, 204, 204)" stroke-width="1px"></line></g></g><g transform="translate(48, 0)" clip-path="url(#clip_0)"><clipPath id="clip_0"><rect width="1464" height="377"></rect></clipPath><g><g><g><line x1="0" y1="0" x2="0" y2="377" fill="rgb(0, 0, 0)" stroke="rgb(60, 60, 60)" stroke-width="1px" opacity="0.25"></line><line x1="133.10227272727272" y1="0" x2="133.10227272727272" y2="377" fill="rgb(0, 0, 0)" stroke="rgb(60, 60, 60)" stroke-width="1px" opacity="0.25"></line><line x1="266.20454545454544" y1="0" x2="266.20454545454544" y2="377" fill="rgb(0, 0, 0)" stroke="rgb(60, 60, 60)" stroke-width="1px" opacity="0.25"></line><line x1="399.30681818181824" y1="0" x2="399.30681818181824" y2="377" fill="rgb(0, 0, 0)" stroke="rgb(60, 60, 60)" stroke-width="1px" opacity="0.25"></line><line x1="532.4090909090909" y1="0" x2="532.4090909090909" y2="377" fill="rgb(0, 0, 0)" stroke="rgb(60, 60, 60)" stroke-width="1px" opacity="0.25"></line><line x1="665.5113636363636" y1="0" x2="665.5113636363636" y2="377" fill="rgb(0, 0, 0)" stroke="rgb(60, 60, 60)" stroke-width="1px" opacity="0.25"></line><line x1="798.6136363636363" y1="0" x2="798.6136363636363" y2="377" fill="rgb(0, 0, 0)" stroke="rgb(60, 60, 60)" stroke-width="1px" opacity="0.25"></line><line x1="931.7159090909089" y1="0" x2="931.7159090909089" y2="377" fill="rgb(0, 0, 0)" stroke="rgb(60, 60, 60)" stroke-width="1px" opacity="0.25"></line><line x1="1064.8181818181818" y1="0" x2="1064.8181818181818" y2="377" fill="rgb(0, 0, 0)" stroke="rgb(60, 60, 60)" stroke-width="1px" opacity="0.25"></line><line x1="1197.9204545454545" y1="0" x2="1197.9204545454545" y2="377" fill="rgb(0, 0, 0)" stroke="rgb(60, 60, 60)" stroke-width="1px" opacity="0.25"></line><line x1="1331.0227272727273" y1="0" x2="1331.0227272727273" y2="377" fill="rgb(0, 0, 0)" stroke="rgb(60, 60, 60)" stroke-width="1px" opacity="0.25"></line><line x1="1464.125" y1="0" x2="1464.125" y2="377" fill="rgb(0, 0, 0)" stroke="rgb(60, 60, 60)" stroke-width="1px" opacity="0.25"></line></g><g><line x1="0" y1="377" x2="1464.125" y2="377" fill="rgb(0, 0, 0)" stroke="rgb(60, 60, 60)" stroke-width="1px" opacity="0.25"></line><line x1="0" y1="345.5833333333333" x2="1464.125" y2="345.5833333333333" fill="rgb(0, 0, 0)" stroke="rgb(60, 60, 60)" stroke-width="1px" opacity="0.25"></line><line x1="0" y1="314.1666666666667" x2="1464.125" y2="314.1666666666667" fill="rgb(0, 0, 0)" stroke="rgb(60, 60, 60)" stroke-width="1px" opacity="0.25"></line><line x1="0" y1="282.75" x2="1464.125" y2="282.75" fill="rgb(0, 0, 0)" stroke="rgb(60, 60, 60)" stroke-width="1px" opacity="0.25"></line><line x1="0" y1="251.33333333333334" x2="1464.125" y2="251.33333333333334" fill="rgb(0, 0, 0)" stroke="rgb(60, 60, 60)" stroke-width="1px" opacity="0.25"></line><line x1="0" y1="219.91666666666666" x2="1464.125" y2="219.91666666666666" fill="rgb(0, 0, 0)" stroke="rgb(60, 60, 60)" stroke-width="1px" opacity="0.25"></line><line x1="0" y1="188.5" x2="1464.125" y2="188.5" fill="rgb(0, 0, 0)" stroke="rgb(60, 60, 60)" stroke-width="1px" opacity="0.25"></line><line x1="0" y1="157.08333333333331" x2="1464.125" y2="157.08333333333331" fill="rgb(0, 0, 0)" stroke="rgb(60, 60, 60)" stroke-width="1px" opacity="0.25"></line><line x1="0" y1="125.66666666666663" x2="1464.125" y2="125.66666666666663" fill="rgb(0, 0, 0)" stroke="rgb(60, 60, 60)" stroke-width="1px" opacity="0.25"></line><line x1="0" y1="94.25" x2="1464.125" y2="94.25" fill="rgb(0, 0, 0)" stroke="rgb(60, 60, 60)" stroke-width="1px" opacity="0.25"></line><line x1="0" y1="62.833333333333314" x2="1464.125" y2="62.833333333333314" fill="rgb(0, 0, 0)" stroke="rgb(60, 60, 60)" stroke-width="1px" opacity="0.25"></line><line x1="0" y1="31.41666666666663" x2="1464.125" y2="31.41666666666663" fill="rgb(0, 0, 0)" stroke="rgb(60, 60, 60)" stroke-width="1px" opacity="0.25"></line><line x1="0" y1="0" x2="1464.125" y2="0" fill="rgb(0, 0, 0)" stroke="rgb(60, 60, 60)" stroke-width="1px" opacity="0.25"></line></g></g></g><g><g><line x1="0" y1="188.5" x2="1464.125" y2="188.5" fill="rgb(0, 0, 0)" stroke="rgb(153, 153, 153)" stroke-width="1.5px"></line></g></g><g><g><line x1="133.10227272727272" y1="0" x2="133.10227272727272" y2="377" fill="rgb(0, 0, 0)" stroke="rgb(153, 153, 153)" stroke-width="1.5px"></line></g></g><g><g><g><g><g><path stroke="rgb(255, 112, 67)" stroke-width="2px" d="M133.10227272727272,188.5L133.36459512310606,188.5L133.62895102588385,188.5L133.772405697601,188.5L134.02271191603535,188.5L134.2711694917929,188.5L134.39669232954546,188.5L134.51851788194446,188.5L134.69672703598485,188.5L134.84572763573235,188.5L134.99491309974746,188.5L135.13023374368686,188.5L135.2733186868687,188.5L135.39458964646465,188.5L135.49478607954546,188.5L135.6103262468434,188.5L135.87560647095958,188.5L136.17527144886364,188.5L136.28674460227273,188.5L136.97721264204546,188.5L137.13896887626262,188.5L137.24101395202018,188.5L137.40073667929292,188.5L137.5362421875,188.5L137.76473442234848,188.5L138.1897373737374,188.5L138.33855310921717,188.5L138.57333072916666,188.5L138.68591306818183,188.5L138.84563579545454,188.5L138.99981259469698,188.5L139.21480973800504,188.5L139.5011644886364,188.5L139.6375943181818,188.5L139.99290344065656,188.5L140.14671051136364,188.5L140.26446904987372,188.5L140.37686652462122,188.5L140.55951242108586,188.5L140.93959335542928,188.5L141.05550325126262,188.5L141.1703039614899,188.5L141.33816071654041,188.5L141.483094302399,188.5L141.59863446969698,188.5L141.70067954545453,188.5L141.84247043876263,188.5L141.95856519886362,188.5L142.08279398674244,188.5L142.32829373421717,188.5L142.46158087121213,188.5L142.61353929924243,188.5L142.7695647411616,188.5L143.0808761679293,188.5L143.3322915719697,188.5L143.4365550189394,188.5L143.71680924873735,188.5L143.84251695075758,188.5L144.11537660984848,188.5L144.21890059974746,188.5L144.30430789141414,188.5L144.42206642992423,188.5L144.54943791035353,188.5L144.66553267045452,188.5L144.93765287247473,188.5L145.1084674558081,188.5L145.23583893623737,188.5L145.34712722537878,188.5L145.9701198074495,188.5L146.11043178661615,188.5L146.3463185921717,188.5L146.60217073863637,188.5L146.72713898358586,188.5L146.8188316603535,188.5L147.17820779671717,188.5L147.2804377367424,188.5L147.6926850536616,188.5L148.16889540719694,188.5L149.11299722222222,188.5L149.96559122474747,188.5L150.0918535195707,188.5L150.52757859848484,188.5L150.6782429766414,188.5L150.8039506786616,188.5L150.9265156881313,188.5L151.18014946338383,188.5L151.31768847853536,188.5L151.69185375631312,188.5L152.1505020044192,188.5L152.275285385101,188.5L152.60526810290403,188.5L152.95909831123737,188.5L153.08277250631312,188.5L153.23269742739896,188.5L153.37153049242423,188.5L153.49446523042928,188.5L153.6223913036616,188.5L153.86419376578283,188.5L153.96808748421716,188.5L154.08288819444442,188.5L154.18881541982324,188.5L154.4546502367424,188.5L154.58664332386363,188.5L154.71198129734847,188.5L154.94934701704545,188.5L155.11701890782825,188.5L155.24346606691918,188.5L155.51669545454544,188.5L155.64314261363637,188.5L155.8305949810606,188.5L155.9278335858586,188.5L156.18091276830808,188.5L156.3264009469697,188.5L156.4816869318182,188.5L156.78227623106062,188.5L156.92184875315655,188.5L157.29804753787877,188.5L157.418024447601,188.5L157.51766628787877,188.5L157.6648182449495,188.5L157.88610077335858,188.5L158.01421171085858,188.5L158.2517622948232,188.5L158.54347810921718,188.5L158.71688079229799,188.5L158.84425227272726,188.5L158.9625654040404,188.5L159.24781096906565,188.5L159.3794343276515,188.5L159.79796702967172,188.5L160.39193592171716,188.5L160.88848134469694,188.5L161.20774193497473,188.5L161.35359984217172,188.5L161.48799616477274,188.5L161.61814060921716,188.5L161.7259164772727,188.5L162.08677152777776,188.5L162.24279696969697,188.5L162.40529266098483,188.5L162.63933082386362,188.5L163.05509056186867,188.5L163.21222518939393,188.5L163.36806576704544,188.5L163.47048057133838,188.5L163.57899589646465,188.5L163.69915767045453,188.5L163.92580126262624,188.5L164.04134142992422,188.5L164.18202313762626,188.5L164.470411395202,188.5L164.57596889204547,188.5L164.7480775252525,188.5L164.86694524936868,188.5L165.03165931186868,188.5L165.14664488636365,188.5L165.54927926136364,188.5L165.6833058554293,188.5L165.98093732638887,188.5L166.568805697601,188.5L166.68249722222222,188.5L166.95517201704547,188.5L167.07514892676767,188.5L167.21971278409092,188.5L167.37499876893938,188.5L167.51863830492422,188.5L167.67207564709597,188.5L168.15993244949493,188.5L168.61821096906564,188.5L168.77257263257576,188.5L168.92268241792928,188.5L169.052087405303,188.5L169.27484884785352,188.5L169.54863282828282,188.5L169.82999624368685,188.5L170.0374139520202,188.5L170.30343363320705,188.5L170.4136127367424,188.5L170.5300772253788,188.5L170.6700194760101,188.5L170.76023323863635,188.5L171.06341063762625,188.5L171.18116917613634,188.5L171.41835003156564,188.5L171.64832118055554,188.5L171.88125015782828,188.5L172.46634556502522,188.5L172.68762809343434,188.5L172.82997357954545,188.5L173.11410995896466,188.5L173.2004415719697,188.5L173.35313945707068,188.5L173.50269464962122,188.5L173.60954619633839,188.5L173.75096736111112,188.5L173.88591827651516,188.5L174.04194371843434,188.5L174.16617250631313,188.5L174.30740880681816,188.5L176.6418747790404,188.5L177.41386796085857,188.5L178.81957585227272,188.5L179.82764070391414,188.5L180.42345823863639,188.5L180.52624277146464,188.5L180.66285746527777,188.5L180.86306546717174,188.5L181.06013077651514,188.5L181.1934179135101,188.5L181.33372989267676,188.5L181.4611013731061,188.5L181.5897669034091,188.5L181.6836779513889,188.5L182.09037934027776,188.5L182.74775667613636,188.5L184.1468094539141,188.5L185.56305460858584,188.5L187.12183011363635,188.5L188.0237828756313,188.5L189.43817938762623,188.5L190.23790220959597,188.5L191.00102190656565,188.5L191.6913050820707,188.5L192.50359867424243,188.5L193.32199278724744,188.5L194.10748106060606,188.5L194.807562042298,188.5L195.47787987689395,188.5L197.02685757575756,188.5L198.75478388573234,188.5L199.76599142992424,188.5L201.2596947127525,188.5L202.6896198232323,188.5L203.3518036300505,188.5L204.21419543876263,188.5L205.02205228851008,188.5L205.81160757575756,188.5L206.7274251578283,188.5L207.48518379103533,188.5L208.44000773358584,188.5L209.2208744002525,188.5L210.0261431502525,188.5L210.78538069760097,188.5L211.89659981060603,188.5L212.82276979166664,188.5L214.28134886363637,188.5L215.8874496212121,188.5L216.66277035984845,188.5L216.93341164772724,188.5L217.80097965593436,188.5L218.99002662563126,188.5L220.59742143308083,188.5L221.41581554608584,188.5L223.07127506313125,188.5L223.8456714804293,188.5L224.80678080808082,188.5L225.6806342013889,188.5L226.72696595643936,188.5L228.5251406881313,188.5L229.47682193813128,188.5L230.373783364899,188.5L231.11102206439392,188.5L235.7561065183081,188.5L236.58152547348487,188.5L238.1883656881313,188.5L238.9134033459596,188.5L239.5951827651515,188.5L241.36951000631313,188.5L242.20472676767676,188.5L243.76424172979796,188.5L245.29898488005048,188.5L249.46878330176767,188.5L250.33468753156563,188.5L252.6809848169192,188.5L253.54799823232324,188.5L254.32128546401512,188.5L255.09531215277778,188.5L255.92387380050505,188.5L256.80068502209593,188.5L258.2054685921717,188.5L259.6614595643939,188.5L261.08565388257574,188.5L262.2146199652778,188.5L264.6895827809343,188.5L265.6031819917929,188.5L267.7061979008838,188.5L268.5977982638889,188.5L269.5210104166666,188.5L270.24345997474745,188.5L271.95068148674244,188.5L272.84542454229796,188.5L275.02515912247475,188.5L275.6705202809343,188.5L277.14961928661614,188.5L279.69815808080807,188.5L280.2778924242424,188.5L281.81171125315655,188.5L282.7049753945707,188.5L283.5461078125,188.5L284.3580316761363,188.5L285.0727169349747,188.5L286.4177893465909,188.5L287.1883036142676,188.5L287.8608398200758,188.5L288.5095285353535,188.5L289.2131219381313,188.5L289.8536766256313,188.5L290.5376744160354,188.5L291.92545047348483,188.5L293.29658874684344,188.5L293.9582179608586,188.5L296.73266089015146,188.5L298.0146945864899,188.5L302.91895874368686,188.5L307.3701205808081,188.5L308.6957822443182,188.5L311.5364065814394,188.5L313.29354144570704,188.5L316.51628022411614,188.5L318.0308731691919,188.5L319.39665037878785,188.5L323.71637372159086,188.5L325.2455709438131,188.5L328.1871311710858,188.5L334.28617309027777,188.5L338.60848453282824,188.5L340.16078978851004,188.5L341.5766652146464,188.5L342.96776882891413,188.5L344.42875113636364,188.5L345.8815994160354,188.5L347.32076773989894,188.5L350.1904157670454,188.5L351.6077701073232,188.5L353.1286484374999,188.5L354.5341714646464,188.5L355.91344376578286,188.5L357.41380216224746,188.5L358.92673132891406,188.5L363.27455404040404,188.5L364.6545657986111,188.5L366.20206458333325,188.5L375.25727100694434,188.5L378.3554112689394,188.5L379.7903277146465,188.5L381.15444114583335,188.5L382.9047360321969,188.5L384.516382717803,188.5L386.27277812499995,188.5L387.9284225063131,188.5L389.5661350536616,188.5L391.06039292929285,188.5L392.7367421085858,188.5L393.79287166982317,188.5L395.3433282828282,188.5L396.97068843118694,188.5L398.6087707070707,188.5L400.1865872316918,188.5L401.866818560606,188.5L403.46478529040394,188.5L406.6021167771465,188.5L407.9823133996212,188.5L409.5203841066919,188.5L412.231233727904,188.5L414.847802572601,188.5L417.83336049558085,188.5L418.93663044507576,188.5L422.7119285195707,188.5L424.3690518150252,188.5L426.1187921085858,188.5L428.5220275883838,188.5L429.64285964330804,188.5L430.72838262310603,188.5L433.1933627683081,188.5L434.3620746685606,188.5L435.5128547348484,188.5L436.9596024936869,188.5L439.3014630366161,188.5L440.42617724116167,188.5L441.6045020833333,188.5L442.8436472695707,188.5L444.15710789141406,188.5L445.4413599589646,188.5L447.28778426452016,188.5L448.6097486426767,188.5L450.365959185606,188.5L453.65950097853533,188.5L455.21809161931816,188.5L456.43745632891415,188.5L459.74282943497474,188.5L460.86606472537875,188.5L462.0408771464646,188.5L464.4010392518939,188.5L465.54608852588376,188.5L466.6073942866161,188.5L467.76039272411606,188.5L470.0456848011363,188.5L472.3500178977272,188.5L473.53167029671715,188.5L474.7898565025252,188.5L477.08198855744945,188.5L479.81964349747466,188.5L482.25023888888893,188.5L483.3585001736111,188.5L484.6222323074495,188.5L488.0516493371211,188.5L492.49800470328273,188.5L493.5029268623738,188.5L494.4749431818182,188.5L495.5223841224747,188.5L496.5389527304293,188.5L498.5942736584595,188.5L499.67295666035346,188.5L502.8879311395201,188.5L504.0747597380049,188.5L506.1054937184343,188.5L508.23013874684335,188.5L509.2927385574494,188.5L512.664477935606,188.5L514.8381119949495,188.5L515.9574651357324,188.5L517.0897587752524,188.5L519.1345424400253,188.5L520.3380088226008,188.5L521.4950742739899,188.5L522.6266284564393,188.5L523.6114004103534,188.5L524.7538615845959,188.5L525.7641448074495,188.5L527.3545321022726,188.5L528.4150984059343,188.5L532.7660638099749,188.5L533.9368092171717,188.5L536.5809228377525,188.5L538.6203454387627,188.5L539.7478326073233,188.5L540.8318766729798,188.5L541.794834643308,188.5L542.8801727588384,188.5L543.9808546085858,188.5L545.0192372001262,188.5L546.1605891887626,188.5L547.3498210227272,188.5L549.6267942077019,188.5L550.6568579071969,188.5L551.7558759785353,188.5L552.8765231691918,188.5L553.9668526199495,188.5L556.0837333491162,188.5L557.0524221117424,188.5L558.0654782986111,188.5L560.2283902304292,188.5L561.3290720801767,188.5L562.3334396464645,188.5L563.414710748106,188.5L564.547189251894,188.5L565.6896504261363,188.5L566.8154738162879,188.5L567.9255837436868,188.5L568.9952083964646,188.5L571.9887154829546,188.5L574.1599463068181,188.5L576.392182339015,188.5L579.7241758996212,188.5L580.8157994002526,188.5L581.9042802083334,188.5L582.9617038194444,188.5L584.0302192866161,188.5L585.075256991793,188.5L586.1086482481061,188.5L587.2010112058081,188.5L588.2793244791666,188.5L589.3387815972222,188.5L590.3405610637625,188.5L591.5061302714647,188.5L592.5007000315657,188.5L595.6225029198232,188.5L596.710429135101,188.5L597.7179393939394,188.5L599.7941499842171,188.5L600.8582287089646,188.5L603.0505340593434,188.5L604.2480847853535,188.5L605.4238215277777,188.5L606.5191423137626,188.5L607.5956069444445,188.5L608.7221697916667,188.5L612.0101656565656,188.5L613.0973524147726,188.5L614.1344409564393,188.5L618.3378846748737,188.5L619.3553776041667,188.5L621.5689423453283,188.5L622.6971689709595,188.5L623.8499825441919,188.5L624.7572963699495,188.5L626.9987756155302,188.5L629.1894171875,188.5L630.2056160669191,188.5L631.2617456281565,188.5L633.533172885101,188.5L634.7137160984847,188.5L635.6899842960859,188.5L636.655345501894,188.5L637.8593664772727,188.5L638.8064261205807,188.5L639.8335319917929,188.5L640.9238614425506,188.5L644.1604650410353,188.5L645.0709215593433,188.5L647.2040703440656,188.5L649.3928632733586,188.5L650.537542818813,188.5L651.5977393939394,188.5L652.6814137310606,188.5L654.8920206439393,188.5L655.9072952020202,188.5L656.9739620265152,188.5L658.0058743686868,188.5L658.9414724273989,188.5L660.0552796401514,188.5L661.2413687815656,188.5L662.2742054450757,188.5L665.5337322127526,188.5L666.5636110479797,188.5L668.9688800347221,188.5L670.2629299084596,188.5L671.5375690340909,188.5L672.8978003156566,188.5L675.2416943655302,188.5L677.6512152304292,188.5L678.7123361268939,188.5L679.7329717487374,188.5L680.7598927556818,188.5L681.8816491319444,188.5L682.8653119002524,188.5L683.8868718434342,188.5L684.9354219696969,188.5L687.0279006155303,188.5L688.1962427872475,188.5L689.2420199494949,188.5L691.4498538983586,188.5L693.489646227904,188.5L694.4797792455807,188.5L695.6895310132576,188.5L696.8946611742424,188.5L697.988318181818,188.5L699.0492542140151,188.5L701.164286300505,188.5L702.1557133680556,188.5L703.2203466856059,188.5L705.5000928345959,188.5L706.6312772885101,188.5L708.8492787720959,188.5L712.0814456281565,188.5L714.1482281407827,188.5L715.3180492266413,188.5L716.4229829545453,188.5L719.7061723484848,188.5L720.8223827967172,188.5L723.213047506313,188.5L724.3303671401513,188.5L726.4208122790404,188.5L727.5235276357322,188.5L728.6197727430555,188.5L730.7776933396465,188.5L731.7842792771464,188.5L735.0391844381313,188.5L736.0637022095958,188.5L738.2428821969696,188.5L739.2365276357322,188.5L740.3250084438131,188.5L741.4218081439394,188.5L743.4085444286615,188.5L744.5145873421717,188.5L745.6328312973485,188.5L746.7678979008838,188.5L748.9581697443182,188.5L751.1636004577019,188.5L753.2350045770202,188.5L754.322376199495,188.5L755.3995802872474,188.5L756.5209669349748,188.5L757.7479110795455,188.5L762.284665072601,188.5L763.2089864109847,188.5L764.3178022885099,188.5L765.4924298453282,188.5L768.6983459753786,188.5L769.7023438131312,188.5L770.8244699179293,188.5L771.862113052399,188.5L772.8309866792928,188.5L774.8247478061868,188.5L775.9245053345959,188.5L776.9723160037879,188.5L778.1499013888888,188.5L780.3568110164141,188.5L781.3689428819443,188.5L782.3823687973484,188.5L783.5490471906566,188.5L784.6669214172979,188.5L785.7361763415404,188.5L786.7911967171717,188.5L789.0101225220959,188.5L790.0287246369948,188.5L791.0007409564392,188.5L793.2083900410352,188.5L794.3928154040403,188.5L796.621908743687,188.5L797.7501353693182,188.5L801.8384086489897,188.5L802.9577617897726,188.5L805.1147580650252,188.5L806.1392758364898,188.5L807.2534527777776,188.5L808.3742848327018,188.5L809.4653537405302,188.5L810.5022574179292,188.5L811.5269600536616,188.5L813.6473532039141,188.5L814.8064521622475,188.5L815.8135926925504,188.5L816.7617615214645,188.5L818.8161581281564,188.5L819.9216464488635,188.5L821.0103121212121,188.5L821.9893532828283,188.5L823.067481691919,188.5L824.1249053030301,188.5L830.2951199652776,188.5L831.5629191130049,188.5L832.6462237215908,188.5L833.7225034880049,188.5L834.8111691603534,188.5L839.1212795612374,188.5L842.2227473800505,188.5L843.3469069917928,188.5L845.3903966066919,188.5L848.3955501420453,188.5L849.4121187499999,188.5L851.5393518781564,188.5L852.5832803977272,188.5L853.6946843749998,188.5L854.734361016414,188.5L856.9279604166666,188.5L857.988711584596,188.5L859.0017677714645,188.5L860.2272330018939,188.5L861.3504682922978,188.5L862.3677763573231,188.5L863.3893363005049,188.5L864.446205318813,188.5L865.5487358112372,188.5L867.5530342013889,188.5L868.6361539457071,188.5L870.931243828914,188.5L873.0338900094695,188.5L874.0944563131312,188.5L876.3032145833332,188.5L878.5594829703282,188.5L879.5937985479798,188.5L880.609257970328,188.5L881.7539375157828,188.5L885.0979472537879,188.5L886.1903102114899,188.5L887.3052266098483,188.5L888.3752209911615,188.5L890.4660358585858,188.5L891.4951752367424,188.5L893.5571512784089,188.5L894.6582028566918,188.5L899.6040614741161,188.5L900.5832874999998,188.5L902.5528314078282,188.5L903.5396368686868,188.5L905.5748075915403,188.5L906.5863848642676,188.5L907.624212863005,188.5L908.7956977272726,188.5L910.8933525726009,188.5L911.9459697127525,188.5L912.8832315498736,188.5L914.9540810763889,188.5L915.887275899621,188.5L916.8592922190655,188.5L917.9048845170454,188.5L920.0138160827017,188.5L921.1597896780303,188.5L923.3062486900253,188.5L926.7123728219696,188.5L928.9216856849747,188.5L929.9844703598483,188.5L931.0716571180554,188.5L932.0553198863635,188.5L934.1054646148988,188.5L936.1125359690657,188.5L937.2455690656565,188.5L938.3018834911614,188.5L939.4077415404039,188.5L940.4566613952019,188.5L941.530722790404,188.5L942.5350903566917,188.5L943.6073031092171,188.5L944.6467948863635,188.5L947.8357035037877,188.5L948.7966279671716,188.5L949.8747563762624,188.5L955.6369755997475,188.5L956.7820248737372,188.5L958.0071203756312,188.5L959.3762251420453,188.5L961.8853878472221,188.5L963.0860812657827,188.5L964.0370230587121,188.5L965.241413762626,188.5L966.3308188920454,188.5L972.0645690183079,188.5L973.1595200757575,188.5L974.2914439867423,188.5L975.4156035984847,188.5L976.6151878314392,188.5L977.6635530934342,188.5L979.8046510416665,188.5L980.9177187973482,188.5L982.050936758207,188.5L983.1499548295453,188.5L984.3240277935604,188.5L985.3868124684343,188.5L986.3353510258836,188.5L987.4441669034089,188.5L988.6498516571969,188.5L990.6857618371212,188.5L991.7973506786615,188.5L992.8893439078281,188.5L994.0391996527777,188.5L995.1485701231061,188.5L996.2052542771463,188.5L997.3368084595958,188.5L999.5437180871211,188.5L1001.9382649463383,188.5L1004.0566245896464,188.5L1005.2674855429291,188.5L1006.4214083017675,188.5L1008.6331244002524,188.5L1010.7945574179292,188.5L1011.9213051294191,188.5L1014.1705486742422,188.5L1016.579699810606,188.5L1017.7208669349747,188.5L1018.7819878314393,188.5L1020.9822423453281,188.5L1024.24454207702,188.5L1025.3097299873737,188.5L1028.5406027935605,188.5L1030.688910448232,188.5L1033.8805920296716,188.5L1037.2680448705808,188.5L1038.4114303661615,188.5L1039.5769995738635,188.5L1040.8072712752526,188.5L1041.85859436553,188.5L1043.0879417455806,188.5L1044.1107957386362,188.5L1045.1806052556817,188.5L1046.2548515151514,188.5L1047.3244761679293,188.5L1049.454482260101,188.5L1050.5616343592171,188.5L1051.616839599116,188.5L1054.971201736111,188.5L1056.0264069760099,188.5L1058.279162941919,188.5L1059.5081405934343,188.5L1060.6591055239899,188.5L1061.7978694128785,188.5L1063.8502325126262,188.5L1067.2075524779038,188.5L1068.3355942392675,188.5L1069.37619520202,188.5L1070.5088585700757,188.5L1071.5757102588382,188.5L1072.6429316761364,188.5L1073.6835326388887,188.5L1074.5917707859849,188.5L1075.797270675505,188.5L1077.0238450915404,188.5L1078.2114131470958,188.5L1079.337421401515,188.5L1080.280598895202,188.5L1081.3393165561868,188.5L1083.3646894728536,188.5L1084.4790512784089,188.5L1085.6115297821968,188.5L1086.7545455492423,188.5L1088.9403806502526,188.5L1090.1061347222221,188.5L1094.3302832386362,188.5L1097.4165921874999,188.5L1100.8145822916665,188.5L1101.9797817708331,188.5L1102.9501343118686,188.5L1104.1541552872475,188.5L1106.238499905303,188.5L1107.2888986742423,188.5L1108.304727825126,188.5L1109.386368655303,188.5L1110.4554387152778,188.5L1112.526103377525,188.5L1113.5413779356059,188.5L1114.687536395202,188.5L1115.7233308869947,188.5L1116.7472940656564,188.5L1117.8525975220957,188.5L1118.9370113162877,188.5L1120.0009051767677,188.5L1121.1137880681817,188.5L1122.1211134627524,188.5L1123.1837132733583,188.5L1125.3542046401515,188.5L1126.4829858585858,188.5L1128.5906233743685,188.5L1129.7059095012626,188.5L1130.866117645202,188.5L1133.0933623421718,188.5L1134.2132700757575,188.5L1135.3220859532828,188.5L1136.5590127683079,188.5L1137.7837385416667,188.5L1138.9872049242424,188.5L1143.2405619949495,188.5L1145.4955363320707,188.5L1148.9155252840908,188.5L1149.8309731376262,188.5L1151.9757683712119,188.5L1153.0315282039141,188.5L1154.223348137626,188.5L1156.226907070707,188.5L1157.2593740056818,188.5L1158.192014236111,188.5L1159.3067457702018,188.5L1160.3761855587122,188.5L1161.4576415246213,188.5L1162.6405879734848,188.5L1163.929091919192,188.5L1165.0857876420455,188.5L1166.1864694917929,188.5L1168.392269933712,188.5L1169.5637547979798,188.5L1170.6270940656566,188.5L1172.825315072601,188.5L1174.0056734217171,188.5L1175.0780710385102,188.5L1176.267118008207,188.5L1177.331936190025,188.5L1178.4886319128786,188.5L1180.6798280776513,188.5L1181.8197011521463,188.5L1182.8303541035352,188.5L1183.8940630997472,188.5L1184.9226478851008,188.5L1185.94919916351,188.5L1187.0888873737372,188.5L1189.422983617424,188.5L1190.4905747632574,188.5L1191.5537291666667,188.5L1192.642394839015,188.5L1193.645653219697,188.5L1194.7106562657827,188.5L1195.781759832702,188.5L1196.7247524621212,188.5L1200.0144121054293,188.5L1201.1402354955806,188.5L1203.414065988005,188.5L1207.6740781723483,188.5L1208.709502935606,188.5L1210.9774177714646,188.5L1212.0984346906564,188.5L1213.207065703914,188.5L1215.514726357323,188.5L1217.6456567708333,188.5L1218.8629879734847,188.5L1219.9300245265151,188.5L1222.1933177556816,188.5L1223.3912382102271,188.5L1224.4225959595958,188.5L1225.665253566919,188.5L1227.636830981692,188.5L1228.7240177398987,188.5L1229.8069526199495,188.5L1230.8926604640149,188.5L1231.9820655934343,188.5L1234.2015459911615,188.5L1235.4534468118686,188.5L1236.5988658143938,188.5L1238.6878320391413,188.5L1239.7360124368686,188.5L1242.8914606218432,188.5L1245.008895943813,188.5L1246.0790751893937,188.5L1248.2915307449493,188.5L1249.3215944444444,188.5L1250.3984288036615,188.5L1251.5436629419191,188.5L1252.5121668402776,188.5L1253.6324443023989,188.5L1254.8479268623737,188.5L1258.2823352272728,188.5L1259.4320061079545,188.5L1260.5461830492422,188.5L1261.65241082702,188.5L1262.7360851641413,188.5L1263.7964666035352,188.5L1264.9252478219696,188.5L1267.2295809185605,188.5L1268.3041969065655,188.5L1269.4849249842168,188.5L1270.6479060921715,188.5L1271.745075520833,188.5L1273.0071438762625,188.5L1276.1790449810605,188.5L1278.4188604482322,188.5L1279.47813270202,188.5L1280.7265211016413,188.5L1281.855672048611,188.5L1282.9215994160354,188.5L1283.982165719697,188.5L1284.9445690972223,188.5L1285.9628014835857,188.5L1287.060155776515,188.5L1288.0502887941918,188.5L1291.3251592960858,188.5L1292.3073431502523,188.5L1295.437649794823,188.5L1296.5545997001261,188.5L1298.7676098484847,188.5L1299.8823413825755,188.5L1300.9246061237372,188.5L1303.55503978851,188.5L1304.5568192550504,188.5L1305.6323595643937,188.5L1307.6984026199495,188.5L1308.834948137626,188.5L1309.889044191919,188.5L1312.0216383838383,188.5L1313.1674271148988,188.5L1314.2891834911616,188.5L1316.4676240214646,188.5L1317.5176530618687,188.5L1318.6867346906565,188.5L1320.97812728851,188.5L1321.9140950757574,188.5L1324.107139883207,188.5L1325.327059185606,188.5L1326.4547312184343,188.5L1327.695355318813,188.5L1328.6995380208332,188.5L1329.767868623737,188.5L1331.7590416508838,188.5L1332.7892902146464,188.5L1336.1586263573233,188.5L1338.4263563289142,188.5L1341.8886791982322,188.5L1346.2579461647729,188.5L1351.84251082702,188.5L1355.5231583964646,188.5L1356.754909011995,188.5L1357.8424654987373,188.5L1358.942407891414,188.5L1359.9953947601011,188.5L1361.0896063604796,188.5L1363.2521485637626,188.5L1364.579843734217,188.5L1366.761796685606,188.5L1367.8277240530301,188.5L1370.188810479798,188.5L1371.2294114425504,188.5L1372.4367599747472,188.5L1373.41450708649,188.5L1375.579082796717,188.5L1376.922491429924,188.5L1378.1856689709593,188.5L1379.4325784564394,188.5L1380.645842645202,188.5L1381.6618566603534,188.5L1382.6708458333333,188.5L1383.7977784090908,188.5L1384.850025820707,188.5L1385.9948902304293,188.5L1386.9696795138889,188.5L1389.2021004103535,188.5L1390.4427245107322,188.5L1392.741511679293,188.5L1396.1731470801767,188.5L1398.4734131628788,188.5L1403.0068395991161,188.5L1404.1663082859848,188.5L1405.3063662247475,188.5L1406.4443906565655,188.5L1407.4143734690658,188.5" style="fill: none;" fill="none"></path></g></g></g></g><g opacity="0.2"><g><g><g><path stroke="rgb(255, 112, 67)" stroke-width="2px" d="M133.10227272727272,188.5L133.36459512310606,188.5L133.62895102588385,188.5L133.772405697601,188.5L134.02271191603535,188.5L134.2711694917929,188.5L134.39669232954546,188.5L134.51851788194446,188.5L134.69672703598485,188.5L134.84572763573235,188.5L134.99491309974746,188.5L135.13023374368686,188.5L135.2733186868687,188.5L135.39458964646465,188.5L135.49478607954546,188.5L135.6103262468434,188.5L135.87560647095958,188.5L136.17527144886364,188.5L136.28674460227273,188.5L136.97721264204546,188.5L137.13896887626262,188.5L137.24101395202018,188.5L137.40073667929292,188.5L137.5362421875,188.5L137.76473442234848,188.5L138.1897373737374,188.5L138.33855310921717,188.5L138.57333072916666,188.5L138.68591306818183,188.5L138.84563579545454,188.5L138.99981259469698,188.5L139.21480973800504,188.5L139.5011644886364,188.5L139.6375943181818,188.5L139.99290344065656,188.5L140.14671051136364,188.5L140.26446904987372,188.5L140.37686652462122,188.5L140.55951242108586,188.5L140.93959335542928,188.5L141.05550325126262,188.5L141.1703039614899,188.5L141.33816071654041,188.5L141.483094302399,188.5L141.59863446969698,188.5L141.70067954545453,188.5L141.84247043876263,188.5L141.95856519886362,188.5L142.08279398674244,188.5L142.32829373421717,188.5L142.46158087121213,188.5L142.61353929924243,188.5L142.7695647411616,188.5L143.0808761679293,188.5L143.3322915719697,188.5L143.4365550189394,188.5L143.71680924873735,188.5L143.84251695075758,188.5L144.11537660984848,188.5L144.21890059974746,188.5L144.30430789141414,188.5L144.42206642992423,188.5L144.54943791035353,188.5L144.66553267045452,188.5L144.93765287247473,188.5L145.1084674558081,188.5L145.23583893623737,188.5L145.34712722537878,188.5L145.9701198074495,188.5L146.11043178661615,188.5L146.3463185921717,188.5L146.60217073863637,188.5L146.72713898358586,188.5L146.8188316603535,188.5L147.17820779671717,188.5L147.2804377367424,188.5L147.6926850536616,188.5L148.16889540719694,188.5L149.11299722222222,188.5L149.96559122474747,188.5L150.0918535195707,188.5L150.52757859848484,188.5L150.6782429766414,188.5L150.8039506786616,188.5L150.9265156881313,188.5L151.18014946338383,188.5L151.31768847853536,188.5L151.69185375631312,188.5L152.1505020044192,188.5L152.275285385101,188.5L152.60526810290403,188.5L152.95909831123737,188.5L153.08277250631312,188.5L153.23269742739896,188.5L153.37153049242423,188.5L153.49446523042928,188.5L153.6223913036616,188.5L153.86419376578283,188.5L153.96808748421716,188.5L154.08288819444442,188.5L154.18881541982324,188.5L154.4546502367424,188.5L154.58664332386363,188.5L154.71198129734847,188.5L154.94934701704545,188.5L155.11701890782825,188.5L155.24346606691918,188.5L155.51669545454544,188.5L155.64314261363637,188.5L155.8305949810606,188.5L155.9278335858586,188.5L156.18091276830808,188.5L156.3264009469697,188.5L156.4816869318182,188.5L156.78227623106062,188.5L156.92184875315655,188.5L157.29804753787877,188.5L157.418024447601,188.5L157.51766628787877,188.5L157.6648182449495,188.5L157.88610077335858,188.5L158.01421171085858,188.5L158.2517622948232,188.5L158.54347810921718,188.5L158.71688079229799,188.5L158.84425227272726,188.5L158.9625654040404,188.5L159.24781096906565,188.5L159.3794343276515,188.5L159.79796702967172,188.5L160.39193592171716,188.5L160.88848134469694,188.5L161.20774193497473,188.5L161.35359984217172,188.5L161.48799616477274,188.5L161.61814060921716,188.5L161.7259164772727,188.5L162.08677152777776,188.5L162.24279696969697,188.5L162.40529266098483,188.5L162.63933082386362,188.5L163.05509056186867,188.5L163.21222518939393,188.5L163.36806576704544,188.5L163.47048057133838,188.5L163.57899589646465,188.5L163.69915767045453,188.5L163.92580126262624,188.5L164.04134142992422,188.5L164.18202313762626,188.5L164.470411395202,188.5L164.57596889204547,188.5L164.7480775252525,188.5L164.86694524936868,188.5L165.03165931186868,188.5L165.14664488636365,188.5L165.54927926136364,188.5L165.6833058554293,188.5L165.98093732638887,188.5L166.568805697601,188.5L166.68249722222222,188.5L166.95517201704547,188.5L167.07514892676767,188.5L167.21971278409092,188.5L167.37499876893938,188.5L167.51863830492422,188.5L167.67207564709597,188.5L168.15993244949493,188.5L168.61821096906564,188.5L168.77257263257576,188.5L168.92268241792928,188.5L169.052087405303,188.5L169.27484884785352,188.5L169.54863282828282,188.5L169.82999624368685,188.5L170.0374139520202,188.5L170.30343363320705,188.5L170.4136127367424,188.5L170.5300772253788,188.5L170.6700194760101,188.5L170.76023323863635,188.5L171.06341063762625,188.5L171.18116917613634,188.5L171.41835003156564,188.5L171.64832118055554,188.5L171.88125015782828,188.5L172.46634556502522,188.5L172.68762809343434,188.5L172.82997357954545,188.5L173.11410995896466,188.5L173.2004415719697,188.5L173.35313945707068,188.5L173.50269464962122,188.5L173.60954619633839,188.5L173.75096736111112,188.5L173.88591827651516,188.5L174.04194371843434,188.5L174.16617250631313,188.5L174.30740880681816,188.5L176.6418747790404,188.5L177.41386796085857,188.5L178.81957585227272,188.5L179.82764070391414,188.5L180.42345823863639,188.5L180.52624277146464,188.5L180.66285746527777,188.5L180.86306546717174,188.5L181.06013077651514,188.5L181.1934179135101,188.5L181.33372989267676,188.5L181.4611013731061,188.5L181.5897669034091,188.5L181.6836779513889,188.5L182.09037934027776,188.5L182.74775667613636,188.5L184.1468094539141,188.5L185.56305460858584,188.5L187.12183011363635,188.5L188.0237828756313,188.5L189.43817938762623,188.5L190.23790220959597,188.5L191.00102190656565,188.5L191.6913050820707,188.5L192.50359867424243,188.5L193.32199278724744,188.5L194.10748106060606,188.5L194.807562042298,188.5L195.47787987689395,188.5L197.02685757575756,188.5L198.75478388573234,188.5L199.76599142992424,188.5L201.2596947127525,188.5L202.6896198232323,188.5L203.3518036300505,188.5L204.21419543876263,188.5L205.02205228851008,188.5L205.81160757575756,188.5L206.7274251578283,188.5L207.48518379103533,188.5L208.44000773358584,188.5L209.2208744002525,188.5L210.0261431502525,188.5L210.78538069760097,188.5L211.89659981060603,188.5L212.82276979166664,188.5L214.28134886363637,188.5L215.8874496212121,188.5L216.66277035984845,188.5L216.93341164772724,188.5L217.80097965593436,188.5L218.99002662563126,188.5L220.59742143308083,188.5L221.41581554608584,188.5L223.07127506313125,188.5L223.8456714804293,188.5L224.80678080808082,188.5L225.6806342013889,188.5L226.72696595643936,188.5L228.5251406881313,188.5L229.47682193813128,188.5L230.373783364899,188.5L231.11102206439392,188.5L235.7561065183081,188.5L236.58152547348487,188.5L238.1883656881313,188.5L238.9134033459596,188.5L239.5951827651515,188.5L241.36951000631313,188.5L242.20472676767676,188.5L243.76424172979796,188.5L245.29898488005048,188.5L249.46878330176767,188.5L250.33468753156563,188.5L252.6809848169192,188.5L253.54799823232324,188.5L254.32128546401512,188.5L255.09531215277778,188.5L255.92387380050505,188.5L256.80068502209593,188.5L258.2054685921717,188.5L259.6614595643939,188.5L261.08565388257574,188.5L262.2146199652778,188.5L264.6895827809343,188.5L265.6031819917929,188.5L267.7061979008838,188.5L268.5977982638889,188.5L269.5210104166666,188.5L270.24345997474745,188.5L271.95068148674244,188.5L272.84542454229796,188.5L275.02515912247475,188.5L275.6705202809343,188.5L277.14961928661614,188.5L279.69815808080807,188.5L280.2778924242424,188.5L281.81171125315655,188.5L282.7049753945707,188.5L283.5461078125,188.5L284.3580316761363,188.5L285.0727169349747,188.5L286.4177893465909,188.5L287.1883036142676,188.5L287.8608398200758,188.5L288.5095285353535,188.5L289.2131219381313,188.5L289.8536766256313,188.5L290.5376744160354,188.5L291.92545047348483,188.5L293.29658874684344,188.5L293.9582179608586,188.5L296.73266089015146,188.5L298.0146945864899,188.5L302.91895874368686,188.5L307.3701205808081,188.5L308.6957822443182,188.5L311.5364065814394,188.5L313.29354144570704,188.5L316.51628022411614,188.5L318.0308731691919,188.5L319.39665037878785,188.5L323.71637372159086,188.5L325.2455709438131,188.5L328.1871311710858,188.5L334.28617309027777,188.5L338.60848453282824,188.5L340.16078978851004,188.5L341.5766652146464,188.5L342.96776882891413,188.5L344.42875113636364,188.5L345.8815994160354,188.5L347.32076773989894,188.5L350.1904157670454,188.5L351.6077701073232,188.5L353.1286484374999,188.5L354.5341714646464,188.5L355.91344376578286,188.5L357.41380216224746,188.5L358.92673132891406,188.5L363.27455404040404,188.5L364.6545657986111,188.5L366.20206458333325,188.5L375.25727100694434,188.5L378.3554112689394,188.5L379.7903277146465,188.5L381.15444114583335,188.5L382.9047360321969,188.5L384.516382717803,188.5L386.27277812499995,188.5L387.9284225063131,188.5L389.5661350536616,188.5L391.06039292929285,188.5L392.7367421085858,188.5L393.79287166982317,188.5L395.3433282828282,188.5L396.97068843118694,188.5L398.6087707070707,188.5L400.1865872316918,188.5L401.866818560606,188.5L403.46478529040394,188.5L406.6021167771465,188.5L407.9823133996212,188.5L409.5203841066919,188.5L412.231233727904,188.5L414.847802572601,188.5L417.83336049558085,188.5L418.93663044507576,188.5L422.7119285195707,188.5L424.3690518150252,188.5L426.1187921085858,188.5L428.5220275883838,188.5L429.64285964330804,188.5L430.72838262310603,188.5L433.1933627683081,188.5L434.3620746685606,188.5L435.5128547348484,188.5L436.9596024936869,188.5L439.3014630366161,188.5L440.42617724116167,188.5L441.6045020833333,188.5L442.8436472695707,188.5L444.15710789141406,188.5L445.4413599589646,188.5L447.28778426452016,188.5L448.6097486426767,188.5L450.365959185606,188.5L453.65950097853533,188.5L455.21809161931816,188.5L456.43745632891415,188.5L459.74282943497474,188.5L460.86606472537875,188.5L462.0408771464646,188.5L464.4010392518939,188.5L465.54608852588376,188.5L466.6073942866161,188.5L467.76039272411606,188.5L470.0456848011363,188.5L472.3500178977272,188.5L473.53167029671715,188.5L474.7898565025252,188.5L477.08198855744945,188.5L479.81964349747466,188.5L482.25023888888893,188.5L483.3585001736111,188.5L484.6222323074495,188.5L488.0516493371211,188.5L492.49800470328273,188.5L493.5029268623738,188.5L494.4749431818182,188.5L495.5223841224747,188.5L496.5389527304293,188.5L498.5942736584595,188.5L499.67295666035346,188.5L502.8879311395201,188.5L504.0747597380049,188.5L506.1054937184343,188.5L508.23013874684335,188.5L509.2927385574494,188.5L512.664477935606,188.5L514.8381119949495,188.5L515.9574651357324,188.5L517.0897587752524,188.5L519.1345424400253,188.5L520.3380088226008,188.5L521.4950742739899,188.5L522.6266284564393,188.5L523.6114004103534,188.5L524.7538615845959,188.5L525.7641448074495,188.5L527.3545321022726,188.5L528.4150984059343,188.5L532.7660638099749,188.5L533.9368092171717,188.5L536.5809228377525,188.5L538.6203454387627,188.5L539.7478326073233,188.5L540.8318766729798,188.5L541.794834643308,188.5L542.8801727588384,188.5L543.9808546085858,188.5L545.0192372001262,188.5L546.1605891887626,188.5L547.3498210227272,188.5L549.6267942077019,188.5L550.6568579071969,188.5L551.7558759785353,188.5L552.8765231691918,188.5L553.9668526199495,188.5L556.0837333491162,188.5L557.0524221117424,188.5L558.0654782986111,188.5L560.2283902304292,188.5L561.3290720801767,188.5L562.3334396464645,188.5L563.414710748106,188.5L564.547189251894,188.5L565.6896504261363,188.5L566.8154738162879,188.5L567.9255837436868,188.5L568.9952083964646,188.5L571.9887154829546,188.5L574.1599463068181,188.5L576.392182339015,188.5L579.7241758996212,188.5L580.8157994002526,188.5L581.9042802083334,188.5L582.9617038194444,188.5L584.0302192866161,188.5L585.075256991793,188.5L586.1086482481061,188.5L587.2010112058081,188.5L588.2793244791666,188.5L589.3387815972222,188.5L590.3405610637625,188.5L591.5061302714647,188.5L592.5007000315657,188.5L595.6225029198232,188.5L596.710429135101,188.5L597.7179393939394,188.5L599.7941499842171,188.5L600.8582287089646,188.5L603.0505340593434,188.5L604.2480847853535,188.5L605.4238215277777,188.5L606.5191423137626,188.5L607.5956069444445,188.5L608.7221697916667,188.5L612.0101656565656,188.5L613.0973524147726,188.5L614.1344409564393,188.5L618.3378846748737,188.5L619.3553776041667,188.5L621.5689423453283,188.5L622.6971689709595,188.5L623.8499825441919,188.5L624.7572963699495,188.5L626.9987756155302,188.5L629.1894171875,188.5L630.2056160669191,188.5L631.2617456281565,188.5L633.533172885101,188.5L634.7137160984847,188.5L635.6899842960859,188.5L636.655345501894,188.5L637.8593664772727,188.5L638.8064261205807,188.5L639.8335319917929,188.5L640.9238614425506,188.5L644.1604650410353,188.5L645.0709215593433,188.5L647.2040703440656,188.5L649.3928632733586,188.5L650.537542818813,188.5L651.5977393939394,188.5L652.6814137310606,188.5L654.8920206439393,188.5L655.9072952020202,188.5L656.9739620265152,188.5L658.0058743686868,188.5L658.9414724273989,188.5L660.0552796401514,188.5L661.2413687815656,188.5L662.2742054450757,188.5L665.5337322127526,188.5L666.5636110479797,188.5L668.9688800347221,188.5L670.2629299084596,188.5L671.5375690340909,188.5L672.8978003156566,188.5L675.2416943655302,188.5L677.6512152304292,188.5L678.7123361268939,188.5L679.7329717487374,188.5L680.7598927556818,188.5L681.8816491319444,188.5L682.8653119002524,188.5L683.8868718434342,188.5L684.9354219696969,188.5L687.0279006155303,188.5L688.1962427872475,188.5L689.2420199494949,188.5L691.4498538983586,188.5L693.489646227904,188.5L694.4797792455807,188.5L695.6895310132576,188.5L696.8946611742424,188.5L697.988318181818,188.5L699.0492542140151,188.5L701.164286300505,188.5L702.1557133680556,188.5L703.2203466856059,188.5L705.5000928345959,188.5L706.6312772885101,188.5L708.8492787720959,188.5L712.0814456281565,188.5L714.1482281407827,188.5L715.3180492266413,188.5L716.4229829545453,188.5L719.7061723484848,188.5L720.8223827967172,188.5L723.213047506313,188.5L724.3303671401513,188.5L726.4208122790404,188.5L727.5235276357322,188.5L728.6197727430555,188.5L730.7776933396465,188.5L731.7842792771464,188.5L735.0391844381313,188.5L736.0637022095958,188.5L738.2428821969696,188.5L739.2365276357322,188.5L740.3250084438131,188.5L741.4218081439394,188.5L743.4085444286615,188.5L744.5145873421717,188.5L745.6328312973485,188.5L746.7678979008838,188.5L748.9581697443182,188.5L751.1636004577019,188.5L753.2350045770202,188.5L754.322376199495,188.5L755.3995802872474,188.5L756.5209669349748,188.5L757.7479110795455,188.5L762.284665072601,188.5L763.2089864109847,188.5L764.3178022885099,188.5L765.4924298453282,188.5L768.6983459753786,188.5L769.7023438131312,188.5L770.8244699179293,188.5L771.862113052399,188.5L772.8309866792928,188.5L774.8247478061868,188.5L775.9245053345959,188.5L776.9723160037879,188.5L778.1499013888888,188.5L780.3568110164141,188.5L781.3689428819443,188.5L782.3823687973484,188.5L783.5490471906566,188.5L784.6669214172979,188.5L785.7361763415404,188.5L786.7911967171717,188.5L789.0101225220959,188.5L790.0287246369948,188.5L791.0007409564392,188.5L793.2083900410352,188.5L794.3928154040403,188.5L796.621908743687,188.5L797.7501353693182,188.5L801.8384086489897,188.5L802.9577617897726,188.5L805.1147580650252,188.5L806.1392758364898,188.5L807.2534527777776,188.5L808.3742848327018,188.5L809.4653537405302,188.5L810.5022574179292,188.5L811.5269600536616,188.5L813.6473532039141,188.5L814.8064521622475,188.5L815.8135926925504,188.5L816.7617615214645,188.5L818.8161581281564,188.5L819.9216464488635,188.5L821.0103121212121,188.5L821.9893532828283,188.5L823.067481691919,188.5L824.1249053030301,188.5L830.2951199652776,188.5L831.5629191130049,188.5L832.6462237215908,188.5L833.7225034880049,188.5L834.8111691603534,188.5L839.1212795612374,188.5L842.2227473800505,188.5L843.3469069917928,188.5L845.3903966066919,188.5L848.3955501420453,188.5L849.4121187499999,188.5L851.5393518781564,188.5L852.5832803977272,188.5L853.6946843749998,188.5L854.734361016414,188.5L856.9279604166666,188.5L857.988711584596,188.5L859.0017677714645,188.5L860.2272330018939,188.5L861.3504682922978,188.5L862.3677763573231,188.5L863.3893363005049,188.5L864.446205318813,188.5L865.5487358112372,188.5L867.5530342013889,188.5L868.6361539457071,188.5L870.931243828914,188.5L873.0338900094695,188.5L874.0944563131312,188.5L876.3032145833332,188.5L878.5594829703282,188.5L879.5937985479798,188.5L880.609257970328,188.5L881.7539375157828,188.5L885.0979472537879,188.5L886.1903102114899,188.5L887.3052266098483,188.5L888.3752209911615,188.5L890.4660358585858,188.5L891.4951752367424,188.5L893.5571512784089,188.5L894.6582028566918,188.5L899.6040614741161,188.5L900.5832874999998,188.5L902.5528314078282,188.5L903.5396368686868,188.5L905.5748075915403,188.5L906.5863848642676,188.5L907.624212863005,188.5L908.7956977272726,188.5L910.8933525726009,188.5L911.9459697127525,188.5L912.8832315498736,188.5L914.9540810763889,188.5L915.887275899621,188.5L916.8592922190655,188.5L917.9048845170454,188.5L920.0138160827017,188.5L921.1597896780303,188.5L923.3062486900253,188.5L926.7123728219696,188.5L928.9216856849747,188.5L929.9844703598483,188.5L931.0716571180554,188.5L932.0553198863635,188.5L934.1054646148988,188.5L936.1125359690657,188.5L937.2455690656565,188.5L938.3018834911614,188.5L939.4077415404039,188.5L940.4566613952019,188.5L941.530722790404,188.5L942.5350903566917,188.5L943.6073031092171,188.5L944.6467948863635,188.5L947.8357035037877,188.5L948.7966279671716,188.5L949.8747563762624,188.5L955.6369755997475,188.5L956.7820248737372,188.5L958.0071203756312,188.5L959.3762251420453,188.5L961.8853878472221,188.5L963.0860812657827,188.5L964.0370230587121,188.5L965.241413762626,188.5L966.3308188920454,188.5L972.0645690183079,188.5L973.1595200757575,188.5L974.2914439867423,188.5L975.4156035984847,188.5L976.6151878314392,188.5L977.6635530934342,188.5L979.8046510416665,188.5L980.9177187973482,188.5L982.050936758207,188.5L983.1499548295453,188.5L984.3240277935604,188.5L985.3868124684343,188.5L986.3353510258836,188.5L987.4441669034089,188.5L988.6498516571969,188.5L990.6857618371212,188.5L991.7973506786615,188.5L992.8893439078281,188.5L994.0391996527777,188.5L995.1485701231061,188.5L996.2052542771463,188.5L997.3368084595958,188.5L999.5437180871211,188.5L1001.9382649463383,188.5L1004.0566245896464,188.5L1005.2674855429291,188.5L1006.4214083017675,188.5L1008.6331244002524,188.5L1010.7945574179292,188.5L1011.9213051294191,188.5L1014.1705486742422,188.5L1016.579699810606,188.5L1017.7208669349747,188.5L1018.7819878314393,188.5L1020.9822423453281,188.5L1024.24454207702,188.5L1025.3097299873737,188.5L1028.5406027935605,188.5L1030.688910448232,188.5L1033.8805920296716,188.5L1037.2680448705808,188.5L1038.4114303661615,188.5L1039.5769995738635,188.5L1040.8072712752526,188.5L1041.85859436553,188.5L1043.0879417455806,188.5L1044.1107957386362,188.5L1045.1806052556817,188.5L1046.2548515151514,188.5L1047.3244761679293,188.5L1049.454482260101,188.5L1050.5616343592171,188.5L1051.616839599116,188.5L1054.971201736111,188.5L1056.0264069760099,188.5L1058.279162941919,188.5L1059.5081405934343,188.5L1060.6591055239899,188.5L1061.7978694128785,188.5L1063.8502325126262,188.5L1067.2075524779038,188.5L1068.3355942392675,188.5L1069.37619520202,188.5L1070.5088585700757,188.5L1071.5757102588382,188.5L1072.6429316761364,188.5L1073.6835326388887,188.5L1074.5917707859849,188.5L1075.797270675505,188.5L1077.0238450915404,188.5L1078.2114131470958,188.5L1079.337421401515,188.5L1080.280598895202,188.5L1081.3393165561868,188.5L1083.3646894728536,188.5L1084.4790512784089,188.5L1085.6115297821968,188.5L1086.7545455492423,188.5L1088.9403806502526,188.5L1090.1061347222221,188.5L1094.3302832386362,188.5L1097.4165921874999,188.5L1100.8145822916665,188.5L1101.9797817708331,188.5L1102.9501343118686,188.5L1104.1541552872475,188.5L1106.238499905303,188.5L1107.2888986742423,188.5L1108.304727825126,188.5L1109.386368655303,188.5L1110.4554387152778,188.5L1112.526103377525,188.5L1113.5413779356059,188.5L1114.687536395202,188.5L1115.7233308869947,188.5L1116.7472940656564,188.5L1117.8525975220957,188.5L1118.9370113162877,188.5L1120.0009051767677,188.5L1121.1137880681817,188.5L1122.1211134627524,188.5L1123.1837132733583,188.5L1125.3542046401515,188.5L1126.4829858585858,188.5L1128.5906233743685,188.5L1129.7059095012626,188.5L1130.866117645202,188.5L1133.0933623421718,188.5L1134.2132700757575,188.5L1135.3220859532828,188.5L1136.5590127683079,188.5L1137.7837385416667,188.5L1138.9872049242424,188.5L1143.2405619949495,188.5L1145.4955363320707,188.5L1148.9155252840908,188.5L1149.8309731376262,188.5L1151.9757683712119,188.5L1153.0315282039141,188.5L1154.223348137626,188.5L1156.226907070707,188.5L1157.2593740056818,188.5L1158.192014236111,188.5L1159.3067457702018,188.5L1160.3761855587122,188.5L1161.4576415246213,188.5L1162.6405879734848,188.5L1163.929091919192,188.5L1165.0857876420455,188.5L1166.1864694917929,188.5L1168.392269933712,188.5L1169.5637547979798,188.5L1170.6270940656566,188.5L1172.825315072601,188.5L1174.0056734217171,188.5L1175.0780710385102,188.5L1176.267118008207,188.5L1177.331936190025,188.5L1178.4886319128786,188.5L1180.6798280776513,188.5L1181.8197011521463,188.5L1182.8303541035352,188.5L1183.8940630997472,188.5L1184.9226478851008,188.5L1185.94919916351,188.5L1187.0888873737372,188.5L1189.422983617424,188.5L1190.4905747632574,188.5L1191.5537291666667,188.5L1192.642394839015,188.5L1193.645653219697,188.5L1194.7106562657827,188.5L1195.781759832702,188.5L1196.7247524621212,188.5L1200.0144121054293,188.5L1201.1402354955806,188.5L1203.414065988005,188.5L1207.6740781723483,188.5L1208.709502935606,188.5L1210.9774177714646,188.5L1212.0984346906564,188.5L1213.207065703914,188.5L1215.514726357323,188.5L1217.6456567708333,188.5L1218.8629879734847,188.5L1219.9300245265151,188.5L1222.1933177556816,188.5L1223.3912382102271,188.5L1224.4225959595958,188.5L1225.665253566919,188.5L1227.636830981692,188.5L1228.7240177398987,188.5L1229.8069526199495,188.5L1230.8926604640149,188.5L1231.9820655934343,188.5L1234.2015459911615,188.5L1235.4534468118686,188.5L1236.5988658143938,188.5L1238.6878320391413,188.5L1239.7360124368686,188.5L1242.8914606218432,188.5L1245.008895943813,188.5L1246.0790751893937,188.5L1248.2915307449493,188.5L1249.3215944444444,188.5L1250.3984288036615,188.5L1251.5436629419191,188.5L1252.5121668402776,188.5L1253.6324443023989,188.5L1254.8479268623737,188.5L1258.2823352272728,188.5L1259.4320061079545,188.5L1260.5461830492422,188.5L1261.65241082702,188.5L1262.7360851641413,188.5L1263.7964666035352,188.5L1264.9252478219696,188.5L1267.2295809185605,188.5L1268.3041969065655,188.5L1269.4849249842168,188.5L1270.6479060921715,188.5L1271.745075520833,188.5L1273.0071438762625,188.5L1276.1790449810605,188.5L1278.4188604482322,188.5L1279.47813270202,188.5L1280.7265211016413,188.5L1281.855672048611,188.5L1282.9215994160354,188.5L1283.982165719697,188.5L1284.9445690972223,188.5L1285.9628014835857,188.5L1287.060155776515,188.5L1288.0502887941918,188.5L1291.3251592960858,188.5L1292.3073431502523,188.5L1295.437649794823,188.5L1296.5545997001261,188.5L1298.7676098484847,188.5L1299.8823413825755,188.5L1300.9246061237372,188.5L1303.55503978851,188.5L1304.5568192550504,188.5L1305.6323595643937,188.5L1307.6984026199495,188.5L1308.834948137626,188.5L1309.889044191919,188.5L1312.0216383838383,188.5L1313.1674271148988,188.5L1314.2891834911616,188.5L1316.4676240214646,188.5L1317.5176530618687,188.5L1318.6867346906565,188.5L1320.97812728851,188.5L1321.9140950757574,188.5L1324.107139883207,188.5L1325.327059185606,188.5L1326.4547312184343,188.5L1327.695355318813,188.5L1328.6995380208332,188.5L1329.767868623737,188.5L1331.7590416508838,188.5L1332.7892902146464,188.5L1336.1586263573233,188.5L1338.4263563289142,188.5L1341.8886791982322,188.5L1346.2579461647729,188.5L1351.84251082702,188.5L1355.5231583964646,188.5L1356.754909011995,188.5L1357.8424654987373,188.5L1358.942407891414,188.5L1359.9953947601011,188.5L1361.0896063604796,188.5L1363.2521485637626,188.5L1364.579843734217,188.5L1366.761796685606,188.5L1367.8277240530301,188.5L1370.188810479798,188.5L1371.2294114425504,188.5L1372.4367599747472,188.5L1373.41450708649,188.5L1375.579082796717,188.5L1376.922491429924,188.5L1378.1856689709593,188.5L1379.4325784564394,188.5L1380.645842645202,188.5L1381.6618566603534,188.5L1382.6708458333333,188.5L1383.7977784090908,188.5L1384.850025820707,188.5L1385.9948902304293,188.5L1386.9696795138889,188.5L1389.2021004103535,188.5L1390.4427245107322,188.5L1392.741511679293,188.5L1396.1731470801767,188.5L1398.4734131628788,188.5L1403.0068395991161,188.5L1404.1663082859848,188.5L1405.3063662247475,188.5L1406.4443906565655,188.5L1407.4143734690658,188.5" style="fill: none;" fill="none"></path></g></g></g></g></g></g><g transform="translate(48, 377)" clip-path="url(#clip_1)"><clipPath id="clip_1"><rect width="1464" height="23"></rect></clipPath><g><g><line x1="0" y1="0" x2="0" y2="5" style="visibility: inherit;" fill="rgb(0, 0, 0)" stroke="rgb(204, 204, 204)" stroke-width="1px"></line><line x1="133.10227272727272" y1="0" x2="133.10227272727272" y2="5" style="visibility: inherit;" fill="rgb(0, 0, 0)" stroke="rgb(204, 204, 204)" stroke-width="1px"></line><line x1="266.20454545454544" y1="0" x2="266.20454545454544" y2="5" style="visibility: inherit;" fill="rgb(0, 0, 0)" stroke="rgb(204, 204, 204)" stroke-width="1px"></line><line x1="399.30681818181824" y1="0" x2="399.30681818181824" y2="5" style="visibility: inherit;" fill="rgb(0, 0, 0)" stroke="rgb(204, 204, 204)" stroke-width="1px"></line><line x1="532.4090909090909" y1="0" x2="532.4090909090909" y2="5" style="visibility: inherit;" fill="rgb(0, 0, 0)" stroke="rgb(204, 204, 204)" stroke-width="1px"></line><line x1="665.5113636363636" y1="0" x2="665.5113636363636" y2="5" style="visibility: inherit;" fill="rgb(0, 0, 0)" stroke="rgb(204, 204, 204)" stroke-width="1px"></line><line x1="798.6136363636363" y1="0" x2="798.6136363636363" y2="5" style="visibility: inherit;" fill="rgb(0, 0, 0)" stroke="rgb(204, 204, 204)" stroke-width="1px"></line><line x1="931.7159090909089" y1="0" x2="931.7159090909089" y2="5" style="visibility: inherit;" fill="rgb(0, 0, 0)" stroke="rgb(204, 204, 204)" stroke-width="1px"></line><line x1="1064.8181818181818" y1="0" x2="1064.8181818181818" y2="5" style="visibility: inherit;" fill="rgb(0, 0, 0)" stroke="rgb(204, 204, 204)" stroke-width="1px"></line><line x1="1197.9204545454545" y1="0" x2="1197.9204545454545" y2="5" style="visibility: inherit;" fill="rgb(0, 0, 0)" stroke="rgb(204, 204, 204)" stroke-width="1px"></line><line x1="1331.0227272727273" y1="0" x2="1331.0227272727273" y2="5" style="visibility: inherit;" fill="rgb(0, 0, 0)" stroke="rgb(204, 204, 204)" stroke-width="1px"></line><line x1="1464.125" y1="0" x2="1464.125" y2="5" style="visibility: inherit;" fill="rgb(0, 0, 0)" stroke="rgb(204, 204, 204)" stroke-width="1px"></line></g><g transform="translate(0, 8)"><text x="0" y="0" dx="0em" dy="0.95em" style="text-anchor: middle; visibility: hidden; font-family: &quot;Helvetica Neue&quot;, sans-serif; font-size: 12px; font-weight: 200;" fill="rgb(50, 49, 63)" stroke="none" stroke-width="1px">-0.2</text><text x="133.10227272727272" y="0" dx="0em" dy="0.95em" style="text-anchor: middle; visibility: inherit; font-family: &quot;Helvetica Neue&quot;, sans-serif; font-size: 12px; font-weight: 200;" fill="rgb(50, 49, 63)" stroke="none" stroke-width="1px">0</text><text x="266.20454545454544" y="0" dx="0em" dy="0.95em" style="text-anchor: middle; visibility: inherit; font-family: &quot;Helvetica Neue&quot;, sans-serif; font-size: 12px; font-weight: 200;" fill="rgb(50, 49, 63)" stroke="none" stroke-width="1px">0.2</text><text x="399.30681818181824" y="0" dx="0em" dy="0.95em" style="text-anchor: middle; visibility: inherit; font-family: &quot;Helvetica Neue&quot;, sans-serif; font-size: 12px; font-weight: 200;" fill="rgb(50, 49, 63)" stroke="none" stroke-width="1px">0.4</text><text x="532.4090909090909" y="0" dx="0em" dy="0.95em" style="text-anchor: middle; visibility: inherit; font-family: &quot;Helvetica Neue&quot;, sans-serif; font-size: 12px; font-weight: 200;" fill="rgb(50, 49, 63)" stroke="none" stroke-width="1px">0.6</text><text x="665.5113636363636" y="0" dx="0em" dy="0.95em" style="text-anchor: middle; visibility: inherit; font-family: &quot;Helvetica Neue&quot;, sans-serif; font-size: 12px; font-weight: 200;" fill="rgb(50, 49, 63)" stroke="none" stroke-width="1px">0.8</text><text x="798.6136363636363" y="0" dx="0em" dy="0.95em" style="text-anchor: middle; visibility: inherit; font-family: &quot;Helvetica Neue&quot;, sans-serif; font-size: 12px; font-weight: 200;" fill="rgb(50, 49, 63)" stroke="none" stroke-width="1px">1</text><text x="931.7159090909089" y="0" dx="0em" dy="0.95em" style="text-anchor: middle; visibility: inherit; font-family: &quot;Helvetica Neue&quot;, sans-serif; font-size: 12px; font-weight: 200;" fill="rgb(50, 49, 63)" stroke="none" stroke-width="1px">1.2</text><text x="1064.8181818181818" y="0" dx="0em" dy="0.95em" style="text-anchor: middle; visibility: inherit; font-family: &quot;Helvetica Neue&quot;, sans-serif; font-size: 12px; font-weight: 200;" fill="rgb(50, 49, 63)" stroke="none" stroke-width="1px">1.4</text><text x="1197.9204545454545" y="0" dx="0em" dy="0.95em" style="text-anchor: middle; visibility: inherit; font-family: &quot;Helvetica Neue&quot;, sans-serif; font-size: 12px; font-weight: 200;" fill="rgb(50, 49, 63)" stroke="none" stroke-width="1px">1.6</text><text x="1331.0227272727273" y="0" dx="0em" dy="0.95em" style="text-anchor: middle; visibility: inherit; font-family: &quot;Helvetica Neue&quot;, sans-serif; font-size: 12px; font-weight: 200;" fill="rgb(50, 49, 63)" stroke="none" stroke-width="1px">1.8</text><text x="1464.125" y="0" dx="0em" dy="0.95em" style="text-anchor: middle; visibility: hidden; font-family: &quot;Helvetica Neue&quot;, sans-serif; font-size: 12px; font-weight: 200;" fill="rgb(50, 49, 63)" stroke="none" stroke-width="1px">2</text></g><line x1="0" y1="0" x2="1464.125" y2="0" fill="rgb(0, 0, 0)" stroke="rgb(204, 204, 204)" stroke-width="1px"></line></g></g></g></g></svg>