<svg viewBox="0 0 1513 400" xmlns="http://www.w3.org/2000/svg"><g><g><g><g><g><line x1="48.875" y1="377" x2="43.875" y2="377" style="visibility: inherit;" fill="rgb(0, 0, 0)" stroke="rgb(204, 204, 204)" stroke-width="1px"></line><line x1="48.875" y1="351.8666666666667" x2="43.875" y2="351.8666666666667" style="visibility: inherit;" fill="rgb(0, 0, 0)" stroke="rgb(204, 204, 204)" stroke-width="1px"></line><line x1="48.875" y1="326.7333333333333" x2="43.875" y2="326.7333333333333" style="visibility: inherit;" fill="rgb(0, 0, 0)" stroke="rgb(204, 204, 204)" stroke-width="1px"></line><line x1="48.875" y1="301.59999999999997" x2="43.875" y2="301.59999999999997" style="visibility: inherit;" fill="rgb(0, 0, 0)" stroke="rgb(204, 204, 204)" stroke-width="1px"></line><line x1="48.875" y1="276.4666666666667" x2="43.875" y2="276.4666666666667" style="visibility: inherit;" fill="rgb(0, 0, 0)" stroke="rgb(204, 204, 204)" stroke-width="1px"></line><line x1="48.875" y1="251.33333333333334" x2="43.875" y2="251.33333333333334" style="visibility: inherit;" fill="rgb(0, 0, 0)" stroke="rgb(204, 204, 204)" stroke-width="1px"></line><line x1="48.875" y1="226.19999999999996" x2="43.875" y2="226.19999999999996" style="visibility: inherit;" fill="rgb(0, 0, 0)" stroke="rgb(204, 204, 204)" stroke-width="1px"></line><line x1="48.875" y1="201.06666666666663" x2="43.875" y2="201.06666666666663" style="visibility: inherit;" fill="rgb(0, 0, 0)" stroke="rgb(204, 204, 204)" stroke-width="1px"></line><line x1="48.875" y1="175.93333333333334" x2="43.875" y2="175.93333333333334" style="visibility: inherit;" fill="rgb(0, 0, 0)" stroke="rgb(204, 204, 204)" stroke-width="1px"></line><line x1="48.875" y1="150.8" x2="43.875" y2="150.8" style="visibility: inherit;" fill="rgb(0, 0, 0)" stroke="rgb(204, 204, 204)" stroke-width="1px"></line><line x1="48.875" y1="125.66666666666669" x2="43.875" y2="125.66666666666669" style="visibility: inherit;" fill="rgb(0, 0, 0)" stroke="rgb(204, 204, 204)" stroke-width="1px"></line><line x1="48.875" y1="100.5333333333333" x2="43.875" y2="100.5333333333333" style="visibility: inherit;" fill="rgb(0, 0, 0)" stroke="rgb(204, 204, 204)" stroke-width="1px"></line><line x1="48.875" y1="75.39999999999992" x2="43.875" y2="75.39999999999992" style="visibility: inherit;" fill="rgb(0, 0, 0)" stroke="rgb(204, 204, 204)" stroke-width="1px"></line><line x1="48.875" y1="50.26666666666665" x2="43.875" y2="50.26666666666665" style="visibility: inherit;" fill="rgb(0, 0, 0)" stroke="rgb(204, 204, 204)" stroke-width="1px"></line><line x1="48.875" y1="25.133333333333383" x2="43.875" y2="25.133333333333383" style="visibility: inherit;" fill="rgb(0, 0, 0)" stroke="rgb(204, 204, 204)" stroke-width="1px"></line><line x1="48.875" y1="0" x2="43.875" y2="0" style="visibility: inherit;" fill="rgb(0, 0, 0)" stroke="rgb(204, 204, 204)" stroke-width="1px"></line></g><g transform="translate(38.875, 0)"><text x="0" y="377" dx="0em" dy="0.3em" style="text-anchor: end; visibility: hidden; font-family: &quot;Helvetica Neue&quot;, sans-serif; font-size: 12px; font-weight: 200;" fill="rgb(50, 49, 63)" stroke="none" stroke-width="1px">-1.6</text><text x="0" y="351.8666666666667" dx="0em" dy="0.3em" style="text-anchor: end; visibility: inherit; font-family: &quot;Helvetica Neue&quot;, sans-serif; font-size: 12px; font-weight: 200;" fill="rgb(50, 49, 63)" stroke="none" stroke-width="1px">-1.4</text><text x="0" y="326.7333333333333" dx="0em" dy="0.3em" style="text-anchor: end; visibility: inherit; font-family: &quot;Helvetica Neue&quot;, sans-serif; font-size: 12px; font-weight: 200;" fill="rgb(50, 49, 63)" stroke="none" stroke-width="1px">-1.2</text><text x="0" y="301.59999999999997" dx="0em" dy="0.3em" style="text-anchor: end; visibility: inherit; font-family: &quot;Helvetica Neue&quot;, sans-serif; font-size: 12px; font-weight: 200;" fill="rgb(50, 49, 63)" stroke="none" stroke-width="1px">-1</text><text x="0" y="276.4666666666667" dx="0em" dy="0.3em" style="text-anchor: end; visibility: inherit; font-family: &quot;Helvetica Neue&quot;, sans-serif; font-size: 12px; font-weight: 200;" fill="rgb(50, 49, 63)" stroke="none" stroke-width="1px">-0.8</text><text x="0" y="251.33333333333334" dx="0em" dy="0.3em" style="text-anchor: end; visibility: inherit; font-family: &quot;Helvetica Neue&quot;, sans-serif; font-size: 12px; font-weight: 200;" fill="rgb(50, 49, 63)" stroke="none" stroke-width="1px">-0.6</text><text x="0" y="226.19999999999996" dx="0em" dy="0.3em" style="text-anchor: end; visibility: inherit; font-family: &quot;Helvetica Neue&quot;, sans-serif; font-size: 12px; font-weight: 200;" fill="rgb(50, 49, 63)" stroke="none" stroke-width="1px">-0.4</text><text x="0" y="201.06666666666663" dx="0em" dy="0.3em" style="text-anchor: end; visibility: inherit; font-family: &quot;Helvetica Neue&quot;, sans-serif; font-size: 12px; font-weight: 200;" fill="rgb(50, 49, 63)" stroke="none" stroke-width="1px">-0.2</text><text x="0" y="175.93333333333334" dx="0em" dy="0.3em" style="text-anchor: end; visibility: inherit; font-family: &quot;Helvetica Neue&quot;, sans-serif; font-size: 12px; font-weight: 200;" fill="rgb(50, 49, 63)" stroke="none" stroke-width="1px">0</text><text x="0" y="150.8" dx="0em" dy="0.3em" style="text-anchor: end; visibility: inherit; font-family: &quot;Helvetica Neue&quot;, sans-serif; font-size: 12px; font-weight: 200;" fill="rgb(50, 49, 63)" stroke="none" stroke-width="1px">0.2</text><text x="0" y="125.66666666666669" dx="0em" dy="0.3em" style="text-anchor: end; visibility: inherit; font-family: &quot;Helvetica Neue&quot;, sans-serif; font-size: 12px; font-weight: 200;" fill="rgb(50, 49, 63)" stroke="none" stroke-width="1px">0.4</text><text x="0" y="100.5333333333333" dx="0em" dy="0.3em" style="text-anchor: end; visibility: inherit; font-family: &quot;Helvetica Neue&quot;, sans-serif; font-size: 12px; font-weight: 200;" fill="rgb(50, 49, 63)" stroke="none" stroke-width="1px">0.6</text><text x="0" y="75.39999999999992" dx="0em" dy="0.3em" style="text-anchor: end; visibility: inherit; font-family: &quot;Helvetica Neue&quot;, sans-serif; font-size: 12px; font-weight: 200;" fill="rgb(50, 49, 63)" stroke="none" stroke-width="1px">0.8</text><text x="0" y="50.26666666666665" dx="0em" dy="0.3em" style="text-anchor: end; visibility: inherit; font-family: &quot;Helvetica Neue&quot;, sans-serif; font-size: 12px; font-weight: 200;" fill="rgb(50, 49, 63)" stroke="none" stroke-width="1px">1</text><text x="0" y="25.133333333333383" dx="0em" dy="0.3em" style="text-anchor: end; visibility: inherit; font-family: &quot;Helvetica Neue&quot;, sans-serif; font-size: 12px; font-weight: 200;" fill="rgb(50, 49, 63)" stroke="none" stroke-width="1px">1.2</text><text x="0" y="0" dx="0em" dy="0.3em" style="text-anchor: end; visibility: hidden; font-family: &quot;Helvetica Neue&quot;, sans-serif; font-size: 12px; font-weight: 200;" fill="rgb(50, 49, 63)" stroke="none" stroke-width="1px">1.4</text></g><line x1="48.875" y1="0" x2="48.875" y2="377" fill="rgb(0, 0, 0)" stroke="rgb(204, 204, 204)" stroke-width="1px"></line></g></g><g transform="translate(48, 0)" clip-path="url(#clip_0)"><clipPath id="clip_0"><rect width="1464" height="377"></rect></clipPath><g><g><g><line x1="0" y1="0" x2="0" y2="377" fill="rgb(0, 0, 0)" stroke="rgb(60, 60, 60)" stroke-width="1px" opacity="0.25"></line><line x1="133.10227272727272" y1="0" x2="133.10227272727272" y2="377" fill="rgb(0, 0, 0)" stroke="rgb(60, 60, 60)" stroke-width="1px" opacity="0.25"></line><line x1="266.20454545454544" y1="0" x2="266.20454545454544" y2="377" fill="rgb(0, 0, 0)" stroke="rgb(60, 60, 60)" stroke-width="1px" opacity="0.25"></line><line x1="399.30681818181824" y1="0" x2="399.30681818181824" y2="377" fill="rgb(0, 0, 0)" stroke="rgb(60, 60, 60)" stroke-width="1px" opacity="0.25"></line><line x1="532.4090909090909" y1="0" x2="532.4090909090909" y2="377" fill="rgb(0, 0, 0)" stroke="rgb(60, 60, 60)" stroke-width="1px" opacity="0.25"></line><line x1="665.5113636363636" y1="0" x2="665.5113636363636" y2="377" fill="rgb(0, 0, 0)" stroke="rgb(60, 60, 60)" stroke-width="1px" opacity="0.25"></line><line x1="798.6136363636363" y1="0" x2="798.6136363636363" y2="377" fill="rgb(0, 0, 0)" stroke="rgb(60, 60, 60)" stroke-width="1px" opacity="0.25"></line><line x1="931.7159090909089" y1="0" x2="931.7159090909089" y2="377" fill="rgb(0, 0, 0)" stroke="rgb(60, 60, 60)" stroke-width="1px" opacity="0.25"></line><line x1="1064.8181818181818" y1="0" x2="1064.8181818181818" y2="377" fill="rgb(0, 0, 0)" stroke="rgb(60, 60, 60)" stroke-width="1px" opacity="0.25"></line><line x1="1197.9204545454545" y1="0" x2="1197.9204545454545" y2="377" fill="rgb(0, 0, 0)" stroke="rgb(60, 60, 60)" stroke-width="1px" opacity="0.25"></line><line x1="1331.0227272727273" y1="0" x2="1331.0227272727273" y2="377" fill="rgb(0, 0, 0)" stroke="rgb(60, 60, 60)" stroke-width="1px" opacity="0.25"></line><line x1="1464.125" y1="0" x2="1464.125" y2="377" fill="rgb(0, 0, 0)" stroke="rgb(60, 60, 60)" stroke-width="1px" opacity="0.25"></line></g><g><line x1="0" y1="377" x2="1464.125" y2="377" fill="rgb(0, 0, 0)" stroke="rgb(60, 60, 60)" stroke-width="1px" opacity="0.25"></line><line x1="0" y1="351.8666666666667" x2="1464.125" y2="351.8666666666667" fill="rgb(0, 0, 0)" stroke="rgb(60, 60, 60)" stroke-width="1px" opacity="0.25"></line><line x1="0" y1="326.7333333333333" x2="1464.125" y2="326.7333333333333" fill="rgb(0, 0, 0)" stroke="rgb(60, 60, 60)" stroke-width="1px" opacity="0.25"></line><line x1="0" y1="301.59999999999997" x2="1464.125" y2="301.59999999999997" fill="rgb(0, 0, 0)" stroke="rgb(60, 60, 60)" stroke-width="1px" opacity="0.25"></line><line x1="0" y1="276.4666666666667" x2="1464.125" y2="276.4666666666667" fill="rgb(0, 0, 0)" stroke="rgb(60, 60, 60)" stroke-width="1px" opacity="0.25"></line><line x1="0" y1="251.33333333333334" x2="1464.125" y2="251.33333333333334" fill="rgb(0, 0, 0)" stroke="rgb(60, 60, 60)" stroke-width="1px" opacity="0.25"></line><line x1="0" y1="226.19999999999996" x2="1464.125" y2="226.19999999999996" fill="rgb(0, 0, 0)" stroke="rgb(60, 60, 60)" stroke-width="1px" opacity="0.25"></line><line x1="0" y1="201.06666666666663" x2="1464.125" y2="201.06666666666663" fill="rgb(0, 0, 0)" stroke="rgb(60, 60, 60)" stroke-width="1px" opacity="0.25"></line><line x1="0" y1="175.93333333333334" x2="1464.125" y2="175.93333333333334" fill="rgb(0, 0, 0)" stroke="rgb(60, 60, 60)" stroke-width="1px" opacity="0.25"></line><line x1="0" y1="150.8" x2="1464.125" y2="150.8" fill="rgb(0, 0, 0)" stroke="rgb(60, 60, 60)" stroke-width="1px" opacity="0.25"></line><line x1="0" y1="125.66666666666669" x2="1464.125" y2="125.66666666666669" fill="rgb(0, 0, 0)" stroke="rgb(60, 60, 60)" stroke-width="1px" opacity="0.25"></line><line x1="0" y1="100.5333333333333" x2="1464.125" y2="100.5333333333333" fill="rgb(0, 0, 0)" stroke="rgb(60, 60, 60)" stroke-width="1px" opacity="0.25"></line><line x1="0" y1="75.39999999999992" x2="1464.125" y2="75.39999999999992" fill="rgb(0, 0, 0)" stroke="rgb(60, 60, 60)" stroke-width="1px" opacity="0.25"></line><line x1="0" y1="50.26666666666665" x2="1464.125" y2="50.26666666666665" fill="rgb(0, 0, 0)" stroke="rgb(60, 60, 60)" stroke-width="1px" opacity="0.25"></line><line x1="0" y1="25.133333333333383" x2="1464.125" y2="25.133333333333383" fill="rgb(0, 0, 0)" stroke="rgb(60, 60, 60)" stroke-width="1px" opacity="0.25"></line><line x1="0" y1="0" x2="1464.125" y2="0" fill="rgb(0, 0, 0)" stroke="rgb(60, 60, 60)" stroke-width="1px" opacity="0.25"></line></g></g></g><g><g><line x1="0" y1="175.93333333333334" x2="1464.125" y2="175.93333333333334" fill="rgb(0, 0, 0)" stroke="rgb(153, 153, 153)" stroke-width="1.5px"></line></g></g><g><g><line x1="133.10227272727272" y1="0" x2="133.10227272727272" y2="377" fill="rgb(0, 0, 0)" stroke="rgb(153, 153, 153)" stroke-width="1.5px"></line></g></g><g><g><g><g><g><path stroke="rgb(255, 112, 67)" stroke-width="2px" d="M133.10227272727272,301.59999999999997L133.36459512310606,301.59999999999997L133.62895102588385,301.59999999999997L133.772405697601,301.59999999999997L134.02271191603535,301.59999999999997L134.2711694917929,301.6L134.39669232954546,301.59999999999997L134.5187027462121,301.59999999999997L134.69672703598485,301.59999999999997L134.84572763573235,301.59999999999997L134.99491309974746,301.59999999999997L135.13023374368686,301.6L135.2733186868687,301.6L135.39458964646465,301.59999999999997L135.4951558080808,301.59999999999997L135.6103262468434,301.59999999999997L135.87560647095958,301.59999999999997L136.17527144886364,301.59999999999997L136.28674460227273,301.59999999999997L136.97739750631314,301.6L137.13896887626262,301.59999999999997L137.24101395202018,301.6L137.40073667929292,301.59999999999997L137.5362421875,301.59999999999997L137.76473442234848,301.6L138.1897373737374,301.59999999999997L138.33855310921717,301.6L138.57351559343437,301.6L138.68609793244948,301.59999999999997L138.84563579545454,301.59999999999997L138.99981259469698,301.59999999999997L139.21480973800504,301.59999999999997L139.5011644886364,301.6L139.6375943181818,301.59999999999997L139.99308830492424,301.59999999999997L140.14671051136364,301.59999999999997L140.26446904987372,301.6L140.37686652462122,301.6L140.55951242108586,301.59999999999997L140.93959335542928,301.59999999999997L141.0556881155303,301.59999999999997L141.1703039614899,301.59999999999997L141.33816071654041,301.59999999999997L141.483094302399,301.59999999999997L141.59863446969698,301.59999999999997L141.70067954545453,301.59999999999997L141.84265530303028,301.59999999999997L141.95856519886362,301.59999999999997L142.08279398674244,301.59999999999997L142.32829373421717,301.6L142.46158087121213,301.59999999999997L142.61353929924243,301.59999999999997L142.7695647411616,301.6L143.08106103219697,301.59999999999997L143.3322915719697,301.59999999999997L143.43673988320705,301.59999999999997L143.71699411300503,301.59999999999997L143.84251695075758,301.59999999999997L144.11537660984848,301.59999999999997L144.21890059974746,301.59999999999997L144.30430789141414,301.59999999999997L144.42206642992423,301.59999999999997L144.54943791035353,301.59999999999997L144.66553267045452,301.59999999999997L144.93765287247473,301.59999999999997L145.1084674558081,301.6L145.23583893623737,301.59999999999997L145.34731208964646,301.59999999999997L145.97030467171717,301.59999999999997L146.11043178661615,301.6L146.3463185921717,301.6L146.60235560290403,301.59999999999997L146.72713898358586,301.59999999999997L146.8188316603535,301.59999999999997L147.17820779671717,301.59999999999997L147.2804377367424,301.59999999999997L147.6926850536616,301.59999999999997L148.16908027146465,301.59999999999997L149.11299722222222,301.59999999999997L149.96559122474747,301.59999999999997L150.0918535195707,301.59999999999997L150.52757859848484,301.59999999999997L150.6782429766414,301.59999999999997L150.8039506786616,301.59999999999997L150.9265156881313,301.59999999999997L151.18014946338383,301.59999999999997L151.31768847853536,301.59999999999997L151.69185375631312,301.59999999999997L152.1505020044192,301.59999999999997L152.275285385101,301.59999999999997L152.60526810290403,301.59999999999997L152.95909831123737,301.59999999999997L153.08277250631312,301.59999999999997L153.23269742739896,301.59999999999997L153.37153049242423,301.59999999999997L153.49446523042928,301.59999999999997L153.6223913036616,301.59999999999997L153.86419376578283,301.59999999999997L153.96808748421716,301.59999999999997L154.08288819444442,301.59999999999997L154.1890002840909,301.59999999999997L154.4546502367424,301.59999999999997L154.58664332386363,301.59999999999997L154.71198129734847,301.59999999999997L154.94934701704545,301.59999999999997L155.11701890782825,301.59999999999997L155.24346606691918,301.59999999999997L155.51669545454544,301.59999999999997L155.64314261363637,301.59999999999997L155.83077984532827,301.59999999999997L155.9278335858586,301.59999999999997L156.18091276830808,301.59999999999997L156.3264009469697,301.59999999999997L156.4816869318182,301.59999999999997L156.78227623106062,301.59999999999997L156.92184875315655,301.59999999999997L157.29804753787877,301.59999999999997L157.41820931186868,301.59999999999997L157.51766628787877,301.59999999999997L157.6648182449495,301.59999999999997L157.88610077335858,301.59999999999997L158.01439657512626,301.59999999999997L158.2517622948232,301.59999999999997L158.54347810921718,301.59999999999997L158.71688079229799,301.59999999999997L158.84425227272726,301.59999999999997L158.9625654040404,301.59999999999997L159.24799583333333,301.59999999999997L159.37961919191918,301.59999999999997L159.79796702967172,301.59999999999997L160.39193592171716,301.59999999999997L160.88848134469694,301.59999999999997L161.20774193497473,301.59999999999997L161.35359984217172,301.59999999999997L161.48799616477274,301.59999999999997L161.61814060921716,301.59999999999997L161.7259164772727,301.59999999999997L162.08695639204544,301.59999999999997L162.24279696969697,301.59999999999997L162.40529266098483,301.59999999999997L162.63933082386362,301.59999999999997L163.05509056186867,301.59999999999997L163.21222518939393,301.59999999999997L163.36806576704544,301.59999999999997L163.47048057133838,301.59999999999997L163.57918076073233,301.59999999999997L163.69915767045453,301.59999999999997L163.92580126262624,301.59999999999997L164.04134142992422,301.59999999999997L164.18202313762626,301.59999999999997L164.470411395202,301.59999999999997L164.57615375631312,301.59999999999997L164.7482623895202,301.59999999999997L164.86694524936868,301.59999999999997L165.03165931186868,301.59999999999997L165.14664488636365,301.59999999999997L165.54927926136364,301.59999999999997L165.6833058554293,301.59999999999997L165.98093732638887,301.59999999999997L166.568805697601,301.59999999999997L166.68249722222222,301.59999999999997L166.95535688131312,301.59999999999997L167.07514892676767,301.59999999999997L167.21971278409092,301.59999999999997L167.37499876893938,301.59999999999997L167.51863830492422,301.59999999999997L167.67207564709597,301.59999999999997L168.15993244949493,301.59999999999997L168.61821096906564,301.59999999999997L168.77275749684344,301.59999999999997L168.92268241792928,301.59999999999997L169.052087405303,301.59999999999997L169.27484884785352,301.59999999999997L169.54863282828282,301.59999999999997L169.82999624368685,301.59999999999997L170.0374139520202,301.59999999999997L170.30343363320705,301.59999999999997L170.41379760101006,301.59999999999997L170.5300772253788,301.59999999999997L170.6700194760101,301.59999999999997L170.76023323863635,301.59999999999997L171.06341063762625,301.59999999999997L171.18116917613634,301.59999999999997L171.41835003156564,301.59999999999997L171.64832118055554,301.59999999999997L171.88125015782828,301.59999999999997L172.46634556502522,301.59999999999997L172.68762809343434,301.59999999999997L172.82997357954545,301.59999999999997L173.11410995896466,301.59999999999997L173.2004415719697,301.59999999999997L173.35313945707068,301.59999999999997L173.50269464962122,301.59999999999997L173.60954619633839,301.59999999999997L173.75096736111112,301.59999999999997L173.88591827651516,301.59999999999997L174.04194371843434,301.59999999999997L174.16617250631313,301.59999999999997L174.30740880681816,301.59999999999997L176.6418747790404,301.59999999999997L177.41386796085857,301.59999999999997L178.81957585227272,301.59999999999997L179.82764070391414,301.59999999999997L180.42345823863639,301.59999999999997L180.52624277146464,301.59999999999997L180.66304232954545,301.59999999999997L180.8632503314394,301.59999999999997L181.06013077651514,301.59999999999997L181.1934179135101,301.59999999999997L181.33372989267676,301.59999999999997L181.4611013731061,301.59999999999997L181.5897669034091,301.59999999999997L181.6836779513889,301.59999999999997L182.09037934027776,301.59999999999997L182.74775667613636,301.59999999999997L184.1468094539141,301.59999999999997L185.56305460858584,301.59999999999997L187.12183011363635,301.59999999999997L188.0237828756313,301.59999999999997L189.43817938762623,301.59999999999997L190.23808707386362,301.59999999999997L191.00102190656565,301.59999999999997L191.6913050820707,301.59999999999997L192.50359867424243,301.59999999999997L193.32199278724744,301.59999999999997L194.10748106060606,301.59999999999997L194.807562042298,301.59999999999997L195.47787987689395,301.59999999999997L197.02685757575756,301.59999999999997L198.75478388573234,301.59999999999997L199.76599142992424,301.59999999999997L201.2596947127525,301.59999999999997L202.6896198232323,301.59999999999997L203.3518036300505,301.59999999999997L204.21419543876263,301.59999999999997L205.02205228851008,301.59999999999997L205.81160757575756,301.59999999999997L206.7274251578283,301.59999999999997L207.48518379103533,301.59999999999997L208.44000773358584,301.59999999999997L209.2208744002525,301.59999999999997L210.0261431502525,301.59999999999997L210.78556556186865,301.59999999999997L211.89659981060603,301.59999999999997L212.82276979166664,301.59999999999997L214.28134886363637,301.59999999999997L215.8874496212121,301.59999999999997L216.66295522411616,301.59999999999997L216.93341164772724,301.59999999999997L217.80116452020198,301.59999999999997L218.99002662563126,301.59999999999997L220.5976062973485,301.59999999999997L221.41581554608584,301.59999999999997L223.07127506313125,301.59999999999997L223.8456714804293,301.59999999999997L224.8069656723485,301.59999999999997L225.6806342013889,301.59999999999997L226.72696595643936,301.59999999999997L228.5251406881313,301.59999999999997L229.47682193813128,301.59999999999997L230.373783364899,301.59999999999997L231.11102206439392,301.59999999999997L235.7561065183081,301.59999999999997L236.58152547348487,301.59999999999997L238.1883656881313,301.59999999999997L238.9135882102273,301.59999999999997L239.5951827651515,301.59999999999997L241.36951000631313,301.59999999999997L242.20472676767676,301.59999999999997L243.76424172979796,301.59999999999997L245.29898488005048,301.59999999999997L249.46896816603538,301.59999999999997L250.33487239583332,301.59999999999997L252.6809848169192,301.59999999999997L253.54799823232324,301.59999999999997L254.32128546401512,301.59999999999997L255.09531215277778,301.59999999999997L255.92387380050505,301.59999999999997L256.80068502209593,301.59999999999997L258.2054685921717,301.59999999999997L259.6614595643939,301.59999999999997L261.08565388257574,301.59999999999997L262.2146199652778,301.59999999999997L264.6895827809343,301.59999999999997L265.6031819917929,301.59999999999997L267.7061979008838,301.59999999999997L268.5977982638889,301.59999999999997L269.5210104166666,301.59999999999997L270.24345997474745,301.59999999999997L271.95068148674244,301.59999999999997L272.84542454229796,301.59999999999997L275.02515912247475,301.59999999999997L275.6705202809343,301.59999999999997L277.14961928661614,301.59999999999997L279.69815808080807,301.59999999999997L280.2778924242424,301.59999999999997L281.81171125315655,301.59999999999997L282.7051602588384,301.59999999999997L283.5461078125,301.59999999999997L284.3580316761363,301.59999999999997L285.0729017992424,301.59999999999997L286.4177893465909,301.59999999999997L287.1884884785353,301.59999999999997L287.8608398200758,301.59999999999997L288.5095285353535,301.59999999999997L289.2131219381313,301.59999999999997L289.8536766256313,301.59999999999997L290.5376744160354,301.59999999999997L291.92545047348483,301.59999999999997L293.29658874684344,301.59999999999997L293.9582179608586,301.59999999999997L296.73266089015146,301.59999999999997L298.0146945864899,301.59999999999997L302.91914360795454,301.59999999999997L307.37030544507576,301.59999999999997L308.6957822443182,301.59999999999997L311.5364065814394,301.59999999999997L313.29354144570704,301.59999999999997L316.51628022411614,301.59999999999997L318.0308731691919,301.59999999999997L319.39665037878785,301.59999999999997L323.71637372159086,301.59999999999997L325.2455709438131,301.59999999999997L328.1871311710858,301.59999999999997L334.28617309027777,301.59999999999997L338.60848453282824,301.59999999999997L340.16078978851004,301.59999999999997L341.5766652146464,301.59999999999997L342.96776882891413,301.59999999999997L344.42875113636364,301.59999999999997L345.8815994160354,301.59999999999997L347.32076773989894,301.59999999999997L350.1904157670454,301.59999999999997L351.6077701073232,301.59999999999997L353.1286484374999,301.59999999999997L354.5341714646464,301.59999999999997L355.91344376578286,301.59999999999997L357.41380216224746,301.59999999999997L358.92673132891406,301.59999999999997L363.27455404040404,301.59999999999997L364.6545657986111,301.59999999999997L366.20206458333325,301.59999999999997L375.25745587121213,301.59999999999997L378.3554112689394,301.59999999999997L379.7903277146465,301.59999999999997L381.15462601010097,301.59999999999997L382.9047360321969,301.59999999999997L384.516382717803,301.59999999999997L386.27277812499995,301.59999999999997L387.9284225063131,301.59999999999997L389.5661350536616,301.59999999999997L391.06039292929285,301.59999999999997L392.7367421085858,301.59999999999997L393.79287166982317,201.06666666666663L395.3433282828282,241.27999999999997L396.97068843118694,265.408L398.6087707070707,279.8848L400.1865872316918,288.57088L401.866818560606,293.78252799999996L403.46478529040394,296.9095168L406.6021167771465,298.78571008L407.9823133996212,299.911426048L409.5203841066919,300.5868556288L412.231233727904,300.99211337728L414.847802572601,200.70193469303467L417.83336049558085,241.06116081582078L418.93663044507576,164.74336315615912L422.7119285195707,219.48601789369548L424.3690518150252,252.3316107362173L426.1187921085858,272.0389664417304L428.5220275883838,183.33004653170488L429.64285964330804,130.10469458568957L430.72838262310603,98.1694834180804L433.1933627683081,79.00835671751497L434.3620746685606,67.51168069717562L435.5128547348484,60.613675084972044L436.9596024936869,157.0082050509832L439.30164790088384,114.31158969725658L440.42617724116167,88.69362048502063L441.6045020833333,73.32283895767904L442.8436472695707,64.10037004127406L444.15710789141406,58.56688869143113L445.4413599589646,55.24679988152536L447.28778426452016,153.78807992891518L448.6097486426767,112.37951462401577L450.365959185606,188.06770877440948L453.65950097853533,233.48062526464568L455.21809161931816,260.7283751587874L456.43745632891415,176.5436917619391L459.74282943497474,126.03288172383012L460.86624958964643,95.72639570096476L462.0408771464646,77.5425040872455L464.4010392518939,66.63216911901395L465.54608852588376,60.08596813807503L466.6075791508839,56.158247549511714L467.76039272411606,53.80161519637363L470.0456848011363,52.38763578449084L472.3500178977272,51.5392481373612L473.53167029671715,51.03021554908338L474.7898565025252,50.72479599611671L477.08198855744945,50.541544264336665L479.81964349747466,150.96492655860203L482.25023888888893,211.2189559351612L483.3585001736111,146.83804022776337L484.6222323074495,108.20949080332474L488.0516493371211,85.03236114866144L492.49800470328273,71.1260833558635L493.5029268623738,62.78231668018475L494.4749431818182,57.77605667477752L495.5223841224747,54.77230067153323L496.53913759469697,52.97004706958654L498.5942736584595,51.888694908418586L499.67295666035346,51.2398836117178L502.8879311395201,50.85059683369735L504.0749446022727,50.617024766885095L506.1054937184343,50.47688152679768L508.23013874684335,50.39279558274529L509.2927385574494,50.3423440163138L512.664477935606,50.312073076454965L514.8381119949495,50.29391051253964L515.9574651357324,50.283012974190456L517.0897587752524,50.27647445118089L519.1345424400253,50.272551337375205L520.3380088226008,50.270197469091784L521.4950742739899,50.268785148121765L522.6266284564393,50.26793775553966L523.6114004103534,50.26742931999047L524.7538615845959,50.267124258661L525.7641448074495,50.26694122186325L527.3545321022726,150.80016473311792L528.4150984059343,110.5867655065374L532.7660638099749,86.45872597058911L533.9368092171717,71.98190224902015L536.5809228377525,163.82914134941208L538.6203454387627,118.40415147631393L539.7478326073233,91.149157552455L540.8318766729798,74.79616119813966L541.794834643308,64.98436338555047L542.8801727588384,59.09728469799694L543.9808546085858,55.56503748546487L545.0192372001262,53.445689157945594L546.1605891887626,52.174080161434006L547.3498210227272,51.41111476352711L549.6269790719698,50.95333552478286L550.6568579071969,50.678667981536364L551.7558759785353,50.51386745558847L552.8765231691918,50.41498714001972L553.9668526199495,50.3556589506785L556.0839182133838,50.3200620370738L557.05260697601,50.29870388891089L558.0654782986111,50.285889000013185L560.2283902304292,50.27820006667463L561.3290720801767,50.27358670667138L562.3334396464645,50.2708186906695L563.414710748106,50.26915788106834L564.547189251894,50.26816139530763L565.6896504261363,50.26756350385125L566.8154738162879,50.26720476897742L567.9255837436868,50.2669895280531L568.9952083964646,50.26686038349851L571.9887154829546,50.26678289676579L574.1599463068181,50.266736404726146L576.392182339015,50.26670850950234L579.7241758996212,50.26669177236806L580.8157994002526,50.2666817300875L581.9042802083334,50.26667570471915L582.9617038194444,50.26667208949817L584.0302192866161,50.26666992036559L585.075256991793,50.266668618885944L586.1086482481061,50.26666783799823L587.2010112058081,50.26666736946561L588.2793244791666,50.26666708834597L589.3387815972222,50.266666919674265L590.3405610637625,50.266666818471265L591.5061302714647,50.26666675774936L592.5007000315657,50.26666672131631L595.6225029198232,50.26666669945649L596.710429135101,50.26666668634056L597.7179393939394,50.26666667847098L599.7941499842171,50.266666673749285L600.8582287089646,50.26666667091621L603.0507189236112,50.26666666921636L604.2480847853535,50.266666668196535L605.4238215277777,50.26666666758456L606.5191423137626,50.26666666721741L607.5957918087121,50.26666666699708L608.7221697916667,50.26666666686492L612.0103505208333,50.266666666785625L613.0975372790405,50.26666666673805L614.1344409564393,50.266666666709455L618.3380695391413,50.2666666666924L619.3553776041667,50.266666666682056L621.5689423453283,50.26666666667592L622.6971689709595,50.266666666672165L623.8499825441919,50.266666666670005L624.757481234217,50.26666666666864L626.9987756155302,50.266666666667845L629.1894171875,50.26666666666739L630.2058009311868,50.266666666667106L631.2617456281565,50.266666666666936L633.533172885101,50.26666666666682L634.7137160984847,50.266666666666765L635.6899842960859,50.26666666666671L636.655345501894,50.26666666666671L637.8593664772727,50.26666666666665L638.8064261205807,50.26666666666665L639.8335319917929,50.26666666666665L640.9238614425506,50.26666666666665L644.1604650410353,50.26666666666665L645.0709215593433,50.26666666666665L647.2040703440656,50.26666666666665L649.3928632733586,50.26666666666665L650.537542818813,50.26666666666665L651.5977393939394,50.26666666666665L652.6814137310606,50.26666666666665L654.8920206439393,50.26666666666665L655.9072952020202,50.26666666666665L656.9739620265152,50.26666666666665L658.0058743686868,50.26666666666665L658.9414724273989,50.26666666666665L660.0552796401514,50.26666666666665L661.2413687815656,50.26666666666665L662.2742054450757,50.26666666666665L665.5337322127526,50.26666666666665L666.5636110479797,50.26666666666665L668.9688800347221,50.26666666666665L670.2629299084596,50.26666666666665L671.5375690340909,50.26666666666665L672.8978003156566,50.26666666666665L675.241879229798,50.26666666666665L677.6514000946969,50.26666666666665L678.7123361268939,50.26666666666665L679.7329717487374,50.26666666666665L680.7598927556818,50.26666666666665L681.8816491319444,50.26666666666665L682.8653119002524,50.26666666666665L683.8870567077021,50.26666666666665L684.9354219696969,50.26666666666665L687.0280854797978,50.26666666666665L688.1962427872475,50.26666666666665L689.2420199494949,50.26666666666665L691.4498538983586,50.26666666666665L693.4898310921717,50.26666666666665L694.4797792455807,50.26666666666665L695.6895310132576,50.26666666666665L696.8946611742424,50.26666666666665L697.988318181818,50.26666666666665L699.0492542140151,50.26666666666665L701.164286300505,50.26666666666665L702.1557133680556,50.26666666666665L703.2203466856059,50.26666666666665L705.5000928345959,50.26666666666665L706.6312772885101,50.26666666666665L708.8492787720959,50.26666666666665L712.0814456281565,50.26666666666665L714.1482281407827,50.26666666666665L715.3180492266413,50.26666666666665L716.4229829545453,50.26666666666665L719.7061723484848,50.26666666666665L720.8223827967172,50.26666666666665L723.213047506313,50.26666666666665L724.3303671401513,50.26666666666665L726.4208122790404,50.26666666666665L727.5237124999999,50.26666666666665L728.6199576073232,50.26666666666665L730.7776933396465,50.26666666666665L731.7842792771464,50.26666666666665L735.0391844381313,50.26666666666665L736.0637022095958,50.26666666666665L738.2428821969696,50.26666666666665L739.2367125000001,50.26666666666665L740.3250084438131,50.26666666666665L741.4218081439394,50.26666666666665L743.4085444286615,50.26666666666665L744.5145873421717,50.26666666666665L745.6328312973485,50.26666666666665L746.7678979008838,50.26666666666665L748.9581697443182,50.26666666666665L751.1636004577019,50.26666666666665L753.2350045770202,50.26666666666665L754.322376199495,50.26666666666665L755.3995802872474,50.26666666666665L756.5209669349748,50.26666666666665L757.7479110795455,50.26666666666665L762.2848499368687,50.26666666666665L763.2089864109847,50.26666666666665L764.3178022885099,50.26666666666665L765.4924298453282,50.26666666666665L768.6983459753786,50.26666666666665L769.7023438131312,50.26666666666665L770.8244699179293,50.26666666666665L771.8622979166665,50.26666666666665L772.8309866792928,50.26666666666665L774.8247478061868,50.26666666666665L775.9245053345959,50.26666666666665L776.9723160037879,50.26666666666665L778.1499013888888,50.26666666666665L780.3568110164141,50.26666666666665L781.3689428819443,50.26666666666665L782.3823687973484,50.26666666666665L783.5490471906566,50.26666666666665L784.6669214172979,50.26666666666665L785.7363612058081,50.26666666666665L786.7911967171717,50.26666666666665L789.0101225220959,50.26666666666665L790.0287246369948,50.26666666666665L791.0007409564392,50.26666666666665L793.2083900410352,50.26666666666665L794.3928154040403,50.26666666666665L796.621908743687,50.26666666666665L797.7501353693182,50.26666666666665L801.8384086489897,50.26666666666665L802.9577617897726,50.26666666666665L805.1149429292929,50.26666666666665L806.1394607007575,50.26666666666665L807.2534527777776,50.26666666666665L808.3742848327018,50.26666666666665L809.4653537405302,50.26666666666665L810.5022574179292,50.26666666666665L811.5269600536616,50.26666666666665L813.6473532039141,50.26666666666665L814.806637026515,50.26666666666665L815.8137775568181,50.26666666666665L816.7617615214645,50.26666666666665L818.8161581281564,50.26666666666665L819.9216464488635,50.26666666666665L821.0103121212121,50.26666666666665L821.9893532828283,50.26666666666665L823.067481691919,50.26666666666665L824.1249053030301,50.26666666666665L830.2951199652776,50.26666666666665L831.5629191130049,50.26666666666665L832.6462237215908,50.26666666666665L833.7225034880049,50.26666666666665L834.8111691603534,50.26666666666665L839.1212795612374,50.26666666666665L842.2227473800505,50.26666666666665L843.3469069917928,50.26666666666665L845.3903966066919,50.26666666666665L848.3955501420453,50.26666666666665L849.4121187499999,50.26666666666665L851.5393518781564,50.26666666666665L852.5832803977272,50.26666666666665L853.6946843749998,50.26666666666665L854.734361016414,50.26666666666665L856.9279604166666,50.26666666666665L857.988711584596,50.26666666666665L859.0017677714645,50.26666666666665L860.2272330018939,50.26666666666665L861.3504682922978,50.26666666666665L862.3677763573231,50.26666666666665L863.3893363005049,50.26666666666665L864.446205318813,50.26666666666665L865.5489206755051,50.26666666666665L867.5530342013889,50.26666666666665L868.6361539457071,50.26666666666665L870.9314286931817,50.26666666666665L873.0338900094695,50.26666666666665L874.0944563131312,50.26666666666665L876.3032145833332,50.26666666666665L878.5594829703282,50.26666666666665L879.5937985479798,50.26666666666665L880.609257970328,50.26666666666665L881.7539375157828,50.26666666666665L885.0979472537879,50.26666666666665L886.1904950757574,50.26666666666665L887.3052266098483,50.26666666666665L888.3754058554292,50.26666666666665L890.4662207228534,50.26666666666665L891.4951752367424,50.26666666666665L893.5571512784089,50.26666666666665L894.6582028566918,50.26666666666665L899.6042463383837,50.26666666666665L900.5832874999998,50.26666666666665L902.5528314078282,50.26666666666665L903.5396368686868,50.26666666666665L905.574992455808,50.26666666666665L906.5863848642676,50.26666666666665L907.624212863005,50.26666666666665L908.7956977272726,50.26666666666665L910.8933525726009,50.26666666666665L911.9459697127525,50.26666666666665L912.8834164141413,50.26666666666665L914.9542659406563,50.26666666666665L915.887275899621,50.26666666666665L916.8592922190655,50.26666666666665L917.9048845170454,50.26666666666665L920.0138160827017,50.26666666666665L921.1599745422978,50.26666666666665L923.3064335542928,50.26666666666665L926.7125576862373,50.26666666666665L928.9216856849747,50.26666666666665L929.9844703598483,50.26666666666665L931.0716571180554,50.26666666666665L932.0553198863635,50.26666666666665L934.1054646148988,50.26666666666665L936.1127208333331,50.26666666666665L937.2455690656565,50.26666666666665L938.3020683554292,50.26666666666665L939.4079264046717,50.26666666666665L940.4566613952019,50.26666666666665L941.530722790404,50.26666666666665L942.5350903566917,50.26666666666665L943.6073031092171,50.26666666666665L944.6467948863635,50.26666666666665L947.8357035037877,50.26666666666665L948.7966279671716,50.26666666666665L949.8747563762624,50.26666666666665L955.637160464015,50.26666666666665L956.7820248737372,50.26666666666665L958.0071203756312,50.26666666666665L959.376410006313,50.26666666666665L961.8853878472221,50.26666666666665L963.0860812657827,50.26666666666665L964.0370230587121,50.26666666666665L965.241413762626,50.26666666666665L966.3308188920454,50.26666666666665L972.0645690183079,50.26666666666665L973.1595200757575,50.26666666666665L974.2914439867423,50.26666666666665L975.4156035984847,50.26666666666665L976.6151878314392,50.26666666666665L977.663737957702,50.26666666666665L979.8048359059343,50.26666666666665L980.9177187973482,50.26666666666665L982.050936758207,50.26666666666665L983.1499548295453,50.26666666666665L984.3242126578282,50.26666666666665L985.3868124684343,50.26666666666665L986.3353510258836,50.26666666666665L987.4441669034089,50.26666666666665L988.6500365214646,50.26666666666665L990.6857618371212,50.26666666666665L991.7973506786615,50.26666666666665L992.8893439078281,50.26666666666665L994.0391996527777,50.26666666666665L995.1485701231061,50.26666666666665L996.2052542771463,50.26666666666665L997.3368084595958,50.26666666666665L999.5437180871211,50.26666666666665L1001.9382649463383,50.26666666666665L1004.0566245896464,50.26666666666665L1005.2674855429291,50.26666666666665L1006.4214083017675,50.26666666666665L1008.6331244002524,50.26666666666665L1010.7945574179292,50.26666666666665L1011.9213051294191,50.26666666666665L1014.1705486742422,50.26666666666665L1016.579699810606,50.26666666666665L1017.7210517992423,50.26666666666665L1018.7819878314393,50.26666666666665L1020.9822423453281,50.26666666666665L1024.24454207702,50.26666666666665L1025.3097299873737,50.26666666666665L1028.5406027935605,50.26666666666665L1030.6890953124998,50.26666666666665L1033.8805920296716,50.26666666666665L1037.2680448705808,50.26666666666665L1038.4114303661615,50.26666666666665L1039.5769995738635,50.26666666666665L1040.8072712752526,50.26666666666665L1041.85859436553,50.26666666666665L1043.0879417455806,50.26666666666665L1044.1107957386362,50.26666666666665L1045.1806052556817,50.26666666666665L1046.2548515151514,50.26666666666665L1047.3244761679293,50.26666666666665L1049.454482260101,50.26666666666665L1050.5616343592171,50.26666666666665L1051.616839599116,50.26666666666665L1054.971201736111,50.26666666666665L1056.0264069760099,50.26666666666665L1058.279162941919,50.26666666666665L1059.5081405934343,50.26666666666665L1060.6591055239899,50.26666666666665L1061.7978694128785,50.26666666666665L1063.8502325126262,50.26666666666665L1067.2075524779038,50.26666666666665L1068.3355942392675,50.26666666666665L1069.3763800662878,50.26666666666665L1070.5088585700757,50.26666666666665L1071.5757102588382,50.26666666666665L1072.6429316761364,50.26666666666665L1073.6835326388887,50.26666666666665L1074.5917707859849,50.26666666666665L1075.797270675505,50.26666666666665L1077.0238450915404,50.26666666666665L1078.2114131470958,50.26666666666665L1079.337421401515,50.26666666666665L1080.280598895202,50.26666666666665L1081.3395014204543,50.26666666666665L1083.3646894728536,50.26666666666665L1084.4792361426767,50.26666666666665L1085.6115297821968,50.26666666666665L1086.7545455492423,50.26666666666665L1088.9403806502526,50.26666666666665L1090.1061347222221,50.26666666666665L1094.3302832386362,50.26666666666665L1097.4165921874999,50.26666666666665L1100.8145822916665,50.26666666666665L1101.9797817708331,50.26666666666665L1102.9501343118686,50.26666666666665L1104.1541552872475,50.26666666666665L1106.238499905303,50.26666666666665L1107.2888986742423,50.26666666666665L1108.304727825126,50.26666666666665L1109.386368655303,50.26666666666665L1110.4556235795453,50.26666666666665L1112.526103377525,50.26666666666665L1113.5413779356059,50.26666666666665L1114.6877212594695,50.26666666666665L1115.7233308869947,50.26666666666665L1116.7472940656564,50.26666666666665L1117.8527823863635,50.26666666666665L1118.9371961805555,50.26666666666665L1120.0009051767677,50.26666666666665L1121.1137880681817,50.26666666666665L1122.1211134627524,50.26666666666665L1123.1837132733583,50.26666666666665L1125.3542046401515,50.26666666666665L1126.4829858585858,50.26666666666665L1128.5906233743685,50.26666666666665L1129.7059095012626,50.26666666666665L1130.866117645202,50.26666666666665L1133.0933623421718,50.26666666666665L1134.2132700757575,50.26666666666665L1135.3220859532828,50.26666666666665L1136.5590127683079,50.26666666666665L1137.7837385416667,50.26666666666665L1138.98738978851,50.26666666666665L1143.240746859217,50.26666666666665L1145.4955363320707,50.26666666666665L1148.9155252840908,50.26666666666665L1149.8309731376262,50.26666666666665L1151.9757683712119,50.26666666666665L1153.0315282039141,50.26666666666665L1154.223348137626,50.26666666666665L1156.226907070707,50.26666666666665L1157.2593740056818,50.26666666666665L1158.192014236111,50.26666666666665L1159.3067457702018,50.26666666666665L1160.3761855587122,50.26666666666665L1161.4578263888886,50.26666666666665L1162.6405879734848,50.26666666666665L1163.929091919192,50.26666666666665L1165.0857876420455,50.26666666666665L1166.1864694917929,50.26666666666665L1168.392269933712,50.26666666666665L1169.5637547979798,50.26666666666665L1170.6270940656566,50.26666666666665L1172.825315072601,50.26666666666665L1174.0056734217171,50.26666666666665L1175.0782559027775,50.26666666666665L1176.267118008207,50.26666666666665L1177.331936190025,50.26666666666665L1178.4886319128786,50.26666666666665L1180.6798280776513,50.26666666666665L1181.8197011521463,50.26666666666665L1182.8303541035352,50.26666666666665L1183.8940630997472,50.26666666666665L1184.9226478851008,50.26666666666665L1185.94919916351,50.26666666666665L1187.0888873737372,50.26666666666665L1189.422983617424,50.26666666666665L1190.4905747632574,50.26666666666665L1191.5537291666667,50.26666666666665L1192.642394839015,50.26666666666665L1193.645653219697,50.26666666666665L1194.7106562657827,50.26666666666665L1195.781759832702,50.26666666666665L1196.7247524621212,50.26666666666665L1200.0144121054293,50.26666666666665L1201.1402354955806,50.26666666666665L1203.4142508522727,50.26666666666665L1207.6740781723483,50.26666666666665L1208.709502935606,50.26666666666665L1210.9774177714646,50.26666666666665L1212.0986195549242,50.26666666666665L1213.2072505681817,50.26666666666665L1215.514726357323,50.26666666666665L1217.6456567708333,50.26666666666665L1218.8629879734847,50.26666666666665L1219.9300245265151,50.26666666666665L1222.1933177556816,50.26666666666665L1223.3912382102271,50.26666666666665L1224.4227808238634,50.26666666666665L1225.665253566919,50.26666666666665L1227.6370158459595,50.26666666666665L1228.7240177398987,50.26666666666665L1229.8069526199495,50.26666666666665L1230.8926604640149,50.26666666666665L1231.9820655934343,50.26666666666665L1234.2015459911615,50.26666666666665L1235.4534468118686,50.26666666666665L1236.5988658143938,50.26666666666665L1238.6878320391413,50.26666666666665L1239.7360124368686,50.26666666666665L1242.8914606218432,50.26666666666665L1245.008895943813,50.26666666666665L1246.0790751893937,50.26666666666665L1248.2915307449493,50.26666666666665L1249.3215944444444,50.26666666666665L1250.3984288036615,50.26666666666665L1251.5436629419191,50.26666666666665L1252.5121668402776,50.26666666666665L1253.6324443023989,50.26666666666665L1254.8479268623737,50.26666666666665L1258.2823352272728,50.26666666666665L1259.432190972222,50.26666666666665L1260.5461830492422,50.26666666666665L1261.65241082702,50.26666666666665L1262.7360851641413,50.26666666666665L1263.7964666035352,50.26666666666665L1264.9252478219696,50.26666666666665L1267.2295809185605,50.26666666666665L1268.3041969065655,50.26666666666665L1269.4849249842168,50.26666666666665L1270.6479060921715,50.26666666666665L1271.745075520833,50.26666666666665L1273.0071438762625,50.26666666666665L1276.1790449810605,50.26666666666665L1278.4188604482322,50.26666666666665L1279.47813270202,50.26666666666665L1280.7265211016413,50.26666666666665L1281.855672048611,50.26666666666665L1282.9215994160354,50.26666666666665L1283.982165719697,50.26666666666665L1284.9445690972223,50.26666666666665L1285.9628014835857,50.26666666666665L1287.060155776515,50.26666666666665L1288.0502887941918,50.26666666666665L1291.3251592960858,50.26666666666665L1292.3073431502523,50.26666666666665L1295.437649794823,50.26666666666665L1296.554784564394,50.26666666666665L1298.7676098484847,50.26666666666665L1299.8823413825755,50.26666666666665L1300.9246061237372,50.26666666666665L1303.55503978851,50.26666666666665L1304.5568192550504,50.26666666666665L1305.6323595643937,50.26666666666665L1307.6984026199495,50.26666666666665L1308.834948137626,50.26666666666665L1309.889044191919,50.26666666666665L1312.021823248106,50.26666666666665L1313.1674271148988,50.26666666666665L1314.2891834911616,50.26666666666665L1316.4676240214646,50.26666666666665L1317.5176530618687,50.26666666666665L1318.6867346906565,50.26666666666665L1320.9783121527776,50.26666666666665L1321.9140950757574,50.26666666666665L1324.1073247474744,50.26666666666665L1325.327059185606,50.26666666666665L1326.4547312184343,50.26666666666665L1327.6955401830805,50.26666666666665L1328.699722885101,50.26666666666665L1329.767868623737,50.26666666666665L1331.7590416508838,50.26666666666665L1332.7892902146464,50.26666666666665L1336.1586263573233,50.26666666666665L1338.4263563289142,50.26666666666665L1341.8886791982322,50.26666666666665L1346.2579461647729,50.26666666666665L1351.84251082702,50.26666666666665L1355.5233432607322,50.26666666666665L1356.754909011995,50.26666666666665L1357.8424654987373,50.26666666666665L1358.942407891414,50.26666666666665L1359.9953947601011,50.26666666666665L1361.0896063604796,50.26666666666665L1363.2521485637626,50.26666666666665L1364.579843734217,50.26666666666665L1366.761796685606,50.26666666666665L1367.8277240530301,50.26666666666665L1370.188810479798,50.26666666666665L1371.2294114425504,50.26666666666665L1372.4367599747472,50.26666666666665L1373.41450708649,50.26666666666665L1375.579082796717,50.26666666666665L1376.922491429924,50.26666666666665L1378.1856689709593,50.26666666666665L1379.4325784564394,50.26666666666665L1380.645842645202,50.26666666666665L1381.6618566603534,50.26666666666665L1382.6708458333333,50.26666666666665L1383.7977784090908,50.26666666666665L1384.850025820707,50.26666666666665L1385.9948902304293,50.26666666666665L1386.9696795138889,50.26666666666665L1389.2021004103535,50.26666666666665L1390.442909375,50.26666666666665L1392.741511679293,50.26666666666665L1396.1731470801767,50.26666666666665L1398.4734131628788,50.26666666666665L1403.0068395991161,50.26666666666665L1404.1663082859848,50.26666666666665L1405.306551089015,50.26666666666665L1406.4443906565655,50.26666666666665L1407.4143734690658,50.26666666666665" style="fill: none;" fill="none"></path></g></g></g></g><g opacity="0.2"><g><g><g><path stroke="rgb(255, 112, 67)" stroke-width="2px" d="M133.10227272727272,301.59999999999997L133.36459512310606,301.59999999999997L133.62895102588385,301.59999999999997L133.772405697601,301.59999999999997L134.02271191603535,301.59999999999997L134.2711694917929,301.59999999999997L134.39669232954546,301.59999999999997L134.5187027462121,301.59999999999997L134.69672703598485,301.59999999999997L134.84572763573235,301.59999999999997L134.99491309974746,301.59999999999997L135.13023374368686,301.59999999999997L135.2733186868687,301.59999999999997L135.39458964646465,301.59999999999997L135.4951558080808,301.59999999999997L135.6103262468434,301.59999999999997L135.87560647095958,301.59999999999997L136.17527144886364,301.59999999999997L136.28674460227273,301.59999999999997L136.97739750631314,301.59999999999997L137.13896887626262,301.59999999999997L137.24101395202018,301.59999999999997L137.40073667929292,301.59999999999997L137.5362421875,301.59999999999997L137.76473442234848,301.59999999999997L138.1897373737374,301.59999999999997L138.33855310921717,301.59999999999997L138.57351559343437,301.59999999999997L138.68609793244948,301.59999999999997L138.84563579545454,301.59999999999997L138.99981259469698,301.59999999999997L139.21480973800504,301.59999999999997L139.5011644886364,301.59999999999997L139.6375943181818,301.59999999999997L139.99308830492424,301.59999999999997L140.14671051136364,301.59999999999997L140.26446904987372,301.59999999999997L140.37686652462122,301.59999999999997L140.55951242108586,301.59999999999997L140.93959335542928,301.59999999999997L141.0556881155303,301.59999999999997L141.1703039614899,301.59999999999997L141.33816071654041,301.59999999999997L141.483094302399,301.59999999999997L141.59863446969698,301.59999999999997L141.70067954545453,301.59999999999997L141.84265530303028,301.59999999999997L141.95856519886362,301.59999999999997L142.08279398674244,301.59999999999997L142.32829373421717,301.59999999999997L142.46158087121213,301.59999999999997L142.61353929924243,301.59999999999997L142.7695647411616,301.59999999999997L143.08106103219697,301.59999999999997L143.3322915719697,301.59999999999997L143.43673988320705,301.59999999999997L143.71699411300503,301.59999999999997L143.84251695075758,301.59999999999997L144.11537660984848,301.59999999999997L144.21890059974746,301.59999999999997L144.30430789141414,301.59999999999997L144.42206642992423,301.59999999999997L144.54943791035353,301.59999999999997L144.66553267045452,301.59999999999997L144.93765287247473,301.59999999999997L145.1084674558081,301.59999999999997L145.23583893623737,301.59999999999997L145.34731208964646,301.59999999999997L145.97030467171717,301.59999999999997L146.11043178661615,301.59999999999997L146.3463185921717,301.59999999999997L146.60235560290403,301.59999999999997L146.72713898358586,301.59999999999997L146.8188316603535,301.59999999999997L147.17820779671717,301.59999999999997L147.2804377367424,301.59999999999997L147.6926850536616,301.59999999999997L148.16908027146465,301.59999999999997L149.11299722222222,301.59999999999997L149.96559122474747,301.59999999999997L150.0918535195707,301.59999999999997L150.52757859848484,301.59999999999997L150.6782429766414,301.59999999999997L150.8039506786616,301.59999999999997L150.9265156881313,301.59999999999997L151.18014946338383,301.59999999999997L151.31768847853536,301.59999999999997L151.69185375631312,301.59999999999997L152.1505020044192,301.59999999999997L152.275285385101,301.59999999999997L152.60526810290403,301.59999999999997L152.95909831123737,301.59999999999997L153.08277250631312,301.59999999999997L153.23269742739896,301.59999999999997L153.37153049242423,301.59999999999997L153.49446523042928,301.59999999999997L153.6223913036616,301.59999999999997L153.86419376578283,301.59999999999997L153.96808748421716,301.59999999999997L154.08288819444442,301.59999999999997L154.1890002840909,301.59999999999997L154.4546502367424,301.59999999999997L154.58664332386363,301.59999999999997L154.71198129734847,301.59999999999997L154.94934701704545,301.59999999999997L155.11701890782825,301.59999999999997L155.24346606691918,301.59999999999997L155.51669545454544,301.59999999999997L155.64314261363637,301.59999999999997L155.83077984532827,301.59999999999997L155.9278335858586,301.59999999999997L156.18091276830808,301.59999999999997L156.3264009469697,301.59999999999997L156.4816869318182,301.59999999999997L156.78227623106062,301.59999999999997L156.92184875315655,301.59999999999997L157.29804753787877,301.59999999999997L157.41820931186868,301.59999999999997L157.51766628787877,301.59999999999997L157.6648182449495,301.59999999999997L157.88610077335858,301.59999999999997L158.01439657512626,301.59999999999997L158.2517622948232,301.59999999999997L158.54347810921718,301.59999999999997L158.71688079229799,301.59999999999997L158.84425227272726,301.59999999999997L158.9625654040404,301.59999999999997L159.24799583333333,301.59999999999997L159.37961919191918,301.59999999999997L159.79796702967172,301.59999999999997L160.39193592171716,301.59999999999997L160.88848134469694,301.59999999999997L161.20774193497473,301.59999999999997L161.35359984217172,301.59999999999997L161.48799616477274,301.59999999999997L161.61814060921716,301.59999999999997L161.7259164772727,301.59999999999997L162.08695639204544,301.59999999999997L162.24279696969697,301.59999999999997L162.40529266098483,301.59999999999997L162.63933082386362,301.59999999999997L163.05509056186867,301.59999999999997L163.21222518939393,301.59999999999997L163.36806576704544,301.59999999999997L163.47048057133838,301.59999999999997L163.57918076073233,301.59999999999997L163.69915767045453,301.59999999999997L163.92580126262624,301.59999999999997L164.04134142992422,301.59999999999997L164.18202313762626,301.59999999999997L164.470411395202,301.59999999999997L164.57615375631312,301.59999999999997L164.7482623895202,301.59999999999997L164.86694524936868,301.59999999999997L165.03165931186868,301.59999999999997L165.14664488636365,301.59999999999997L165.54927926136364,301.59999999999997L165.6833058554293,301.59999999999997L165.98093732638887,301.59999999999997L166.568805697601,301.59999999999997L166.68249722222222,301.59999999999997L166.95535688131312,301.59999999999997L167.07514892676767,301.59999999999997L167.21971278409092,301.59999999999997L167.37499876893938,301.59999999999997L167.51863830492422,301.59999999999997L167.67207564709597,301.59999999999997L168.15993244949493,301.59999999999997L168.61821096906564,301.59999999999997L168.77275749684344,301.59999999999997L168.92268241792928,301.59999999999997L169.052087405303,301.59999999999997L169.27484884785352,301.59999999999997L169.54863282828282,301.59999999999997L169.82999624368685,301.59999999999997L170.0374139520202,301.59999999999997L170.30343363320705,301.59999999999997L170.41379760101006,301.59999999999997L170.5300772253788,301.59999999999997L170.6700194760101,301.59999999999997L170.76023323863635,301.59999999999997L171.06341063762625,301.59999999999997L171.18116917613634,301.59999999999997L171.41835003156564,301.59999999999997L171.64832118055554,301.59999999999997L171.88125015782828,301.59999999999997L172.46634556502522,301.59999999999997L172.68762809343434,301.59999999999997L172.82997357954545,301.59999999999997L173.11410995896466,301.59999999999997L173.2004415719697,301.59999999999997L173.35313945707068,301.59999999999997L173.50269464962122,301.59999999999997L173.60954619633839,301.59999999999997L173.75096736111112,301.59999999999997L173.88591827651516,301.59999999999997L174.04194371843434,301.59999999999997L174.16617250631313,301.59999999999997L174.30740880681816,301.59999999999997L176.6418747790404,301.59999999999997L177.41386796085857,301.59999999999997L178.81957585227272,301.59999999999997L179.82764070391414,301.59999999999997L180.42345823863639,301.59999999999997L180.52624277146464,301.59999999999997L180.66304232954545,301.59999999999997L180.8632503314394,301.59999999999997L181.06013077651514,301.59999999999997L181.1934179135101,301.59999999999997L181.33372989267676,301.59999999999997L181.4611013731061,301.59999999999997L181.5897669034091,301.59999999999997L181.6836779513889,301.59999999999997L182.09037934027776,301.59999999999997L182.74775667613636,301.59999999999997L184.1468094539141,301.59999999999997L185.56305460858584,301.59999999999997L187.12183011363635,301.59999999999997L188.0237828756313,301.59999999999997L189.43817938762623,301.59999999999997L190.23808707386362,301.59999999999997L191.00102190656565,301.59999999999997L191.6913050820707,301.59999999999997L192.50359867424243,301.59999999999997L193.32199278724744,301.59999999999997L194.10748106060606,301.59999999999997L194.807562042298,301.59999999999997L195.47787987689395,301.59999999999997L197.02685757575756,301.59999999999997L198.75478388573234,301.59999999999997L199.76599142992424,301.59999999999997L201.2596947127525,301.59999999999997L202.6896198232323,301.59999999999997L203.3518036300505,301.59999999999997L204.21419543876263,301.59999999999997L205.02205228851008,301.59999999999997L205.81160757575756,301.59999999999997L206.7274251578283,301.59999999999997L207.48518379103533,301.59999999999997L208.44000773358584,301.59999999999997L209.2208744002525,301.59999999999997L210.0261431502525,301.59999999999997L210.78556556186865,301.59999999999997L211.89659981060603,301.59999999999997L212.82276979166664,301.59999999999997L214.28134886363637,301.59999999999997L215.8874496212121,301.59999999999997L216.66295522411616,301.59999999999997L216.93341164772724,301.59999999999997L217.80116452020198,301.59999999999997L218.99002662563126,301.59999999999997L220.5976062973485,301.59999999999997L221.41581554608584,301.59999999999997L223.07127506313125,301.59999999999997L223.8456714804293,301.59999999999997L224.8069656723485,301.59999999999997L225.6806342013889,301.59999999999997L226.72696595643936,301.59999999999997L228.5251406881313,301.59999999999997L229.47682193813128,301.59999999999997L230.373783364899,301.59999999999997L231.11102206439392,301.59999999999997L235.7561065183081,301.59999999999997L236.58152547348487,301.59999999999997L238.1883656881313,301.59999999999997L238.9135882102273,301.59999999999997L239.5951827651515,301.59999999999997L241.36951000631313,301.59999999999997L242.20472676767676,301.59999999999997L243.76424172979796,301.59999999999997L245.29898488005048,301.59999999999997L249.46896816603538,301.59999999999997L250.33487239583332,301.59999999999997L252.6809848169192,301.59999999999997L253.54799823232324,301.59999999999997L254.32128546401512,301.59999999999997L255.09531215277778,301.59999999999997L255.92387380050505,301.59999999999997L256.80068502209593,301.59999999999997L258.2054685921717,301.59999999999997L259.6614595643939,301.59999999999997L261.08565388257574,301.59999999999997L262.2146199652778,301.59999999999997L264.6895827809343,301.59999999999997L265.6031819917929,301.59999999999997L267.7061979008838,301.59999999999997L268.5977982638889,301.59999999999997L269.5210104166666,301.59999999999997L270.24345997474745,301.59999999999997L271.95068148674244,301.59999999999997L272.84542454229796,301.59999999999997L275.02515912247475,301.59999999999997L275.6705202809343,301.59999999999997L277.14961928661614,301.59999999999997L279.69815808080807,301.59999999999997L280.2778924242424,301.59999999999997L281.81171125315655,301.59999999999997L282.7051602588384,301.59999999999997L283.5461078125,301.59999999999997L284.3580316761363,301.59999999999997L285.0729017992424,301.59999999999997L286.4177893465909,301.59999999999997L287.1884884785353,301.59999999999997L287.8608398200758,301.59999999999997L288.5095285353535,301.59999999999997L289.2131219381313,301.59999999999997L289.8536766256313,301.59999999999997L290.5376744160354,301.59999999999997L291.92545047348483,301.59999999999997L293.29658874684344,301.59999999999997L293.9582179608586,301.59999999999997L296.73266089015146,301.59999999999997L298.0146945864899,301.59999999999997L302.91914360795454,301.59999999999997L307.37030544507576,301.59999999999997L308.6957822443182,301.59999999999997L311.5364065814394,301.59999999999997L313.29354144570704,301.59999999999997L316.51628022411614,301.59999999999997L318.0308731691919,301.59999999999997L319.39665037878785,301.59999999999997L323.71637372159086,301.59999999999997L325.2455709438131,301.59999999999997L328.1871311710858,301.59999999999997L334.28617309027777,301.59999999999997L338.60848453282824,301.59999999999997L340.16078978851004,301.59999999999997L341.5766652146464,301.59999999999997L342.96776882891413,301.59999999999997L344.42875113636364,301.59999999999997L345.8815994160354,301.59999999999997L347.32076773989894,301.59999999999997L350.1904157670454,301.59999999999997L351.6077701073232,301.59999999999997L353.1286484374999,301.59999999999997L354.5341714646464,301.59999999999997L355.91344376578286,301.59999999999997L357.41380216224746,301.59999999999997L358.92673132891406,301.59999999999997L363.27455404040404,301.59999999999997L364.6545657986111,301.59999999999997L366.20206458333325,301.59999999999997L375.25745587121213,301.59999999999997L378.3554112689394,301.59999999999997L379.7903277146465,301.59999999999997L381.15462601010097,301.59999999999997L382.9047360321969,301.59999999999997L384.516382717803,301.59999999999997L386.27277812499995,301.59999999999997L387.9284225063131,301.59999999999997L389.5661350536616,301.59999999999997L391.06039292929285,301.59999999999997L392.7367421085858,301.59999999999997L393.79287166982317,50.26666666666665L395.3433282828282,301.59999999999997L396.97068843118694,301.59999999999997L398.6087707070707,301.59999999999997L400.1865872316918,301.59999999999997L401.866818560606,301.59999999999997L403.46478529040394,301.59999999999997L406.6021167771465,301.59999999999997L407.9823133996212,301.59999999999997L409.5203841066919,301.59999999999997L412.231233727904,301.59999999999997L414.847802572601,50.26666666666665L417.83336049558085,301.59999999999997L418.93663044507576,50.26666666666665L422.7119285195707,301.59999999999997L424.3690518150252,301.59999999999997L426.1187921085858,301.59999999999997L428.5220275883838,50.26666666666665L429.64285964330804,50.26666666666665L430.72838262310603,50.26666666666665L433.1933627683081,50.26666666666665L434.3620746685606,50.26666666666665L435.5128547348484,50.26666666666665L436.9596024936869,301.59999999999997L439.30164790088384,50.26666666666665L440.42617724116167,50.26666666666665L441.6045020833333,50.26666666666665L442.8436472695707,50.26666666666665L444.15710789141406,50.26666666666665L445.4413599589646,50.26666666666665L447.28778426452016,301.59999999999997L448.6097486426767,50.26666666666665L450.365959185606,301.59999999999997L453.65950097853533,301.59999999999997L455.21809161931816,301.59999999999997L456.43745632891415,50.26666666666665L459.74282943497474,50.26666666666665L460.86624958964643,50.26666666666665L462.0408771464646,50.26666666666665L464.4010392518939,50.26666666666665L465.54608852588376,50.26666666666665L466.6075791508839,50.26666666666665L467.76039272411606,50.26666666666665L470.0456848011363,50.26666666666665L472.3500178977272,50.26666666666665L473.53167029671715,50.26666666666665L474.7898565025252,50.26666666666665L477.08198855744945,50.26666666666665L479.81964349747466,301.59999999999997L482.25023888888893,301.59999999999997L483.3585001736111,50.26666666666665L484.6222323074495,50.26666666666665L488.0516493371211,50.26666666666665L492.49800470328273,50.26666666666665L493.5029268623738,50.26666666666665L494.4749431818182,50.26666666666665L495.5223841224747,50.26666666666665L496.53913759469697,50.26666666666665L498.5942736584595,50.26666666666665L499.67295666035346,50.26666666666665L502.8879311395201,50.26666666666665L504.0749446022727,50.26666666666665L506.1054937184343,50.26666666666665L508.23013874684335,50.26666666666665L509.2927385574494,50.26666666666665L512.664477935606,50.26666666666665L514.8381119949495,50.26666666666665L515.9574651357324,50.26666666666665L517.0897587752524,50.26666666666665L519.1345424400253,50.26666666666665L520.3380088226008,50.26666666666665L521.4950742739899,50.26666666666665L522.6266284564393,50.26666666666665L523.6114004103534,50.26666666666665L524.7538615845959,50.26666666666665L525.7641448074495,50.26666666666665L527.3545321022726,301.59999999999997L528.4150984059343,50.26666666666665L532.7660638099749,50.26666666666665L533.9368092171717,50.26666666666665L536.5809228377525,301.59999999999997L538.6203454387627,50.26666666666665L539.7478326073233,50.26666666666665L540.8318766729798,50.26666666666665L541.794834643308,50.26666666666665L542.8801727588384,50.26666666666665L543.9808546085858,50.26666666666665L545.0192372001262,50.26666666666665L546.1605891887626,50.26666666666665L547.3498210227272,50.26666666666665L549.6269790719698,50.26666666666665L550.6568579071969,50.26666666666665L551.7558759785353,50.26666666666665L552.8765231691918,50.26666666666665L553.9668526199495,50.26666666666665L556.0839182133838,50.26666666666665L557.05260697601,50.26666666666665L558.0654782986111,50.26666666666665L560.2283902304292,50.26666666666665L561.3290720801767,50.26666666666665L562.3334396464645,50.26666666666665L563.414710748106,50.26666666666665L564.547189251894,50.26666666666665L565.6896504261363,50.26666666666665L566.8154738162879,50.26666666666665L567.9255837436868,50.26666666666665L568.9952083964646,50.26666666666665L571.9887154829546,50.26666666666665L574.1599463068181,50.26666666666665L576.392182339015,50.26666666666665L579.7241758996212,50.26666666666665L580.8157994002526,50.26666666666665L581.9042802083334,50.26666666666665L582.9617038194444,50.26666666666665L584.0302192866161,50.26666666666665L585.075256991793,50.26666666666665L586.1086482481061,50.26666666666665L587.2010112058081,50.26666666666665L588.2793244791666,50.26666666666665L589.3387815972222,50.26666666666665L590.3405610637625,50.26666666666665L591.5061302714647,50.26666666666665L592.5007000315657,50.26666666666665L595.6225029198232,50.26666666666665L596.710429135101,50.26666666666665L597.7179393939394,50.26666666666665L599.7941499842171,50.26666666666665L600.8582287089646,50.26666666666665L603.0507189236112,50.26666666666665L604.2480847853535,50.26666666666665L605.4238215277777,50.26666666666665L606.5191423137626,50.26666666666665L607.5957918087121,50.26666666666665L608.7221697916667,50.26666666666665L612.0103505208333,50.26666666666665L613.0975372790405,50.26666666666665L614.1344409564393,50.26666666666665L618.3380695391413,50.26666666666665L619.3553776041667,50.26666666666665L621.5689423453283,50.26666666666665L622.6971689709595,50.26666666666665L623.8499825441919,50.26666666666665L624.757481234217,50.26666666666665L626.9987756155302,50.26666666666665L629.1894171875,50.26666666666665L630.2058009311868,50.26666666666665L631.2617456281565,50.26666666666665L633.533172885101,50.26666666666665L634.7137160984847,50.26666666666665L635.6899842960859,50.26666666666665L636.655345501894,50.26666666666665L637.8593664772727,50.26666666666665L638.8064261205807,50.26666666666665L639.8335319917929,50.26666666666665L640.9238614425506,50.26666666666665L644.1604650410353,50.26666666666665L645.0709215593433,50.26666666666665L647.2040703440656,50.26666666666665L649.3928632733586,50.26666666666665L650.537542818813,50.26666666666665L651.5977393939394,50.26666666666665L652.6814137310606,50.26666666666665L654.8920206439393,50.26666666666665L655.9072952020202,50.26666666666665L656.9739620265152,50.26666666666665L658.0058743686868,50.26666666666665L658.9414724273989,50.26666666666665L660.0552796401514,50.26666666666665L661.2413687815656,50.26666666666665L662.2742054450757,50.26666666666665L665.5337322127526,50.26666666666665L666.5636110479797,50.26666666666665L668.9688800347221,50.26666666666665L670.2629299084596,50.26666666666665L671.5375690340909,50.26666666666665L672.8978003156566,50.26666666666665L675.241879229798,50.26666666666665L677.6514000946969,50.26666666666665L678.7123361268939,50.26666666666665L679.7329717487374,50.26666666666665L680.7598927556818,50.26666666666665L681.8816491319444,50.26666666666665L682.8653119002524,50.26666666666665L683.8870567077021,50.26666666666665L684.9354219696969,50.26666666666665L687.0280854797978,50.26666666666665L688.1962427872475,50.26666666666665L689.2420199494949,50.26666666666665L691.4498538983586,50.26666666666665L693.4898310921717,50.26666666666665L694.4797792455807,50.26666666666665L695.6895310132576,50.26666666666665L696.8946611742424,50.26666666666665L697.988318181818,50.26666666666665L699.0492542140151,50.26666666666665L701.164286300505,50.26666666666665L702.1557133680556,50.26666666666665L703.2203466856059,50.26666666666665L705.5000928345959,50.26666666666665L706.6312772885101,50.26666666666665L708.8492787720959,50.26666666666665L712.0814456281565,50.26666666666665L714.1482281407827,50.26666666666665L715.3180492266413,50.26666666666665L716.4229829545453,50.26666666666665L719.7061723484848,50.26666666666665L720.8223827967172,50.26666666666665L723.213047506313,50.26666666666665L724.3303671401513,50.26666666666665L726.4208122790404,50.26666666666665L727.5237124999999,50.26666666666665L728.6199576073232,50.26666666666665L730.7776933396465,50.26666666666665L731.7842792771464,50.26666666666665L735.0391844381313,50.26666666666665L736.0637022095958,50.26666666666665L738.2428821969696,50.26666666666665L739.2367125000001,50.26666666666665L740.3250084438131,50.26666666666665L741.4218081439394,50.26666666666665L743.4085444286615,50.26666666666665L744.5145873421717,50.26666666666665L745.6328312973485,50.26666666666665L746.7678979008838,50.26666666666665L748.9581697443182,50.26666666666665L751.1636004577019,50.26666666666665L753.2350045770202,50.26666666666665L754.322376199495,50.26666666666665L755.3995802872474,50.26666666666665L756.5209669349748,50.26666666666665L757.7479110795455,50.26666666666665L762.2848499368687,50.26666666666665L763.2089864109847,50.26666666666665L764.3178022885099,50.26666666666665L765.4924298453282,50.26666666666665L768.6983459753786,50.26666666666665L769.7023438131312,50.26666666666665L770.8244699179293,50.26666666666665L771.8622979166665,50.26666666666665L772.8309866792928,50.26666666666665L774.8247478061868,50.26666666666665L775.9245053345959,50.26666666666665L776.9723160037879,50.26666666666665L778.1499013888888,50.26666666666665L780.3568110164141,50.26666666666665L781.3689428819443,50.26666666666665L782.3823687973484,50.26666666666665L783.5490471906566,50.26666666666665L784.6669214172979,50.26666666666665L785.7363612058081,50.26666666666665L786.7911967171717,50.26666666666665L789.0101225220959,50.26666666666665L790.0287246369948,50.26666666666665L791.0007409564392,50.26666666666665L793.2083900410352,50.26666666666665L794.3928154040403,50.26666666666665L796.621908743687,50.26666666666665L797.7501353693182,50.26666666666665L801.8384086489897,50.26666666666665L802.9577617897726,50.26666666666665L805.1149429292929,50.26666666666665L806.1394607007575,50.26666666666665L807.2534527777776,50.26666666666665L808.3742848327018,50.26666666666665L809.4653537405302,50.26666666666665L810.5022574179292,50.26666666666665L811.5269600536616,50.26666666666665L813.6473532039141,50.26666666666665L814.806637026515,50.26666666666665L815.8137775568181,50.26666666666665L816.7617615214645,50.26666666666665L818.8161581281564,50.26666666666665L819.9216464488635,50.26666666666665L821.0103121212121,50.26666666666665L821.9893532828283,50.26666666666665L823.067481691919,50.26666666666665L824.1249053030301,50.26666666666665L830.2951199652776,50.26666666666665L831.5629191130049,50.26666666666665L832.6462237215908,50.26666666666665L833.7225034880049,50.26666666666665L834.8111691603534,50.26666666666665L839.1212795612374,50.26666666666665L842.2227473800505,50.26666666666665L843.3469069917928,50.26666666666665L845.3903966066919,50.26666666666665L848.3955501420453,50.26666666666665L849.4121187499999,50.26666666666665L851.5393518781564,50.26666666666665L852.5832803977272,50.26666666666665L853.6946843749998,50.26666666666665L854.734361016414,50.26666666666665L856.9279604166666,50.26666666666665L857.988711584596,50.26666666666665L859.0017677714645,50.26666666666665L860.2272330018939,50.26666666666665L861.3504682922978,50.26666666666665L862.3677763573231,50.26666666666665L863.3893363005049,50.26666666666665L864.446205318813,50.26666666666665L865.5489206755051,50.26666666666665L867.5530342013889,50.26666666666665L868.6361539457071,50.26666666666665L870.9314286931817,50.26666666666665L873.0338900094695,50.26666666666665L874.0944563131312,50.26666666666665L876.3032145833332,50.26666666666665L878.5594829703282,50.26666666666665L879.5937985479798,50.26666666666665L880.609257970328,50.26666666666665L881.7539375157828,50.26666666666665L885.0979472537879,50.26666666666665L886.1904950757574,50.26666666666665L887.3052266098483,50.26666666666665L888.3754058554292,50.26666666666665L890.4662207228534,50.26666666666665L891.4951752367424,50.26666666666665L893.5571512784089,50.26666666666665L894.6582028566918,50.26666666666665L899.6042463383837,50.26666666666665L900.5832874999998,50.26666666666665L902.5528314078282,50.26666666666665L903.5396368686868,50.26666666666665L905.574992455808,50.26666666666665L906.5863848642676,50.26666666666665L907.624212863005,50.26666666666665L908.7956977272726,50.26666666666665L910.8933525726009,50.26666666666665L911.9459697127525,50.26666666666665L912.8834164141413,50.26666666666665L914.9542659406563,50.26666666666665L915.887275899621,50.26666666666665L916.8592922190655,50.26666666666665L917.9048845170454,50.26666666666665L920.0138160827017,50.26666666666665L921.1599745422978,50.26666666666665L923.3064335542928,50.26666666666665L926.7125576862373,50.26666666666665L928.9216856849747,50.26666666666665L929.9844703598483,50.26666666666665L931.0716571180554,50.26666666666665L932.0553198863635,50.26666666666665L934.1054646148988,50.26666666666665L936.1127208333331,50.26666666666665L937.2455690656565,50.26666666666665L938.3020683554292,50.26666666666665L939.4079264046717,50.26666666666665L940.4566613952019,50.26666666666665L941.530722790404,50.26666666666665L942.5350903566917,50.26666666666665L943.6073031092171,50.26666666666665L944.6467948863635,50.26666666666665L947.8357035037877,50.26666666666665L948.7966279671716,50.26666666666665L949.8747563762624,50.26666666666665L955.637160464015,50.26666666666665L956.7820248737372,50.26666666666665L958.0071203756312,50.26666666666665L959.376410006313,50.26666666666665L961.8853878472221,50.26666666666665L963.0860812657827,50.26666666666665L964.0370230587121,50.26666666666665L965.241413762626,50.26666666666665L966.3308188920454,50.26666666666665L972.0645690183079,50.26666666666665L973.1595200757575,50.26666666666665L974.2914439867423,50.26666666666665L975.4156035984847,50.26666666666665L976.6151878314392,50.26666666666665L977.663737957702,50.26666666666665L979.8048359059343,50.26666666666665L980.9177187973482,50.26666666666665L982.050936758207,50.26666666666665L983.1499548295453,50.26666666666665L984.3242126578282,50.26666666666665L985.3868124684343,50.26666666666665L986.3353510258836,50.26666666666665L987.4441669034089,50.26666666666665L988.6500365214646,50.26666666666665L990.6857618371212,50.26666666666665L991.7973506786615,50.26666666666665L992.8893439078281,50.26666666666665L994.0391996527777,50.26666666666665L995.1485701231061,50.26666666666665L996.2052542771463,50.26666666666665L997.3368084595958,50.26666666666665L999.5437180871211,50.26666666666665L1001.9382649463383,50.26666666666665L1004.0566245896464,50.26666666666665L1005.2674855429291,50.26666666666665L1006.4214083017675,50.26666666666665L1008.6331244002524,50.26666666666665L1010.7945574179292,50.26666666666665L1011.9213051294191,50.26666666666665L1014.1705486742422,50.26666666666665L1016.579699810606,50.26666666666665L1017.7210517992423,50.26666666666665L1018.7819878314393,50.26666666666665L1020.9822423453281,50.26666666666665L1024.24454207702,50.26666666666665L1025.3097299873737,50.26666666666665L1028.5406027935605,50.26666666666665L1030.6890953124998,50.26666666666665L1033.8805920296716,50.26666666666665L1037.2680448705808,50.26666666666665L1038.4114303661615,50.26666666666665L1039.5769995738635,50.26666666666665L1040.8072712752526,50.26666666666665L1041.85859436553,50.26666666666665L1043.0879417455806,50.26666666666665L1044.1107957386362,50.26666666666665L1045.1806052556817,50.26666666666665L1046.2548515151514,50.26666666666665L1047.3244761679293,50.26666666666665L1049.454482260101,50.26666666666665L1050.5616343592171,50.26666666666665L1051.616839599116,50.26666666666665L1054.971201736111,50.26666666666665L1056.0264069760099,50.26666666666665L1058.279162941919,50.26666666666665L1059.5081405934343,50.26666666666665L1060.6591055239899,50.26666666666665L1061.7978694128785,50.26666666666665L1063.8502325126262,50.26666666666665L1067.2075524779038,50.26666666666665L1068.3355942392675,50.26666666666665L1069.3763800662878,50.26666666666665L1070.5088585700757,50.26666666666665L1071.5757102588382,50.26666666666665L1072.6429316761364,50.26666666666665L1073.6835326388887,50.26666666666665L1074.5917707859849,50.26666666666665L1075.797270675505,50.26666666666665L1077.0238450915404,50.26666666666665L1078.2114131470958,50.26666666666665L1079.337421401515,50.26666666666665L1080.280598895202,50.26666666666665L1081.3395014204543,50.26666666666665L1083.3646894728536,50.26666666666665L1084.4792361426767,50.26666666666665L1085.6115297821968,50.26666666666665L1086.7545455492423,50.26666666666665L1088.9403806502526,50.26666666666665L1090.1061347222221,50.26666666666665L1094.3302832386362,50.26666666666665L1097.4165921874999,50.26666666666665L1100.8145822916665,50.26666666666665L1101.9797817708331,50.26666666666665L1102.9501343118686,50.26666666666665L1104.1541552872475,50.26666666666665L1106.238499905303,50.26666666666665L1107.2888986742423,50.26666666666665L1108.304727825126,50.26666666666665L1109.386368655303,50.26666666666665L1110.4556235795453,50.26666666666665L1112.526103377525,50.26666666666665L1113.5413779356059,50.26666666666665L1114.6877212594695,50.26666666666665L1115.7233308869947,50.26666666666665L1116.7472940656564,50.26666666666665L1117.8527823863635,50.26666666666665L1118.9371961805555,50.26666666666665L1120.0009051767677,50.26666666666665L1121.1137880681817,50.26666666666665L1122.1211134627524,50.26666666666665L1123.1837132733583,50.26666666666665L1125.3542046401515,50.26666666666665L1126.4829858585858,50.26666666666665L1128.5906233743685,50.26666666666665L1129.7059095012626,50.26666666666665L1130.866117645202,50.26666666666665L1133.0933623421718,50.26666666666665L1134.2132700757575,50.26666666666665L1135.3220859532828,50.26666666666665L1136.5590127683079,50.26666666666665L1137.7837385416667,50.26666666666665L1138.98738978851,50.26666666666665L1143.240746859217,50.26666666666665L1145.4955363320707,50.26666666666665L1148.9155252840908,50.26666666666665L1149.8309731376262,50.26666666666665L1151.9757683712119,50.26666666666665L1153.0315282039141,50.26666666666665L1154.223348137626,50.26666666666665L1156.226907070707,50.26666666666665L1157.2593740056818,50.26666666666665L1158.192014236111,50.26666666666665L1159.3067457702018,50.26666666666665L1160.3761855587122,50.26666666666665L1161.4578263888886,50.26666666666665L1162.6405879734848,50.26666666666665L1163.929091919192,50.26666666666665L1165.0857876420455,50.26666666666665L1166.1864694917929,50.26666666666665L1168.392269933712,50.26666666666665L1169.5637547979798,50.26666666666665L1170.6270940656566,50.26666666666665L1172.825315072601,50.26666666666665L1174.0056734217171,50.26666666666665L1175.0782559027775,50.26666666666665L1176.267118008207,50.26666666666665L1177.331936190025,50.26666666666665L1178.4886319128786,50.26666666666665L1180.6798280776513,50.26666666666665L1181.8197011521463,50.26666666666665L1182.8303541035352,50.26666666666665L1183.8940630997472,50.26666666666665L1184.9226478851008,50.26666666666665L1185.94919916351,50.26666666666665L1187.0888873737372,50.26666666666665L1189.422983617424,50.26666666666665L1190.4905747632574,50.26666666666665L1191.5537291666667,50.26666666666665L1192.642394839015,50.26666666666665L1193.645653219697,50.26666666666665L1194.7106562657827,50.26666666666665L1195.781759832702,50.26666666666665L1196.7247524621212,50.26666666666665L1200.0144121054293,50.26666666666665L1201.1402354955806,50.26666666666665L1203.4142508522727,50.26666666666665L1207.6740781723483,50.26666666666665L1208.709502935606,50.26666666666665L1210.9774177714646,50.26666666666665L1212.0986195549242,50.26666666666665L1213.2072505681817,50.26666666666665L1215.514726357323,50.26666666666665L1217.6456567708333,50.26666666666665L1218.8629879734847,50.26666666666665L1219.9300245265151,50.26666666666665L1222.1933177556816,50.26666666666665L1223.3912382102271,50.26666666666665L1224.4227808238634,50.26666666666665L1225.665253566919,50.26666666666665L1227.6370158459595,50.26666666666665L1228.7240177398987,50.26666666666665L1229.8069526199495,50.26666666666665L1230.8926604640149,50.26666666666665L1231.9820655934343,50.26666666666665L1234.2015459911615,50.26666666666665L1235.4534468118686,50.26666666666665L1236.5988658143938,50.26666666666665L1238.6878320391413,50.26666666666665L1239.7360124368686,50.26666666666665L1242.8914606218432,50.26666666666665L1245.008895943813,50.26666666666665L1246.0790751893937,50.26666666666665L1248.2915307449493,50.26666666666665L1249.3215944444444,50.26666666666665L1250.3984288036615,50.26666666666665L1251.5436629419191,50.26666666666665L1252.5121668402776,50.26666666666665L1253.6324443023989,50.26666666666665L1254.8479268623737,50.26666666666665L1258.2823352272728,50.26666666666665L1259.432190972222,50.26666666666665L1260.5461830492422,50.26666666666665L1261.65241082702,50.26666666666665L1262.7360851641413,50.26666666666665L1263.7964666035352,50.26666666666665L1264.9252478219696,50.26666666666665L1267.2295809185605,50.26666666666665L1268.3041969065655,50.26666666666665L1269.4849249842168,50.26666666666665L1270.6479060921715,50.26666666666665L1271.745075520833,50.26666666666665L1273.0071438762625,50.26666666666665L1276.1790449810605,50.26666666666665L1278.4188604482322,50.26666666666665L1279.47813270202,50.26666666666665L1280.7265211016413,50.26666666666665L1281.855672048611,50.26666666666665L1282.9215994160354,50.26666666666665L1283.982165719697,50.26666666666665L1284.9445690972223,50.26666666666665L1285.9628014835857,50.26666666666665L1287.060155776515,50.26666666666665L1288.0502887941918,50.26666666666665L1291.3251592960858,50.26666666666665L1292.3073431502523,50.26666666666665L1295.437649794823,50.26666666666665L1296.554784564394,50.26666666666665L1298.7676098484847,50.26666666666665L1299.8823413825755,50.26666666666665L1300.9246061237372,50.26666666666665L1303.55503978851,50.26666666666665L1304.5568192550504,50.26666666666665L1305.6323595643937,50.26666666666665L1307.6984026199495,50.26666666666665L1308.834948137626,50.26666666666665L1309.889044191919,50.26666666666665L1312.021823248106,50.26666666666665L1313.1674271148988,50.26666666666665L1314.2891834911616,50.26666666666665L1316.4676240214646,50.26666666666665L1317.5176530618687,50.26666666666665L1318.6867346906565,50.26666666666665L1320.9783121527776,50.26666666666665L1321.9140950757574,50.26666666666665L1324.1073247474744,50.26666666666665L1325.327059185606,50.26666666666665L1326.4547312184343,50.26666666666665L1327.6955401830805,50.26666666666665L1328.699722885101,50.26666666666665L1329.767868623737,50.26666666666665L1331.7590416508838,50.26666666666665L1332.7892902146464,50.26666666666665L1336.1586263573233,50.26666666666665L1338.4263563289142,50.26666666666665L1341.8886791982322,50.26666666666665L1346.2579461647729,50.26666666666665L1351.84251082702,50.26666666666665L1355.5233432607322,50.26666666666665L1356.754909011995,50.26666666666665L1357.8424654987373,50.26666666666665L1358.942407891414,50.26666666666665L1359.9953947601011,50.26666666666665L1361.0896063604796,50.26666666666665L1363.2521485637626,50.26666666666665L1364.579843734217,50.26666666666665L1366.761796685606,50.26666666666665L1367.8277240530301,50.26666666666665L1370.188810479798,50.26666666666665L1371.2294114425504,50.26666666666665L1372.4367599747472,50.26666666666665L1373.41450708649,50.26666666666665L1375.579082796717,50.26666666666665L1376.922491429924,50.26666666666665L1378.1856689709593,50.26666666666665L1379.4325784564394,50.26666666666665L1380.645842645202,50.26666666666665L1381.6618566603534,50.26666666666665L1382.6708458333333,50.26666666666665L1383.7977784090908,50.26666666666665L1384.850025820707,50.26666666666665L1385.9948902304293,50.26666666666665L1386.9696795138889,50.26666666666665L1389.2021004103535,50.26666666666665L1390.442909375,50.26666666666665L1392.741511679293,50.26666666666665L1396.1731470801767,50.26666666666665L1398.4734131628788,50.26666666666665L1403.0068395991161,50.26666666666665L1404.1663082859848,50.26666666666665L1405.306551089015,50.26666666666665L1406.4443906565655,50.26666666666665L1407.4143734690658,50.26666666666665" style="fill: none;" fill="none"></path></g></g></g></g></g><g><g opacity="0.013244"><span fill="rgb(0, 0, 0)" stroke="none" stroke-width="1px">Alt + Scroll to Zoom</span></g></g></g><g transform="translate(48, 377)" clip-path="url(#clip_1)"><clipPath id="clip_1"><rect width="1464" height="23"></rect></clipPath><g><g><line x1="0" y1="0" x2="0" y2="5" style="visibility: inherit;" fill="rgb(0, 0, 0)" stroke="rgb(204, 204, 204)" stroke-width="1px"></line><line x1="133.10227272727272" y1="0" x2="133.10227272727272" y2="5" style="visibility: inherit;" fill="rgb(0, 0, 0)" stroke="rgb(204, 204, 204)" stroke-width="1px"></line><line x1="266.20454545454544" y1="0" x2="266.20454545454544" y2="5" style="visibility: inherit;" fill="rgb(0, 0, 0)" stroke="rgb(204, 204, 204)" stroke-width="1px"></line><line x1="399.30681818181824" y1="0" x2="399.30681818181824" y2="5" style="visibility: inherit;" fill="rgb(0, 0, 0)" stroke="rgb(204, 204, 204)" stroke-width="1px"></line><line x1="532.4090909090909" y1="0" x2="532.4090909090909" y2="5" style="visibility: inherit;" fill="rgb(0, 0, 0)" stroke="rgb(204, 204, 204)" stroke-width="1px"></line><line x1="665.5113636363636" y1="0" x2="665.5113636363636" y2="5" style="visibility: inherit;" fill="rgb(0, 0, 0)" stroke="rgb(204, 204, 204)" stroke-width="1px"></line><line x1="798.6136363636363" y1="0" x2="798.6136363636363" y2="5" style="visibility: inherit;" fill="rgb(0, 0, 0)" stroke="rgb(204, 204, 204)" stroke-width="1px"></line><line x1="931.7159090909089" y1="0" x2="931.7159090909089" y2="5" style="visibility: inherit;" fill="rgb(0, 0, 0)" stroke="rgb(204, 204, 204)" stroke-width="1px"></line><line x1="1064.8181818181818" y1="0" x2="1064.8181818181818" y2="5" style="visibility: inherit;" fill="rgb(0, 0, 0)" stroke="rgb(204, 204, 204)" stroke-width="1px"></line><line x1="1197.9204545454545" y1="0" x2="1197.9204545454545" y2="5" style="visibility: inherit;" fill="rgb(0, 0, 0)" stroke="rgb(204, 204, 204)" stroke-width="1px"></line><line x1="1331.0227272727273" y1="0" x2="1331.0227272727273" y2="5" style="visibility: inherit;" fill="rgb(0, 0, 0)" stroke="rgb(204, 204, 204)" stroke-width="1px"></line><line x1="1464.125" y1="0" x2="1464.125" y2="5" style="visibility: inherit;" fill="rgb(0, 0, 0)" stroke="rgb(204, 204, 204)" stroke-width="1px"></line></g><g transform="translate(0, 8)"><text x="0" y="0" dx="0em" dy="0.95em" style="text-anchor: middle; visibility: hidden; font-family: &quot;Helvetica Neue&quot;, sans-serif; font-size: 12px; font-weight: 200;" fill="rgb(50, 49, 63)" stroke="none" stroke-width="1px">-0.2</text><text x="133.10227272727272" y="0" dx="0em" dy="0.95em" style="text-anchor: middle; visibility: inherit; font-family: &quot;Helvetica Neue&quot;, sans-serif; font-size: 12px; font-weight: 200;" fill="rgb(50, 49, 63)" stroke="none" stroke-width="1px">0</text><text x="266.20454545454544" y="0" dx="0em" dy="0.95em" style="text-anchor: middle; visibility: inherit; font-family: &quot;Helvetica Neue&quot;, sans-serif; font-size: 12px; font-weight: 200;" fill="rgb(50, 49, 63)" stroke="none" stroke-width="1px">0.2</text><text x="399.30681818181824" y="0" dx="0em" dy="0.95em" style="text-anchor: middle; visibility: inherit; font-family: &quot;Helvetica Neue&quot;, sans-serif; font-size: 12px; font-weight: 200;" fill="rgb(50, 49, 63)" stroke="none" stroke-width="1px">0.4</text><text x="532.4090909090909" y="0" dx="0em" dy="0.95em" style="text-anchor: middle; visibility: inherit; font-family: &quot;Helvetica Neue&quot;, sans-serif; font-size: 12px; font-weight: 200;" fill="rgb(50, 49, 63)" stroke="none" stroke-width="1px">0.6</text><text x="665.5113636363636" y="0" dx="0em" dy="0.95em" style="text-anchor: middle; visibility: inherit; font-family: &quot;Helvetica Neue&quot;, sans-serif; font-size: 12px; font-weight: 200;" fill="rgb(50, 49, 63)" stroke="none" stroke-width="1px">0.8</text><text x="798.6136363636363" y="0" dx="0em" dy="0.95em" style="text-anchor: middle; visibility: inherit; font-family: &quot;Helvetica Neue&quot;, sans-serif; font-size: 12px; font-weight: 200;" fill="rgb(50, 49, 63)" stroke="none" stroke-width="1px">1</text><text x="931.7159090909089" y="0" dx="0em" dy="0.95em" style="text-anchor: middle; visibility: inherit; font-family: &quot;Helvetica Neue&quot;, sans-serif; font-size: 12px; font-weight: 200;" fill="rgb(50, 49, 63)" stroke="none" stroke-width="1px">1.2</text><text x="1064.8181818181818" y="0" dx="0em" dy="0.95em" style="text-anchor: middle; visibility: inherit; font-family: &quot;Helvetica Neue&quot;, sans-serif; font-size: 12px; font-weight: 200;" fill="rgb(50, 49, 63)" stroke="none" stroke-width="1px">1.4</text><text x="1197.9204545454545" y="0" dx="0em" dy="0.95em" style="text-anchor: middle; visibility: inherit; font-family: &quot;Helvetica Neue&quot;, sans-serif; font-size: 12px; font-weight: 200;" fill="rgb(50, 49, 63)" stroke="none" stroke-width="1px">1.6</text><text x="1331.0227272727273" y="0" dx="0em" dy="0.95em" style="text-anchor: middle; visibility: inherit; font-family: &quot;Helvetica Neue&quot;, sans-serif; font-size: 12px; font-weight: 200;" fill="rgb(50, 49, 63)" stroke="none" stroke-width="1px">1.8</text><text x="1464.125" y="0" dx="0em" dy="0.95em" style="text-anchor: middle; visibility: hidden; font-family: &quot;Helvetica Neue&quot;, sans-serif; font-size: 12px; font-weight: 200;" fill="rgb(50, 49, 63)" stroke="none" stroke-width="1px">2</text></g><line x1="0" y1="0" x2="1464.125" y2="0" fill="rgb(0, 0, 0)" stroke="rgb(204, 204, 204)" stroke-width="1px"></line></g></g></g></g></svg>